<svg id="Layer_1" data-name="Layer 1" xmlns="http://www.w3.org/2000/svg" viewBox="0 0 566.93 566.93"><defs><style>.cls-1{fill:#eae0c7;}.cls-2{fill:#14afbb;}</style></defs><rect class="cls-1" width="566.93" height="566.93"/><path class="cls-2" d="M92.69,214.85a21.82,21.82,0,1,0,21.82,21.82A21.85,21.85,0,0,0,92.69,214.85Zm0,35.07a13.25,13.25,0,1,1,13.25-13.25A13.26,13.26,0,0,1,92.69,249.92Z"/><path class="cls-2" d="M80.38,264.46c3.38,18.8,9.16,33.13,12.31,33.13s8.93-14.33,12.31-33.13h8.72c-2.59,15.49-8.77,41.7-21,41.7s-18.44-26.21-21-41.7Z"/><path class="cls-2" d="M80.38,352.08C83.76,333.28,89.54,319,92.69,319s8.93,14.32,12.31,33.12h8.72c-2.59-15.49-8.77-41.7-21-41.7s-18.44,26.21-21,41.7Z"/><path class="cls-2" d="M419.31,275.37a21.8,21.8,0,1,1-21.79,21.8,21.83,21.83,0,0,1,21.79-21.8m0-14.11a35.91,35.91,0,1,0,35.9,35.91,35.9,35.9,0,0,0-35.9-35.91Z"/><path class="cls-2" d="M496.06,277.93V263.82H476.18V246.47H462.07v62.88a22.47,22.47,0,0,0,22.45,22.45h7.65V317.69h-7.65a8.35,8.35,0,0,1-8.34-8.34V277.93Z"/><rect class="cls-2" x="219.74" y="264.46" width="14.11" height="66.69"/><path class="cls-2" d="M368.74,264.46C363.19,295.4,353.68,319,348.49,319s-14.7-23.57-20.25-54.51H313.89c4.25,25.5,14.43,68.62,34.6,68.62S378.84,290,383.1,264.46Z"/><path class="cls-2" d="M296.52,264.46C291,295.4,281.45,319,276.27,319S261.57,295.4,256,264.46H241.67c4.25,25.5,14.43,68.62,34.6,68.62s30.35-43.12,34.6-68.62Z"/><circle class="cls-2" cx="226.79" cy="247.1" r="8.98"/><path class="cls-2" d="M149.12,246.47h31.95c19,0,30.78,10.77,30.78,27.09v.23c0,18.17-14.58,27.66-32.41,27.66H163.36V331H149.12Zm30.79,42.14c10.76,0,17.48-6,17.48-14.47v-.23c0-9.5-6.83-14.47-17.48-14.47H163.36v29.17Z"/></svg>