<svg xmlns="http://www.w3.org/2000/svg" width="30" height="30" fill="none" viewBox="0 0 30 30">
    <path fill="#231E1E" fill-rule="evenodd" d="M11.03 6.104c0-1.03.823-1.854 1.854-1.854h4.209c1.03 0 1.854.823 1.854 1.854v1.068h3.756c1.684 0 3.024 1.36 3.047 3.025v6.147c0 .536-.362.979-.867 1.115l-.185.05v4.446c0 1.663-1.361 3.024-3.023 3.024H8.325c-1.662 0-3.023-1.361-3.023-3.024V17.51l-.185-.05c-.505-.136-.867-.58-.867-1.115v-6.149c0-1.662 1.361-3.023 3.023-3.023h3.757V6.104zm1.854-.484c-.127 0-.252.044-.346.138-.094.094-.138.22-.138.346v1.068h5.176V6.104c0-.127-.043-.252-.137-.346-.094-.094-.22-.138-.346-.138h-4.209zm-5.61 2.923c-.91 0-1.654.743-1.654 1.652v5.932h6.906v-1.73h4.924v1.73h6.906v-5.931c0-.91-.743-1.653-1.653-1.653H7.273zm8.806 7.224h-2.183v2.183h2.183v-2.183zm-3.577 1.777H6.649v4.411c0 .91.743 1.653 1.653 1.653h13.373c.91 0 1.653-.743 1.653-1.653v-.25h-.047v-4.161h-5.854v1.777h-4.924v-1.777z" clip-rule="evenodd"/>
</svg>
