<svg xmlns="http://www.w3.org/2000/svg" width="24" height="24" fill="none" viewBox="0 0 24 24">
    <path fill="#231E1E" d="M12 14.069l5.034-5.035c.313-.312.82-.312 1.132 0 .312.313.312.82 0 1.132l-5.6 5.6c-.313.312-.82.312-1.132 0l-5.6-5.6c-.312-.313-.312-.82 0-1.132.313-.312.82-.312 1.132 0L12 14.07z"/>
    <mask id="p4bfmw7fpa" width="14" height="8" x="5" y="8" maskUnits="userSpaceOnUse">
        <path fill="#fff" d="M12 14.069l5.034-5.035c.313-.312.82-.312 1.132 0 .312.313.312.82 0 1.132l-5.6 5.6c-.313.312-.82.312-1.132 0l-5.6-5.6c-.312-.313-.312-.82 0-1.132.313-.312.82-.312 1.132 0L12 14.07z"/>
    </mask>
    <g mask="url(#p4bfmw7fpa)">
        <path fill="#231E1E" d="M0 0H24V24H0z"/>
    </g>
</svg>
