<svg width="24" height="24" fill="none" xmlns="http://www.w3.org/2000/svg">
    <path d="m9.931 12 5.035 5.034a.8.8 0 0 1-1.132 1.132l-5.6-5.6a.8.8 0 0 1 0-1.132l5.6-5.6a.8.8 0 0 1 1.132 1.132L9.93 12z" fill="#14B1BD"/>
    <mask id="a" mask-type="alpha" maskUnits="userSpaceOnUse" x="8" y="5" width="8" height="14">
        <path d="m9.931 12 5.035 5.034a.8.8 0 0 1-1.132 1.132l-5.6-5.6a.8.8 0 0 1 0-1.132l5.6-5.6a.8.8 0 0 1 1.132 1.132L9.93 12z" fill="#fff"/>
    </mask>
    <g mask="url(#a)">
        <path fill="#14B1BD" d="M0 0h24v24H0z"/>
    </g>
</svg>
