<svg width="30" height="30" viewBox="0 0 30 30" fill="none" xmlns="http://www.w3.org/2000/svg">
    <rect width="30" height="30" rx="2" fill="#E3EAF5"/>
    <path d="M13.8284 13.5858C13.0474 14.3668 13.0474 15.6332 13.8284 16.4142L18.7071 21.2929C19.0976 21.6834 19.0976 22.3166 18.7071 22.7071C18.3166 23.0976 17.6834 23.0976 17.2929 22.7071L10.2929 15.7071C9.90237 15.3166 9.90237 14.6834 10.2929 14.2929L17.2929 7.29289C17.6834 6.90237 18.3166 6.90237 18.7071 7.29289C19.0976 7.68342 19.0976 8.31658 18.7071 8.70711L13.8284 13.5858Z" fill="white"/>
    <mask id="mask0" mask-type="alpha" maskUnits="userSpaceOnUse" x="10" y="7" width="9" height="16">
    <path d="M13.8284 13.5858C13.0474 14.3668 13.0474 15.6332 13.8284 16.4142L18.7071 21.2929C19.0976 21.6834 19.0976 22.3166 18.7071 22.7071C18.3166 23.0976 17.6834 23.0976 17.2929 22.7071L10.2929 15.7071C9.90237 15.3166 9.90237 14.6834 10.2929 14.2929L17.2929 7.29289C17.6834 6.90237 18.3166 6.90237 18.7071 7.29289C19.0976 7.68342 19.0976 8.31658 18.7071 8.70711L13.8284 13.5858Z" fill="white"/>
    </mask>
    <g mask="url(#mask0)">
    <rect width="30" height="30" fill="#14B1BD"/>
    </g>
</svg>