<svg xmlns="http://www.w3.org/2000/svg" width="30" height="30" fill="none" viewBox="0 0 30 30">
    <path fill="#96A5B8" fill-rule="evenodd" d="M14.996 4.003c2.694 0 5.387.002 8.08-.002.458-.001.905.041 1.318.248.993.496 1.539 1.3 1.592 2.413.027.547.006 1.096.006 1.644 0 4.887.001 9.774-.001 14.66 0 .258 0 .52-.048.77-.256 1.328-1.346 2.25-2.701 2.253-5.5.008-11 .01-16.5-.001-1.542-.002-2.732-1.193-2.735-2.735-.01-5.5-.009-11 0-16.499.002-1.578 1.172-2.74 2.764-2.747 2.742-.013 5.483-.004 8.225-.004zm.035 1.37H7.095c-.161 0-.323-.006-.483.008-.65.06-1.169.576-1.232 1.228-.016.16-.009.322-.009.483v15.776c0 .129-.003.258.002.387.032.721.501 1.247 1.213 1.35.159.024.322.018.483.018l15.873.001c.08 0 .161.002.241 0 .864-.035 1.411-.581 1.44-1.44.005-.113.002-.225.002-.338V7.119c0-.146.006-.292-.006-.436-.062-.754-.608-1.277-1.361-1.308-.145-.006-.29-.002-.436-.002h-7.79z" clip-rule="evenodd"/>
</svg>
