<svg xmlns="http://www.w3.org/2000/svg" width="36" height="36" fill="none" viewBox="0 0 36 36">
    <path fill="#6E6B6B" fill-opacity=".5" fill-rule="evenodd" d="M17.995 4.803c3.232 0 6.465.003 9.696-.002.55-.001 1.085.05 1.582.297 1.192.596 1.846 1.562 1.91 2.896.032.657.008 1.315.008 1.974 0 5.864 0 11.728-.002 17.592 0 .308 0 .624-.058.924-.306 1.593-1.615 2.7-3.241 2.703-6.6.01-13.2.01-19.799-.001-1.852-.003-3.28-1.432-3.283-3.282-.012-6.6-.01-13.2 0-19.799.002-1.893 1.407-3.288 3.317-3.297 3.29-.015 6.58-.004 9.87-.005zm.043 1.644H8.514c-.194 0-.388-.007-.58.01-.78.072-1.402.691-1.478 1.473-.019.192-.01.387-.01.58l-.001 18.932c0 .154-.004.31.003.464.038.865.601 1.497 1.455 1.62.19.028.386.022.58.022H27.53c.096 0 .194.003.29 0 1.036-.04 1.693-.697 1.728-1.726.005-.136.002-.271.002-.407V8.542c0-.174.007-.35-.008-.522-.074-.905-.729-1.532-1.633-1.57-.174-.007-.348-.002-.523-.002h-9.348z" clip-rule="evenodd"/>
</svg>
