<svg xmlns="http://www.w3.org/2000/svg" width="20" height="20" fill="none" viewBox="0 0 20 20">
    <path fill="#96A5B8" fill-rule="evenodd" d="M16.39 15.87h.57c.098 0 .194.04.264.11s.11.165.11.264c0 .1-.04.195-.11.265s-.166.11-.265.11H3.041c-.1 0-.195-.04-.265-.11s-.11-.165-.11-.265c0-.099.04-.194.11-.264s.166-.11.265-.11h.576V9.856c0-.21.084-.411.232-.56.149-.148.35-.232.56-.232h2.095V4.125c0-.21.084-.411.232-.56.149-.148.35-.231.56-.232h5.414c.21 0 .411.084.56.233.148.148.232.35.232.559v4.939h2.095c.21 0 .411.084.56.232.148.149.232.35.232.56v6.014zm-.763-6.045c-.009-.008-.02-.013-.031-.013h-2.1v6.058h2.143V9.856c0-.012-.004-.023-.012-.031zm-8.363-5.73c-.009.007-.013.019-.013.03l.001 11.745h5.496V4.125c0-.011-.005-.023-.013-.03-.008-.009-.02-.013-.03-.013h-5.41c-.012 0-.023.004-.031.012zm-2.892 5.73c-.008.008-.013.019-.013.03v6.015h2.139V9.812H4.403c-.012 0-.023.005-.03.013zm7.125 3.59H8.503c-.099 0-.194-.04-.264-.11s-.11-.165-.11-.264c0-.1.04-.195.11-.265s.165-.11.264-.11h2.994c.099 0 .194.04.264.11s.11.166.11.265-.04.194-.11.264-.165.11-.264.11zm-2.994-3.333h2.994c.099 0 .194-.04.264-.11s.11-.165.11-.265c0-.099-.04-.194-.11-.264s-.165-.11-.264-.11H8.503c-.099 0-.194.04-.264.11s-.11.165-.11.264c0 .1.04.195.11.265s.165.11.264.11zm2.994-3.334H8.503c-.099 0-.194-.04-.264-.11s-.11-.165-.11-.264c0-.1.04-.194.11-.264S8.404 6 8.503 6h2.994c.099 0 .194.04.264.11s.11.165.11.264c0 .1-.04.195-.11.265s-.165.11-.264.11z" clip-rule="evenodd"/>
</svg>
