<svg xmlns="http://www.w3.org/2000/svg" width="20" height="20" fill="none" viewBox="0 0 20 20">
    <path fill="#96A5B8" fill-rule="evenodd" d="M13.557 2.667h1.019v1.809h2.634v12.857H2.668V4.476H5.3v-1.81h1.02v1.81h3.108v-1.81h1.019v1.81h3.109v-1.81zm2.635 13.648V5.495h-1.616v1.23h-1.019v-1.23h-3.109v1.23H9.429v-1.23H6.32v1.23H5.301v-1.23H3.686v10.82h12.506zM8.814 9.043h2.231v1.019h-2.23v-1.02zm-1.37 2.371h-2.23v1.019h2.23v-1.019zm0 2.371h-2.23v1.019h2.23v-1.019zm3.601 0h-2.23v1.019h2.23v-1.019zm-2.23-2.371h2.23v1.019h-2.23v-1.019zm5.849-2.371h-2.231v1.019h2.23v-1.02zm-2.231 4.742h2.23v1.019h-2.23v-1.019zm2.23-2.371h-2.23v1.019h2.23v-1.019z" clip-rule="evenodd"/>
</svg>
