<svg xmlns="http://www.w3.org/2000/svg" width="93" height="88" fill="none" viewBox="0 0 93 88">
    <path fill="#74B570" d="M57.983 59.483c-2.264 2.268-5.28 3.516-8.484 3.516-3.204 0-6.22-1.248-8.484-3.516l-17-17C21.748 40.22 20.5 37.203 20.5 34c0-3.204 1.248-6.22 3.515-8.483 2.264-2.269 5.28-3.517 8.485-3.517 3.203 0 6.22 1.248 8.483 3.517l8.516 8.511L73.007 10.52C65.327 3.972 55.383 0 44.499 0 20.2 0 .5 19.7.5 43.999c0 24.3 19.7 44 44 44 24.299 0 43.998-19.7 43.998-44 0-4.548-.691-8.932-1.971-13.06L57.983 59.483z" opacity=".2"/>
    <path fill="#74B570" d="M49.5 54.999c-1.024 0-2.048-.392-2.828-1.172l-17-17c-1.564-1.564-1.564-4.092 0-5.656s4.092-1.564 5.656 0L49.5 45.343 85.672 9.172c1.563-1.564 4.091-1.564 5.655 0s1.564 4.091 0 5.656l-39 38.999c-.779.78-1.803 1.172-2.827 1.172z"/>
</svg>
