<svg xmlns="http://www.w3.org/2000/svg" width="21" height="20" fill="none" viewBox="0 0 21 20">
    <path fill="#96A5B8" fill-rule="evenodd" d="M10.615 2.667c-.386 0-.693.319-.693.705v.448C8.002 4.104 6.5 5.545 6.5 7.32c0 .807.31 1.502.915 2.074.578.549 1.42.981 2.507 1.305v4.385c-1.194-.247-2.035-1.1-2.035-2.069 0-.385-.307-.704-.694-.704-.386 0-.693.319-.693.704 0 1.774 1.502 3.216 3.422 3.499v.449c0 .386.307.705.693.705.386 0 .694-.32.694-.705v-.45c1.92-.282 3.422-1.724 3.422-3.498 0-.807-.311-1.502-.915-2.075-.579-.548-1.421-.98-2.508-1.304V5.25c1.195.247 2.036 1.1 2.036 2.069 0 .386.307.705.693.705.387 0 .694-.32.694-.705 0-1.774-1.502-3.216-3.422-3.499v-.448c0-.386-.307-.705-.694-.705zM7.887 7.319c0-.968.84-1.822 2.035-2.069V9.23c-1.409-.488-2.035-1.143-2.035-1.91zm3.422 7.764v-3.979c1.016.35 1.519.748 1.77 1.084.264.354.265.659.265.826 0 .969-.841 1.822-2.035 2.069z" clip-rule="evenodd"/>
</svg>
