<svg xmlns="http://www.w3.org/2000/svg" width="34" height="34" fill="none" viewBox="0 0 34 34">
    <rect width="33" height="33" x=".5" y=".5" fill="#F3F3F3" rx="3.5"/>
    <path fill="#14B1BD" d="M17.576 15.541H16c-1.227 0-2.2-1.065-2.06-2.293.115-1.088 1.11-1.852 2.2-1.852h1.852c.695 0 1.273.486 1.412 1.134.047.186.209.302.394.302h2.084c.232 0 .44-.209.417-.44-.208-2.108-1.922-3.752-4.053-3.891V6.417c0-.232-.185-.417-.416-.417h-2.085c-.231 0-.416.185-.416.417v2.107c-2.594.348-4.563 2.687-4.308 5.442.255 2.594 2.594 4.493 5.188 4.493h1.366c1.227 0 2.2 1.065 2.06 2.293-.115 1.088-1.11 1.852-2.2 1.852h-1.852c-.694 0-1.273-.486-1.412-1.134-.047-.186-.209-.302-.394-.302h-2.084c-.232 0-.44.209-.417.44.208 2.108 1.922 3.752 4.053 3.89v2.085c0 .232.185.417.416.417h2.085c.231 0 .416-.185.416-.417v-2.13c2.224-.37 4.076-2.108 4.308-4.4.278-2.988-2.061-5.512-4.98-5.512z"/>
    <rect width="33" height="33" x=".5" y=".5" stroke="#DBE2EA" rx="3.5"/>
</svg>
