<svg xmlns="http://www.w3.org/2000/svg" width="24" height="24" fill="none" viewBox="0 0 24 24">
    <path fill="#6E6B6B" fill-rule="evenodd" d="M4.886 2.8c-.498 0-.936.31-1.15.728l-.003.005-.003.005c-.22.464-.155.973.156 1.368l4.409 5.812c.097.138.143.265.143.39v7.095c0 .412.228.832.645.996l4.397 1.917c.172.085.337.084.405.084h.009c.222 0 .428-.076.588-.177l.018-.012.016-.013c.266-.209.44-.53.44-.894v-8.973c0-.165.048-.285.11-.35l.016-.017 4.454-5.866.004-.005c.275-.386.343-.906.15-1.344l-.002-.005-.002-.006c-.219-.459-.644-.738-1.156-.738H4.886zM4.86 4.047l.001-.002 13.682-.003s.009.006.02.024c.004.012.004.021.003.028 0 .01-.004.023-.014.04L14.128 9.96c-.255.329-.392.74-.392 1.171v8.72l-4.034-1.758V11.13c0-.406-.135-.841-.392-1.172L4.874 4.118l-.005-.007c-.015-.02-.017-.03-.017-.03 0-.002-.002-.012.007-.034z" clip-rule="evenodd"/>
</svg>
