<svg xmlns="http://www.w3.org/2000/svg" width="20" height="20" fill="none" viewBox="0 0 20 20">
    <path fill="#96A5B8" fill-rule="evenodd" d="M5.334 3.333c-.369 0-.667.299-.667.667v12.667c0 .368.298.666.667.666.368 0 .666-.298.666-.666V12h10c.567 0 .875-.662.51-1.096l-2.357-3.469 2.316-2.961c.423-.42.127-1.14-.469-1.14H5.334zM6 4.667v6h8.568l-1.83-2.844c-.224-.266-.206-.658.04-.903l1.602-2.253H6z" clip-rule="evenodd"/>
    <mask id="2fdm4ngyxa" width="13" height="15" x="4" y="3" maskUnits="userSpaceOnUse">
        <path fill="#fff" fill-rule="evenodd" d="M5.334 3.333c-.369 0-.667.299-.667.667v12.667c0 .368.298.666.667.666.368 0 .666-.298.666-.666V12h10c.567 0 .875-.662.51-1.096l-2.357-3.469 2.316-2.961c.423-.42.127-1.14-.469-1.14H5.334zM6 4.667v6h8.568l-1.83-2.844c-.224-.266-.206-.658.04-.903l1.602-2.253H6z" clip-rule="evenodd"/>
    </mask>
    <g mask="url(#2fdm4ngyxa)">
        <path fill="#96A5B8" d="M0 0H20V20H0z"/>
    </g>
</svg>
