<svg xmlns="http://www.w3.org/2000/svg" width="108" height="210" fill="none" viewBox="0 0 108 210">
    <path fill="#37474F" d="M53.924 53.575c.06-.138.09-.287.09-.437V1.112C54.014.498 53.516 0 52.902 0c-.614 0-1.111.498-1.111 1.112v52.026c0 1.21 1.658 1.55 2.133.438z"/>
    <path fill="#263238" d="M54.104 53.574c-.059-.137-.09-.285-.09-.435V1.11c0-.613.497-1.109 1.11-1.109.611 0 1.107.496 1.107 1.108V53.14c0 1.206-1.654 1.545-2.127.435z"/>
    <path fill="#546E7A" d="M54.015 100.058H28.83c-1.105 0-2.016-.901-1.842-1.992.52-3.266 2.02-4.756-.301-6.934-2.747-2.578 2.448-5.162 0-7.465-2.448-2.297 2.142-5.067 0-7.466-1.884-2.105.272-2.724.272-5.397 0-2.636 1.79-5.408 7.392-6.892.16-.042.328-.063.493-.063h17.178c1.104 0 2 .895 2 2v34.202c0 .004-.003.007-.007.007z"/>
    <path fill="#455A64" d="M81.346 85.69c-2.448 2.297 2.748 4.887 0 7.465-2.285 2.144-.867 2.222-.326 4.913.218 1.082-.712 1.99-1.816 1.99H56.012c-1.105 0-2-.895-2-2V65.856c0-1.105.895-2 2-2h17.184c.166 0 .333.02.493.063 5.601 1.507 7.392 5.066 7.392 7.702 0 2.673 2.047 4.938.272 6.604-2.366 2.214 2.441 5.168-.007 7.465z"/>
    <path fill="#263238" d="M54.012 51.5c0-1.105.921-1.811 1.662-.992 1.789 1.98 3.57 6.216 5.321 6.616l5.236 1.206c1.781.408 3.386 1.334 4.576 2.642 1.008 1.102.226 2.877-1.268 2.877H56.012c-1.105 0-2-.895-2-2V51.5z"/>
    <path fill="#37474F" d="M34.583 63.856l.001-.003 2.63-2.876c1.197-1.308 2.795-2.233 4.577-2.641l5.235-1.206c1.75-.405 3.532-4.639 5.321-6.617.741-.819 1.663-.112 1.663.992v10.356c0 1.105-.896 2-2 2H34.588c-.003 0-.005-.002-.005-.005z"/>
    <path fill="#FDE16D" d="M16.48 195.433C-.415 179.578-3.536 155.702 7.112 136.88c2.414-4.275 5.535-8.288 9.37-11.887 6.175-5.794 9.9-15.274 10.318-22.881.062-1.124.96-2.053 2.087-2.053h23.129c1.105 0 2 .895 2 2v105.943c0 1.104-.895 2.002-1.998 1.965-12.912-.442-25.682-5.281-35.536-14.534z"/>
    <path fill="#FDD735" d="M91.553 195.433c-2.87 2.693-5.99 4.996-9.282 6.942-8.024 4.74-17.1 7.269-26.253 7.59-1.104.039-2-.861-2-1.965V102.059c0-1.105.896-2 2-2h23.13c1.126 0 2.025.929 2.086 2.053.419 7.607 4.143 17.087 10.319 22.881 20.725 19.454 20.725 50.993 0 70.44z"/>
    <path fill="#fff" d="M79.738 89.799l-51.113-2.016c-.931-.039-1.727.65-1.767 1.525-.041.874.693 1.62 1.625 1.658l51.112 2.017c.932.038 1.728-.651 1.768-1.525.041-.874-.693-1.62-1.625-1.66zM79.738 82.486L28.625 80.47c-.931-.038-1.727.65-1.767 1.525-.041.874.693 1.62 1.625 1.659l51.112 2.016c.932.038 1.728-.65 1.768-1.525.041-.874-.693-1.62-1.625-1.659zM79.738 74.906L28.625 72.89c-.931-.038-1.727.651-1.767 1.525-.041.874.693 1.62 1.625 1.659l51.112 2.016c.932.038 1.728-.65 1.768-1.525.041-.88-.693-1.627-1.625-1.659z" opacity=".42"/>
</svg>
