<svg width="131" height="130" viewBox="0 0 131 130" fill="none" xmlns="http://www.w3.org/2000/svg">
<mask id="mask0" mask-type="alpha" maskUnits="userSpaceOnUse" x="0" y="0" width="131" height="130">
<circle cx="65.5" cy="65" r="65" fill="#C4C4C4"/>
</mask>
<g mask="url(#mask0)">
<path opacity="0.85" d="M144.156 91.4615H-91.3516V136.83H144.156V91.4615Z" fill="#D0D9EB"/>
<path d="M144.156 -4.47462H-91.3516V91.4616H144.156V-4.47462Z" fill="url(#paint0_linear)"/>
<path d="M73.8764 17.1919L70.457 19.3549L73.8764 21.6582L77.2937 19.3549L73.8764 17.1919Z" fill="url(#paint1_linear)"/>
<path d="M75.9717 17.934H71.6172V22.2031H75.9717V17.934Z" fill="url(#paint2_linear)"/>
<path d="M73.8768 22.079L70.1465 19.5663V23.8618C70.1465 24.1485 70.3843 24.3823 70.6771 24.3823H77.0766C77.3694 24.3823 77.6072 24.1505 77.6072 23.8618V19.5663L73.8768 22.079Z" fill="url(#paint3_linear)"/>
<path d="M40.4553 18.7593L39.7031 19.1536L40.4817 19.5948L40.9229 20.3734L41.3172 19.6212L42.0714 19.2248L41.2929 18.7837L40.8497 18.0051L40.4553 18.7593Z" fill="#FF2D55"/>
<path d="M41.7588 21.4082L41.2852 21.6582L41.7751 21.9347L42.0536 22.4246L42.3016 21.951L42.7753 21.7029L42.2874 21.4244L42.0089 20.9345L41.7588 21.4082Z" fill="#FF2D55"/>
<path d="M38.9541 20.7088L38.2324 21.0869L38.9785 21.5118L39.4013 22.2578L39.7815 21.5362L40.5032 21.156L39.7571 20.7332L39.3322 19.9871L38.9541 20.7088Z" fill="#FF2D55"/>
<path d="M30.6408 25.8765L39.671 23.7826L32.8892 30.9465L32.1188 28.5477L30.3989 28.0863L37.0384 24.8539L31.1125 27.0312L30.5839 26.6815L29.6895 26.092L30.6408 25.8765Z" fill="white"/>
<path fill-rule="evenodd" clip-rule="evenodd" d="M27.7656 29.3773L27.9344 29.6802C28.1031 29.5846 28.2718 29.4931 28.4426 29.4017L28.2779 29.0947C28.1072 29.1882 27.9364 29.2817 27.7656 29.3773Z" fill="white"/>
<path fill-rule="evenodd" clip-rule="evenodd" d="M29.2119 28.6148L28.6895 28.8791L28.8501 29.1881L29.3664 28.9259L29.2119 28.6148Z" fill="white"/>
<path fill-rule="evenodd" clip-rule="evenodd" d="M30.1576 28.1655L29.625 28.4136L29.7754 28.7266L30.2999 28.4827L30.1576 28.1655Z" fill="white"/>
<path fill-rule="evenodd" clip-rule="evenodd" d="M25.7727 31.0136L25.5755 30.7269L25.0957 31.0664L25.301 31.349L25.7727 31.0136Z" fill="white"/>
<path fill-rule="evenodd" clip-rule="evenodd" d="M26.4588 30.1516C26.2942 30.2573 26.1275 30.3589 25.9648 30.4687L26.1559 30.7594C26.3145 30.6517 26.4812 30.55 26.6418 30.4464L26.4588 30.1516Z" fill="white"/>
<path fill-rule="evenodd" clip-rule="evenodd" d="M26.8535 29.9099L27.0344 30.2067C27.1991 30.105 27.3658 30.0074 27.5325 29.9119L27.3577 29.611C27.1869 29.7086 27.0182 29.8062 26.8535 29.9099Z" fill="white"/>
<path fill-rule="evenodd" clip-rule="evenodd" d="M23.1272 32.7415C22.993 32.8878 22.8528 33.0261 22.7227 33.1765L22.9849 33.4062C23.1089 33.2619 23.2451 33.1257 23.3752 32.9854L23.1272 32.7415Z" fill="white"/>
<path fill-rule="evenodd" clip-rule="evenodd" d="M23.4648 32.4144L23.7047 32.6665C23.8409 32.5303 23.9873 32.4062 24.1316 32.2802L23.904 32.018C23.7535 32.146 23.6031 32.2741 23.4648 32.4144Z" fill="white"/>
<path fill-rule="evenodd" clip-rule="evenodd" d="M24.9327 31.6276L24.7212 31.3511C24.5627 31.467 24.4122 31.593 24.2598 31.717L24.4793 31.9854C24.6298 31.8654 24.7761 31.7414 24.9327 31.6276Z" fill="white"/>
<path fill-rule="evenodd" clip-rule="evenodd" d="M21.7194 35.539L21.386 35.4394C21.3311 35.6365 21.2904 35.8398 21.2559 36.0411L21.6015 36.0858C21.634 35.9029 21.6706 35.7199 21.7194 35.539Z" fill="white"/>
<path fill-rule="evenodd" clip-rule="evenodd" d="M22.122 34.6077L21.8191 34.437C21.7195 34.6118 21.6402 34.7988 21.5508 34.9798L21.872 35.1139C21.9553 34.9472 22.0285 34.7724 22.122 34.6077Z" fill="white"/>
<path fill-rule="evenodd" clip-rule="evenodd" d="M22.6906 33.76L22.4161 33.5466L22.0645 34.0304L22.3531 34.2235L22.6906 33.76Z" fill="white"/>
<path fill-rule="evenodd" clip-rule="evenodd" d="M21.9258 38.6105C22.0478 38.7732 22.1758 38.9277 22.2998 39.0883L22.5621 38.8606C22.4462 38.7122 22.3242 38.5658 22.2104 38.4154L21.9258 38.6105Z" fill="white"/>
<path fill-rule="evenodd" clip-rule="evenodd" d="M21.7532 37.5168L21.4238 37.6307L21.5438 37.9153C21.5844 38.0088 21.619 38.1084 21.6759 38.1917L21.9829 38.0271C21.928 37.9498 21.8995 37.8604 21.8629 37.773L21.7532 37.5168Z" fill="white"/>
<path fill-rule="evenodd" clip-rule="evenodd" d="M21.5986 36.8155L21.5742 36.537L21.2266 36.541L21.253 36.8521C21.2632 36.9558 21.2672 37.0594 21.2977 37.159L21.6392 37.092C21.6108 37.0025 21.6067 36.909 21.5986 36.8155Z" fill="white"/>
<path fill-rule="evenodd" clip-rule="evenodd" d="M24.3398 40.7208C24.5106 40.8204 24.6773 40.9261 24.8562 41.0094L25.0188 40.7025C24.844 40.6211 24.6834 40.5175 24.5167 40.4219L24.3398 40.7208Z" fill="white"/>
<path fill-rule="evenodd" clip-rule="evenodd" d="M23.4453 40.1372L23.9352 40.4767L24.1243 40.184L23.6527 39.8587L23.4453 40.1372Z" fill="white"/>
<path fill-rule="evenodd" clip-rule="evenodd" d="M22.8807 39.19L22.6367 39.438L22.8481 39.6494L23.0799 39.8405L23.3035 39.5742L23.0819 39.3933L22.8807 39.19Z" fill="white"/>
<path fill-rule="evenodd" clip-rule="evenodd" d="M27.2363 42.0137L27.7954 42.1966L27.897 41.8653L27.3481 41.6843L27.2363 42.0137Z" fill="white"/>
<path fill-rule="evenodd" clip-rule="evenodd" d="M26.248 41.6498L26.799 41.8592L26.9169 41.5319L26.3782 41.3266L26.248 41.6498Z" fill="white"/>
<path fill-rule="evenodd" clip-rule="evenodd" d="M25.2793 41.2269C25.4541 41.3184 25.6371 41.3875 25.818 41.4688L25.9563 41.1497C25.7814 41.0704 25.6005 41.0013 25.4318 40.9118L25.2793 41.2269Z" fill="white"/>
<path fill-rule="evenodd" clip-rule="evenodd" d="M30.3564 42.4974L30.2832 42.839L30.8565 42.9548L30.9236 42.6133L30.3564 42.4974Z" fill="white"/>
<path fill-rule="evenodd" clip-rule="evenodd" d="M29.2617 42.6011C29.4508 42.6519 29.6419 42.6926 29.8309 42.7352L29.9082 42.3958C29.7191 42.3531 29.5301 42.3124 29.3451 42.2616L29.2617 42.6011Z" fill="white"/>
<path fill-rule="evenodd" clip-rule="evenodd" d="M28.25 42.3288C28.437 42.3836 28.6241 42.4406 28.8151 42.4853L28.9046 42.1499C28.7176 42.1051 28.5326 42.0482 28.3476 41.9954L28.25 42.3288Z" fill="white"/>
<path fill-rule="evenodd" clip-rule="evenodd" d="M33.4335 43.024L33.3867 43.3696L33.9661 43.4448L34.0088 43.0992L33.4335 43.024Z" fill="white"/>
<path fill-rule="evenodd" clip-rule="evenodd" d="M32.4065 42.8735L32.3516 43.217L32.9289 43.3065L32.9797 42.9609L32.4065 42.8735Z" fill="white"/>
<path fill-rule="evenodd" clip-rule="evenodd" d="M31.3833 42.7007L31.3203 43.0443L31.8977 43.1439L31.9546 42.8003L31.3833 42.7007Z" fill="white"/>
<path fill-rule="evenodd" clip-rule="evenodd" d="M36.544 43.3513L36.5176 43.6968L37.099 43.7395L37.1234 43.3919L36.544 43.3513Z" fill="white"/>
<path fill-rule="evenodd" clip-rule="evenodd" d="M35.5052 43.2599L35.4727 43.6075L36.0541 43.6583L36.0825 43.3127L35.5052 43.2599Z" fill="white"/>
<path fill-rule="evenodd" clip-rule="evenodd" d="M34.4743 43.152L34.4336 43.4976L35.015 43.5626L35.0496 43.215L34.4743 43.152Z" fill="white"/>
<path fill-rule="evenodd" clip-rule="evenodd" d="M39.6645 43.5179L39.6543 43.8655L40.2377 43.8818L40.2438 43.5342L39.6645 43.5179Z" fill="white"/>
<path fill-rule="evenodd" clip-rule="evenodd" d="M38.6217 43.4774L38.6055 43.8251L39.1889 43.8494L39.2031 43.5018L38.6217 43.4774Z" fill="white"/>
<path fill-rule="evenodd" clip-rule="evenodd" d="M37.5888 43.4224L37.5664 43.77L38.1498 43.8045L38.1681 43.4569L37.5888 43.4224Z" fill="white"/>
<path fill-rule="evenodd" clip-rule="evenodd" d="M43.3704 43.5341L42.791 43.5463L42.7971 43.8939L43.3806 43.8817L43.3704 43.5341Z" fill="white"/>
<path fill-rule="evenodd" clip-rule="evenodd" d="M41.75 43.5525V43.9001L42.3334 43.8981L42.3314 43.5504L41.75 43.5525Z" fill="white"/>
<path fill-rule="evenodd" clip-rule="evenodd" d="M40.7131 43.5423L40.707 43.8899L41.2905 43.898L41.2925 43.5504L40.7131 43.5423Z" fill="white"/>
<path d="M83.0059 31.9102H40.748V91.4233H83.0059V31.9102Z" fill="url(#paint4_linear)"/>
<path d="M53.984 36.8731L53.7035 36.308L53.425 36.8731L52.7988 36.9646L53.2522 37.4057L53.1444 38.0278L53.7035 37.7351L54.2645 38.0278L54.1568 37.4057L54.6101 36.9646L53.984 36.8731Z" fill="url(#paint5_linear)"/>
<path d="M56.0778 36.8723L55.7972 36.3072L55.5187 36.8723L54.8926 36.9638L55.3459 37.405L55.2382 38.027L55.7972 37.7343L56.3563 38.027L56.2506 37.405L56.7019 36.9638L56.0778 36.8723Z" fill="url(#paint6_linear)"/>
<path d="M58.1735 36.8723L57.8929 36.3072L57.6144 36.8723L56.9883 36.9638L57.4416 37.405L57.3339 38.027L57.8929 37.7343L58.452 38.027L58.3463 37.405L58.7976 36.9638L58.1735 36.8723Z" fill="url(#paint7_linear)"/>
<path d="M60.2652 36.8723L59.9867 36.3072L59.7061 36.8723L59.082 36.9638L59.5333 37.405L59.4276 38.027L59.9867 37.7343L60.5457 38.027L60.438 37.405L60.8913 36.9638L60.2652 36.8723Z" fill="url(#paint8_linear)"/>
<path d="M62.989 36.9638L62.3628 36.8723L62.0843 36.3072L61.8038 36.8723L61.1797 36.9638L61.631 37.405L61.5253 38.027L62.0843 37.7343L62.6434 38.027L62.5356 37.405L62.989 36.9638Z" fill="url(#paint9_linear)"/>
<g opacity="0.2">
<path opacity="0.2" d="M56.8423 40.5907H52.8557C52.8232 40.5907 52.7988 40.7736 52.7988 41.0013V41.1456C52.7988 41.3713 52.8253 41.5563 52.8557 41.5563H56.8423C56.8748 41.5563 56.8992 41.3733 56.8992 41.1456V41.0013C56.8992 40.7757 56.8748 40.5907 56.8423 40.5907Z" fill="white"/>
<path opacity="0.2" d="M56.8423 42.7962H52.8557C52.8232 42.7962 52.7988 42.9791 52.7988 43.2068V43.3512C52.7988 43.5768 52.8253 43.7618 52.8557 43.7618H56.8423C56.8748 43.7618 56.8992 43.5788 56.8992 43.3512V43.2068C56.8992 42.9791 56.8748 42.7962 56.8423 42.7962Z" fill="white"/>
<path opacity="0.2" d="M55.23 45H52.8597C52.8271 45 52.8027 45.183 52.8027 45.4107V45.555C52.8027 45.7807 52.8292 45.9657 52.8597 45.9657H55.23C55.2625 45.9657 55.2869 45.7827 55.2869 45.555V45.4107C55.2869 45.183 55.2605 45 55.23 45Z" fill="white"/>
</g>
<g opacity="0.2">
<path opacity="0.2" d="M55.8513 51.1169H43.7312C43.6661 51.1169 43.6133 51.2999 43.6133 51.5276V51.6719C43.6133 51.8976 43.6661 52.0826 43.7312 52.0826H55.8513C55.9164 52.0826 55.9692 51.8996 55.9692 51.6719V51.5276C55.9692 51.3019 55.9164 51.1169 55.8513 51.1169Z" fill="white"/>
<path opacity="0.2" d="M55.8513 53.3224H43.7312C43.6661 53.3224 43.6133 53.5054 43.6133 53.7331V53.8774C43.6133 54.1031 43.6661 54.2881 43.7312 54.2881H55.8513C55.9164 54.2881 55.9692 54.1051 55.9692 53.8774V53.7331C55.9692 53.5054 55.9164 53.3224 55.8513 53.3224Z" fill="white"/>
<path opacity="0.2" d="M52.5072 55.5262H43.7312C43.6661 55.5262 43.6133 55.7091 43.6133 55.9368V56.0812C43.6133 56.3068 43.6661 56.4918 43.7312 56.4918H52.5072C52.5723 56.4918 52.6251 56.3088 52.6251 56.0812V55.9368C52.6271 55.7091 52.5743 55.5262 52.5072 55.5262Z" fill="white"/>
</g>
<path opacity="0.2" d="M52.6983 59.5432H43.7983C43.6966 59.5432 43.6133 59.7262 43.6133 59.9539V60.0982C43.6133 60.3239 43.6966 60.5089 43.7983 60.5089H52.6983C52.7999 60.5089 52.8833 60.3259 52.8833 60.0982V59.9539C52.8833 59.7262 52.7999 59.5432 52.6983 59.5432Z" fill="white"/>
<path opacity="0.2" d="M52.6983 61.7471H43.7983C43.6966 61.7471 43.6133 61.93 43.6133 62.1577V62.302C43.6133 62.5277 43.6966 62.7127 43.7983 62.7127H52.6983C52.7999 62.7127 52.8833 62.5297 52.8833 62.302V62.1577C52.8833 61.93 52.7999 61.7471 52.6983 61.7471Z" fill="white"/>
<path opacity="0.2" d="M52.7898 63.9507H43.7983C43.6966 63.9507 43.6133 64.1336 43.6133 64.3613V64.5057C43.6133 64.7313 43.6966 64.9163 43.7983 64.9163H52.7898C52.8914 64.9163 52.9748 64.7334 52.9748 64.5057V64.3613C52.9748 64.1357 52.8914 63.9507 52.7898 63.9507Z" fill="white"/>
<g opacity="0.2">
<path opacity="0.2" d="M52.6495 77.4164H43.7494C43.6478 77.4164 43.5645 77.5994 43.5645 77.827V77.9714C43.5645 78.197 43.6478 78.382 43.7494 78.382H52.6495C52.7511 78.382 52.8345 78.1991 52.8345 77.9714V77.827C52.8345 77.6014 52.7511 77.4164 52.6495 77.4164Z" fill="white"/>
<path opacity="0.2" d="M52.7429 84.7896H43.7514C43.6498 84.7896 43.5664 84.9726 43.5664 85.2003V85.3446C43.5664 85.5702 43.6498 85.7552 43.7514 85.7552H52.7429C52.8445 85.7552 52.9279 85.5723 52.9279 85.3446V85.2003C52.9259 84.9726 52.8445 84.7896 52.7429 84.7896Z" fill="white"/>
</g>
<path d="M51.0676 34.8294H43.5703V46.5449H51.0676V34.8294Z" fill="url(#paint10_linear)"/>
<path d="M49.6182 39.4949C49.6182 39.4888 49.6182 39.4787 49.6162 39.4685C49.6142 39.4217 49.6121 39.375 49.6121 39.3262C49.6121 39.2144 49.6121 39.1026 49.6121 38.9908V38.7936C49.5715 37.893 47.3434 37.8137 47.3434 37.8137C47.3434 37.8137 45.1154 37.893 45.0747 38.7936V38.9908C45.0747 39.1026 45.0747 39.2144 45.0747 39.3262C45.0747 39.3729 45.0727 39.4217 45.0706 39.4685C45.0686 39.4787 45.0686 39.4888 45.0686 39.4949C45.0666 39.5356 45.0645 39.5783 45.0625 39.6189L45.3918 40.9139C45.5199 41.1965 45.6703 41.4709 45.8513 41.7209C46.0586 42.0055 46.3066 42.2658 46.6116 42.4386C46.8332 42.5646 47.0893 42.6398 47.3434 42.6418C47.5975 42.6398 47.8516 42.5646 48.0753 42.4386C48.3802 42.2658 48.6282 42.0035 48.8356 41.7209C49.0185 41.4709 49.1669 41.1965 49.295 40.9139L49.6243 39.6189C49.6223 39.5783 49.6203 39.5376 49.6182 39.4949Z" fill="#F8AD9C"/>
<path d="M44.813 42.1397L46.3295 42.2393C46.1587 42.095 46.0063 41.8266 45.8863 41.6335C45.622 41.2025 45.3415 40.5825 45.309 39.8527C45.246 38.4276 45.7542 38.1166 45.6668 38.3646C45.5794 38.6106 45.8497 38.8179 46.4555 38.8179C47.0613 38.8179 47.7058 38.1105 48.3014 38.0861C48.8991 38.0617 49.2508 38.5699 49.3544 39.4868C49.4988 40.7634 48.8686 41.7331 48.336 42.2393L49.9318 42.1397C49.4154 41.601 49.5191 41.1029 49.7692 39.564C50.0822 37.6368 49.7021 35.6487 47.3419 35.793C44.9817 35.9353 44.7926 37.5352 44.7601 38.0454C44.7072 38.8627 45.1646 40.0275 45.2439 40.7675C45.2927 41.1924 45.0386 41.7453 44.813 42.1397Z" fill="#3A3F5C"/>
<path d="M48.3405 42.2393H46.332V44.6665H48.3405V42.2393Z" fill="#F8AD9C"/>
<path d="M51.0698 46.5449C51.08 45.0853 51.0922 44.0384 51.0922 44.0384C51.0922 44.0384 49.1426 43.1663 48.3844 42.9853V43.0362C48.4332 43.0666 48.4698 43.1032 48.4637 43.1398C48.4332 43.337 47.374 43.6481 47.3354 43.6582C47.2988 43.6481 46.2397 43.337 46.2071 43.1398C46.201 43.1032 46.2397 43.0666 46.2864 43.0362V42.9853C45.5282 43.1663 43.5786 44.0384 43.5786 44.0384L43.5664 46.5449H51.0698Z" fill="#3E4376"/>
<path d="M65.9834 30.418C65.9488 29.0682 64.5238 27.9806 62.7694 27.9806C61.015 27.9806 59.5899 29.0682 59.5554 30.418H55.7051V33.2092H69.8358V30.418H65.9834Z" fill="url(#paint11_linear)"/>
<path d="M100.268 38.2914H58.0098V93.2894H100.268V38.2914Z" fill="url(#paint12_linear)"/>
<path d="M68.2219 41.0846H60.7246V52.8002H68.2219V41.0846Z" fill="url(#paint13_linear)"/>
<path d="M66.9907 45.4552C66.9805 45.4329 66.9683 45.4105 66.946 45.3983C66.9277 45.3902 66.9053 45.3902 66.887 45.3942C66.8281 45.4024 66.7813 45.4247 66.7386 45.4532C66.7386 45.4512 66.7386 45.4512 66.7386 45.4491C66.7386 45.4064 66.7346 45.3658 66.7325 45.3251C66.7325 45.319 66.7325 45.3089 66.7305 45.2987C66.7285 45.2519 66.7264 45.2052 66.7264 45.1564C66.7264 45.0446 66.7264 44.9328 66.7264 44.821V44.6238C66.6858 43.7232 64.4577 43.6439 64.4577 43.6439C64.4577 43.6439 62.2297 43.7232 62.189 44.6238V44.821C62.189 44.9328 62.189 45.0446 62.189 45.1564C62.189 45.2031 62.187 45.2519 62.1849 45.2987C62.1829 45.3089 62.1829 45.319 62.1829 45.3251C62.1809 45.3658 62.1788 45.4085 62.1768 45.4491C62.1768 45.4512 62.1768 45.4512 62.1768 45.4532C62.1341 45.4247 62.0874 45.4024 62.0284 45.3942C62.0081 45.3922 61.9877 45.3902 61.9695 45.3983C61.9471 45.4085 61.9349 45.4329 61.9247 45.4552C61.8597 45.6036 61.8637 45.7744 61.9064 45.9309C61.9491 46.0875 62.0284 46.2298 62.1118 46.37C62.2073 46.5306 62.3293 46.6973 62.5061 46.7441C62.6342 47.0267 62.7846 47.3011 62.9656 47.5511C63.1729 47.8357 63.4209 48.096 63.7259 48.2688C63.9475 48.3948 64.2036 48.47 64.4577 48.472C64.7118 48.47 64.9659 48.3948 65.1896 48.2688C65.4945 48.096 65.7425 47.8337 65.9499 47.5511C66.1328 47.3011 66.2812 47.0267 66.4093 46.7441C66.5862 46.6953 66.7081 46.5286 66.8037 46.37C66.887 46.2318 66.9663 46.0875 67.009 45.9309C67.0517 45.7744 67.0558 45.6036 66.9907 45.4552Z" fill="#F8AD9C"/>
<path d="M62.434 45.8883C62.434 45.8883 62.2754 45.3984 62.4747 45.2337C62.6739 45.0711 62.5336 43.9103 62.7776 43.9692C63.0195 44.0282 64.0766 44.4307 64.6864 44.262C65.2963 44.0932 65.4691 43.8168 65.7415 43.9204C66.0139 44.0241 66.4164 44.2864 66.4551 44.7478C66.4957 45.2093 66.5892 45.2784 66.6584 45.3475C66.7275 45.4166 66.6827 45.868 66.6827 45.868C66.6827 45.868 67.2621 43.831 66.7722 43.2699C66.2823 42.7109 65.9489 42.6499 65.9489 42.6499C65.9489 42.6499 65.583 41.7086 64.5319 41.9018C63.4809 42.0949 62.4462 43.0178 62.247 43.0077C62.0477 42.9975 62.0477 42.9731 62.0477 42.9731C62.0477 42.9731 62.123 43.1967 62.1961 43.3004C62.2714 43.4041 61.7306 44.6279 62.2754 45.7399C62.3811 45.9737 62.434 45.8883 62.434 45.8883Z" fill="#3A3F5C"/>
<path d="M65.4968 48.0534H63.4883V50.4807H65.4968V48.0534Z" fill="#F8AD9C"/>
<path d="M68.224 52.8002C68.2362 51.1149 68.2484 49.8505 68.2484 49.8505C68.2484 49.8505 66.2989 48.9784 65.5406 48.7974V48.8483C65.5894 48.8788 65.626 48.9153 65.6199 48.9519C65.5894 49.1491 64.5303 49.4602 64.4916 49.4703C64.4551 49.4602 63.3959 49.1491 63.3634 48.9519C63.3573 48.9153 63.3959 48.8788 63.4427 48.8483V48.7974C62.6844 48.9784 60.7349 49.8505 60.7349 49.8505L60.7227 52.8002H68.224Z" fill="#3E4376"/>
<path d="M71.3658 44.2011L71.0568 43.575L70.7478 44.2011L70.0566 44.3028L70.5567 44.7887L70.4388 45.4778L71.0568 45.1525L71.6748 45.4778L71.5549 44.7887L72.055 44.3028L71.3658 44.2011Z" fill="url(#paint14_linear)"/>
<path d="M73.6822 44.201L73.3732 43.5749L73.0642 44.201L72.373 44.3027L72.8731 44.7885L72.7552 45.4777L73.3732 45.1524L73.9912 45.4777L73.8733 44.7885L74.3734 44.3027L73.6822 44.201Z" fill="url(#paint15_linear)"/>
<path d="M75.9967 44.201L75.6877 43.5749L75.3787 44.201L74.6875 44.3027L75.1876 44.7885L75.0697 45.4777L75.6877 45.1524L76.3057 45.4777L76.1878 44.7885L76.6879 44.3027L75.9967 44.201Z" fill="url(#paint16_linear)"/>
<path d="M78.3111 44.201L78.0021 43.5749L77.6931 44.201L77.002 44.3027L77.502 44.7885L77.3841 45.4777L78.0021 45.1524L78.6201 45.4777L78.5022 44.7885L79.0023 44.3027L78.3111 44.201Z" fill="url(#paint17_linear)"/>
<path d="M80.3205 44.0201L80.4526 44.2885L80.4994 44.382L80.601 44.3962L80.8978 44.4389L80.6844 44.6483L80.6112 44.7215L80.6295 44.8231L80.6803 45.1179L80.416 44.9796L80.3246 44.9308L80.2331 44.9796L79.9688 45.1179L80.0196 44.8231L80.0379 44.7215L79.9647 44.6483L79.7513 44.4389L80.0481 44.3962L80.1497 44.382L80.1965 44.2885L80.3205 44.0201ZM80.3205 43.5749L80.0115 44.201L79.3203 44.3006L79.8204 44.7885L79.7025 45.4777L80.3205 45.1524L80.9385 45.4777L80.8206 44.7885L81.3207 44.3006L80.6295 44.201L80.3205 43.5749Z" fill="url(#paint18_linear)"/>
<path opacity="0.2" d="M88.0031 46.9719H70.3108C70.1705 46.9719 70.0566 47.1549 70.0566 47.3825V47.5269C70.0566 47.7525 70.1705 47.9375 70.3108 47.9375H88.0031C88.1433 47.9375 88.2572 47.7546 88.2572 47.5269V47.3825C88.2572 47.1549 88.1433 46.9719 88.0031 46.9719Z" fill="white"/>
<path opacity="0.2" d="M88.0031 49.1754H70.3108C70.1705 49.1754 70.0566 49.3584 70.0566 49.5861V49.7304C70.0566 49.956 70.1705 50.141 70.3108 50.141H88.0031C88.1433 50.141 88.2572 49.9581 88.2572 49.7304V49.5861C88.2572 49.3584 88.1433 49.1754 88.0031 49.1754Z" fill="white"/>
<path opacity="0.2" d="M84.8805 51.379H70.4063C70.2132 51.379 70.0566 51.562 70.0566 51.7897V51.934C70.0566 52.1597 70.2132 52.3447 70.4063 52.3447H84.8805C85.0737 52.3447 85.2302 52.1617 85.2302 51.934V51.7897C85.2302 51.562 85.0737 51.379 84.8805 51.379Z" fill="white"/>
<path opacity="0.2" d="M91.928 57.498H61.213C61.0463 57.498 60.9121 57.681 60.9121 57.9087V58.053C60.9121 58.2787 61.0463 58.4637 61.213 58.4637H91.926C92.0927 58.4637 92.2269 58.2807 92.2269 58.053V57.9087C92.2289 57.681 92.0927 57.498 91.928 57.498Z" fill="white"/>
<path opacity="0.2" d="M91.928 59.7016H61.213C61.0463 59.7016 60.9121 59.8845 60.9121 60.1122V60.2566C60.9121 60.4822 61.0463 60.6672 61.213 60.6672H91.926C92.0927 60.6672 92.2269 60.4843 92.2269 60.2566V60.1122C92.2289 59.8845 92.0927 59.7016 91.928 59.7016Z" fill="white"/>
<path opacity="0.2" d="M83.4549 61.9052H61.213C61.0463 61.9052 60.9121 62.0881 60.9121 62.3158V62.4602C60.9121 62.6858 61.0463 62.8708 61.213 62.8708H83.4549C83.6216 62.8708 83.7558 62.6878 83.7558 62.4602V62.3158C83.7558 62.0881 83.6216 61.9052 83.4549 61.9052Z" fill="white"/>
<g opacity="0.2">
<path opacity="0.2" d="M78.1938 65.9225H61.2618C61.0686 65.9225 60.9121 66.1055 60.9121 66.3331V66.4775C60.9121 66.7031 61.0686 66.8881 61.2618 66.8881H78.1938C78.3869 66.8881 78.5434 66.7052 78.5434 66.4775V66.3331C78.5434 66.1075 78.3869 65.9225 78.1938 65.9225Z" fill="white"/>
<path opacity="0.2" d="M78.1938 68.1261H61.2618C61.0686 68.1261 60.9121 68.309 60.9121 68.5367V68.681C60.9121 68.9067 61.0686 69.0917 61.2618 69.0917H78.1938C78.3869 69.0917 78.5434 68.9087 78.5434 68.681V68.5367C78.5434 68.3111 78.3869 68.1261 78.1938 68.1261Z" fill="white"/>
<path opacity="0.2" d="M78.3686 70.3319H61.2618C61.0686 70.3319 60.9121 70.5148 60.9121 70.7425V70.8869C60.9121 71.1125 61.0686 71.2975 61.2618 71.2975H78.3706C78.5638 71.2975 78.7203 71.1145 78.7203 70.8869V70.7425C78.7183 70.5148 78.5617 70.3319 78.3686 70.3319Z" fill="white"/>
</g>
<g opacity="0.2">
<path opacity="0.2" d="M78.1039 80.6285H61.1719C60.9788 80.6285 60.8223 80.8114 60.8223 81.0391V81.1834C60.8223 81.4091 60.9788 81.5941 61.1719 81.5941H78.1039C78.2971 81.5941 78.4536 81.4111 78.4536 81.1834V81.0391C78.4536 80.8114 78.2971 80.6285 78.1039 80.6285Z" fill="white"/>
<path opacity="0.2" d="M78.2808 88.0019H61.1719C60.9788 88.0019 60.8223 88.1849 60.8223 88.4126V88.5569C60.8223 88.7825 60.9788 88.9675 61.1719 88.9675H78.2808C78.4739 88.9675 78.6304 88.7846 78.6304 88.5569V88.4126C78.6304 88.1849 78.4739 88.0019 78.2808 88.0019Z" fill="white"/>
</g>
<path d="M82.8252 37.1103C82.7906 35.7605 81.3656 34.6729 79.6112 34.6729C77.8568 34.6729 76.4317 35.7605 76.3972 37.1103H72.5469V39.9015H86.6775V37.1103H82.8252Z" fill="url(#paint19_linear)"/>
<path d="M58.0083 38.2914L53.2168 91.4232H58.0083V38.2914Z" fill="#111662"/>
<path d="M93.7313 47.4821C95.64 47.4821 97.1872 45.9348 97.1872 44.0262C97.1872 42.1175 95.64 40.5702 93.7313 40.5702C91.8227 40.5702 90.2754 42.1175 90.2754 44.0262C90.2754 45.9348 91.8227 47.4821 93.7313 47.4821Z" fill="url(#paint20_linear)"/>
<g filter="url(#filter0_d)">
<path fill-rule="evenodd" clip-rule="evenodd" d="M65.1815 79.5848C64.3389 80.2028 63.3705 80.6815 62.3017 80.9768C57.6267 82.2687 52.8 79.5639 51.521 74.9354C50.2419 70.3069 52.9949 65.5075 57.6699 64.2156C62.3449 62.9237 67.1717 65.6286 68.4507 70.257C69.1474 72.7782 68.6478 75.3501 67.2928 77.3782L73.4534 83.9523L71.2283 86.0374L65.1815 79.5848Z" fill="url(#paint21_linear)"/>
<path d="M61.6469 78.5491C65.0016 77.6221 66.9818 74.1949 66.0697 70.8942C65.1576 67.5936 61.6986 65.6694 58.3438 66.5964C54.9891 67.5235 53.0089 70.9507 53.921 74.2514C54.8331 77.552 58.2921 79.4762 61.6469 78.5491Z" fill="url(#paint22_linear)" fill-opacity="0.2"/>
</g>
<path d="M27.8865 90.3398C27.5572 90.8927 26.8457 90.5065 26.8457 90.5065C26.8457 90.5065 26.8864 90.3235 27.2055 90.171C27.4434 90.0572 27.7849 90.1507 27.9069 90.1914L28.2992 90.1812H28.3053C28.3927 90.1853 28.4781 90.1914 28.5655 90.1995C27.4474 89.8397 27.974 88.6382 27.974 88.6382C27.974 88.6382 28.3257 88.6504 28.6977 89.1017C28.9965 89.4636 28.8786 90.0775 28.844 90.2279C29.2913 90.2869 29.7202 90.3885 30.1329 90.5248C30.08 90.478 30.0252 90.4251 29.9703 90.3662C29.5434 89.9027 29.7324 89.0204 29.7324 89.0204C31.2591 89.1993 30.9542 90.5044 30.8647 90.8053C31.3628 91.0228 31.8263 91.281 32.2451 91.5514C32.1373 91.4172 32.0255 91.222 31.9442 90.9476C31.7511 90.293 32.3975 89.4798 32.3975 89.4798C33.8938 90.3357 32.8184 91.5737 32.6069 91.7953C32.8753 91.9844 33.1213 92.1734 33.3428 92.3564C33.5868 92.5576 33.8104 92.7569 34.0137 92.948C33.9385 92.765 33.8755 92.4784 33.9364 92.0657C34.0442 91.3318 35.0728 90.7585 35.0728 90.7585C36.1625 92.1633 34.6032 92.9947 34.2373 93.1655C34.9305 93.8485 35.331 94.3852 35.3371 94.3934L35.2029 94.4767C35.1989 94.4706 34.9366 94.1189 34.4711 93.6249C33.8938 95.2899 31.9056 94.4442 31.9056 94.4442C31.9056 94.4442 31.9544 93.9908 32.6923 93.5456C33.168 93.259 33.8755 93.3322 34.2556 93.4033C33.969 93.1147 33.6254 92.7914 33.2331 92.4662C33.103 92.3605 32.9647 92.2507 32.8184 92.1409C32.3061 93.7123 30.4602 92.9256 30.4602 92.9256C30.4602 92.9256 30.5049 92.5109 31.1798 92.1023C31.6047 91.8461 32.2308 91.9051 32.5846 91.9681C32.1577 91.6632 31.6718 91.3603 31.1392 91.1001C30.8241 92.5841 29.086 91.9864 29.086 91.9864C29.086 91.9864 29.0961 91.6144 29.6653 91.2098C30.0394 90.9456 30.633 90.972 30.944 91.0086C30.3687 90.7443 29.7405 90.5309 29.0758 90.417C29.1043 91.7648 27.5003 91.5026 27.5003 91.5026C27.5003 91.5026 27.4434 91.1875 27.854 90.7646C28.1732 90.4353 28.8278 90.4089 29.0209 90.4068C28.7871 90.3682 28.5493 90.3438 28.3074 90.3316L27.8865 90.3398Z" fill="url(#paint23_linear)"/>
<path d="M40.8373 98.3473C40.8373 98.3473 44.1652 91.5127 41.7562 85.164C39.3472 78.8152 33.5352 76.9592 33.5352 76.9592C33.5352 76.9592 36.987 80.594 34.9826 86.2658C33.0879 91.6286 36.7004 98.3494 36.7004 98.3494H40.8373V98.3473Z" fill="url(#paint24_linear)"/>
<path opacity="0.3" d="M39.6588 98.3473C39.6588 98.3473 40.5106 84.4443 36.9062 80.7892C40.1853 85.3977 38.8192 98.3473 38.8192 98.3473H39.6588Z" fill="white"/>
<path d="M33.943 98.3473H37.5026C37.3603 97.776 36.848 96.0542 35.5714 94.7531C34.0203 93.1735 32.0605 93.326 32.0605 93.326C32.0605 93.326 33.1258 94.3892 33.2884 96.2981C33.3555 97.0604 33.6381 97.774 33.943 98.3473Z" fill="url(#paint25_linear)"/>
<path opacity="0.3" d="M36.3459 98.3473H36.6122C36.106 97.2922 34.8131 94.8182 33.6035 94.316C34.7867 95.0377 35.8763 97.2739 36.3459 98.3473Z" fill="white"/>
<path d="M42.1738 90.789C39.5818 93.8628 39.0004 97.8696 38.9395 98.3473H43.977C45.2516 97.276 46.8149 95.546 46.8271 93.4623C46.8495 89.7441 48.7462 87.5384 48.7462 87.5384C48.7462 87.5384 44.9324 87.5161 42.1738 90.789Z" fill="url(#paint26_linear)"/>
<path opacity="0.3" d="M40.5293 98.3473H41.0518C41.6657 96.5014 43.54 91.3643 45.9063 89.6668C43.4628 90.8988 41.1798 96.6031 40.5293 98.3473Z" fill="white"/>
<path d="M46.8901 98.3473H31.8711V98.89H46.8901V98.3473Z" fill="#44467C"/>
<path fill-rule="evenodd" clip-rule="evenodd" d="M98.5317 63.9029C97.6663 64.2483 96.8548 64.3509 96.5067 64.1981C95.6334 63.8147 96.0931 60.4719 97.0127 59.2746C97.9322 58.0773 101.652 58.0972 101.41 60.7274C101.326 61.6405 100.815 62.3842 100.146 62.9499L100.388 67.7929L97.4666 67.316L98.5317 63.9029Z" fill="#DDBA9A"/>
<path fill-rule="evenodd" clip-rule="evenodd" d="M99.01 60.6275C98.8286 60.2063 98.6406 59.8756 98.3575 59.651C97.0748 59.431 96.968 59.174 97.1129 58.4026C97.3472 58.2938 98.1227 58.1822 98.952 58.2656C99.3907 58.2248 99.8798 58.3398 100.318 58.6275C100.873 58.9037 101.303 59.3548 101.396 60.0659C101.933 61.5824 101.063 62.8927 100.16 63.2265C99.992 62.9303 99.85 62.6472 99.7262 62.3785C99.8861 62.272 100.005 62.1038 100.043 61.9003C100.118 61.4993 99.8536 61.1131 99.4519 61.0377C99.4224 61.0321 99.3929 61.0284 99.3636 61.0265C99.2514 61.5244 98.8586 63.2065 98.5526 63.7589C98.1918 64.4103 96.8157 64.3284 96.3469 64.2404C95.942 64.1644 96.0277 63.7842 96.0891 63.5117C96.0979 63.4725 96.1063 63.4355 96.1126 63.402C96.1257 63.3319 96.217 63.3492 96.3201 63.3688C96.454 63.3942 96.6079 63.4234 96.6367 63.27C96.6681 63.1027 96.4607 62.931 96.2751 62.7773C96.1593 62.6814 96.0519 62.5925 96.0164 62.5162C95.9043 62.2753 95.9069 61.9793 96.1362 62.0224C96.2615 62.0459 96.4199 62.1503 96.6104 62.2759C96.898 62.4655 97.259 62.7034 97.6901 62.7844C98.4024 62.9182 99.0027 60.6552 99.01 60.6275Z" fill="#191847"/>
<path fill-rule="evenodd" clip-rule="evenodd" d="M101.523 77.4171L97.0521 93.0812L93.7898 104.626H91.4105L94.8771 77.4171H101.523Z" fill="#252EAF"/>
<path fill-rule="evenodd" clip-rule="evenodd" d="M102.721 77.4171C102.824 85.4906 103.177 89.8941 103.285 90.6276C103.394 91.3611 105.036 96.0274 108.211 104.626H105.746C101.704 96.3771 99.4473 91.7108 98.9765 90.6276C98.5058 89.5443 97.0531 85.1409 94.865 77.4171H102.721Z" fill="#1A228F"/>
<path fill-rule="evenodd" clip-rule="evenodd" d="M108.432 106.843L108.308 104.257L105.718 104.257C103.876 105.55 100.909 106.35 100.909 106.35V106.843H105.595L107.198 106.596V106.843H108.432Z" fill="#191847"/>
<path fill-rule="evenodd" clip-rule="evenodd" d="M94.125 106.843L94.0017 104.257L91.4118 104.257C89.5697 105.55 86.6019 106.35 86.6019 106.35V106.843H91.2884L92.8917 106.596V106.843H94.125Z" fill="#191847"/>
<path fill-rule="evenodd" clip-rule="evenodd" d="M83.2476 68.8182L88.1238 68.7191L87.6023 70.9754L83.4878 70.0561C81.8439 70.4803 81.0303 70.567 81.047 70.3162C81.0611 70.1048 81.2288 70.0154 81.3833 69.9331C81.5037 69.869 81.616 69.8092 81.6414 69.6992C81.6995 69.4482 81.0794 69.0433 80.4746 68.6843C79.8698 68.3253 80.216 68.1878 80.4428 68.1591C81.2744 68.2204 82.2093 68.4401 83.2476 68.8182ZM110.75 82.1918C110.29 81.5172 107.63 74.3432 107.63 74.3432L105.445 74.6599C105.445 74.6599 108.962 82.2778 109.216 82.7175C109.546 83.2886 109.255 84.2267 109.057 84.8628C109.026 84.9612 108.998 85.0523 108.974 85.1338C109.39 85.2537 109.548 85.0161 109.715 84.7657C109.903 84.4828 110.102 84.1835 110.696 84.3641C110.926 84.4339 111.146 84.5235 111.361 84.6111C112.105 84.9136 112.788 85.1916 113.573 84.5417C113.697 84.4387 113.802 84.1018 113.407 83.9055C112.422 83.4165 110.975 82.5216 110.75 82.1918Z" fill="#DDBA9A"/>
<path fill-rule="evenodd" clip-rule="evenodd" d="M100.589 65.6319L99.8199 64.4317C95.5082 66.8288 90.5898 68.5418 84.6793 68.5627L84.3292 70.7885C88.9411 71.4876 93.0537 72.4611 96.4893 70.6804C97.6424 70.0828 99.7242 66.7638 100.589 65.6319Z" fill="#CB0A2F"/>
<path fill-rule="evenodd" clip-rule="evenodd" d="M103.498 78.0327C103.498 78.0327 97.6822 78.6483 94.3426 78.0327C94.0667 77.9819 94.0232 77.5208 94.1511 77.2079C96.1431 72.3353 97.5091 68.0837 97.5091 64.6992C98.0574 64.9752 99.4282 64.7819 99.4282 64.7819C101.884 68.2697 103.013 72.2715 103.498 78.0327Z" fill="#323337"/>
<path fill-rule="evenodd" clip-rule="evenodd" d="M100.132 64.4897C100.069 64.447 100.035 64.4258 100.035 64.4258L100.039 64.4897H99.0155C98.9641 64.7916 98.8888 65.9108 98.7789 67.5428C98.3797 73.4731 97.5248 86.1743 95.7051 91.0349H108.261C107.996 85.5089 105.955 78.9006 103.841 73.2893C105.401 74.8388 107.223 77.4362 108.695 81.7599L111.047 81.1573C108.65 70.8479 101.629 65.5308 100.266 64.5814C100.253 64.5507 100.239 64.5201 100.226 64.4897H100.132Z" fill="#ED103A"/>
</g>
<defs>
<filter id="filter0_d" x="43.207" y="63.8931" width="38.2457" height="46.1443" filterUnits="userSpaceOnUse" color-interpolation-filters="sRGB">
<feFlood flood-opacity="0" result="BackgroundImageFix"/>
<feColorMatrix in="SourceAlpha" type="matrix" values="0 0 0 0 0 0 0 0 0 0 0 0 0 0 0 0 0 0 127 0"/>
<feOffset dy="16"/>
<feGaussianBlur stdDeviation="4"/>
<feColorMatrix type="matrix" values="0 0 0 0 0.0459375 0 0 0 0 0.0679076 0 0 0 0 0.2625 0 0 0 0.4 0"/>
<feBlend mode="normal" in2="BackgroundImageFix" result="effect1_dropShadow"/>
<feBlend mode="normal" in="SourceGraphic" in2="effect1_dropShadow" result="shape"/>
</filter>
<linearGradient id="paint0_linear" x1="26.4021" y1="9.77893" x2="26.4021" y2="84.1166" gradientUnits="userSpaceOnUse">
<stop offset="0.2287" stop-color="#91CEEF"/>
<stop offset="0.9947" stop-color="white"/>
</linearGradient>
<linearGradient id="paint1_linear" x1="70.4571" y1="19.4255" x2="77.2945" y2="19.4255" gradientUnits="userSpaceOnUse">
<stop stop-color="#6367AF"/>
<stop offset="0.999" stop-color="#9882BC"/>
</linearGradient>
<linearGradient id="paint2_linear" x1="71.6171" y1="20.0684" x2="75.9711" y2="20.0684" gradientUnits="userSpaceOnUse">
<stop stop-color="#C7E9F9"/>
<stop offset="0.9995" stop-color="#F2FAFE"/>
</linearGradient>
<linearGradient id="paint3_linear" x1="70.1461" y1="21.9735" x2="77.6064" y2="21.9735" gradientUnits="userSpaceOnUse">
<stop stop-color="#6367AF"/>
<stop offset="0.999" stop-color="#9882BC"/>
</linearGradient>
<linearGradient id="paint4_linear" x1="60.6966" y1="23.394" x2="61.8828" y2="61.8274" gradientUnits="userSpaceOnUse">
<stop stop-color="#5E6398"/>
<stop offset="0.9995" stop-color="#1E2370"/>
</linearGradient>
<linearGradient id="paint5_linear" x1="52.7996" y1="37.1677" x2="54.6092" y2="37.1677" gradientUnits="userSpaceOnUse">
<stop offset="0.00050512" stop-color="#FDBE11"/>
<stop offset="0.9841" stop-color="#FEDF00"/>
</linearGradient>
<linearGradient id="paint6_linear" x1="54.893" y1="37.1669" x2="56.7025" y2="37.1669" gradientUnits="userSpaceOnUse">
<stop offset="0.00050512" stop-color="#FDBE11"/>
<stop offset="0.9841" stop-color="#FEDF00"/>
</linearGradient>
<linearGradient id="paint7_linear" x1="56.9883" y1="37.1669" x2="58.7978" y2="37.1669" gradientUnits="userSpaceOnUse">
<stop offset="0.00050512" stop-color="#FDBE11"/>
<stop offset="0.9841" stop-color="#FEDF00"/>
</linearGradient>
<linearGradient id="paint8_linear" x1="59.0816" y1="37.1669" x2="60.8912" y2="37.1669" gradientUnits="userSpaceOnUse">
<stop offset="0.00050512" stop-color="#FDBE11"/>
<stop offset="0.9841" stop-color="#FEDF00"/>
</linearGradient>
<linearGradient id="paint9_linear" x1="61.1789" y1="37.1669" x2="62.9884" y2="37.1669" gradientUnits="userSpaceOnUse">
<stop offset="0.00050512" stop-color="#FDBE11"/>
<stop offset="0.9841" stop-color="#FEDF00"/>
</linearGradient>
<linearGradient id="paint10_linear" x1="43.5697" y1="40.6867" x2="51.0675" y2="40.6867" gradientUnits="userSpaceOnUse">
<stop stop-color="#E2529D"/>
<stop offset="1" stop-color="#B6489B"/>
</linearGradient>
<linearGradient id="paint11_linear" x1="55.7053" y1="30.5943" x2="69.8351" y2="30.5943" gradientUnits="userSpaceOnUse">
<stop stop-color="#6156A5"/>
<stop offset="1" stop-color="#8A65AC"/>
</linearGradient>
<linearGradient id="paint12_linear" x1="80.1375" y1="27.5951" x2="81.128" y2="95.0519" gradientUnits="userSpaceOnUse">
<stop stop-color="#5E6398"/>
<stop offset="0.9995" stop-color="#171C6C"/>
</linearGradient>
<linearGradient id="paint13_linear" x1="60.7253" y1="46.9424" x2="68.223" y2="46.9424" gradientUnits="userSpaceOnUse">
<stop stop-color="#4C8ECC"/>
<stop offset="0.9985" stop-color="#37BEE0"/>
</linearGradient>
<linearGradient id="paint14_linear" x1="70.0559" y1="44.5267" x2="72.0558" y2="44.5267" gradientUnits="userSpaceOnUse">
<stop offset="0.00050512" stop-color="#FDBE11"/>
<stop offset="0.9841" stop-color="#FEDF00"/>
</linearGradient>
<linearGradient id="paint15_linear" x1="72.3728" y1="44.5266" x2="74.3728" y2="44.5266" gradientUnits="userSpaceOnUse">
<stop offset="0.00050512" stop-color="#FDBE11"/>
<stop offset="0.9841" stop-color="#FEDF00"/>
</linearGradient>
<linearGradient id="paint16_linear" x1="74.6878" y1="44.5266" x2="76.6878" y2="44.5266" gradientUnits="userSpaceOnUse">
<stop offset="0.00050512" stop-color="#FDBE11"/>
<stop offset="0.9841" stop-color="#FEDF00"/>
</linearGradient>
<linearGradient id="paint17_linear" x1="77.0028" y1="44.5266" x2="79.0027" y2="44.5266" gradientUnits="userSpaceOnUse">
<stop offset="0.00050512" stop-color="#FDBE11"/>
<stop offset="0.9841" stop-color="#FEDF00"/>
</linearGradient>
<linearGradient id="paint18_linear" x1="79.3196" y1="44.5266" x2="81.3196" y2="44.5266" gradientUnits="userSpaceOnUse">
<stop offset="0.00050512" stop-color="#FDBE11"/>
<stop offset="0.9841" stop-color="#FEDF00"/>
</linearGradient>
<linearGradient id="paint19_linear" x1="72.5474" y1="37.288" x2="86.6771" y2="37.288" gradientUnits="userSpaceOnUse">
<stop stop-color="#6156A5"/>
<stop offset="1" stop-color="#8A65AC"/>
</linearGradient>
<linearGradient id="paint20_linear" x1="90.2768" y1="44.0258" x2="97.1866" y2="44.0258" gradientUnits="userSpaceOnUse">
<stop stop-color="#C7E9F9"/>
<stop offset="0.9995" stop-color="#F2FAFE"/>
</linearGradient>
<linearGradient id="paint21_linear" x1="58.2358" y1="64.0593" x2="64.8001" y2="87.8137" gradientUnits="userSpaceOnUse">
<stop stop-color="#E5782D"/>
<stop offset="1" stop-color="#ECC462"/>
</linearGradient>
<linearGradient id="paint22_linear" x1="53.9201" y1="74.2522" x2="66.0695" y2="70.8949" gradientUnits="userSpaceOnUse">
<stop stop-color="#1B2170"/>
<stop offset="0.9995" stop-color="#424787"/>
</linearGradient>
<linearGradient id="paint23_linear" x1="35.4508" y1="91.6489" x2="26.8467" y2="91.6489" gradientUnits="userSpaceOnUse">
<stop stop-color="#5E6398"/>
<stop offset="0.9995" stop-color="#29306F"/>
</linearGradient>
<linearGradient id="paint24_linear" x1="33.5354" y1="87.6528" x2="42.6318" y2="87.6528" gradientUnits="userSpaceOnUse">
<stop stop-color="#4C8ECC"/>
<stop offset="0.9985" stop-color="#37BEE0"/>
</linearGradient>
<linearGradient id="paint25_linear" x1="37.0841" y1="93.638" x2="33.8284" y2="96.7475" gradientUnits="userSpaceOnUse">
<stop stop-color="#A9D591"/>
<stop offset="1" stop-color="#6BC6B3"/>
</linearGradient>
<linearGradient id="paint26_linear" x1="38.9394" y1="92.9429" x2="48.745" y2="92.9429" gradientUnits="userSpaceOnUse">
<stop stop-color="#E5782D"/>
<stop offset="0.9995" stop-color="#F2FAFE"/>
</linearGradient>
</defs>
</svg>
