<svg width="91" height="88" fill="none" xmlns="http://www.w3.org/2000/svg">
    <path opacity=".2" d="M56.858 58.836a11.781 11.781 0 0 1-8.392 3.478 11.78 11.78 0 0 1-8.391-3.478L23.26 42.022a11.784 11.784 0 0 1-3.478-8.392c0-3.17 1.235-6.153 3.478-8.392a11.781 11.781 0 0 1 8.392-3.478 11.78 11.78 0 0 1 8.391 3.478l8.423 8.42L71.72 10.404C64.122 3.93 54.286 0 43.52 0 19.485 0 0 19.485 0 43.52c0 24.036 19.485 43.521 43.521 43.521 24.035 0 43.52-19.485 43.52-43.52 0-4.499-.683-8.835-1.95-12.918L56.858 58.836z" fill="#74B570"/>
    <path d="M48.467 54.4a3.945 3.945 0 0 1-2.797-1.158L28.856 36.427a3.951 3.951 0 0 1 0-5.595 3.95 3.95 0 0 1 5.594 0L48.467 44.85 84.246 9.072a3.952 3.952 0 0 1 5.594 0 3.953 3.953 0 0 1 0 5.595L51.264 53.242a3.944 3.944 0 0 1-2.797 1.159z" fill="#74B570"/>
</svg>
