<svg xmlns="http://www.w3.org/2000/svg" width="101" height="100" fill="none" viewBox="0 0 101 100">
    <circle cx="50.66" cy="50" r="50" fill="#F3F3F3"/>
    <circle cx="50.66" cy="50.003" r="36.842" fill="#F8B248"/>
    <path fill="#fff" fill-rule="evenodd" d="M44.256 36.698c0-1.542 1.231-2.773 2.773-2.773h6.292c1.542 0 2.773 1.231 2.773 2.773v1.597h5.618c2.517 0 4.522 2.032 4.555 4.523v9.192c0 .8-.542 1.464-1.296 1.667l-.277.074v6.65c0 2.485-2.035 4.52-4.52 4.52H40.21c-2.485 0-4.52-2.035-4.52-4.52v-6.65l-.277-.074c-.755-.203-1.296-.866-1.296-1.667v-9.194c0-2.486 2.035-4.52 4.52-4.52h5.618v-1.598zm2.773-.724c-.19 0-.378.065-.518.206-.14.14-.206.328-.206.518v1.597h7.74v-1.597c0-.19-.065-.377-.206-.518-.14-.14-.328-.206-.518-.206H47.03zm-8.39 4.37c-1.36 0-2.472 1.112-2.472 2.472v8.869h10.326v-2.587h7.363v2.587h10.327v-8.87c0-1.36-1.111-2.47-2.471-2.47H38.638zm13.168 10.803h-3.264v3.265h3.264v-3.265zm-5.349 2.657h-8.753V60.4c0 1.36 1.111 2.471 2.471 2.471h19.997c1.36 0 2.472-1.111 2.472-2.471v-.374h-.07v-6.223h-8.754v2.657H46.46v-2.657z" clip-rule="evenodd"/>
</svg>
