<svg width="201" height="178" viewBox="0 0 201 178" fill="none" xmlns="http://www.w3.org/2000/svg">
<path d="M100.493 177.5C45.2701 177.5 0.5 170.825 0.5 162.572C0.5 154.332 45.2701 147.644 100.493 147.644C155.73 147.644 200.5 154.332 200.5 162.572C200.5 170.825 155.73 177.5 100.493 177.5Z" fill="#E7F7F8"/>
<path fill-rule="evenodd" clip-rule="evenodd" d="M70.9443 127.103C77.1027 129.031 73.7939 129.152 88.1635 120.036L99.1974 112.444L121.346 127.17C124.236 129.139 124.263 128.37 127.599 127.251C167.858 114.413 103.992 134.789 169.546 113.698C173.328 112.484 173.139 112.929 169.817 110.799L148.249 97.0167L172.464 81.4006L123.547 65.5957L99.4134 81.4006L79.4526 67.8073C75.5496 65.2046 74.5232 65.3395 69.9179 66.8633L26.6739 81.1983L49.93 96.6391L26.3633 112.579L70.9443 127.103Z" fill="#E7F7F8"/>
<path fill-rule="evenodd" clip-rule="evenodd" d="M50.7392 160.02L99.993 175.353L99.1962 112.443C99.1827 112.43 89.2293 119.361 88.1624 120.036C73.7927 129.152 77.1015 129.03 70.9431 127.102L50.4961 120.44L50.7392 160.02Z" fill="#89D8DE"/>
<path fill-rule="evenodd" clip-rule="evenodd" d="M99.9921 175.353L148.449 159.696V120.454L127.597 127.25C124.261 128.37 124.234 129.138 121.344 127.169L99.1953 112.443L99.9921 175.353Z" fill="#C4EBEE"/>
<path fill-rule="evenodd" clip-rule="evenodd" d="M99.1565 112.404L99.197 112.445L99.4131 81.4014C83.882 84.8941 65.4608 91.8391 49.9297 96.6399L99.1565 112.404Z" fill="#C4EBEE"/>
<path fill-rule="evenodd" clip-rule="evenodd" d="M99.1953 112.445L148.247 97.0175L99.4114 81.4014L99.1953 112.445Z" fill="#89D8DE"/>
<path fill-rule="evenodd" clip-rule="evenodd" d="M125.385 94.5633L116.147 91.6505C114.067 91.5561 113.189 93.7003 114.878 94.833L123.643 97.7728C126.749 98.7438 127.6 95.3859 125.385 94.5633Z" fill="#FDFEFE"/>
<path d="M150.682 53.6466C150.385 53.9433 149.913 53.9433 149.615 53.6466L145.82 49.8572C145.523 49.5605 145.523 49.0885 145.82 48.7918C146.118 48.4952 146.604 48.4952 146.901 48.7918L150.682 52.5678C150.98 52.8644 150.98 53.3499 150.682 53.6466Z" fill="#F44336"/>
<path d="M150.682 49.8572L146.901 53.6466C146.604 53.9433 146.118 53.9433 145.82 53.6466C145.523 53.3499 145.523 52.8644 145.82 52.5678L149.615 48.7918C149.899 48.4952 150.385 48.4952 150.682 48.7918C150.98 49.0885 150.98 49.5605 150.682 49.8572Z" fill="#F44336"/>
<path d="M101.187 63.5142C100.686 64.0317 99.8572 64.0317 99.3389 63.5142L92.8093 56.9942C92.3084 56.494 92.3084 55.6661 92.8093 55.1486C93.3275 54.6484 94.1567 54.6484 94.6576 55.1486L101.187 61.6686C101.706 62.1861 101.706 63.014 101.187 63.5142Z" fill="#F44336"/>
<path d="M101.187 56.9939L94.6576 63.5139C94.1567 64.0314 93.3275 64.0314 92.8093 63.5139C92.3084 63.0137 92.3084 62.1857 92.8093 61.6683L99.3389 55.1483C99.8572 54.648 100.686 54.6308 101.187 55.1483C101.706 55.6657 101.706 56.4937 101.187 56.9939Z" fill="#F44336"/>
<path d="M37.9994 38.6732C37.8238 38.835 37.5537 38.835 37.3781 38.6732L35.1903 36.4751C35.0147 36.3133 35.0147 36.0301 35.1903 35.8548C35.3523 35.6929 35.6359 35.6929 35.8115 35.8548L37.9994 38.0529C38.1749 38.2147 38.1749 38.4979 37.9994 38.6732Z" fill="#F44336"/>
<path d="M37.9994 36.4751L35.8115 38.6732C35.6359 38.835 35.3523 38.835 35.1903 38.6732C35.0147 38.4979 35.0147 38.2147 35.1903 38.0529L37.3781 35.8548C37.5537 35.6929 37.8238 35.6929 37.9994 35.8548C38.1749 36.0301 38.1749 36.3133 37.9994 36.4751Z" fill="#F44336"/>
<path d="M96.47 4.00958C96.2674 4.21186 95.9298 4.21186 95.7272 4.00958L93.1207 1.39341C92.9181 1.19113 92.9181 0.853992 93.1207 0.651711C93.3233 0.44943 93.6609 0.44943 93.8635 0.651711L96.47 3.26788C96.6726 3.47016 96.6726 3.79381 96.47 4.00958Z" fill="#F44336"/>
<path d="M96.47 1.39341L93.8635 4.00958C93.6609 4.21186 93.3233 4.21186 93.1207 4.00958C92.9181 3.79381 92.9181 3.47016 93.1207 3.26788L95.7272 0.651711C95.9298 0.44943 96.2674 0.44943 96.47 0.651711C96.6726 0.853992 96.6726 1.19113 96.47 1.39341Z" fill="#F44336"/>
<path d="M70.689 54.999C71.5804 54.999 72.3772 55.3496 72.9579 55.9295C73.5387 56.5094 73.9033 57.305 73.9033 58.1951C73.9033 59.0851 73.5387 59.8807 72.9579 60.4606C72.3772 61.0405 71.5804 61.4046 70.689 61.4046C69.8112 61.4046 69.0009 61.0405 68.4201 60.4606C67.8394 59.8807 67.4883 59.0851 67.4883 58.1951C67.4883 57.305 67.8394 56.5094 68.4201 55.9295C69.0009 55.3496 69.8112 54.999 70.689 54.999ZM72.1071 56.7791C71.7425 56.415 71.2428 56.1992 70.689 56.1992C70.1353 56.1992 69.6356 56.415 69.271 56.7791C68.9063 57.1432 68.6903 57.6422 68.6903 58.1951C68.6903 58.748 68.9063 59.2469 69.271 59.611C69.6356 59.9751 70.1353 60.2044 70.689 60.2044C71.2428 60.2044 71.7425 59.9751 72.1071 59.611C72.4717 59.2469 72.7013 58.748 72.7013 58.1951C72.7013 57.6422 72.4717 57.1432 72.1071 56.7791Z" fill="#14B1BD"/>
<path d="M93.9842 38.0869C94.5109 38.0869 94.9971 38.3027 95.3482 38.6533C95.6858 39.0039 95.9019 39.4759 95.9019 40.0153C95.9019 40.5413 95.6858 41.0267 95.3482 41.3639C94.9971 41.7145 94.5109 41.9303 93.9842 41.9303C93.4575 41.9303 92.9713 41.7145 92.6201 41.3639C92.2825 41.0267 92.0664 40.5413 92.0664 40.0153C92.0664 39.4759 92.2825 39.0039 92.6201 38.6533C92.9713 38.3027 93.4575 38.0869 93.9842 38.0869ZM94.835 39.1657C94.6189 38.95 94.3218 38.8151 93.9842 38.8151C93.6465 38.8151 93.3494 38.95 93.1333 39.1657C92.9172 39.3815 92.7822 39.6782 92.7822 40.0153C92.7822 40.339 92.9172 40.6491 93.1333 40.8649C93.3494 41.0807 93.6465 41.2155 93.9842 41.2155C94.3218 41.2155 94.6189 41.0807 94.835 40.8649C95.0511 40.6491 95.1861 40.339 95.1861 40.0153C95.1861 39.6782 95.0511 39.3815 94.835 39.1657Z" fill="#14B1BD"/>
<path d="M61.0154 16.7129C61.5421 16.7129 62.0283 16.9287 62.3794 17.2658C62.7171 17.6164 62.9332 18.1019 62.9332 18.6278C62.9332 19.1537 62.7171 19.6392 62.3794 19.9898C62.0283 20.327 61.5421 20.5427 61.0154 20.5427C60.4887 20.5427 60.0025 20.327 59.6514 19.9898C59.3137 19.6392 59.0977 19.1537 59.0977 18.6278C59.0977 18.1019 59.3137 17.6164 59.6514 17.2658C60.0025 16.9287 60.4887 16.7129 61.0154 16.7129ZM61.8662 17.7782C61.6502 17.5625 61.3395 17.4276 61.0154 17.4276C60.6778 17.4276 60.3807 17.5625 60.1646 17.7782C59.9485 17.994 59.8134 18.2907 59.8134 18.6278C59.8134 18.965 59.9485 19.2616 60.1646 19.4774C60.3807 19.6932 60.6778 19.828 61.0154 19.828C61.3395 19.828 61.6502 19.6932 61.8662 19.4774C62.0823 19.2616 62.2174 18.965 62.2174 18.6278C62.2174 18.2907 62.0823 17.994 61.8662 17.7782Z" fill="#14B1BD"/>
<path d="M147.14 33.582C147.721 33.582 148.247 33.8248 148.639 34.2024C149.017 34.5934 149.26 35.1194 149.26 35.6992C149.26 36.2791 149.017 36.805 148.639 37.1961C148.247 37.5737 147.721 37.8164 147.14 37.8164C146.559 37.8164 146.032 37.5737 145.641 37.1961C145.263 36.805 145.02 36.2791 145.02 35.6992C145.02 35.1194 145.263 34.5934 145.641 34.2024C146.032 33.8248 146.559 33.582 147.14 33.582ZM148.072 34.7687C147.829 34.526 147.505 34.3777 147.14 34.3777C146.775 34.3777 146.438 34.526 146.208 34.7687C145.965 34.998 145.816 35.3351 145.816 35.6992C145.816 36.0633 145.965 36.387 146.208 36.6297C146.438 36.8725 146.775 37.0208 147.14 37.0208C147.505 37.0208 147.829 36.8725 148.072 36.6297C148.315 36.387 148.463 36.0633 148.463 35.6992C148.463 35.3351 148.315 34.998 148.072 34.7687Z" fill="#14B1BD"/>
</svg>
