<svg xmlns="http://www.w3.org/2000/svg" width="135" height="135" fill="none" viewBox="0 0 135 135">
    <circle cx="67.5" cy="67.5" r="67.5" fill="#DBE2EA"/>
    <path fill="#fff" fill-rule="evenodd" d="M67.5 64.8c-7.456 0-13.5-6.044-13.5-13.5s6.044-13.5 13.5-13.5S81 43.844 81 51.3s-6.044 13.5-13.5 13.5zm0-5.4c4.474 0 8.1-3.627 8.1-8.1s-3.626-8.1-8.1-8.1c-4.473 0-8.1 3.627-8.1 8.1 0 4.474 3.627 8.1 8.1 8.1zM45.84 94.5c1.49.033 2.726-1.149 2.76-2.64.33-14.81 6.42-18.96 18.9-18.96 13.177 0 19.217 4.099 18.888 18.84-.033 1.49 1.148 2.726 2.639 2.76 1.49.033 2.726-1.149 2.76-2.64C92.18 74.201 83.829 67.5 67.5 67.5c-15.596 0-23.906 6.65-24.3 24.24-.032 1.49 1.15 2.726 2.64 2.76z" clip-rule="evenodd"/>
</svg>
