<svg xmlns="http://www.w3.org/2000/svg" width="131" height="130" fill="none" viewBox="0 0 131 130">
    <mask id="myh0nj0eta" width="131" height="130" x="0" y="0" maskUnits="userSpaceOnUse">
        <circle cx="65.5" cy="65" r="65" fill="#C4C4C4"/>
    </mask>
    <g mask="url(#myh0nj0eta)">
        <path fill="#D0D9EB" d="M144.158 91.462H-91.35v45.368h235.508V91.461z" opacity=".85"/>
        <path fill="url(#paint0_linear)" d="M144.157-4.475H-91.351v95.937h235.508V-4.475z"/>
        <path fill="#2084FB" d="M65.802 18h-3.604c-.66 0-1.198.558-1.198 1.24V23h6v-3.76c0-.682-.539-1.24-1.198-1.24z"/>
        <path fill="#D1E5FD" d="M67.657 17h-8.314c-.739 0-1.343.539-1.343 1.198V19h11v-.802c0-.66-.604-1.198-1.343-1.198zM64 88c18.225 0 33-14.775 33-33S82.225 22 64 22 31 36.775 31 55s14.775 33 33 33z"/>
        <path fill="#2084FB" fill-rule="evenodd" d="M63.693 22.272C45.792 22.272 31.27 36.93 31.27 55c0 18.07 14.523 32.728 32.424 32.728 9.374 0 17.822-4.02 23.749-10.45.05-.054.136-.057.19-.006.054.051.057.137.007.192C81.663 83.946 73.145 88 63.693 88 45.643 88 31 73.22 31 55s14.643-33 32.693-33c14.481 0 26.772 9.513 31.058 22.682v.002l.243.775c.022.071-.017.148-.088.17-.071.023-.147-.017-.17-.088l-.241-.774c-4.251-13.062-16.44-22.495-30.802-22.495zM96.868 55c.073 0 .132.06.132.135 0 7.002-2.127 13.475-5.76 18.807-.042.062-.124.076-.184.034-.06-.043-.074-.127-.032-.189 3.603-5.288 5.713-11.708 5.713-18.652 0-.075.059-.135.131-.135z" clip-rule="evenodd"/>
        <path fill="#fff" d="M64 86c17.12 0 31-13.655 31-30.5S81.12 25 64 25c-17.12 0-31 13.655-31 30.5S46.88 86 64 86z"/>
        <path fill="#2084FB" fill-rule="evenodd" d="M43.113 34.113c.15-.15.393-.15.544 0l1.23 1.23c.15.15.15.394 0 .544-.15.15-.393.15-.544 0l-1.23-1.23c-.15-.15-.15-.394 0-.544zM34 55.5c0-.276.206-.5.46-.5h2.08c.254 0 .46.224.46.5s-.206.5-.46.5h-2.08c-.254 0-.46-.224-.46-.5zM44.887 74.113c.15.15.15.393 0 .544l-1.23 1.23c-.15.15-.394.15-.544 0-.15-.15-.15-.393 0-.544l1.23-1.23c.15-.15.394-.15.544 0zM71.497 34.054c.403.163.605.641.452 1.068l-7.271 20.207c-.037.102-.092.195-.163.274l-8.168 9.139c-.296.331-.79.346-1.103.031-.313-.314-.327-.837-.03-1.169l8.06-9.019 7.216-20.052c.154-.427.605-.641 1.007-.479z" clip-rule="evenodd"/>
        <path fill="#D1E5FD" d="M64 57c1.105 0 2-.895 2-2s-.895-2-2-2-2 .895-2 2 .895 2 2 2z"/>
        <path fill="#2084FB" fill-rule="evenodd" d="M83.113 74.113c.15-.15.393-.15.544 0l1.23 1.23c.15.15.15.394 0 .544-.15.15-.393.15-.544 0l-1.23-1.23c-.15-.15-.15-.394 0-.544zM91 55.5c0-.276.137-.5.306-.5h1.388c.169 0 .306.224.306.5s-.137.5-.306.5h-1.388c-.169 0-.306-.224-.306-.5zM84.887 34.113c.15.15.15.393 0 .544l-1.23 1.23c-.15.15-.394.15-.544 0-.15-.15-.15-.393 0-.544l1.23-1.23c.15-.15.394-.15.544 0z" clip-rule="evenodd"/>
        <path fill="#fff" d="M75.347 48h31.306c.741 0 1.347.615 1.347 1.366v29.268c0 .751-.606 1.366-1.347 1.366H75.347C74.606 80 74 79.385 74 78.634V49.366c0-.751.606-1.366 1.347-1.366z"/>
        <path fill="#2084FB" fill-rule="evenodd" d="M74.513 48.271c-.68 0-1.238.549-1.238 1.22V78.51c0 .67.557 1.219 1.238 1.219h31.974c.681 0 1.238-.549 1.238-1.22V49.49c0-.67-.557-1.219-1.238-1.219H74.513zM73 49.491c0-.82.68-1.491 1.513-1.491h31.974c.833 0 1.513.67 1.513 1.49v29.02c0 .82-.68 1.49-1.513 1.49H74.513C73.68 80 73 79.33 73 78.51V49.49z" clip-rule="evenodd"/>
        <path fill="#D1E5FD" d="M75.347 48h31.306c.741 0 1.347.59 1.347 1.312V52H74v-2.688c0-.722.606-1.312 1.347-1.312z"/>
        <path fill="#2084FB" fill-rule="evenodd" d="M74.513 48.246c-.68 0-1.238.499-1.238 1.108v2.4h34.45v-2.4c0-.61-.557-1.108-1.238-1.108H74.513zM73 49.354c0-.745.68-1.354 1.513-1.354h31.974c.833 0 1.513.609 1.513 1.354v2.523c0 .068-.062.123-.138.123H73.138c-.076 0-.138-.055-.138-.123v-2.523z" clip-rule="evenodd"/>
        <path fill="#fff" d="M78.248 45h.504c.687 0 1.248.533 1.248 1.187v2.626c0 .654-.56 1.187-1.248 1.187h-.504C77.56 50 77 49.467 77 48.813v-2.626c-.014-.654.561-1.187 1.248-1.187z"/>
        <path fill="#2084FB" fill-rule="evenodd" d="M78.27 45.253c-.56 0-1.025.452-1.013.998v2.496c0 .55.455 1 1.012 1h.462c.557 0 1.013-.45 1.013-1v-2.494c0-.55-.456-1-1.013-1h-.462zM77 46.254c-.013-.694.573-1.254 1.27-1.254h.46c.7 0 1.27.563 1.27 1.253v2.494c0 .69-.57 1.253-1.27 1.253h-.46c-.7 0-1.27-.563-1.27-1.253v-2.493z" clip-rule="evenodd"/>
        <path fill="#fff" d="M102.248 45h.504c.687 0 1.248.533 1.248 1.187v2.626c0 .654-.561 1.187-1.248 1.187h-.504c-.687 0-1.248-.533-1.248-1.187v-2.626c0-.654.561-1.187 1.248-1.187z"/>
        <path fill="#2084FB" fill-rule="evenodd" d="M102.269 45.253c-.557 0-1.013.45-1.013 1v2.494c0 .55.456 1 1.013 1h.462c.557 0 1.013-.45 1.013-1v-2.494c0-.55-.456-1-1.013-1h-.462zm-1.269 1c0-.69.57-1.253 1.269-1.253h.462c.699 0 1.269.563 1.269 1.253v2.494c0 .69-.57 1.253-1.269 1.253h-.462c-.699 0-1.269-.563-1.269-1.253v-2.494z" clip-rule="evenodd"/>
        <path fill="#FE835B" d="M81 55h-5v4h5v-4z"/>
        <path fill="#D1E5FD" d="M87 55h-5v4h5v-4zM93 55h-4v4h4v-4zM99 55h-4v4h4v-4zM105 55h-4v4h4v-4zM81 60h-5v5h5v-5zM87 60h-5v5h5v-5z"/>
        <path fill="#FE835B" d="M93 60h-4v5h4v-5z"/>
        <path fill="#D1E5FD" d="M99 60h-4v5h4v-5zM105 60h-4v5h4v-5zM81 66h-5v4h5v-4zM87 66h-5v4h5v-4zM93 66h-4v4h4v-4zM99 66h-4v4h4v-4z"/>
        <path fill="#FE835B" d="M105 66h-4v4h4v-4z"/>
        <path fill="#D1E5FD" d="M81 72h-5v4h5v-4z"/>
        <path fill="#FE835B" d="M87 72h-5v4h5v-4z"/>
        <path fill="#D1E5FD" d="M93 72h-4v4h4v-4zM99 72h-4v4h4v-4zM105 72h-4v4h4v-4z"/>
        <path fill="#13B85B" d="M103 33c2.209 0 4-1.79 4-4s-1.791-4-4-4-4 1.79-4 4 1.791 4 4 4z"/>
        <path fill="#fff" fill-rule="evenodd" d="M104.838 28.107c.194.16.217.443.052.631l-1.846 2.104c-.084.096-.204.153-.333.158-.129.005-.254-.043-.345-.131l-1.231-1.194c-.18-.175-.18-.459 0-.633.18-.175.473-.175.653 0l.877.85 1.522-1.734c.165-.189.456-.212.651-.051z" clip-rule="evenodd"/>
        <path fill="#FF2D55" d="M40.456 18.76l-.753.394.779.44.441.78.395-.753.754-.396-.779-.441-.443-.779-.395.754zM41.76 21.408l-.473.25.49.277.278.49.248-.474.474-.248-.488-.279-.278-.49-.25.474zM38.955 20.709l-.722.378.747.425.422.746.38-.722.722-.38-.746-.423-.425-.746-.378.722z"/>
        <path fill="#fff" d="M30.642 25.877l9.03-2.094-6.782 7.164-.77-2.4-1.72-.46 6.64-3.233-5.927 2.177-.528-.35-.895-.589.952-.215z"/>
        <path fill="#fff" fill-rule="evenodd" d="M27.766 29.377l.17.303c.168-.095.337-.187.507-.278l-.164-.307-.513.282zM29.214 28.615l-.522.264.16.31.517-.263-.155-.311zM30.16 28.166l-.533.248.15.313.525-.244-.142-.317zM25.774 31.014l-.197-.287-.48.34.205.282.472-.335zM26.46 30.152c-.165.105-.332.207-.494.317l.19.29c.16-.107.326-.209.486-.313l-.182-.294zM26.854 29.91l.181.297c.165-.102.331-.2.498-.295l-.175-.3c-.17.097-.34.194-.504.298zM23.13 32.742c-.134.146-.275.284-.405.435l.262.23c.124-.145.26-.281.39-.421l-.247-.244zM23.467 32.414l.24.253c.136-.137.282-.26.426-.387l-.227-.262c-.15.128-.301.256-.44.396zM24.935 31.628l-.212-.277c-.158.116-.309.242-.461.366l.22.268c.15-.12.296-.244.453-.357zM21.722 35.54l-.334-.1c-.055.197-.095.4-.13.601l.346.045c.032-.183.069-.366.118-.547zM22.123 34.608l-.302-.17c-.1.174-.18.361-.269.542l.321.134c.084-.167.157-.341.25-.506zM22.693 33.76l-.274-.213-.352.484.289.193.337-.464zM21.927 38.61c.122.163.25.318.374.478l.262-.227c-.116-.149-.238-.295-.352-.445l-.284.195zM21.755 37.517l-.33.114.12.284c.04.094.075.194.132.277l.307-.165c-.055-.077-.083-.166-.12-.254l-.11-.256zM21.6 36.816l-.024-.279-.348.004.027.311c.01.104.014.208.044.307l.342-.067c-.028-.09-.033-.183-.04-.276zM24.342 40.72c.17.1.338.206.516.29l.163-.307c-.175-.082-.335-.186-.502-.281l-.177.299zM23.447 40.137l.49.34.188-.293-.471-.325-.207.278zM22.882 39.19l-.244.248.212.212.231.19.224-.266-.222-.18-.2-.204zM27.238 42.014l.56.183.101-.332-.549-.18-.112.329zM26.25 41.65l.55.21.118-.328-.538-.205-.13.323zM25.28 41.227c.176.091.359.16.54.242l.138-.32c-.175-.079-.356-.148-.525-.237l-.152.315zM30.359 42.498l-.074.341.574.116.067-.342-.567-.115zM29.263 42.601c.19.051.38.092.57.134l.077-.34c-.19-.042-.378-.083-.564-.133l-.083.34zM28.25 42.329c.188.055.375.112.566.156l.09-.335c-.188-.045-.373-.102-.558-.154l-.097.333zM33.436 43.024l-.047.346.58.075.042-.346-.575-.075zM32.408 42.873l-.055.344.578.09.05-.346-.573-.087zM31.384 42.7l-.063.344.577.1.057-.344-.57-.1zM36.546 43.351l-.026.346.58.043.025-.348-.579-.04zM35.506 43.26l-.032.348.581.05.029-.345-.578-.053zM34.475 43.152l-.04.346.581.065.035-.348-.576-.063zM39.667 43.518l-.01.348.583.016.006-.348-.58-.016zM38.624 43.477l-.017.348.584.025.014-.348-.581-.025zM37.59 43.422l-.022.348.584.035.018-.348-.58-.035zM43.373 43.534l-.58.012.007.348.583-.012-.01-.348zM41.751 43.553v.347l.584-.002-.002-.348-.582.003zM40.715 43.542l-.006.348.583.008.002-.348-.579-.008z" clip-rule="evenodd"/>
        <path fill="url(#paint1_linear)" d="M27.889 90.34c-.33.553-1.041.166-1.041.166s.04-.182.36-.335c.237-.114.579-.02.7.02l.393-.01h.006c.088.004.173.01.26.019-1.118-.36-.591-1.562-.591-1.562s.352.012.724.464c.299.362.18.976.146 1.126.447.059.876.16 1.289.297-.053-.047-.108-.1-.163-.159-.427-.463-.238-1.346-.238-1.346 1.527.18 1.222 1.484 1.133 1.785.498.218.961.476 1.38.746-.108-.134-.22-.329-.3-.603-.194-.655.453-1.468.453-1.468 1.496.856.42 2.094.209 2.315.268.19.514.379.736.561.244.202.467.401.67.592-.075-.183-.138-.47-.077-.882.108-.734 1.137-1.307 1.137-1.307 1.09 1.404-.47 2.236-.836 2.407.694.683 1.094 1.22 1.1 1.227l-.134.084c-.004-.006-.266-.358-.732-.852-.577 1.665-2.566.82-2.566.82s.05-.454.787-.9c.476-.286 1.183-.213 1.564-.142-.287-.288-.63-.612-1.023-.937-.13-.105-.268-.215-.415-.325-.512 1.571-2.358.785-2.358.785s.045-.415.72-.824c.425-.256 1.05-.197 1.405-.134-.427-.305-.913-.608-1.446-.868-.315 1.484-2.053.887-2.053.887s.01-.372.58-.777c.373-.264.967-.238 1.278-.201-.575-.265-1.204-.478-1.868-.592.028 1.348-1.576 1.086-1.576 1.086s-.057-.315.354-.738c.32-.33.974-.356 1.167-.358-.234-.039-.472-.063-.714-.075l-.42.008z"/>
        <path fill="url(#paint2_linear)" d="M40.84 98.347s3.328-6.834.92-13.183c-2.41-6.349-8.222-8.205-8.222-8.205s3.452 3.635 1.448 9.307c-1.895 5.363 1.717 12.083 1.717 12.083h4.137v-.002z"/>
        <path fill="#fff" d="M39.661 98.347s.852-13.903-2.752-17.558c3.279 4.609 1.913 17.558 1.913 17.558h.84z" opacity=".3"/>
        <path fill="url(#paint3_linear)" d="M33.946 98.347h3.56c-.143-.571-.655-2.293-1.932-3.594-1.55-1.58-3.51-1.427-3.51-1.427s1.065 1.063 1.227 2.972c.067.762.35 1.476.655 2.05z"/>
        <path fill="#fff" d="M36.35 98.347h.266c-.507-1.055-1.8-3.529-3.01-4.031 1.184.722 2.274 2.958 2.743 4.031z" opacity=".3"/>
        <path fill="url(#paint4_linear)" d="M42.177 90.79c-2.592 3.073-3.174 7.08-3.235 7.557h5.038c1.275-1.071 2.838-2.801 2.85-4.885.022-3.718 1.92-5.924 1.92-5.924s-3.815-.022-6.573 3.251z"/>
        <path fill="#fff" d="M40.532 98.347h.523c.614-1.846 2.488-6.983 4.855-8.68-2.444 1.232-4.727 6.936-5.377 8.68z" opacity=".3"/>
        <path fill="#44467C" d="M46.891 98.347H31.872v.543h15.02v-.543z"/>
        <path fill="#DDBA9A" fill-rule="evenodd" d="M98.533 63.903c-.865.345-1.677.448-2.025.295-.873-.383-.414-3.726.506-4.923.92-1.198 4.639-1.178 4.397 1.452-.084.914-.595 1.657-1.264 2.223l.242 4.843-2.921-.477 1.065-3.413z" clip-rule="evenodd"/>
        <path fill="#191847" fill-rule="evenodd" d="M99.01 60.628c-.18-.422-.368-.752-.652-.977-1.282-.22-1.389-.477-1.244-1.248.234-.11 1.01-.22 1.839-.137.439-.041.928.074 1.366.361.555.277.985.728 1.078 1.439.537 1.516-.333 2.827-1.236 3.16-.168-.296-.31-.579-.434-.847.16-.107.279-.275.317-.479.075-.4-.19-.787-.591-.862-.03-.006-.06-.01-.088-.011-.113.497-.505 2.18-.811 2.732-.361.651-1.737.57-2.206.481-.405-.076-.32-.456-.258-.728l.023-.11c.014-.07.105-.053.208-.033.134.025.288.054.317-.099.031-.167-.176-.339-.362-.493-.116-.096-.223-.184-.259-.26-.112-.242-.11-.538.12-.495.126.024.284.128.474.254.288.19.649.427 1.08.508.712.134 1.313-2.129 1.32-2.156z" clip-rule="evenodd"/>
        <path fill="#252EAF" fill-rule="evenodd" d="M101.525 77.417l-4.471 15.664-3.263 11.545h-2.38l3.468-27.209h6.646z" clip-rule="evenodd"/>
        <path fill="#1A228F" fill-rule="evenodd" d="M102.721 77.417c.103 8.074.456 12.477.564 13.21.109.734 1.751 5.4 4.926 13.999h-2.465c-4.042-8.249-6.298-12.915-6.77-13.999-.47-1.083-1.923-5.486-4.11-13.21h7.855z" clip-rule="evenodd"/>
        <path fill="#191847" fill-rule="evenodd" d="M108.432 106.843l-.123-2.586h-2.59c-1.842 1.293-4.81 2.093-4.81 2.093v.493h4.686l1.604-.247v.247h1.233zM94.126 106.843l-.124-2.586h-2.59c-1.842 1.293-4.81 2.093-4.81 2.093v.493h4.687l1.603-.247v.247h1.234z" clip-rule="evenodd"/>
        <path fill="#DDBA9A" fill-rule="evenodd" d="M83.249 68.818l4.876-.099-.521 2.257-4.115-.92c-1.644.424-2.457.511-2.44.26.013-.211.181-.3.336-.383.12-.064.233-.124.258-.234.058-.25-.562-.656-1.167-1.015-.605-.359-.258-.496-.032-.525.832.061 1.767.281 2.805.66zm27.503 13.374c-.46-.675-3.121-7.849-3.121-7.849l-2.184.317s3.517 7.618 3.771 8.058c.33.57.038 1.509-.16 2.145-.031.098-.059.19-.082.27.415.12.574-.117.74-.367.189-.283.388-.582.982-.402.229.07.449.16.665.247.743.303 1.427.58 2.211-.07.125-.102.23-.44-.166-.635-.985-.49-2.431-1.384-2.656-1.714z" clip-rule="evenodd"/>
        <path fill="#CB0A2F" fill-rule="evenodd" d="M100.589 65.632l-.769-1.2c-4.311 2.397-9.23 4.11-15.14 4.13l-.35 2.227c4.612.699 8.724 1.672 12.16-.109 1.153-.597 3.235-3.916 4.099-5.048z" clip-rule="evenodd"/>
        <path fill="#323337" fill-rule="evenodd" d="M103.499 78.033s-5.816.615-9.155 0c-.276-.051-.32-.512-.192-.825 1.992-4.873 3.358-9.124 3.358-12.509.549.276 1.92.083 1.92.083 2.455 3.488 3.584 7.49 4.069 13.25z" clip-rule="evenodd"/>
        <path fill="#ED103A" fill-rule="evenodd" d="M100.133 64.49c-.063-.043-.097-.064-.097-.064l.004.064h-1.024c-.05.302-.126 1.42-.236 3.053-.4 5.93-1.254 18.631-3.074 23.492h12.556c-.265-5.526-2.306-12.134-4.42-17.746 1.56 1.55 3.382 4.147 4.854 8.471l2.352-.603c-2.397-10.31-9.418-15.626-10.781-16.575l-.04-.092h-.094z" clip-rule="evenodd"/>
    </g>
    <defs>
        <linearGradient id="paint0_linear" x1="26.403" x2="26.403" y1="9.779" y2="84.117" gradientUnits="userSpaceOnUse">
            <stop offset=".229" stop-color="#91CEEF"/>
            <stop offset=".995" stop-color="#fff"/>
        </linearGradient>
        <linearGradient id="paint1_linear" x1="35.453" x2="26.849" y1="91.649" y2="91.649" gradientUnits="userSpaceOnUse">
            <stop stop-color="#5E6398"/>
            <stop offset="1" stop-color="#29306F"/>
        </linearGradient>
        <linearGradient id="paint2_linear" x1="33.538" x2="42.635" y1="87.653" y2="87.653" gradientUnits="userSpaceOnUse">
            <stop stop-color="#4C8ECC"/>
            <stop offset=".999" stop-color="#37BEE0"/>
        </linearGradient>
        <linearGradient id="paint3_linear" x1="37.087" x2="33.831" y1="93.638" y2="96.748" gradientUnits="userSpaceOnUse">
            <stop stop-color="#A9D591"/>
            <stop offset="1" stop-color="#6BC6B3"/>
        </linearGradient>
        <linearGradient id="paint4_linear" x1="38.942" x2="48.748" y1="92.943" y2="92.943" gradientUnits="userSpaceOnUse">
            <stop stop-color="#E5782D"/>
            <stop offset="1" stop-color="#F2FAFE"/>
        </linearGradient>
    </defs>
</svg>
