<svg xmlns="http://www.w3.org/2000/svg" width="18" height="18" fill="none" viewBox="0 0 18 18">
    <path fill="#3C81AB" stroke="#3C81AB" stroke-width=".5" d="M9 1c-2.12.003-4.154.849-5.654 2.353C1.846 4.856 1.003 6.895 1 9.02c.44 10.64 15.56 10.637 16 0-.003-2.126-.847-4.165-2.346-5.668C13.154 1.849 11.12 1.003 9 1v0zm0 14.923c-1.825-.002-3.575-.73-4.865-2.024-1.29-1.293-2.017-3.048-2.019-4.878.372-9.155 13.396-9.155 13.768 0-.002 1.83-.728 3.584-2.019 4.878-1.29 1.294-3.04 2.022-4.865 2.024v0z"/>
    <path fill="#3C81AB" stroke="#3C81AB" stroke-width=".5" d="M9 7.742c-.148 0-.29.06-.395.164-.105.105-.164.247-.164.396v3.51c0 .149.06.291.164.396.105.105.247.164.395.164.148 0 .29-.059.394-.164.105-.105.164-.247.164-.396v-3.51c0-.149-.06-.291-.164-.396-.104-.105-.246-.164-.394-.164v0zM8.605 5.633c-.026.026-.05.055-.07.086-.02.03-.038.063-.052.097-.012.034-.022.069-.03.104-.026.132-.004.269.062.385.067.117.172.206.298.25.127.046.265.044.39-.005.124-.048.227-.14.29-.259.063-.118.081-.255.052-.386-.03-.13-.105-.247-.213-.327-.107-.08-.24-.118-.373-.108-.134.01-.259.068-.354.163v0z"/>
</svg>
