<svg xmlns="http://www.w3.org/2000/svg" width="50" height="88" fill="none" viewBox="0 0 50 88">
    <mask id="ittln318va" width="51" height="88" x="0" y="0" maskUnits="userSpaceOnUse">
        <path fill="#C4C4C4" d="M8.055 52.122C-3.413 34.156.41 18.516 3.755 12.942c12.9-21.502 36.79-12.423 43.002 0 7.645 15.29 0 32.49-4.778 39.18l1.433 35.835H6.622l1.433-35.835z"/>
    </mask>
    <g mask="url(#ittln318va)">
        <path fill="#CDFFCF" d="M48.174 20.214c-.345-1.463-.831-2.888-1.453-4.256-.175-.411-.37-.813-.587-1.204-3.98-7.833-12.023-12.767-20.81-12.767-8.786 0-16.828 4.934-20.81 12.767-.215.391-.411.793-.586 1.204-.633 1.39-1.125 2.84-1.468 4.329-.415 1.77-.622 3.582-.616 5.4.004 4.447.667 8.868 1.966 13.12 1.14 3.739 2.716 7.33 4.696 10.699.265.47.543.924.822 1.364.179.315.375.618.587.91 4.099 6.313 9.322 11.82 15.41 16.246 6.087-4.426 11.31-9.933 15.409-16.246.212-.292.408-.595.587-.91.278-.44.557-.895.821-1.364 1.965-3.337 3.532-6.894 4.667-10.596 1.318-4.284 1.99-8.74 1.996-13.222 0-1.843-.212-3.68-.631-5.474zM25.324 41.61c-8.915 0-16.142-7.227-16.142-16.143 0-8.915 7.227-16.142 16.142-16.142 8.916 0 16.143 7.227 16.143 16.142.003 4.283-1.697 8.39-4.725 11.418-3.028 3.028-7.135 4.728-11.418 4.725z"/>
        <path fill="#4CAF50" d="M48.174 20.214c-.345-1.463-.831-2.888-1.453-4.256-.175-.41-.37-.813-.587-1.203C42.151 6.924 34.11 1.99 25.324 1.987c-.744 0-1.467.047-2.201.116 7.958.757 14.977 5.53 18.608 12.652.217.39.413.792.587 1.203.622 1.368 1.109 2.793 1.453 4.256.42 1.794.631 3.631.631 5.474-.005 4.482-.678 8.938-1.995 13.222-1.136 3.703-2.702 7.259-4.667 10.596-.264.47-.543.925-.822 1.365-.179.314-.375.617-.587.91-3.618 5.52-8.074 10.443-13.208 14.591 1.362 1.092 2.201 1.654 2.201 1.654 6.088-4.426 11.311-9.932 15.41-16.245.212-.292.408-.596.587-.91.278-.44.557-.896.821-1.365 1.965-3.337 3.532-6.893 4.667-10.596 1.318-4.284 1.99-8.74 1.996-13.222 0-1.843-.212-3.68-.631-5.474z"/>
        <path fill="#FFDEAC" d="M25.325 41.61c8.915 0 16.142-7.227 16.142-16.142 0-8.916-7.227-16.143-16.142-16.143-8.916 0-16.143 7.227-16.143 16.143 0 8.915 7.227 16.143 16.142 16.143z"/>
        <path fill="#F44336" d="M25.324 9.325c-.736.006-1.472.062-2.201.167 7.988 1.09 13.943 7.914 13.943 15.976 0 8.062-5.955 14.885-13.943 15.976 5.974.827 11.912-1.747 15.392-6.673 3.48-4.926 3.923-11.381 1.147-16.736s-8.306-8.715-14.338-8.71z"/>
        <path fill="#FFDEAC" d="M3.81 38.808c-1.522.877-3.248 1.337-5.004 1.335-5.674 0-10.273-4.6-10.273-10.273s4.6-10.273 10.273-10.273c1.251-.006 2.492.228 3.654.69-.415 1.77-.622 3.583-.616 5.4.004 4.447.667 8.868 1.966 13.12z"/>
        <path fill="#CDFFCF" d="M8.506 49.506c-2.648 3.74-5.89 7.022-9.597 9.715-4.187-3.048-7.778-6.838-10.596-11.183-.147-.22-.279-.41-.411-.63-3.306-5.186-5.086-11.197-5.136-17.347-.003-2.31.483-4.596 1.423-6.706 2.572-5.838 8.341-9.611 14.72-9.628 1.916-.008 3.817.34 5.606 1.028-.217.39-.413.792-.587 1.203-.634 1.39-1.125 2.84-1.468 4.33-1.163-.463-2.403-.697-3.654-.69-5.674 0-10.273 4.599-10.273 10.272 0 5.674 4.6 10.273 10.273 10.273 1.756.002 3.482-.459 5.004-1.335 1.139 3.738 2.715 7.33 4.696 10.698z"/>
        <path fill="#FFDEAC" d="M61.807 29.87c.015 2.711-1.048 5.318-2.956 7.245-1.907 1.926-4.503 3.016-7.214 3.028-1.688.005-3.35-.42-4.828-1.233 1.318-4.284 1.99-8.74 1.995-13.222 0-1.843-.212-3.68-.63-5.474 1.109-.408 2.281-.616 3.463-.617 2.711.012 5.306 1.102 7.214 3.029 1.908 1.927 2.971 4.533 2.956 7.244z"/>
        <path fill="#CDFFCF" d="M67.882 30.061c-.05 6.15-1.83 12.16-5.136 17.346-.132.22-.264.411-.411.631-2.818 4.345-6.41 8.135-10.596 11.183-3.707-2.693-6.95-5.975-9.597-9.715 1.965-3.337 3.531-6.893 4.666-10.596 1.48.814 3.14 1.238 4.829 1.233 5.673 0 10.272-4.6 10.272-10.273S57.31 19.598 51.637 19.598c-1.182 0-2.355.209-3.464.616-.345-1.463-.831-2.888-1.453-4.256-.175-.41-.37-.813-.587-1.203 1.79-.687 3.69-1.036 5.606-1.028 6.379.017 12.148 3.79 14.72 9.628.94 2.11 1.425 4.395 1.423 6.706z"/>
        <path fill="#231E1E" d="M25.324 7.857c-9.726 0-17.61 7.885-17.61 17.61 0 9.727 7.884 17.611 17.61 17.611 9.726 0 17.61-7.884 17.61-17.61-.01-9.722-7.888-17.6-17.61-17.61zm0 32.286c-8.105 0-14.675-6.57-14.675-14.675s6.57-14.676 14.675-14.676S40 17.362 40 25.468c-.01 8.1-6.574 14.666-14.676 14.675z"/>
        <path fill="#231E1E" d="M51.74 12.26c-1.663 0-3.317.24-4.91.717C42.412 5.272 34.208.52 25.325.52c-8.883 0-17.087 4.753-21.507 12.458-1.592-.476-3.246-.718-4.909-.717-9.766.08-17.635 8.034-17.61 17.801.038 6.417 1.891 12.692 5.345 18.1.116.193.23.365.352.547l.085.127c2.789 4.28 6.294 8.049 10.36 11.14v8.051h-2.934c-.81 0-1.468.657-1.468 1.468 0 .81.657 1.467 1.468 1.467H3.31c.81 0 1.468-.657 1.468-1.467s-.658-1.468-1.468-1.468H.376v-8.05c2.988-2.273 5.675-4.914 7.998-7.862.063.095.122.196.186.293l.12.18c4.071 6.247 9.208 11.73 15.177 16.2v10.98h-4.403c-.81 0-1.468.657-1.468 1.467s.657 1.468 1.468 1.468h11.74c.81 0 1.468-.657 1.468-1.468 0-.81-.657-1.468-1.468-1.468h-4.402v-10.98c5.965-4.466 11.1-9.946 15.17-16.19l.126-.19c.069-.1.121-.192.186-.294 2.323 2.949 5.01 5.591 7.998 7.863v8.051h-2.935c-.81 0-1.468.657-1.468 1.468 0 .81.658 1.467 1.468 1.467h8.805c.81 0 1.468-.657 1.468-1.467s-.657-1.468-1.468-1.468h-2.935v-8.05c4.063-3.087 7.565-6.851 10.35-11.126l.096-.147c.122-.182.236-.354.34-.527 3.46-5.412 5.317-11.692 5.357-18.115.005-2.516-.523-5.005-1.55-7.302-2.811-6.364-9.104-10.477-16.06-10.5zm-1.882 9.013c.584-.131 1.18-.2 1.779-.208 4.863 0 8.805 3.942 8.805 8.805 0 4.863-3.942 8.805-8.805 8.805-1.054.004-2.099-.19-3.082-.569 1.13-4.04 1.708-8.216 1.717-12.412-.008-1.483-.147-2.962-.414-4.42zM2.07 38.031c-1.034.43-2.143.648-3.263.645-4.863 0-8.806-3.943-8.806-8.806 0-4.863 3.943-8.805 8.806-8.805.666.007 1.33.092 1.976.255-.261 1.444-.397 2.907-.406 4.374.008 4.17.578 8.32 1.693 12.337zm-3.16 19.37c-3.662-2.854-6.829-6.292-9.374-10.174l-.103-.147c-.094-.147-.183-.271-.283-.44-3.17-4.952-4.875-10.7-4.916-16.579-.004-2.106.438-4.188 1.297-6.11 2.34-5.304 7.582-8.734 13.378-8.756 1.202 0 2.399.154 3.562.455-.395.91-.734 1.845-1.015 2.797-.868-.209-1.757-.315-2.65-.317-6.483 0-11.74 5.256-11.74 11.74s5.257 11.74 11.74 11.74c1.413-.005 2.813-.27 4.13-.782 1.015 2.961 2.297 5.823 3.83 8.552-2.254 3.008-4.896 5.705-7.857 8.021zm40.74-6.626l-.147.213c-3.834 5.84-8.627 10.99-14.178 15.23-5.555-4.244-10.352-9.397-14.19-15.24L11 50.775c-.138-.207-.276-.41-.428-.676-4.678-7.286-7.195-15.748-7.26-24.405 0-12.158 9.855-22.013 22.013-22.013 12.157 0 22.013 9.855 22.013 22.013-.068 8.675-2.595 17.153-7.286 24.45-.127.222-.264.419-.402.631zm21.838-4.122c-.088.147-.178.279-.271.42l-.112.167c-2.542 3.879-5.706 7.312-9.364 10.163-2.962-2.316-5.604-5.013-7.856-8.023 1.518-2.708 2.791-5.546 3.804-8.48 1.265.465 2.601.706 3.949.71 6.484 0 11.74-5.256 11.74-11.74s-5.256-11.74-11.74-11.74c-.825.004-1.648.096-2.454.276-.279-.938-.615-1.859-1.005-2.756 1.163-.301 2.36-.454 3.562-.455 5.797.022 11.038 3.453 13.38 8.757.858 1.922 1.3 4.004 1.295 6.11-.043 5.884-1.752 11.637-4.928 16.591z"/>
    </g>
</svg>
