<svg xmlns="http://www.w3.org/2000/svg" width="20" height="20" fill="none" viewBox="0 0 20 20">
    <path fill="#F44336" fill-rule="evenodd" d="M4.667 8.108c0 2.903 3.49 9.225 5.333 9.225 1.842 0 5.333-6.322 5.333-9.225 0-3.002-2.384-5.441-5.333-5.441-2.95 0-5.333 2.44-5.333 5.441zm7.584 4.946C11.316 14.748 10.266 16 10 16c-.266 0-1.316-1.252-2.252-2.946C6.708 11.171 6 9.199 6 8.108 6 5.836 7.794 4 10 4s4 1.836 4 4.108c0 1.091-.71 3.063-1.749 4.946zM10 10.667c-1.473 0-2.667-1.194-2.667-2.667 0-1.473 1.194-2.667 2.667-2.667 1.473 0 2.666 1.194 2.666 2.667 0 1.473-1.193 2.667-2.666 2.667zM11.333 8c0 .736-.597 1.333-1.333 1.333-.737 0-1.334-.597-1.334-1.333S9.263 6.667 10 6.667c.736 0 1.333.597 1.333 1.333z" clip-rule="evenodd"/>
</svg>
