<svg width="49" height="51" viewBox="0 0 49 51" fill="none" xmlns="http://www.w3.org/2000/svg">
<path d="M24.1028 28.8379L19.9854 31.1932L16.7748 29.3561V4.95368L7.09093 10.4968L2.97607 12.8521V8.14152L7.09093 5.78625L16.7748 0.24314L17.2009 0L20.8922 2.11213V27.0009L24.1028 28.8379Z" fill="#E2E2E2"/>
<path d="M7.09093 10.4968L16.7748 4.95368L20.8921 2.11213L17.2009 0L16.7748 0.24314L7.09093 5.78625L2.97607 8.14152V12.8521L7.09093 10.4968Z" fill="white"/>
<path d="M16.7744 4.95367V29.3561L20.8917 27.0009V2.11212L16.7744 4.95367Z" fill="#F2F2F2"/>
<path d="M45.227 8.14152V12.8521L41.1121 10.4968L31.4258 4.95368V29.3561L28.2176 31.1932L24.2663 33.4551L24.1028 33.5485L17.2009 37.4977L2.97607 29.3561L2.97607 8.14487L7.09092 10.4968V27.0009L17.2009 32.7871L19.9854 31.1932L24.1028 28.8379L27.3109 27.0009V2.11213L31.0021 0L45.227 8.14152Z" fill="white"/>
<path d="M28.2169 31.1931L31.425 29.3561L27.3102 27.0008L24.102 28.8379L19.9847 31.1931L17.2002 32.787V37.4976L24.102 33.5484L24.2656 33.4551L28.2169 31.1931Z" fill="#FAFAFA"/>
<path d="M2.97559 8.14478V29.356L7.09044 27.0008V10.4967L2.97559 8.14478Z" fill="#F2F2F2"/>
<path d="M2.97559 29.3561L17.2004 37.4976V32.787L7.09044 27.0008L2.97559 29.3561Z" fill="#E2E2E2"/>
<path d="M31.4254 29.3561V4.95367L27.3105 2.11212V27.0009L31.4254 29.3561Z" fill="#F2F2F2"/>
<path d="M45.2263 8.15472V29.3562L31.0014 37.4977L24.1021 33.5485L24.2656 33.4552L28.2169 31.1933L31.0014 32.7872L41.1114 27.0009V10.4968L45.2263 8.15472Z" fill="#F2F2F2"/>
<path d="M24.1021 33.5486L31.0014 37.4978V32.7872L28.2169 31.1933L24.2656 33.4552L24.1021 33.5486Z" fill="#E2E2E2"/>
<path d="M31.0015 37.4976L45.2263 29.3561L41.1115 27.0008L31.0015 32.787V37.4976Z" fill="#E9E9E9"/>
<path d="M7.46292 47.1651C7.46292 47.6843 7.37255 48.1674 7.19181 48.6143C7.01436 49.0613 6.76297 49.4507 6.43763 49.7826C6.1123 50.1112 5.7196 50.3692 5.25954 50.5565C4.80276 50.7438 4.29504 50.8374 3.73639 50.8374C3.17774 50.8374 2.66838 50.7438 2.20832 50.5565C1.74825 50.3692 1.35391 50.1112 1.02529 49.7826C0.699957 49.4507 0.446921 49.0613 0.266181 48.6143C0.088727 48.1674 0 47.6843 0 47.1651C0 46.6459 0.088727 46.1628 0.266181 45.7159C0.446921 45.269 0.699957 44.8812 1.02529 44.5526C1.35391 44.224 1.74825 43.966 2.20832 43.7787C2.66838 43.5914 3.17774 43.4977 3.73639 43.4977C4.29504 43.4977 4.80276 43.593 5.25954 43.7836C5.7196 43.971 6.1123 44.2289 6.43763 44.5575C6.76297 44.8862 7.01436 45.2739 7.19181 45.7208C7.37255 46.1678 7.46292 46.6492 7.46292 47.1651ZM5.75739 47.1651C5.75739 46.8102 5.71139 46.4915 5.61937 46.2088C5.52736 45.9229 5.39427 45.6814 5.2201 45.4842C5.04922 45.2871 4.83891 45.1359 4.58916 45.0307C4.33941 44.9256 4.05515 44.873 3.73639 44.873C3.41434 44.873 3.1268 44.9256 2.87377 45.0307C2.62402 45.1359 2.41206 45.2871 2.23789 45.4842C2.06701 45.6814 1.93556 45.9229 1.84355 46.2088C1.75154 46.4915 1.70553 46.8102 1.70553 47.1651C1.70553 47.5233 1.75154 47.8454 1.84355 48.1313C1.93556 48.4139 2.06701 48.6538 2.23789 48.8509C2.41206 49.0481 2.62402 49.1993 2.87377 49.3044C3.1268 49.4063 3.41434 49.4572 3.73639 49.4572C4.05515 49.4572 4.33941 49.4063 4.58916 49.3044C4.83891 49.1993 5.04922 49.0481 5.2201 48.8509C5.39427 48.6538 5.52736 48.4139 5.61937 48.1313C5.71139 47.8454 5.75739 47.5233 5.75739 47.1651Z" fill="white"/>
<path d="M14.3832 45.0357C14.3339 45.1145 14.2813 45.1737 14.2254 45.2131C14.1728 45.2526 14.1038 45.2723 14.0184 45.2723C13.9428 45.2723 13.8607 45.2493 13.7719 45.2033C13.6865 45.154 13.5879 45.0998 13.4762 45.0406C13.3677 44.9815 13.2429 44.9289 13.1016 44.8829C12.9602 44.8336 12.7992 44.8089 12.6185 44.8089C12.3063 44.8089 12.073 44.8763 11.9185 45.011C11.7674 45.1425 11.6918 45.3216 11.6918 45.5483C11.6918 45.6929 11.7378 45.8129 11.8298 45.9082C11.9218 46.0035 12.0418 46.0856 12.1896 46.1546C12.3408 46.2236 12.5117 46.2877 12.7023 46.3469C12.8962 46.4027 13.0933 46.4668 13.2938 46.5391C13.4942 46.6081 13.6898 46.6903 13.8804 46.7856C14.0743 46.8809 14.2451 47.0025 14.393 47.1503C14.5442 47.2982 14.6658 47.479 14.7578 47.6926C14.8498 47.9029 14.8958 48.1576 14.8958 48.4566C14.8958 48.7885 14.8383 49.099 14.7233 49.3882C14.6083 49.6774 14.4407 49.9304 14.2205 50.1473C14.0036 50.3609 13.7341 50.5302 13.4121 50.655C13.0933 50.7766 12.7302 50.8374 12.3227 50.8374C12.0993 50.8374 11.8709 50.8144 11.6376 50.7684C11.4075 50.7224 11.1841 50.6583 10.9672 50.5762C10.7503 50.4907 10.5465 50.3905 10.3559 50.2755C10.1653 50.1605 9.99939 50.0323 9.85809 49.891L10.351 49.1122C10.3904 49.0563 10.4414 49.0103 10.5038 48.9742C10.5695 48.9347 10.6402 48.915 10.7158 48.915C10.8144 48.915 10.913 48.9462 11.0115 49.0087C11.1134 49.0711 11.2268 49.1401 11.3517 49.2157C11.4798 49.2913 11.6261 49.3603 11.7904 49.4227C11.9547 49.4852 12.1486 49.5164 12.372 49.5164C12.6743 49.5164 12.9093 49.4507 13.0769 49.3192C13.2445 49.1845 13.3283 48.9725 13.3283 48.6833C13.3283 48.5157 13.2823 48.3794 13.1903 48.2742C13.0983 48.1691 12.9767 48.082 12.8255 48.013C12.6776 47.9439 12.5084 47.8832 12.3178 47.8306C12.1272 47.778 11.9317 47.7205 11.7312 47.6581C11.5308 47.5923 11.3352 47.5135 11.1446 47.4214C10.954 47.3261 10.7831 47.2029 10.632 47.0517C10.4841 46.8973 10.3642 46.7067 10.2721 46.48C10.1801 46.2499 10.1341 45.9673 10.1341 45.6321C10.1341 45.3627 10.1883 45.0998 10.2968 44.8434C10.4052 44.5871 10.5646 44.3587 10.7749 44.1583C10.9852 43.9578 11.2432 43.7984 11.5488 43.6801C11.8544 43.5585 12.2044 43.4977 12.5988 43.4977C12.8189 43.4977 13.0325 43.5158 13.2396 43.552C13.4499 43.5848 13.6487 43.6358 13.836 43.7048C14.0233 43.7705 14.1975 43.851 14.3585 43.9463C14.5228 44.0383 14.6691 44.1435 14.7972 44.2618L14.3832 45.0357Z" fill="white"/>
<path d="M20.3792 47.101C20.813 47.101 21.1252 46.9975 21.3158 46.7905C21.5064 46.5835 21.6017 46.2943 21.6017 45.9229C21.6017 45.7586 21.5771 45.6091 21.5278 45.4744C21.4785 45.3396 21.4029 45.2246 21.301 45.1293C21.2024 45.0307 21.0759 44.9552 20.9215 44.9026C20.7703 44.85 20.5896 44.8237 20.3792 44.8237H19.5117V47.101H20.3792ZM20.3792 43.5766C20.8853 43.5766 21.3191 43.6374 21.6806 43.759C22.0453 43.8773 22.3444 44.0416 22.5777 44.2519C22.8143 44.4622 22.9885 44.7103 23.1002 44.9962C23.2119 45.2821 23.2678 45.591 23.2678 45.9229C23.2678 46.2811 23.2103 46.6098 23.0953 46.9088C22.9803 47.2078 22.8044 47.4642 22.5678 47.6778C22.3312 47.8914 22.0305 48.059 21.6658 48.1806C21.3043 48.2989 20.8755 48.358 20.3792 48.358H19.5117V50.7586H17.8456V43.5766H20.3792Z" fill="white"/>
<path d="M28.4213 46.9532C28.648 46.9532 28.8403 46.9252 28.998 46.8694C29.159 46.8102 29.2905 46.7297 29.3923 46.6278C29.4942 46.526 29.5682 46.4077 29.6142 46.2729C29.6602 46.1349 29.6832 45.987 29.6832 45.8293C29.6832 45.5138 29.5797 45.2674 29.3726 45.0899C29.1689 44.9124 28.8518 44.8237 28.4213 44.8237H27.7509V46.9532H28.4213ZM31.9605 50.7586H30.4521C30.1728 50.7586 29.9724 50.6534 29.8508 50.4431L28.6579 48.358C28.602 48.2693 28.5396 48.2052 28.4706 48.1658C28.4016 48.123 28.303 48.1017 28.1748 48.1017H27.7509V50.7586H26.0848V43.5766H28.4213C28.9405 43.5766 29.3825 43.6308 29.7473 43.7393C30.1153 43.8444 30.4143 43.9923 30.6444 44.1829C30.8777 44.3735 31.0469 44.5986 31.1521 44.8582C31.2573 45.1178 31.3098 45.4004 31.3098 45.7061C31.3098 45.9394 31.2786 46.1596 31.2162 46.3666C31.1537 46.5736 31.0617 46.7659 30.9401 46.9433C30.8185 47.1175 30.6674 47.2736 30.4866 47.4116C30.3092 47.5496 30.1038 47.663 29.8705 47.7517C29.9789 47.8076 30.0808 47.8782 30.1761 47.9637C30.2714 48.0458 30.3568 48.1444 30.4324 48.2594L31.9605 50.7586Z" fill="white"/>
<path d="M36.2118 44.8582V46.5342H38.4694V47.7665H36.2118V49.477H39.1595V50.7586H34.5358V43.5766H39.1595V44.8582H36.2118Z" fill="white"/>
<path d="M45.5995 48.0277V50.7586H43.9334V48.0277L41.3307 43.5766H42.7997C42.9443 43.5766 43.0576 43.6111 43.1398 43.6801C43.2252 43.7458 43.2959 43.8313 43.3517 43.9364L44.3672 46.0265C44.4526 46.1908 44.5298 46.3452 44.5988 46.4898C44.6679 46.6311 44.7287 46.7708 44.7812 46.9088C44.8305 46.7675 44.8864 46.6262 44.9488 46.4849C45.0145 46.3403 45.0901 46.1875 45.1756 46.0265L46.1811 43.9364C46.2041 43.8937 46.2321 43.851 46.2649 43.8083C46.2978 43.7656 46.3356 43.7278 46.3783 43.6949C46.4243 43.6588 46.4753 43.6308 46.5311 43.6111C46.5903 43.5881 46.6544 43.5766 46.7234 43.5766H48.2021L45.5995 48.0277Z" fill="white"/>
</svg>
