<svg width="44" height="38" viewBox="0 0 44 38" fill="none" xmlns="http://www.w3.org/2000/svg">
<path d="M22.1025 28.8379L17.9852 31.1932L14.7746 29.3561V4.95368L5.09068 10.4968L0.97583 12.8521V8.14152L5.09068 5.78625L14.7746 0.24314L15.2007 0L18.8919 2.11213V27.0009L22.1025 28.8379Z" fill="#E2E2E2"/>
<path d="M5.09068 10.4968L14.7746 4.95368L18.8919 2.11213L15.2007 0L14.7746 0.24314L5.09068 5.78625L0.97583 8.14152V12.8521L5.09068 10.4968Z" fill="white"/>
<path d="M14.7741 4.95367V29.3561L18.8914 27.0009V2.11212L14.7741 4.95367Z" fill="#F2F2F2"/>
<path d="M43.2267 8.14152V12.8521L39.1119 10.4968L29.4255 4.95368V29.3561L26.2174 31.1932L22.266 33.4551L22.1025 33.5485L15.2007 37.4977L0.97583 29.3561L0.97583 8.14487L5.09068 10.4968V27.0009L15.2007 32.7871L17.9852 31.1932L22.1025 28.8379L25.3107 27.0009V2.11213L29.0019 0L43.2267 8.14152Z" fill="white"/>
<path d="M26.2168 31.1931L29.425 29.3561L25.3101 27.0008L22.102 28.8379L17.9846 31.1931L15.2001 32.7871V37.4976L22.102 33.5484L22.2655 33.4551L26.2168 31.1931Z" fill="#FAFAFA"/>
<path d="M0.975311 8.14478V29.356L5.09016 27.0008V10.4967L0.975311 8.14478Z" fill="#F2F2F2"/>
<path d="M0.975311 29.3561L15.2002 37.4976V32.7871L5.09016 27.0008L0.975311 29.3561Z" fill="#E2E2E2"/>
<path d="M29.425 29.3561V4.95367L25.3102 2.11212V27.0009L29.425 29.3561Z" fill="#F2F2F2"/>
<path d="M43.2262 8.15469V29.3562L29.0014 37.4977L22.102 33.5485L22.2655 33.4552L26.2168 31.1932L29.0014 32.7872L39.1114 27.0009V10.4968L43.2262 8.15469Z" fill="#F2F2F2"/>
<path d="M22.102 33.5486L29.0014 37.4977V32.7872L26.2168 31.1933L22.2655 33.4552L22.102 33.5486Z" fill="#E2E2E2"/>
<path d="M29.0015 37.4976L43.2263 29.3561L39.1115 27.0008L29.0015 32.7871V37.4976Z" fill="#E9E9E9"/>
</svg>
