<svg width="64" height="66" viewBox="0 0 64 66" fill="none" xmlns="http://www.w3.org/2000/svg">
<path d="M32.0018 38.0985L26.5623 41.2101L22.3207 38.7831V6.54443L9.52705 13.8676L4.09082 16.9792V10.756L9.52705 7.64436L22.3207 0.321219L22.8836 0L27.7602 2.79039V35.6715L32.0018 38.0985Z" fill="#3161B4"/>
<path d="M9.52705 13.8676L22.3207 6.54443L27.7602 2.79039L22.8836 0L22.3207 0.321219L9.52705 7.64436L4.09082 10.756V16.9792L9.52705 13.8676Z" fill="#14B1BD"/>
<path d="M22.3203 6.54445V38.7831L27.7598 35.6715V2.79041L22.3203 6.54445Z" fill="#3070E0"/>
<path d="M59.9095 10.756V16.9792L54.4733 13.8676L41.6764 6.54443V38.7831L37.438 41.2101L32.2178 44.1984L32.0018 44.3217L22.8836 49.5391L4.09082 38.7831L4.09082 10.7604L9.52705 13.8676V35.6715L22.8836 43.3159L26.5623 41.2101L32.0018 38.0985L36.2402 35.6715V2.79039L41.1167 0L59.9095 10.756Z" fill="#14B1BD"/>
<path d="M37.4372 41.21L41.6756 38.783L36.2394 35.6714L32.001 38.0984L26.5615 41.21L22.8828 43.3157V49.5389L32.001 44.3216L32.217 44.1983L37.4372 41.21Z" fill="#3070E0"/>
<path d="M4.09033 10.7603V38.783L9.52656 35.6714V13.8674L4.09033 10.7603Z" fill="#3070E0"/>
<path d="M4.09033 38.783L22.8831 49.5389V43.3157L9.52656 35.6714L4.09033 38.783Z" fill="#3161B4"/>
<path d="M41.676 38.7831V6.54445L36.2397 2.79041V35.6715L41.676 38.7831Z" fill="#3070E0"/>
<path d="M59.9092 10.7734V38.7832L41.1164 49.5391L32.0015 44.3218L32.2175 44.1985L37.4377 41.2102L41.1164 43.3159L54.473 35.6716V13.8676L59.9092 10.7734Z" fill="#3070E0"/>
<path d="M32.0015 44.3218L41.1164 49.5392V43.316L37.4377 41.2102L32.2175 44.1985L32.0015 44.3218Z" fill="#3161B4"/>
<path d="M41.1162 49.5389L59.909 38.783L54.4728 35.6714L41.1162 43.3157V49.5389Z" fill="#3161B4"/>
<path d="M9.90883 60.5358C9.90883 61.2432 9.78885 61.9014 9.54887 62.5103C9.31326 63.1192 8.97947 63.6498 8.54751 64.102C8.11556 64.5497 7.59415 64.9012 6.98331 65.1564C6.37682 65.4116 5.70271 65.5392 4.96096 65.5392C4.21922 65.5392 3.54292 65.4116 2.93207 65.1564C2.32122 64.9012 1.79764 64.5497 1.36132 64.102C0.929362 63.6498 0.593396 63.1192 0.353419 62.5103C0.117806 61.9014 0 61.2432 0 60.5358C0 59.8284 0.117806 59.1703 0.353419 58.5613C0.593396 57.9524 0.929362 57.4241 1.36132 56.9764C1.79764 56.5287 2.32122 56.1772 2.93207 55.922C3.54292 55.6668 4.21922 55.5392 4.96096 55.5392C5.70271 55.5392 6.37682 55.669 6.98331 55.9287C7.59415 56.1839 8.11556 56.5354 8.54751 56.9831C8.97947 57.4308 9.31326 57.9592 9.54887 58.5681C9.78885 59.177 9.90883 59.8329 9.90883 60.5358ZM7.64433 60.5358C7.64433 60.0523 7.58325 59.618 7.46108 59.2329C7.33891 58.8434 7.1622 58.5143 6.93095 58.2457C6.70406 57.9771 6.42482 57.7711 6.09321 57.6278C5.76161 57.4846 5.38419 57.4129 4.96096 57.4129C4.53337 57.4129 4.15159 57.4846 3.81562 57.6278C3.48402 57.7711 3.20259 57.9771 2.97134 58.2457C2.74445 58.5143 2.56993 58.8434 2.44776 59.2329C2.32559 59.618 2.2645 60.0523 2.2645 60.5358C2.2645 61.0238 2.32559 61.4626 2.44776 61.8521C2.56993 62.2372 2.74445 62.564 2.97134 62.8327C3.20259 63.1013 3.48402 63.3073 3.81562 63.4505C4.15159 63.5893 4.53337 63.6587 4.96096 63.6587C5.38419 63.6587 5.76161 63.5893 6.09321 63.4505C6.42482 63.3073 6.70406 63.1013 6.93095 62.8327C7.1622 62.564 7.33891 62.2372 7.46108 61.8521C7.58325 61.4626 7.64433 61.0238 7.64433 60.5358Z" fill="#14B1BD"/>
<path d="M19.0971 57.6346C19.0317 57.742 18.9619 57.8226 18.8877 57.8763C18.8179 57.9301 18.7263 57.9569 18.6128 57.9569C18.5125 57.9569 18.4034 57.9256 18.2856 57.8629C18.1721 57.7957 18.0412 57.7219 17.8929 57.6413C17.7489 57.5607 17.5831 57.489 17.3955 57.4264C17.2079 57.3592 16.9941 57.3256 16.7541 57.3256C16.3396 57.3256 16.0298 57.4174 15.8247 57.601C15.624 57.7801 15.5237 58.0241 15.5237 58.333C15.5237 58.53 15.5847 58.6934 15.7069 58.8233C15.8291 58.9531 15.9883 59.065 16.1847 59.1591C16.3854 59.2531 16.6123 59.3404 16.8653 59.421C17.1228 59.4971 17.3846 59.5844 17.6507 59.6829C17.9169 59.7769 18.1765 59.8889 18.4296 60.0187C18.687 60.1485 18.9139 60.3142 19.1102 60.5157C19.3109 60.7172 19.4724 60.9634 19.5945 61.2544C19.7167 61.541 19.7778 61.888 19.7778 62.2954C19.7778 62.7476 19.7014 63.1707 19.5487 63.5647C19.396 63.9587 19.1735 64.3035 18.8811 64.599C18.5932 64.89 18.2354 65.1206 17.8078 65.2907C17.3846 65.4564 16.9024 65.5392 16.3614 65.5392C16.0647 65.5392 15.7615 65.5078 15.4517 65.4452C15.1462 65.3825 14.8495 65.2952 14.5616 65.1832C14.2736 65.0668 14.0031 64.9303 13.75 64.7736C13.497 64.6169 13.2766 64.4423 13.089 64.2497L13.7435 63.1886C13.7958 63.1125 13.8635 63.0498 13.9464 63.0006C14.0336 62.9468 14.1274 62.92 14.2278 62.92C14.3587 62.92 14.4896 62.9625 14.6205 63.0476C14.7557 63.1326 14.9063 63.2267 15.0721 63.3296C15.2422 63.4326 15.4364 63.5266 15.6546 63.6117C15.8727 63.6968 16.1301 63.7393 16.4268 63.7393C16.8283 63.7393 17.1402 63.6498 17.3628 63.4707C17.5853 63.2871 17.6965 62.9983 17.6965 62.6043C17.6965 62.376 17.6355 62.1902 17.5133 62.0469C17.3911 61.9036 17.2297 61.785 17.029 61.691C16.8326 61.5969 16.6079 61.5141 16.3549 61.4425C16.1018 61.3708 15.8422 61.2925 15.576 61.2074C15.3099 61.1179 15.0503 61.0104 14.7972 60.8851C14.5441 60.7552 14.3172 60.5873 14.1165 60.3814C13.9202 60.1709 13.7609 59.9112 13.6388 59.6023C13.5166 59.2889 13.4555 58.9039 13.4555 58.4472C13.4555 58.08 13.5275 57.7219 13.6715 57.3726C13.8155 57.0234 14.0271 56.7122 14.3063 56.4391C14.5856 56.166 14.9281 55.9489 15.3339 55.7877C15.7396 55.622 16.2043 55.5392 16.7279 55.5392C17.0202 55.5392 17.3038 55.5638 17.5787 55.6131C17.858 55.6578 18.1219 55.7272 18.3707 55.8213C18.6194 55.9108 18.8506 56.0205 19.0644 56.1503C19.2826 56.2757 19.4767 56.419 19.6469 56.5802L19.0971 57.6346Z" fill="#14B1BD"/>
<path d="M27.0584 60.4485C27.6343 60.4485 28.0488 60.3075 28.3019 60.0254C28.5549 59.7433 28.6815 59.3493 28.6815 58.8434C28.6815 58.6196 28.6488 58.4158 28.5833 58.2323C28.5179 58.0487 28.4175 57.892 28.2822 57.7622C28.1514 57.6278 27.9834 57.5249 27.7783 57.4532C27.5776 57.3816 27.3376 57.3458 27.0584 57.3458H25.9065V60.4485H27.0584ZM27.0584 55.6466C27.7303 55.6466 28.3062 55.7295 28.7862 55.8951C29.2705 56.0563 29.6676 56.2802 29.9774 56.5667C30.2915 56.8533 30.5228 57.1913 30.6711 57.5808C30.8194 57.9703 30.8936 58.3912 30.8936 58.8434C30.8936 59.3314 30.8173 59.7792 30.6646 60.1866C30.5118 60.594 30.2784 60.9433 29.9643 61.2343C29.6501 61.5253 29.2509 61.7536 28.7666 61.9193C28.2866 62.0805 27.7172 62.1611 27.0584 62.1611H25.9065V65.4317H23.6943V55.6466H27.0584Z" fill="#14B1BD"/>
<path d="M37.7361 60.247C38.0372 60.247 38.2924 60.209 38.5019 60.1329C38.7157 60.0523 38.8902 59.9426 39.0254 59.8038C39.1607 59.665 39.2589 59.5038 39.32 59.3202C39.381 59.1322 39.4116 58.9307 39.4116 58.7158C39.4116 58.286 39.2741 57.9502 38.9993 57.7084C38.7287 57.4667 38.3077 57.3458 37.7361 57.3458H36.846V60.247H37.7361ZM42.4353 65.4317H40.4326C40.0617 65.4317 39.7955 65.2885 39.6341 65.0019L38.0503 62.1611C37.9761 62.0402 37.8932 61.9529 37.8016 61.8992C37.7099 61.841 37.579 61.8119 37.4089 61.8119H36.846V65.4317H34.6339V55.6466H37.7361C38.4255 55.6466 39.0124 55.7205 39.4967 55.8683C39.9853 56.0115 40.3824 56.213 40.6878 56.4727C40.9976 56.7324 41.2223 57.0391 41.3619 57.3928C41.5016 57.7465 41.5714 58.1315 41.5714 58.5479C41.5714 58.8658 41.5299 59.1658 41.447 59.4478C41.3641 59.7299 41.2419 59.9918 41.0805 60.2336C40.9191 60.4709 40.7184 60.6836 40.4784 60.8716C40.2428 61.0597 39.9701 61.2141 39.6603 61.335C39.8043 61.4111 39.9395 61.5074 40.0661 61.6238C40.1926 61.7357 40.306 61.8701 40.4064 62.0268L42.4353 65.4317Z" fill="#14B1BD"/>
<path d="M48.0799 57.3928V59.6762H51.0774V61.3552H48.0799V63.6856H51.9937V65.4317H45.8546V55.6466H51.9937V57.3928H48.0799Z" fill="#14B1BD"/>
<path d="M60.5443 61.7111V65.4317H58.3322V61.7111L54.8765 55.6466H56.8269C57.0189 55.6466 57.1694 55.6937 57.2785 55.7877C57.3919 55.8772 57.4857 55.9936 57.5599 56.1369L58.9081 58.9844C59.0216 59.2083 59.1241 59.4187 59.2158 59.6157C59.3074 59.8083 59.3881 59.9986 59.4579 60.1866C59.5234 59.9941 59.5975 59.8016 59.6804 59.609C59.7677 59.412 59.8681 59.2038 59.9815 58.9844L61.3166 56.1369C61.3472 56.0787 61.3843 56.0205 61.4279 55.9623C61.4715 55.9041 61.5217 55.8526 61.5784 55.8078C61.6395 55.7586 61.7071 55.7205 61.7813 55.6937C61.8598 55.6623 61.9449 55.6466 62.0366 55.6466H64L60.5443 61.7111Z" fill="#14B1BD"/>
</svg>
