<svg xmlns="http://www.w3.org/2000/svg" width="30" height="31" fill="none" viewBox="0 0 30 31">
    <mask id="eo6jqgk5fa" fill="#fff">
        <path fill-rule="evenodd" d="M9.34 4.96h13.798v19.344h-1.15L21.99 6.11l-12.65.056V4.96zM7.145 8.837h12.117V24.59l-.75.75-1.327-1.326-1.352 1.33-1.319-1.32-1.34 1.32-1.32-1.32-1.34 1.32L9.18 24.01l-1.33 1.33-.706-.705V8.837zM6 25.109l1.85 1.851 1.33-1.33 1.327 1.327 1.341-1.319 1.319 1.319 1.34-1.319 1.319 1.319 1.352-1.33 1.333 1.333 1.896-1.896V7.691H6V25.11zm8.111-7.346c-.142-.348-.574-.45-.911-.55-.38-.112-.776-.212-1.103-.438-.974-.672-.905-2.297.223-2.789.115-.05.236-.084.36-.11l-.103-.796h1.22l-.105.81c.203.046.399.118.572.228.367.232.565.603.653 1l-.974.192c-.047-.138-.121-.267-.237-.36-.135-.108-.315-.158-.492-.164-.317-.01-.731.072-.852.391-.067.177-.022.382.113.518.122.123.415.25.883.382.467.133.812.27 1.036.411.224.142.399.335.525.581.376.73.222 1.813-.467 2.331-.216.162-.475.265-.746.318l.09.699h-1.219l.093-.72c-.258-.064-.5-.175-.703-.34-.386-.317-.587-.788-.679-1.27l.928-.21c.08.5.45.892.999.892.309 0 .542-.078.699-.235.2-.201.305-.504.197-.77zm-.907 4.002c2.77 0 5.016-2.246 5.016-5.016s-2.246-5.017-5.016-5.017-5.017 2.246-5.017 5.017c0 2.77 2.246 5.016 5.017 5.016z" clip-rule="evenodd"/>
    </mask>
    <path fill="#14B1BD" fill-rule="evenodd" d="M9.34 4.96h13.798v19.344h-1.15L21.99 6.11l-12.65.056V4.96zM7.145 8.837h12.117V24.59l-.75.75-1.327-1.326-1.352 1.33-1.319-1.32-1.34 1.32-1.32-1.32-1.34 1.32L9.18 24.01l-1.33 1.33-.706-.705V8.837zM6 25.109l1.85 1.851 1.33-1.33 1.327 1.327 1.341-1.319 1.319 1.319 1.34-1.319 1.319 1.319 1.352-1.33 1.333 1.333 1.896-1.896V7.691H6V25.11zm8.111-7.346c-.142-.348-.574-.45-.911-.55-.38-.112-.776-.212-1.103-.438-.974-.672-.905-2.297.223-2.789.115-.05.236-.084.36-.11l-.103-.796h1.22l-.105.81c.203.046.399.118.572.228.367.232.565.603.653 1l-.974.192c-.047-.138-.121-.267-.237-.36-.135-.108-.315-.158-.492-.164-.317-.01-.731.072-.852.391-.067.177-.022.382.113.518.122.123.415.25.883.382.467.133.812.27 1.036.411.224.142.399.335.525.581.376.73.222 1.813-.467 2.331-.216.162-.475.265-.746.318l.09.699h-1.219l.093-.72c-.258-.064-.5-.175-.703-.34-.386-.317-.587-.788-.679-1.27l.928-.21c.08.5.45.892.999.892.309 0 .542-.078.699-.235.2-.201.305-.504.197-.77zm-.907 4.002c2.77 0 5.016-2.246 5.016-5.016s-2.246-5.017-5.016-5.017-5.017 2.246-5.017 5.017c0 2.77 2.246 5.016 5.017 5.016z" clip-rule="evenodd"/>
    <path fill="#14B1BD" d="M9.34 4.96v-1h-1v1h1zm13.798 0h1v-1h-1v1zm0 19.344v1h1v-1h-1zm-1.15 0h-1v1h1v-1zM21.99 6.11h1V5.105l-1.004.004.004 1zm-12.65.056h-1V7.17l1.005-.005-.004-1zM7.146 8.837v-1h-1v1h1zm12.117 0h1v-1h-1v1zm0 15.753l.707.707.293-.293v-.414h-1zm-.75.75l-.708.707.708.707.707-.707-.708-.707zm-1.327-1.326l.707-.707-.701-.702-.707.696.7.713zm-1.352 1.33l-.707.707.701.7.707-.695-.701-.713zm-1.319-1.32l.707-.706-.7-.701-.708.695.701.713zm-1.34 1.32l-.708.706.701.702.707-.695-.7-.713zm-1.32-1.32l.708-.706-.701-.702-.707.696.7.713zm-1.34 1.32l-.707.707.7.7.708-.695-.701-.713zM9.18 24.01l.707-.707-.707-.707-.708.707.708.707zm-1.33 1.33l-.707.707.707.707.707-.707-.707-.707zm-.706-.705h-1v.414l.293.293.707-.707zM6 25.109H5v.414l.293.293.707-.707zm1.85 1.851l-.706.707.707.707.707-.707-.707-.707zm1.33-1.33l.708-.707-.707-.707-.708.707.708.707zm1.327 1.327l-.707.707.701.701.707-.695-.7-.713zm1.341-1.319l.707-.707-.701-.701-.707.695.701.713zm1.319 1.319l-.708.707.702.701.707-.695-.701-.713zm1.34-1.319l.707-.707-.7-.701-.708.695.701.713zm1.319 1.319l-.707.707.701.701.707-.695-.701-.713zm1.352-1.33l.707-.707-.7-.702-.708.696.701.713zm1.333 1.333l-.707.707.707.707.707-.707-.707-.707zm1.896-1.896l.707.707.293-.293v-.414h-1zm0-17.373h1v-1h-1v1zM6 7.691v-1H5v1h1zm8.111 10.072l-.927.377.927-.377zm-.911-.55l.284-.958-.284.959zm-1.103-.438l-.568.824.568-.823zm.223-2.789l-.4-.917.4.917zm.36-.11l.207.979.903-.191-.118-.916-.992.128zm-.103-.796v-1H11.44l.145 1.129.992-.129zm1.22 0l.991.128.146-1.128h-1.137v1zm-.105.81l-.992-.129-.116.899.883.204.225-.975zm.572.228l.535-.845-.535.845zm.653 1l.194.98 1.002-.198-.22-.998-.976.215zm-.974.192l-.948.32.28.832.862-.17-.194-.982zm-.237-.36l.625-.78-.625.78zm-.492-.164l.032-1-.032 1zm-.852.391l.935.355-.935-.355zm.113.518l-.71.704v.001l.71-.704zm.883.382l-.273.962.272-.962zm1.036.411l.536-.844-.002-.001-.534.845zm.525.581l.89-.458-.89.458zm-.467 2.331l.6.8-.6-.8zm-.746.318l-.195-.98-.916.182.12.926.991-.128zm.09.699v1h1.138l-.146-1.129-.991.129zm-1.219 0l-.992-.129-.146 1.129h1.138v-1zm.093-.72l.992.128.114-.882-.864-.216-.242.97zm-.703-.34l-.632.774.632-.775zm-.679-1.27l-.22-.975-.943.213.181.95.982-.188zm.928-.21l.988-.158-.17-1.051-1.038.235.22.975zm1.698.657l.708.706-.708-.706zM9.34 5.96h13.798v-2H9.34v2zm12.798-1v19.344h2V4.96h-2zm1 18.344h-1.15v2h1.15v-2zm-.15 1L22.99 6.11h-2v18.195h2zM21.986 5.11l-12.65.056.01 2 12.649-.056-.01-2zM10.34 6.165V4.96h-2v1.205h2zM7.145 9.837h12.117v-2H7.145v2zm11.117-1V24.59h2V8.837h-2zm.292 15.046l-.75.75 1.415 1.414.75-.75-1.415-1.414zm.665.75l-1.327-1.326-1.414 1.414 1.326 1.326 1.415-1.414zm-2.735-1.332l-1.352 1.33 1.402 1.425 1.352-1.33-1.402-1.425zm.056 1.335l-1.319-1.318-1.414 1.414 1.319 1.319 1.414-1.415zm-2.727-1.324l-1.341 1.318 1.402 1.427 1.341-1.32-1.402-1.425zm.067 1.324l-1.318-1.318-1.414 1.414 1.318 1.319 1.414-1.415zm-2.726-1.324L9.813 24.63l1.402 1.427 1.34-1.32-1.401-1.425zm.067 1.324l-1.333-1.333-1.415 1.414 1.334 1.334 1.414-1.415zm-2.748-1.333l-1.33 1.33 1.415 1.414 1.33-1.33-1.415-1.414zm.085 1.33l-.706-.705-1.414 1.414.706.705 1.414-1.414zm-.413.002V8.837h-2v15.798h2zm-2.852 1.181l1.85 1.851 1.415-1.414-1.85-1.851-1.415 1.414zm3.265 1.851l1.33-1.33-1.415-1.414-1.33 1.33 1.415 1.414zm-.085-1.33L9.8 27.664l1.414-1.414-1.326-1.327-1.415 1.414zm2.735 1.333l1.341-1.319-1.402-1.426-1.341 1.319 1.402 1.426zm-.067-1.325l1.318 1.319 1.415-1.414-1.319-1.319-1.414 1.414zm2.727 1.325l1.34-1.319-1.402-1.426-1.34 1.319 1.402 1.426zm-.068-1.325l1.319 1.319 1.414-1.414-1.319-1.319-1.414 1.414zm2.727 1.325l1.352-1.33-1.402-1.426-1.352 1.33 1.402 1.426zm-.056-1.336l1.333 1.333 1.415-1.414-1.334-1.333-1.414 1.414zm2.747 1.333l1.896-1.896-1.414-1.414-1.896 1.896 1.415 1.414zm2.19-2.603V7.691h-2v17.373h2zm-1-18.373H6v2h14.407v-2zM5 7.691V25.11h2V7.69H5zm10.037 9.696c-.2-.496-.592-.756-.873-.892-.262-.127-.562-.205-.68-.24l-.569 1.918.133.038.11.034c.069.022.11.038.135.05.025.012.014.011-.011-.012-.03-.027-.07-.076-.098-.143l1.854-.753zm-1.554-1.132c-.45-.133-.654-.19-.818-.303L11.53 17.6c.49.338 1.075.482 1.386.574l.567-1.918zm-.818-.303c-.157-.108-.264-.32-.247-.573.016-.242.135-.404.301-.476l-.8-1.834c-.96.42-1.44 1.317-1.497 2.179-.056.85.29 1.787 1.107 2.35l1.136-1.646zm.054-1.05c.031-.013.082-.03.168-.047l-.414-1.957c-.16.034-.354.085-.553.171l.799 1.834zm.953-1.154l-.103-.796-1.984.257.103.795 1.984-.256zm-1.095.332h1.22v-2h-1.22v2zm.228-1.128l-.105.81 1.984.256.104-.81-1.983-.256zm.662 1.912c.124.028.208.065.263.1l1.069-1.691c-.292-.185-.6-.293-.882-.358l-.45 1.949zm.263.1c.077.048.162.148.21.368l1.953-.43c-.126-.573-.439-1.214-1.094-1.629l-1.07 1.69zm.992-.828l-.973.193.388 1.962.974-.193-.389-1.962zm.168.855c-.087-.259-.25-.574-.559-.821l-1.25 1.56c-.077-.061-.092-.119-.086-.1l1.895-.64zm-.559-.821c-.35-.281-.76-.373-1.085-.383l-.065 1.998c.008 0 .005.002-.009-.003-.014-.004-.049-.018-.091-.052l1.25-1.56zm-1.085-.384c-.243-.007-.565.017-.882.136-.323.12-.74.383-.937.901l1.87.709c-.034.09-.09.16-.142.205-.048.041-.085.056-.09.058-.006.002.003-.002.03-.006.026-.003.056-.005.087-.004l.064-1.999zm-1.82 1.037c-.208.552-.065 1.168.339 1.576l1.421-1.407c.133.134.187.34.111.54l-1.87-.709zm.34 1.577c.197.199.443.322.623.4.203.088.439.167.696.24l.545-1.925c-.21-.06-.354-.11-.446-.15-.045-.02-.066-.032-.07-.034-.008-.004.025.013.07.06l-1.418 1.41zm1.319.64c.437.124.673.23.775.294l1.068-1.691c-.346-.219-.801-.387-1.298-.528l-.545 1.924zm.773.293c.068.043.124.1.172.194l1.778-.916c-.204-.397-.499-.727-.878-.967l-1.072 1.689zm.172.194c.076.146.114.371.071.607-.042.234-.147.39-.25.467l1.202 1.599c.586-.441.903-1.087 1.016-1.707.112-.618.04-1.299-.26-1.882l-1.779.916zm-.18 1.074c-.07.053-.18.105-.339.136l.39 1.962c.383-.076.79-.228 1.152-.5l-1.202-1.598zm-1.135 1.245l.09.699 1.983-.257-.09-.698-1.983.256zm1.082-.43h-1.22v2h1.22v-2zm-.228 1.129l.093-.72-1.984-.256-.093.72 1.984.256zm-.657-1.818c-.141-.035-.243-.089-.312-.145l-1.265 1.549c.335.274.718.443 1.093.536l.484-1.94zm-.312-.145c-.136-.111-.261-.326-.33-.682l-1.964.375c.116.606.391 1.335 1.029 1.856l1.265-1.549zm-1.091.48l.928-.209-.44-1.95-.929.21.44 1.95zm-.28-1.025c.144.897.865 1.732 1.986 1.732v-2c-.016 0-.017-.002-.009.001.008.003.015.008.019.011.006.007-.013-.007-.021-.062l-1.975.318zm1.986 1.732c.468 0 .998-.12 1.407-.529l-1.416-1.413c.02-.02.04-.035.059-.046.018-.011.032-.016.037-.018.01-.003-.014.006-.087.006v2zm1.408-.53c.392-.394.717-1.108.414-1.853l-1.852.755c-.042-.103-.033-.192-.02-.239.012-.042.03-.063.04-.074l1.418 1.411zm-1.42 3.526c3.323 0 6.017-2.694 6.017-6.016h-2c0 2.218-1.798 4.016-4.016 4.016v2zm6.017-6.016c0-3.323-2.694-6.017-6.016-6.017v2c2.218 0 4.016 1.798 4.016 4.017h2zm-6.016-6.017c-3.323 0-6.017 2.694-6.017 6.017h2c0-2.219 1.798-4.017 4.017-4.017v-2zM7.187 16.75c0 3.322 2.694 6.016 6.017 6.016v-2c-2.219 0-4.017-1.798-4.017-4.016h-2z" mask="url(#eo6jqgk5fa)"/>
</svg>
