<svg xmlns="http://www.w3.org/2000/svg" width="20" height="20" fill="none" viewBox="0 0 20 20">
    <path fill="#96A5B8" d="M13.563 17.333c-.268-.045-.538-.08-.804-.137-.992-.245-1.943-.634-2.823-1.156-1.383-.769-2.638-1.75-3.716-2.91-1.312-1.426-2.404-2.997-3.092-4.824-.267-.657-.42-1.355-.454-2.063-.026-.347.021-.695.139-1.022.117-.327.301-.626.541-.877.411-.421.808-.857 1.25-1.24.683-.587 1.426-.587 2.085.027.697.653 1.37 1.34 2.017 2.038.238.256.37.592.37.942s-.132.685-.37.942c-.344.39-.726.747-1.09 1.12-.033.032-.068.059-.128.114.971 1.758 2.422 3.205 4.183 4.172l.869-.878c.213-.252.48-.453.782-.587.237-.103.5-.134.754-.089.254.046.49.165.676.343.73.694 1.44 1.407 2.132 2.14.235.252.369.581.375.925.007.344-.113.678-.338.94-.438.515-.923 1.005-1.414 1.478-.35.321-.794.52-1.267.565-.034.008-.067.018-.1.03l-.577.007zm.217-.882c.24.013.482-.026.706-.114.225-.088.428-.224.595-.398.328-.345.665-.681.997-1.021.043-.044.084-.09.122-.137.056-.057.1-.125.13-.2.03-.074.045-.154.043-.234-.001-.08-.02-.16-.052-.233-.033-.073-.08-.14-.139-.194-.268-.29-.552-.563-.83-.843-.361-.362-.72-.726-1.085-1.082-.053-.06-.118-.108-.19-.142-.073-.033-.152-.052-.232-.054-.08-.002-.16.012-.234.042-.075.03-.142.074-.199.13-.055.046-.103.097-.154.148-.348.346-.693.696-1.043 1.038-.1.116-.239.193-.39.219-.152.025-.308-.003-.441-.08-.213-.107-.425-.215-.63-.336-.904-.553-1.723-1.236-2.43-2.027-.654-.67-1.197-1.442-1.607-2.284-.207-.458-.162-.681.195-1.03.358-.347.742-.717 1.096-1.093.057-.051.103-.114.135-.184.032-.07.049-.145.05-.222.002-.077-.013-.154-.043-.225-.03-.07-.073-.135-.128-.188-.044-.051-.089-.098-.133-.145L6.17 3.837c-.368-.362-.694-.366-1.062 0-.368.366-.714.688-1.048 1.054-.165.17-.298.37-.392.587-.147.467-.153.967-.017 1.438.163.73.419 1.437.763 2.102.59 1.173 1.337 2.26 2.222 3.23 1.522 1.733 3.45 3.063 5.61 3.873.491.185 1.008.294 1.533.322v.008z"/>
</svg>
