
<svg width="158" height="51" viewBox="0 0 158 51" fill="none" xmlns="http://www.w3.org/2000/svg">
<path d="M8.1068 0C6.50343 0 4.93606 0.475451 3.60291 1.36624C2.26975 2.25702 1.23068 3.52314 0.617095 5.00446C0.00351059 6.48578 -0.157028 8.11579 0.155774 9.68835C0.468577 11.2609 1.24067 12.7054 2.37443 13.8392C3.50819 14.9729 4.95268 15.745 6.52524 16.0578C8.09781 16.3706 9.72782 16.2101 11.2091 15.5965C12.6905 14.9829 13.9566 13.9438 14.8474 12.6107C15.7381 11.2775 16.2136 9.71017 16.2136 8.10679C16.2107 5.95764 15.3556 3.89736 13.8359 2.37768C12.3162 0.858 10.256 0.00294876 8.1068 0ZM8.1068 13.0296C7.13317 13.0296 6.1814 12.7409 5.37185 12.1999C4.5623 11.659 3.93134 10.8902 3.55874 9.99066C3.18615 9.09114 3.08866 8.10133 3.27861 7.14641C3.46856 6.19148 3.93741 5.31433 4.62587 4.62587C5.31433 3.9374 6.19149 3.46855 7.14642 3.2786C8.10134 3.08866 9.09115 3.18614 9.99067 3.55874C10.8902 3.93133 11.659 4.5623 12.1999 5.37185C12.7409 6.18139 13.0296 7.13316 13.0296 8.10679C13.0286 9.4121 12.5096 10.6637 11.5866 11.5866C10.6637 12.5096 9.4121 13.0286 8.1068 13.0296Z" fill="#EAE0C7"/>
<path d="M3.53191 18.4316C4.78768 25.4164 6.93513 30.7404 8.10545 30.7404C9.27577 30.7404 11.4232 25.4164 12.679 18.4316H15.9187C14.9565 24.1866 12.6604 33.9245 8.1166 33.9245C3.57278 33.9245 1.26557 24.1866 0.314453 18.4316H3.53191Z" fill="#EAE0C7"/>
<path d="M3.53191 50.9851C4.78768 44.0004 6.93513 38.6949 8.10545 38.6949C9.27577 38.6949 11.4232 44.0152 12.679 51H15.9187C14.9565 45.245 12.6604 35.5072 8.1166 35.5072C3.57278 35.5072 1.26557 45.245 0.314453 51L3.53191 50.9851Z" fill="#EAE0C7"/>
<path d="M129.457 22.485C131.059 22.4843 132.625 22.9587 133.957 23.8482C135.29 24.7377 136.329 26.0024 136.942 27.4823C137.556 28.9622 137.717 30.5909 137.405 32.1622C137.093 33.7336 136.321 35.1771 135.189 36.3102C134.056 37.4433 132.613 38.2151 131.042 38.5279C129.471 38.8407 127.842 38.6805 126.362 38.0676C124.882 37.4547 123.616 36.4166 122.726 35.0846C121.836 33.7526 121.361 32.1865 121.361 30.5844C121.364 28.4379 122.218 26.38 123.735 24.8619C125.253 23.3437 127.31 22.489 129.457 22.485ZM129.457 17.2428C126.818 17.242 124.238 18.0239 122.043 19.4894C119.849 20.955 118.138 23.0384 117.128 25.4762C116.118 27.914 115.853 30.5967 116.367 33.185C116.882 35.7732 118.152 38.1508 120.018 40.0171C121.883 41.8833 124.261 43.1543 126.849 43.6694C129.437 44.1845 132.12 43.9205 134.558 42.9109C136.996 41.9012 139.08 40.1911 140.546 37.997C142.012 35.8029 142.795 33.2233 142.795 30.5844C142.795 28.8325 142.451 27.0977 141.78 25.4791C141.11 23.8604 140.128 22.3896 138.889 21.1507C137.651 19.9117 136.18 18.9289 134.562 18.2584C132.943 17.5879 131.209 17.2428 129.457 17.2428Z" fill="#EAE0C7"/>
<path d="M157.972 23.4362V18.1939H150.586V11.7478H145.344V35.1096C145.346 37.3212 146.225 39.4416 147.789 41.0054C149.353 42.5691 151.473 43.4485 153.685 43.4505H156.527V38.2082H153.685C152.863 38.2072 152.076 37.8805 151.495 37.2996C150.914 36.7187 150.587 35.9311 150.586 35.1096V23.4362H157.972Z" fill="#EAE0C7"/>
<path d="M60.5528 18.4316H55.3105V43.209H60.5528V18.4316Z" fill="#EAE0C7"/>
<path d="M110.668 18.4316C108.606 29.9268 105.072 38.6949 103.144 38.6949C101.216 38.6949 97.6825 29.9379 95.6205 18.4428H90.2891C91.8681 27.9168 95.6502 43.9372 103.144 43.9372C110.638 43.9372 114.42 27.9205 116.003 18.4316H110.668Z" fill="#EAE0C7"/>
<path d="M83.8355 18.4316C81.7846 29.9268 78.2365 38.6949 76.312 38.6949C74.3875 38.6949 70.8505 29.9268 68.7811 18.4316H63.457C65.036 27.9057 68.8182 43.9261 76.312 43.9261C83.8058 43.9261 87.5879 27.9057 89.1669 18.4316H83.8355Z" fill="#EAE0C7"/>
<path d="M57.9301 15.3182C59.7727 15.3182 61.2664 13.8245 61.2664 11.9819C61.2664 10.1393 59.7727 8.64552 57.9301 8.64552C56.0875 8.64552 54.5938 10.1393 54.5938 11.9819C54.5938 13.8245 56.0875 15.3182 57.9301 15.3182Z" fill="#EAE0C7"/>
<path d="M29.0723 11.7478H40.9427C48.0018 11.7478 52.3784 15.7492 52.3784 21.8126V21.898C52.3784 28.6487 46.9615 32.1746 40.3371 32.1746H34.3629V43.1533H29.0723V11.7478ZM40.5117 27.4041C44.5094 27.4041 47.0061 25.1749 47.0061 22.0281V21.9426C47.0061 18.4131 44.4685 16.5666 40.5117 16.5666H34.3629V27.4041H40.5117Z" fill="#EAE0C7"/>
</svg>
