<?xml version="1.0" encoding="utf-8"?>
<!-- Generator: Adobe Illustrator 26.0.2, SVG Export Plug-In . SVG Version: 6.00 Build 0)  -->
<svg version="1.1" id="Layer_1" xmlns="http://www.w3.org/2000/svg" xmlns:xlink="http://www.w3.org/1999/xlink" x="0px" y="0px"
	 viewBox="0 0 105 106" style="enable-background:new 0 0 105 106;" xml:space="preserve">
<style type="text/css">
	.st0{fill:#231E1E;}
	.st1{fill:none;stroke:#FFFFFF;stroke-width:4;}
	.st2{fill:#FFFFFF;}
</style>
<path class="st0" d="M52.9,2L52.9,2c27.6,0,50,22.4,50,50v1.2c0,27.6-22.4,50-50,50l0,0c-27.6,0-50-22.4-50-50V52
	C2.9,24.3,25.3,2,52.9,2z"/>
<path class="st1" d="M52.9,2L52.9,2c27.6,0,50,22.4,50,50v1.2c0,27.6-22.4,50-50,50l0,0c-27.6,0-50-22.4-50-50V52
	C2.9,24.3,25.3,2,52.9,2z"/>
<g>
	<path class="st2" d="M33.1,46.4c1,0,1.9-0.8,1.9-1.9s-0.8-1.9-1.9-1.9s-1.9,0.8-1.9,1.9S32.1,46.4,33.1,46.4z"/>
	<path class="st2" d="M73,50.4c0.9,0,1.8,0.3,2.5,0.8s1.3,1.2,1.7,2c0.3,0.8,0.4,1.7,0.3,2.6c-0.2,0.9-0.6,1.7-1.2,2.3
		s-1.4,1.1-2.3,1.2c-0.9,0.2-1.8,0.1-2.6-0.3c-0.8-0.3-1.5-0.9-2-1.7c-0.5-0.7-0.8-1.6-0.8-2.5c0-1.2,0.5-2.3,1.3-3.2
		C70.6,50.9,71.8,50.4,73,50.4z M73,47.5c-1.5,0-2.9,0.4-4.1,1.3c-1.2,0.8-2.2,2-2.7,3.3c-0.6,1.4-0.7,2.9-0.4,4.3
		c0.3,1.4,1,2.8,2,3.8s2.4,1.7,3.8,2s2.9,0.1,4.3-0.4c1.4-0.6,2.5-1.5,3.3-2.7s1.3-2.7,1.3-4.1c0-1-0.2-1.9-0.6-2.8
		c-0.4-0.9-0.9-1.7-1.6-2.4s-1.5-1.2-2.4-1.6C74.9,47.7,73.9,47.5,73,47.5z"/>
	<path class="st2" d="M88.9,50.9V48h-4.1v-3.6h-2.9v13c0,1.2,0.5,2.4,1.4,3.3c0.9,0.9,2.1,1.4,3.3,1.4H88v-2.9h-1.6
		c-0.5,0-0.9-0.2-1.2-0.5c-0.3-0.3-0.5-0.8-0.5-1.2V51L88.9,50.9L88.9,50.9z"/>
	<path class="st2" d="M34.6,48.2h-2.9V62h2.9V48.2z"/>
	<path class="st2" d="M62.5,48.2c-1.1,6.4-3.1,11.3-4.2,11.3c-1.1,0-3-4.9-4.2-11.3h-3c0.9,5.3,3,14.2,7.2,14.2s6.3-8.9,7.2-14.2
		H62.5z"/>
	<path class="st2" d="M47.5,48.2c-1.1,6.4-3.1,11.3-4.2,11.3c-1.1,0-3-4.9-4.2-11.3h-3c0.9,5.3,3,14.2,7.2,14.2s6.3-8.9,7.2-14.2
		H47.5z"/>
	<path class="st2" d="M17,44.4h6.6c3.9,0,6.4,2.2,6.4,5.6l0,0c0,3.8-3,5.7-6.7,5.7H20v6.1h-3V44.4z M23.4,53.2c2.2,0,3.6-1.2,3.6-3
		l0,0c0-2-1.4-3-3.6-3H20v6H23.4z"/>
</g>
</svg>
