<svg xmlns="http://www.w3.org/2000/svg" width="16" height="16" fill="none" viewBox="0 0 16 16">
    <path fill="#231E1E" d="M13.834 6.372c-.08-.24-.283-.414-.535-.451l-3.252-.472-1.453-2.948c-.113-.229-.341-.368-.593-.368-.255 0-.48.142-.593.368L5.953 5.449 2.7 5.921c-.251.037-.454.211-.532.451-.081.243-.015.504.168.677L4.69 9.344l-.556 3.238c-.043.251.058.497.264.648.205.147.471.168.697.049l2.902-1.525 2.908 1.528c.098.052.206.078.31.078.136 0 .272-.043.388-.127.205-.15.306-.397.263-.649l-.553-3.237 2.352-2.295c.183-.176.246-.437.168-.68z"/>
</svg>
