<svg xmlns="http://www.w3.org/2000/svg" width="24" height="24" fill="none" viewBox="0 0 24 24">
    <path fill="#F44336" fill-rule="evenodd" d="M15.177 5.669h4.937c.18.005.351.08.479.207.127.127.201.298.207.478 0 .182-.072.357-.2.485-.13.129-.304.2-.486.2h-1.188v10.698c.003.481-.09.958-.272 1.403-.183.445-.453.85-.793 1.19-.34.34-.744.61-1.19.792-.444.183-.921.275-1.402.272H8.753c-.97 0-1.9-.385-2.586-1.07-.686-.687-1.07-1.617-1.07-2.587V7.04H3.885c-.182 0-.357-.072-.485-.2-.129-.13-.201-.304-.201-.486.006-.18.08-.35.207-.478.128-.128.299-.202.479-.207h4.937v-.64c0-.485.192-.95.535-1.293.343-.343.808-.536 1.293-.536h2.697c.486 0 .95.193 1.293.536.343.342.536.808.536 1.293v.64zm-4.849-.964c-.086.086-.134.202-.134.324v.64h3.612v-.64c0-.122-.048-.238-.134-.324-.086-.085-.202-.134-.324-.134h-2.697c-.12 0-.237.049-.323.134zm7.052 13.907c.115-.277.174-.575.174-.875V7.04H6.47v10.697c0 .3.059.598.174.875.114.277.283.53.495.741.212.213.464.381.742.496.277.115.574.174.874.174h6.514c.3 0 .598-.06.875-.174.277-.115.53-.283.742-.496.212-.212.38-.464.495-.741zm-8.027-.961c-.128.128-.303.2-.484.2-.18-.005-.352-.08-.479-.207s-.201-.298-.207-.478V9.394c0-.182.072-.356.2-.485.13-.128.304-.2.486-.2.09-.004.181.012.266.045.084.034.161.084.226.148.064.065.114.141.148.226.033.085.048.175.045.266v7.772c0 .181-.072.356-.2.485zm2.647.2c.182 0 .356-.072.485-.2.128-.13.2-.303.2-.485V9.394c0-.182-.072-.356-.2-.485-.129-.128-.303-.2-.485-.2s-.356.072-.485.2c-.129.129-.2.303-.2.485v7.772c0 .181.072.356.2.485.129.128.303.2.485.2zm3.61-.207c-.127.128-.299.202-.479.207-.181 0-.356-.072-.485-.2-.128-.13-.2-.303-.2-.485V9.394c-.003-.09.012-.181.045-.266.034-.085.084-.161.148-.226.065-.064.142-.114.226-.148.085-.033.175-.049.266-.045.182 0 .357.072.485.2.129.129.201.303.201.485v7.772c-.006.18-.08.35-.207.478z" clip-rule="evenodd"/>
</svg>
