<svg xmlns="http://www.w3.org/2000/svg" width="31" height="30" fill="none" viewBox="0 0 31 30">
    <path fill="#231E1E" d="M8.133 4c-.804 0-1.466.663-1.466 1.467v19.066c0 .804.662 1.467 1.466 1.467h14.178c.804 0 1.467-.663 1.467-1.467V5.467c0-.804-.663-1.467-1.467-1.467H8.133zm0 .978h14.178c.28 0 .489.21.489.489v19.066c0 .28-.21.49-.489.49H8.133c-.279 0-.489-.21-.489-.49V5.467c0-.28.21-.49.49-.49zm9.732 1.703c-.123.013-.24.074-.32.168l-3.125 3.575-1.596-1.199c-.206-.156-.536-.108-.689.1-.153.207-.101.536.108.687l1.956 1.466c.194.144.496.113.656-.068l3.423-3.911c.134-.146.166-.376.077-.552-.09-.176-.293-.287-.49-.266zm-7.776 7.341c-.27 0-.489.22-.489.49s.219.488.489.488h10.266c.27 0 .49-.219.49-.489s-.22-.489-.49-.489H10.09zm0 3.911c-.27 0-.489.22-.489.49s.219.488.489.488h10.266c.27 0 .49-.219.49-.489s-.22-.489-.49-.489H10.09zm0 3.911c-.27 0-.489.22-.489.49s.219.488.489.488h10.266c.27 0 .49-.219.49-.489s-.22-.489-.49-.489H10.09z"/>
</svg>
