<svg width="30" height="30" viewBox="0 0 30 30" fill="none" xmlns="http://www.w3.org/2000/svg">
<path fill-rule="evenodd" clip-rule="evenodd" d="M7.41379 6.27586C6.7526 6.27586 6.27586 6.7526 6.27586 7.41379V22.5862C6.27586 23.2474 6.7526 23.7241 7.41379 23.7241H22.5862C23.2474 23.7241 23.7241 23.2474 23.7241 22.5862V7.41379C23.7241 6.7526 23.2474 6.27586 22.5862 6.27586H21.1448V12.1931C21.1448 13.7319 19.8768 15 18.3379 15H11.6621C10.1233 15 8.85519 13.7319 8.85519 12.1931V6.27586H7.41379ZM11.1311 6.27586V12.1931C11.1311 12.475 11.3802 12.7241 11.6621 12.7241H18.3379C18.6198 12.7241 18.869 12.475 18.869 12.1931V6.27586H11.1311ZM4 7.41379C4 5.49568 5.49568 4 7.41379 4H22.5862C24.5043 4 26 5.49568 26 7.41379V22.5862C26 24.5043 24.5043 26 22.5862 26H7.41379C5.49568 26 4 24.5043 4 22.5862V7.41379ZM16.4414 20.007C16.4414 19.3785 16.9509 18.869 17.5793 18.869H20.0069C20.6354 18.869 21.1448 19.3785 21.1448 20.007C21.1448 20.6354 20.6354 21.1449 20.0069 21.1449H17.5793C16.9509 21.1449 16.4414 20.6354 16.4414 20.007Z" fill="#14B1BD"/>
</svg>
