<svg xmlns="http://www.w3.org/2000/svg" width="20" height="20" fill="none" viewBox="0 0 20 20">
    <path fill="#96A5B8" fill-rule="evenodd" d="M14.036 3.167c-.84 0-1.646.333-2.24.927-.593.594-.927 1.4-.927 2.24 0 .626.186 1.238.534 1.759.348.52.842.926 1.421 1.166.579.24 1.215.302 1.83.18.614-.122 1.178-.424 1.621-.866.443-.443.744-1.008.867-1.622.122-.614.06-1.25-.18-1.83-.24-.578-.646-1.073-1.167-1.42-.52-.349-1.133-.534-1.76-.534zm-10.584.13c-.113 0-.222.046-.303.126-.08.08-.125.19-.125.303v5.238c0 .114.045.223.125.303.08.08.19.126.303.126H8.69c.114 0 .223-.045.303-.126.08-.08.126-.19.126-.303V3.726c0-.113-.045-.222-.126-.303-.08-.08-.189-.125-.303-.125H3.452zm9.287 1.096c.384-.256.835-.393 1.297-.393.619 0 1.212.246 1.65.683.437.438.683 1.032.683 1.65 0 .462-.137.913-.393 1.297-.257.383-.62.682-1.047.86-.427.176-.896.222-1.348.132-.453-.09-.869-.312-1.195-.639-.326-.326-.549-.742-.639-1.194-.09-.453-.043-.922.133-1.349.177-.426.476-.79.86-1.047zM3.881 8.536V4.155h4.38v4.38h-4.38zm-.952 2.5c-.114 0-.223.045-.303.125-.08.08-.126.19-.126.303 0 .114.045.223.126.303.08.08.189.126.303.126h6.377l-2.045 4.093c-.033.065-.049.138-.046.21.004.073.025.144.063.207.039.062.092.114.156.15.064.035.136.054.209.054h4.715c.073 0 .144-.019.208-.055.064-.035.117-.087.156-.15.038-.062.06-.133.063-.206.003-.072-.013-.145-.046-.21l-2.045-4.093h6.377c.114 0 .223-.045.303-.126.08-.08.126-.189.126-.303 0-.113-.045-.222-.125-.303-.08-.08-.19-.125-.304-.125H2.93zm8.734 4.714H8.337L10 12.424l1.663 3.326z" clip-rule="evenodd"/>
</svg>
