<svg width="44" height="44" viewBox="0 0 44 44" fill="none" xmlns="http://www.w3.org/2000/svg">
<path d="M23.1209 0.676867L28.9838 13.1312C29.1562 13.4922 29.5011 13.6727 29.846 13.8532L42.9514 15.8387C43.986 16.0192 44.3309 17.2827 43.6411 18.0047L34.157 27.7515C33.8121 28.1125 33.8121 28.4735 33.8121 28.8345L36.0538 42.5524C36.2263 43.6354 35.1916 44.3574 34.3294 43.8159L22.6035 37.3179C22.2587 37.1374 21.9138 37.1374 21.5689 37.3179L9.84302 43.8159C8.98082 44.3574 7.94619 43.4549 8.11863 42.5524L10.3603 28.8345C10.3603 28.4735 10.3603 27.932 10.0155 27.7515L0.358853 17.8242C-0.330905 17.1022 0.0139739 15.8387 1.04861 15.8387L14.154 13.8532C14.4989 13.8532 14.8438 13.4922 15.0162 13.1312L20.8791 0.676867C21.3965 -0.225622 22.6035 -0.225622 23.1209 0.676867Z" fill="#FFC001"/>
<path d="M23.1209 0.676867L28.9838 13.1312C29.1562 13.4922 29.5011 13.6727 29.846 13.8532L42.9514 15.8387C43.986 16.0192 44.3309 17.2827 43.6411 18.0047L34.157 27.7515C33.8121 28.1125 33.8121 28.4735 33.8121 28.8345L36.0538 42.5524C36.2263 43.6354 35.1916 44.3574 34.3294 43.8159L22.6035 37.3179C22.2587 37.1374 21.9138 37.1374 21.5689 37.3179L9.84302 43.8159C8.98082 44.3574 7.94619 43.4549 8.11863 42.5524L10.3603 28.8345C10.3603 28.4735 10.3603 27.932 10.0155 27.7515L0.358853 17.8242C-0.330905 17.1022 0.0139739 15.8387 1.04861 15.8387L14.154 13.8532C14.4989 13.8532 14.8438 13.4922 15.0162 13.1312L20.8791 0.676867C21.3965 -0.225622 22.6035 -0.225622 23.1209 0.676867Z" fill="#FFC001"/>
<path d="M18 22C18 23.0943 17.3333 24 16.5 24C15.6667 24 15 23.1132 15 22C15 20.9057 15.6667 20 16.5 20C17.3333 20 18 20.8868 18 22Z" fill="#333333"/>
<path d="M28.9994 22C28.9994 23.0943 28.3327 24 27.4994 24C26.6661 24 25.9994 23.1132 25.9994 22C25.9994 20.9057 26.6661 20 27.4994 20C28.3327 20 28.9994 20.8868 28.9994 22Z" fill="#333333"/>
<path d="M31.9585 18.6215C31.7716 18.5708 31.5848 18.5369 31.3979 18.4862C31.0035 18.4016 30.6298 18.3171 30.2561 18.2156C29.7163 18.0634 29.218 17.8942 28.7612 17.6913C28.2837 17.4883 27.827 17.2516 27.4118 16.981C26.955 16.6934 26.519 16.3552 26.1246 16.0169C26.1038 16 26.0623 16 26.0415 16C26.0208 16.0169 26 16.0338 26 16.0677C26.0208 16.5581 26.2699 17.0655 26.6851 17.5391C27.0796 17.9619 27.5986 18.3171 28.1799 18.5708C28.7405 18.8075 29.3633 18.9598 29.9862 18.9936C30.0069 18.9936 30.0277 18.9936 30.0692 18.9936C30.7751 19.0274 31.3979 18.9259 31.9585 18.723C31.9792 18.7061 32 18.6892 32 18.6553C32 18.6553 31.9792 18.6215 31.9585 18.6215Z" fill="#333333"/>
<path d="M12.0496 18.6215C12.2362 18.5708 12.4228 18.5369 12.6094 18.4862C13.0033 18.4016 13.3765 18.3171 13.7497 18.2156C14.2888 18.0634 14.7864 17.8942 15.2425 17.6913C15.7194 17.4883 16.1755 17.2516 16.5901 16.981C17.0463 16.6934 17.4817 16.3552 17.8756 16.0169C17.8963 16 17.9378 16 17.9585 16C17.9793 16.0169 18 16.0338 18 16.0677C17.9793 16.5581 17.7305 17.0655 17.3158 17.5391C16.9219 17.9619 16.4036 18.3171 15.823 18.5708C15.2632 18.8075 14.6412 18.9598 14.0192 18.9936C13.9985 18.9936 13.9778 18.9936 13.9363 18.9936C13.2314 19.0274 12.6094 18.9259 12.0496 18.723C12.0289 18.7061 12.0081 18.6892 12.0081 18.6553C11.9874 18.6553 12.0081 18.6215 12.0496 18.6215Z" fill="#333333"/>
<path d="M15.2917 33.8409C15.1042 33.8597 15 33.6531 15 33.5029C15 32.7895 15.2292 32.0572 15.625 31.3437C16.0208 30.6866 16.5625 30.067 17.2292 29.5601C18.5417 28.565 20.2708 28.0017 22 28.0017C23.75 27.9642 25.5208 28.5462 26.8125 29.5601C28.1667 30.5927 28.9792 32.076 29 33.5029C29 33.6719 28.6875 34.0376 28.5 34C28.3784 34 28.3733 34.0109 28.3333 33.9789C28.1458 33.8287 27.9375 33.6973 27.75 33.5658C27.3542 33.303 26.9167 33.0777 26.5 32.8711C24.8958 32.1013 23.0833 31.6883 21.2708 31.8385C20.1042 31.9324 19 32.2515 17.9583 32.7209C17.3333 33.0026 16.75 33.3405 16.2083 33.7348C15.9792 33.8662 15.5625 33.8033 15.2917 33.8409Z" fill="#333333"/>
<mask id="mask0" mask-type="alpha" maskUnits="userSpaceOnUse" x="15" y="28" width="14" height="7">
<path d="M15.2917 33.8409C15.1042 33.8597 15 33.6531 15 33.5029C15 32.7895 15.2292 32.0572 15.625 31.3437C16.0208 30.6866 16.5625 30.067 17.2292 29.5601C18.5417 28.565 20.2708 28.0017 22 28.0017C23.75 27.9642 25.5208 28.5462 26.8125 29.5601C28.1667 30.5927 28.9792 32.076 29 33.5029C29 33.6719 28.6875 34.0376 28.5 34C28.3784 34 28.3733 34.0109 28.3333 33.9789C28.1458 33.8287 27.9375 33.6973 27.75 33.5658C27.3542 33.303 26.9167 33.0777 26.5 32.8711C24.8958 32.1013 23.0833 31.6883 21.2708 31.8385C20.1042 31.9324 19 32.2515 17.9583 32.7209C17.3333 33.0026 16.75 33.3405 16.2083 33.7348C15.9792 33.8662 15.5625 33.8033 15.2917 33.8409Z" fill="#333333"/>
</mask>
<g mask="url(#mask0)">
<path d="M14.6229 34C14.4285 34 14.35 33.7597 14.5127 33.6532C16.877 32.1059 26.7465 26.2304 29.8891 33.7227C29.9433 33.8519 29.8499 34 29.7098 34H14.6229Z" fill="#F06669"/>
</g>
</svg>
