<svg xmlns="http://www.w3.org/2000/svg" width="18" height="18" fill="none" viewBox="0 0 18 18">
    <path fill="#FFEB3B" d="M9.656.427l1.783 5.475c.09.193.266.326.468.356l5.465.04c.6.09.84.863.406 1.306l-4.363 3.512c-.147.15-.214.365-.18.577l1.596 5.41c.102.625-.525 1.103-1.062.807l-4.48-3.215c-.18-.1-.397-.1-.578 0L4.23 17.91c-.537.296-1.164-.181-1.062-.808l1.595-5.41c.035-.21-.032-.426-.179-.576L.222 7.605C-.213 7.16.027 6.389.628 6.297l5.465-.038c.202-.031.377-.164.468-.356L8.344.427c.268-.57 1.044-.57 1.312 0z"/>
</svg>
