<svg width="44" height="44" viewBox="0 0 44 44" fill="none" xmlns="http://www.w3.org/2000/svg">
<path d="M23.1209 0.676867L28.9838 13.1312C29.1562 13.4922 29.5011 13.6727 29.846 13.8532L42.9514 15.8387C43.986 16.0192 44.3309 17.2827 43.6411 18.0047L34.157 27.7515C33.8121 28.1125 33.8121 28.4735 33.8121 28.8345L36.0538 42.5524C36.2263 43.6354 35.1916 44.3574 34.3294 43.8159L22.6035 37.3179C22.2587 37.1374 21.9138 37.1374 21.5689 37.3179L9.84302 43.8159C8.98082 44.3574 7.94619 43.4549 8.11863 42.5524L10.3603 28.8345C10.3603 28.4735 10.3603 27.932 10.0155 27.7515L0.358853 17.8242C-0.330905 17.1022 0.0139739 15.8387 1.04861 15.8387L14.154 13.8532C14.4989 13.8532 14.8438 13.4922 15.0162 13.1312L20.8791 0.676867C21.3965 -0.225622 22.6035 -0.225622 23.1209 0.676867Z" fill="#FFC001"/>
<path d="M18 20C18 21.0943 17.3333 22 16.5 22C15.6667 22 15 21.1132 15 20C15 18.9057 15.6667 18 16.5 18C17.3333 18 18 18.8868 18 20Z" fill="#333333"/>
<path d="M28.9994 20C28.9994 21.0943 28.3327 22 27.4994 22C26.6661 22 25.9994 21.1132 25.9994 20C25.9994 18.9057 26.6661 18 27.4994 18C28.3327 18 28.9994 18.8868 28.9994 20Z" fill="#333333"/>
<path d="M15 27.3798C15 27.2296 15.3125 26.9824 15.5 27.0012L28.5 27.0039C28.6875 26.9664 29 27.332 29 27.501C28.9792 28.9279 28.1667 30.4112 26.8125 31.4438C25.5208 32.4577 23.75 33.0397 22 33.0022C20.2708 33.0022 18.5417 32.4389 17.2292 31.4438C16.5625 30.9369 16.0208 30.3173 15.625 29.6602C15.2292 28.9467 15 28.0933 15 27.3798Z" fill="#333333"/>
<mask id="mask0" mask-type="alpha" maskUnits="userSpaceOnUse" x="15" y="27" width="14" height="7">
<path d="M15 27.3798C15 27.2296 15.3125 26.9824 15.5 27.0012L28.5 27.0039C28.6875 26.9664 29 27.332 29 27.501C28.9792 28.9279 28.1667 30.4112 26.8125 31.4438C25.5208 32.4577 23.75 33.0397 22 33.0022C20.2708 33.0022 18.5417 32.4389 17.2292 31.4438C16.5625 30.9369 16.0208 30.3173 15.625 29.6602C15.2292 28.9467 15 28.0933 15 27.3798Z" fill="#333333"/>
</mask>
<g mask="url(#mask0)">
<path d="M14 30.7392C16.1138 32.7609 18.9756 34 22.1301 34C25.1545 34 27.8862 32.8587 30 31.0001L29.9024 30.7392C21.9675 26.8588 14.0976 30.674 14 30.7392Z" fill="#F06669"/>
</g>
</svg>
