<svg width="44" height="44" viewBox="0 0 44 44" fill="none" xmlns="http://www.w3.org/2000/svg">
<path d="M23.1209 0.676867L28.9838 13.1312C29.1562 13.4922 29.5011 13.6727 29.846 13.8532L42.9514 15.8387C43.986 16.0192 44.3309 17.2827 43.6411 18.0047L34.157 27.7515C33.8121 28.1125 33.8121 28.4735 33.8121 28.8345L36.0538 42.5524C36.2263 43.6354 35.1916 44.3574 34.3294 43.8159L22.6035 37.3179C22.2587 37.1374 21.9138 37.1374 21.5689 37.3179L9.84302 43.8159C8.98082 44.3574 7.94619 43.4549 8.11863 42.5524L10.3603 28.8345C10.3603 28.4735 10.3603 27.932 10.0155 27.7515L0.358853 17.8242C-0.330905 17.1022 0.0139739 15.8387 1.04861 15.8387L14.154 13.8532C14.4989 13.8532 14.8438 13.4922 15.0162 13.1312L20.8791 0.676867C21.3965 -0.225622 22.6035 -0.225622 23.1209 0.676867Z" fill="#FFC001"/>
<path d="M16.7263 27.132C16.394 26.7912 15.8654 27.1645 16.0315 27.635C16.9831 30.1826 19.3092 32 22.0279 32C24.7014 32 26.9972 30.2637 27.9639 27.7648C28.1451 27.3105 27.6014 26.9211 27.2842 27.2618C25.3962 29.2252 21.3935 32.0162 16.7263 27.132Z" fill="#333333"/>
<path d="M17.9564 21.2331C17.4704 19.8797 16.296 19 14.9798 19C13.6838 19 12.5296 19.8571 12.0436 21.1654C11.9423 21.4135 12.0233 21.7068 12.2258 21.8647C12.4283 22.0226 12.6916 22 12.8738 21.797C13.8255 20.7594 15.3442 19.9248 17.1262 21.8421C17.2274 21.9549 17.3489 22 17.4907 22C17.5919 22 17.6932 21.9774 17.7742 21.9098C17.9767 21.7744 18.0577 21.4812 17.9564 21.2331Z" fill="#333333"/>
<path d="M31.9685 21.2331C31.4816 19.8797 30.3047 19 28.9858 19C27.6872 19 26.5307 19.8571 26.0437 21.1654C25.9422 21.4135 26.0234 21.7068 26.2263 21.8647C26.4292 22.0226 26.693 22 26.8756 21.797C27.8293 20.7594 29.351 19.9248 31.1366 21.8421C31.2381 21.9549 31.3598 22 31.5019 22C31.6033 22 31.7048 21.9774 31.7859 21.9098C31.9685 21.7744 32.0497 21.4812 31.9685 21.2331Z" fill="#333333"/>
</svg>
