<svg width="28" height="28" viewBox="0 0 28 28" fill="none" xmlns="http://www.w3.org/2000/svg">
<path fill-rule="evenodd" clip-rule="evenodd" d="M13.9886 15.6193V12.7953H12.7668V16.1139L14.7792 18.1264L15.6346 17.2506L13.9886 15.6193Z" fill="#14B1BD"/>
<path fill-rule="evenodd" clip-rule="evenodd" d="M13.3777 11.0135C12.4178 11.0135 11.4795 11.2982 10.6813 11.8315C9.88319 12.3648 9.26113 13.1228 8.89379 14.0096C8.52645 14.8964 8.43034 15.8723 8.61761 16.8137C8.80487 17.7552 9.26711 18.62 9.94586 19.2987C10.6246 19.9775 11.4894 20.4397 12.4309 20.627C13.3723 20.8142 14.3482 20.7181 15.235 20.3508C16.1218 19.9835 16.8798 19.3614 17.4131 18.5633C17.9464 17.7651 18.231 16.8268 18.231 15.8669C18.231 14.5797 17.7197 13.3452 16.8095 12.4351C15.8994 11.5249 14.6649 11.0135 13.3777 11.0135ZM13.3777 19.4984C12.6594 19.4984 11.9573 19.2854 11.3601 18.8864C10.7629 18.4874 10.2975 17.9202 10.0226 17.2566C9.74774 16.593 9.67583 15.8629 9.81595 15.1584C9.95607 14.454 10.3019 13.8069 10.8098 13.299C11.3177 12.7911 11.9648 12.4453 12.6692 12.3051C13.3737 12.165 14.1038 12.2369 14.7674 12.5118C15.431 12.7867 15.9982 13.2521 16.3972 13.8493C16.7962 14.4465 17.0092 15.1486 17.0092 15.8669C17.0092 16.83 16.6266 17.7537 15.9456 18.4348C15.2645 19.1158 14.3408 19.4984 13.3777 19.4984Z" fill="#14B1BD"/>
<path fill-rule="evenodd" clip-rule="evenodd" d="M7.03102 24.4535H20.4102C21.6452 24.4535 22.6502 23.4485 22.6502 22.2135V9.15691C22.6502 8.98355 22.5761 8.82725 22.4584 8.71839L17.4787 3.73869C17.3698 3.62102 17.2135 3.54688 17.0402 3.54688H7.03102C5.79602 3.54688 4.79102 4.55188 4.79102 5.78688V22.2135C4.79102 23.4485 5.79602 24.4535 7.03102 24.4535ZM7.03102 4.74154H16.4428V9.15691C16.4428 9.48672 16.7103 9.75424 17.0402 9.75424H21.4547V22.2135C21.4547 22.7898 20.9856 23.2589 20.4093 23.2589H7.03102C6.4548 23.2589 5.98568 22.7898 5.98568 22.2135V5.78688C5.98568 5.21066 6.4548 4.74154 7.03102 4.74154ZM17.6375 8.55958V5.58661L20.6099 8.55958H17.6375Z" fill="#14B1BD"/>
</svg>
