<svg xmlns="http://www.w3.org/2000/svg" width="113" height="92" fill="none" viewBox="0 0 113 92">
    <path fill="#6E6B6B" d="M18.922 77.211c.474 0 .898-.08 1.272-.24.373-.16.688-.384.944-.672.261-.288.458-.632.592-1.032.138-.4.208-.84.208-1.32V66.98h1.544v6.968c0 .662-.107 1.275-.32 1.84-.208.566-.51 1.056-.904 1.472-.39.41-.867.734-1.432.968-.566.235-1.2.352-1.904.352s-1.339-.117-1.904-.352c-.566-.234-1.046-.557-1.44-.968-.395-.416-.699-.906-.912-1.472-.208-.565-.312-1.178-.312-1.84V66.98h1.544v6.96c0 .48.066.92.2 1.32.138.4.336.744.592 1.032.261.288.578.515.952.68.378.16.805.24 1.28.24zm8.203-.72c.261.352.547.6.856.744.31.144.656.216 1.04.216.757 0 1.339-.27 1.744-.808s.608-1.306.608-2.304c0-.528-.048-.981-.144-1.36-.09-.379-.224-.688-.4-.928-.176-.245-.392-.424-.648-.536-.256-.112-.547-.168-.872-.168-.464 0-.872.107-1.224.32-.347.213-.667.515-.96.904v3.92zm-.072-4.896c.341-.421.736-.76 1.184-1.016.448-.256.96-.384 1.536-.384.47 0 .893.09 1.272.272.379.176.701.44.968.792.267.347.472.779.616 1.296.144.517.216 1.112.216 1.784 0 .597-.08 1.155-.24 1.672-.16.512-.392.958-.696 1.336-.299.374-.667.67-1.104.888-.432.213-.92.32-1.464.32-.496 0-.923-.083-1.28-.248-.352-.17-.664-.405-.936-.704v3.584h-1.432V70.34h.856c.203 0 .328.099.376.296l.128.96zm9.08-4.936v11.784H34.71V66.66h1.424zm5.726 3.552c.592 0 1.125.099 1.6.296.475.197.88.477 1.216.84.336.363.592.803.768 1.32.181.512.272 1.085.272 1.72 0 .64-.09 1.216-.272 1.728-.176.512-.432.95-.768 1.312-.336.363-.741.643-1.216.84-.475.192-1.008.288-1.6.288-.597 0-1.136-.096-1.616-.288-.475-.197-.88-.477-1.216-.84-.336-.363-.595-.8-.776-1.312-.176-.512-.264-1.088-.264-1.728 0-.635.088-1.208.264-1.72.181-.517.44-.957.776-1.32.336-.362.741-.642 1.216-.84.48-.197 1.019-.296 1.616-.296zm0 7.232c.8 0 1.397-.266 1.792-.8.395-.538.592-1.288.592-2.248 0-.965-.197-1.717-.592-2.256-.395-.538-.992-.808-1.792-.808-.405 0-.76.07-1.064.208-.299.139-.55.339-.752.6-.197.261-.347.584-.448.968-.096.379-.144.808-.144 1.288 0 .96.197 1.71.592 2.248.4.534 1.005.8 1.816.8zm10.054-2.648c-.656.022-1.216.075-1.68.16-.459.08-.835.187-1.128.32-.288.133-.499.29-.632.472-.128.181-.192.384-.192.608 0 .213.035.397.104.552.07.155.163.283.28.384.123.096.264.168.424.216.165.043.341.064.528.064.25 0 .48-.024.688-.072.208-.053.403-.128.584-.224.187-.096.363-.21.528-.344.17-.133.336-.285.496-.456v-1.68zm-4.6-3.312c.448-.432.93-.755 1.448-.968.517-.213 1.09-.32 1.72-.32.453 0 .856.075 1.208.224.352.15.648.358.888.624.24.267.421.59.544.968.123.379.184.795.184 1.248v5.184h-.632c-.139 0-.245-.021-.32-.064-.075-.048-.133-.139-.176-.272l-.16-.768c-.213.198-.421.374-.624.528-.203.15-.416.277-.64.384-.224.102-.464.179-.72.232-.25.059-.53.088-.84.088-.315 0-.61-.043-.888-.128-.277-.09-.52-.224-.728-.4-.203-.176-.365-.397-.488-.664-.117-.272-.176-.592-.176-.96 0-.32.088-.626.264-.92.176-.298.461-.563.856-.792.395-.23.91-.416 1.544-.56.635-.15 1.413-.235 2.336-.256v-.632c0-.63-.136-1.104-.408-1.424-.272-.325-.67-.488-1.192-.488-.352 0-.648.046-.888.136-.235.085-.44.184-.616.296-.17.107-.32.206-.448.296-.123.085-.245.128-.368.128-.096 0-.179-.024-.248-.072-.07-.053-.128-.117-.176-.192l-.256-.456zm13.441.784c-.266-.357-.554-.605-.864-.744-.31-.144-.656-.216-1.04-.216-.752 0-1.33.27-1.736.808-.405.539-.608 1.307-.608 2.304 0 .528.046.981.136 1.36.09.374.224.683.4.928.176.24.392.416.648.528.256.112.547.168.872.168.47 0 .878-.107 1.224-.32.352-.213.675-.514.968-.904v-3.912zm1.424-5.608v11.784h-.848c-.202 0-.33-.099-.384-.296l-.128-.984c-.346.416-.741.752-1.184 1.008-.442.256-.954.384-1.536.384-.464 0-.885-.088-1.264-.264-.378-.181-.701-.445-.968-.792-.266-.346-.472-.778-.616-1.296-.144-.517-.216-1.112-.216-1.784 0-.597.08-1.152.24-1.664.16-.517.39-.965.688-1.344.299-.379.664-.674 1.096-.888.438-.218.928-.328 1.472-.328.496 0 .92.086 1.272.256.358.166.675.398.952.696V66.66h1.424zm8.231 1.584v4.008h4.712v1.264H70.41v4.928h-1.552V66.98h7.064v1.264H70.41zm8.632 2.096v8.104h-1.424V70.34h1.424zm.304-2.544c0 .139-.03.27-.088.392-.054.118-.128.224-.224.32-.09.09-.2.163-.328.216-.123.053-.254.08-.392.08-.139 0-.27-.026-.392-.08-.118-.053-.222-.125-.312-.216-.09-.096-.163-.203-.216-.32-.054-.123-.08-.253-.08-.392s.026-.27.08-.392c.053-.128.125-.237.216-.328.09-.096.194-.17.312-.224.122-.053.253-.08.392-.08.138 0 .27.027.392.08.128.053.237.128.328.224.096.09.17.2.224.328.058.123.088.253.088.392zm3.508-1.136v11.784h-1.424V66.66h1.424zm7.733 6.848c0-.33-.048-.632-.144-.904-.09-.277-.227-.514-.408-.712-.176-.203-.392-.357-.648-.464-.256-.112-.547-.168-.872-.168-.683 0-1.224.2-1.624.6-.395.395-.64.944-.736 1.648h4.432zm1.152 3.8c-.176.213-.387.4-.632.56-.246.155-.51.283-.792.384-.278.102-.566.176-.864.224-.299.053-.595.08-.888.08-.56 0-1.078-.093-1.552-.28-.47-.192-.878-.47-1.224-.832-.342-.368-.608-.821-.8-1.36-.192-.538-.288-1.157-.288-1.856 0-.565.085-1.093.256-1.584.176-.49.426-.915.752-1.272.325-.362.722-.645 1.192-.848.47-.208.997-.312 1.584-.312.485 0 .933.083 1.344.248.416.16.773.395 1.072.704.304.304.541.683.712 1.136.17.448.256.96.256 1.536 0 .224-.024.374-.072.448-.048.075-.139.112-.272.112h-5.416c.016.512.085.958.208 1.336.128.379.304.696.528.952.224.25.49.44.8.568.31.123.656.184 1.04.184.357 0 .664-.04.92-.12.261-.085.485-.176.672-.272.186-.096.341-.184.464-.264.128-.085.237-.128.328-.128.117 0 .208.046.272.136l.4.52zm6.597-5.632c-.064.118-.163.176-.296.176-.08 0-.17-.03-.272-.088-.102-.059-.227-.123-.376-.192-.144-.075-.318-.141-.52-.2-.203-.064-.443-.096-.72-.096-.24 0-.456.032-.648.096-.192.059-.358.142-.496.248-.133.107-.238.232-.312.376-.07.139-.104.29-.104.456 0 .208.059.382.176.52.123.139.282.259.48.36.197.102.421.192.672.272.25.075.507.157.768.248.267.085.525.181.776.288.25.107.475.24.672.4.197.16.355.358.472.592.123.23.184.507.184.832 0 .374-.067.72-.2 1.04-.133.315-.33.59-.592.824-.261.23-.581.41-.96.544-.379.133-.816.2-1.312.2-.566 0-1.078-.09-1.536-.272-.459-.187-.848-.424-1.168-.712l.336-.544c.043-.07.093-.123.152-.16.059-.037.133-.056.224-.056.096 0 .197.038.304.112.106.075.234.158.384.248.154.09.341.174.56.248.218.075.49.112.816.112.277 0 .52-.034.728-.104.208-.075.381-.173.52-.296s.24-.264.304-.424c.07-.16.104-.33.104-.512 0-.224-.061-.408-.184-.552-.118-.15-.275-.275-.472-.376-.198-.106-.424-.197-.68-.272l-.776-.248c-.261-.085-.52-.181-.776-.288-.25-.112-.475-.25-.672-.416-.197-.165-.358-.368-.48-.608-.118-.245-.176-.541-.176-.888 0-.31.064-.605.192-.888.128-.288.315-.538.56-.752.245-.219.546-.392.904-.52.357-.128.765-.192 1.224-.192.533 0 1.01.085 1.432.256.427.165.794.395 1.104.688l-.32.52zM70.907 28.007c.109-.596.162-1.202.157-1.808-.01-2.837-1.007-5.582-2.82-7.766-1.812-2.183-4.327-3.668-7.114-4.2-2.787-.533-5.672-.08-8.161 1.282-2.49 1.361-4.428 3.546-5.484 6.18-.84-.408-1.763-.615-2.696-.607-.87-.008-1.733.157-2.538.486-.805.33-1.537.815-2.152 1.43-.615.615-1.101 1.347-1.43 2.152-.33.805-.494 1.668-.486 2.538-.017.223-.017.446 0 .669-1.727.477-3.25 1.51-4.328 2.942-1.08 1.43-1.656 3.178-1.64 4.97v.407c.003 2.184.871 4.277 2.415 5.82 1.544 1.545 3.638 2.413 5.821 2.416h9.616c.277 0 .543-.11.739-.306.196-.196.306-.462.306-.739 0-.277-.11-.543-.306-.739-.196-.196-.462-.306-.74-.306h-9.615c-1.62-.032-3.164-.69-4.31-1.836-1.146-1.145-1.803-2.69-1.835-4.31v-.407c-.008-1.48.528-2.912 1.507-4.022.98-1.11 2.332-1.822 3.802-1.998.148-.017.29-.064.418-.14.128-.076.239-.178.324-.3.086-.123.145-.263.172-.41.027-.149.022-.3-.015-.447l-.073-.282c-.096-.312-.153-.635-.168-.961-.005-.595.108-1.184.333-1.735.225-.55.557-1.05.977-1.47.42-.42.92-.753 1.471-.978.55-.225 1.14-.338 1.735-.332.924-.028 1.824.297 2.518.909.133.136.301.233.485.281.184.048.378.045.56-.01.177-.048.337-.142.466-.273.128-.13.22-.291.266-.468.643-2.364 2.12-4.416 4.158-5.775 2.038-1.36 4.499-1.935 6.928-1.62 2.43.315 4.663 1.499 6.287 3.333 1.624 1.833 2.53 4.193 2.548 6.643.035.816-.11 1.63-.428 2.383-.081.16-.12.338-.111.517.008.179.062.352.156.505.094.152.226.277.383.364.157.086.333.13.512.13h1.213c1.616.04 3.154.703 4.293 1.85 1.14 1.147 1.792 2.69 1.82 4.306v.407c-.031 1.62-.689 3.165-1.835 4.31-1.145 1.146-2.69 1.804-4.31 1.836h-9.626c-.277 0-.543.11-.739.306-.196.196-.306.462-.306.739 0 .277.11.543.306.74.196.195.462.305.74.305h9.625c2.184-.003 4.277-.871 5.82-2.415 1.545-1.544 2.413-3.637 2.416-5.82v-.408c.006-2.154-.83-4.224-2.33-5.769-1.5-1.544-3.544-2.441-5.697-2.499z"/>
    <path fill="#6E6B6B" d="M56.714 35.752c-.094-.081-.2-.148-.314-.198h-.094c-.088-.029-.18-.046-.271-.053h-.094c-.115 0-.228.022-.335.063-.114.044-.218.111-.303.199l-2.885 2.885c-.197.195-.308.46-.309.738 0 .277.109.544.304.74.196.197.461.308.738.31.278 0 .544-.109.741-.304l1.097-1.098V51.18c0 .277.11.543.306.74.197.195.462.305.74.305.277 0 .543-.11.739-.306.196-.196.306-.462.306-.739V39.024l1.108 1.097c.195.195.46.304.736.304.277 0 .541-.11.737-.304.098-.097.176-.213.23-.34.052-.127.08-.264.08-.402s-.028-.274-.08-.402c-.054-.127-.132-.243-.23-.34l-2.947-2.885zM53.099 25.603c.198-.001.392-.059.558-.166.167-.108.3-.26.383-.44.094-.188 2.299-4.766 7.159-2.937.26.095.545.083.796-.032.25-.116.446-.326.542-.584.095-.258.085-.543-.029-.794-.113-.25-.32-.446-.577-.544-1.833-.73-3.878-.72-5.703.03-1.825.748-3.288 2.177-4.08 3.983-.118.251-.131.538-.037.8.094.26.288.472.539.59.141.062.294.094.449.094z"/>
</svg>
