<svg xmlns="http://www.w3.org/2000/svg" width="30" height="31" fill="none" viewBox="0 0 30 31">
    <path fill="#14B1BD" stroke="#14B1BD" stroke-width=".7" d="M19.636 19.922h-9.99c-.806 0-1.463-.656-1.463-1.462V6.422c-.005-.805.657-1.462 1.463-1.462h9.99c.806 0 1.462.657 1.462 1.462v12.033c0 .81-.656 1.468-1.462 1.468zM9.646 5.473c-.524 0-.955.426-.955.95v12.032c0 .523.426.95.95.95h9.99c.523 0 .95-.427.95-.95V6.422c0-.523-.427-.949-.95-.949H9.646z"/>
    <path fill="#14B1BD" stroke="#14B1BD" stroke-width=".7" d="M18.953 19.628h-8.631c-.144 0-.257-.113-.257-.256V17.37c0-.144.113-.257.257-.257h8.63c.144 0 .257.113.257.257v2c0 .144-.113.257-.256.257zm-8.374-.513h8.117v-1.488h-8.118v1.488zM14.638 25.18c-.144 0-.257-.113-.257-.257v-4.084c0-.144.113-.257.257-.257.144 0 .257.113.257.256v4.085c0 .144-.113.257-.257.257z"/>
    <path fill="#14B1BD" stroke="#14B1BD" stroke-width=".7" d="M14.638 26.96c-.631 0-1.15-.513-1.15-1.15 0-.636.513-1.149 1.15-1.149.636 0 1.15.513 1.15 1.15 0 .636-.52 1.149-1.15 1.149zm0-1.78c-.35 0-.637.282-.637.636 0 .354.288.63.637.63.349 0 .636-.281.636-.636 0-.354-.287-.63-.636-.63zM10.091 26.96c-.63 0-1.15-.513-1.15-1.15 0-.636.514-1.149 1.15-1.149.637 0 1.15.513 1.15 1.15 0 .636-.519 1.149-1.15 1.149zm0-1.78c-.349 0-.636.282-.636.636 0 .354.287.63.636.63.35 0 .637-.281.637-.636 0-.354-.288-.63-.637-.63z"/>
    <path fill="#14B1BD" stroke="#14B1BD" stroke-width=".7" d="M10.091 25.18c-.144 0-.257-.113-.257-.257v-1.134c0-.123.088-.226.206-.252l4.546-.938c.133-.026.277.061.303.2.03.138-.062.271-.2.302L10.348 24v.924c0 .144-.118.257-.257.257zM19.184 26.96c-.63 0-1.144-.513-1.144-1.15 0-.636.513-1.149 1.144-1.149.631 0 1.15.513 1.15 1.15 0 .636-.513 1.149-1.15 1.149zm0-1.78c-.349 0-.63.282-.63.636 0 .354.281.63.63.63.35 0 .637-.281.637-.636 0-.354-.288-.63-.637-.63z"/>
    <path fill="#14B1BD" stroke="#14B1BD" stroke-width=".7" d="M19.184 25.18c-.144 0-.257-.113-.257-.257v-.924l-4.34-.898c-.14-.03-.226-.164-.2-.302.03-.139.169-.226.302-.2l4.546.939c.118.025.206.128.206.25v1.135c0 .144-.113.257-.257.257zM24.019 17.94c-.144 0-.256-.114-.256-.257v-5.159c0-.503-.411-.913-.914-.913h-2.008c-.143 0-.256-.113-.256-.257 0-.143.113-.256.256-.256h2.008c.785 0 1.427.641 1.427 1.426v5.159c0 .138-.113.256-.257.256zM5.257 17.94c-.144 0-.257-.114-.257-.257v-5.159c0-.785.641-1.426 1.426-1.426h2.008c.144 0 .257.112.257.256 0 .144-.113.257-.257.257H6.426c-.502-.005-.913.405-.913.913v5.159c0 .138-.113.256-.256.256z"/>
</svg>
