<svg xmlns="http://www.w3.org/2000/svg" width="20" height="20" fill="none" viewBox="0 0 20 20">
    <path fill="#96A5B8" fill-rule="evenodd" d="M14.386 5.27v1.898c0 .165-.112.302-.268.344l-.057.015v1.374c0 .513-.42.933-.934.933H9.005l-.054-.001.053.001h4.123c.513 0 .933-.42.933-.933V7.527l.057-.015c.156-.042.268-.179.268-.344V5.269c-.006-.49-.382-.893-.867-.93.485.036.86.44.867.93zm-2.101-1.264v.33-.33c0-.307-.236-.554-.538-.572.302.018.538.265.538.572zm.1.23v-.23c0-.374-.3-.673-.673-.673h-1.3c-.373 0-.672.3-.672.673v.23H8.68c-.569 0-1.033.465-1.033 1.033v1.899c0 .207.136.377.324.435v1.298c0 .568.465 1.033 1.034 1.033h4.122c.568 0 1.033-.465 1.033-1.033V7.603c.189-.058.325-.228.325-.435v-1.9c-.008-.568-.465-1.032-1.04-1.032h-1.06zm-2.08-.337c-.029.029-.042.067-.042.107v.33-.33c0-.04.013-.078.042-.107.03-.03.068-.043.107-.043h1.31-1.31c-.039 0-.077.014-.107.043zm1.457.337v-.23c0-.017-.006-.03-.014-.037-.007-.008-.02-.013-.036-.013h-1.3c-.016 0-.028.005-.036.013-.008.008-.013.02-.013.037v.23h1.399zm.16 2.23v.535h1.933V5.269c0-.226-.184-.41-.41-.41H8.68c-.226 0-.411.184-.411.41v1.732h1.933v-.534h1.72zM8.17 5.27v1.832-1.832c0-.28.23-.51.51-.51h4.795H8.68c-.281 0-.51.23-.51.51zm3.653 1.832v-.535.535zm-1.627 1.086v-.55H8.587v1.264c0 .225.184.41.41.41h4.13c.218 0 .398-.172.41-.388h-.014V7.638h-1.608v.549h-1.72zm1.62-.649h1.808-1.808v.549h-1.52 1.52v-.549zm1.808 1.285h.014-.014zm-5.136.078c0 .27.213.494.48.51-.267-.016-.48-.24-.48-.51V7.538h1.807-1.807v1.363zm2.238-1.911h.674-.674v.674-.674zm.1.574h.475V7.09h-.475v.475zm5.922 4.45c.262.142.454.375.539.658.085.284.055.584-.085.846-.136.253-.36.44-.63.53l-3.347 1.583-1.973.987-.023.008c-.035.011-.205.062-.514.062-.338 0-.84-.06-1.512-.3l-2.422-.872-.024-.015c-.025-.014-.308-.16-.817-.182-.107.278-.377.477-.693.477H2.667v-.703h1.328v-3.985H2.667v-.704h2.579c.38 0 .693.287.736.655.71.002 1.717.02 1.945.096.116.04.238.086.421.155l.003.001c.213.082.505.193.97.362.75.273 1.184.221 1.19.22l.027-.004h1.452c.462 0 .865.239 1.072.59l2.858-.555c.278-.079.57-.046.827.09zM5.246 15.094c.02 0 .039-.018.039-.04v-3.906c0-.021-.018-.04-.04-.04H4.7v3.986h.547zm11.094-1.71c.104-.03.189-.101.24-.197.053-.097.064-.207.033-.31-.032-.104-.102-.19-.198-.241-.097-.052-.207-.063-.31-.032l-.035.008-2.868.558c-.078.555-.592.986-1.212.986h-1.432l-.918-.02-.02-.004c-.052-.007-.196-.005-.258.052-.049.045-.05.154-.048.216l-.702.036c-.022-.412.14-.65.28-.776.293-.263.693-.24.81-.226l.867.019h1.421c.281 0 .519-.197.519-.43 0-.233-.238-.43-.519-.43h-1.402c-.143.016-.673.045-1.508-.258-.47-.171-.764-.283-.98-.365-.173-.066-.288-.11-.39-.144-.154-.036-.968-.059-1.722-.063v2.855c.606.03.977.198 1.093.26l2.357.85c.938.332 1.452.255 1.555.234l1.927-.964 3.395-1.606.025-.008z" clip-rule="evenodd"/>
</svg>
