<svg xmlns="http://www.w3.org/2000/svg" width="24" height="24" fill="none" viewBox="0 0 24 24">
    <path fill="#231E1E" fill-rule="evenodd" d="M12.7 4.411c-.304-.548-1.093-.548-1.398 0l-8 14.4c-.296.534.09 1.189.7 1.189h16c.61 0 .995-.655.699-1.189l-8-14.4zM5.362 18.4l6.64-11.953 6.64 11.953H5.362zm5.84-8c0-.442.358-.8.8-.8.442 0 .8.358.8.8v3.2c0 .442-.358.8-.8.8-.441 0-.8-.358-.8-.8v-3.2zm.8 4.8c-.441 0-.8.358-.8.8v.8c0 .442.358.8.8.8.442 0 .8-.358.8-.8V16c0-.442-.358-.8-.8-.8z" clip-rule="evenodd"/>
</svg>
