<svg xmlns="http://www.w3.org/2000/svg" width="20" height="20" fill="none" viewBox="0 0 20 20">
    <path fill="#96A5B8" d="M16.255 13.829c.707-1.152 1.08-2.478 1.078-3.829.002-1.351-.371-2.677-1.078-3.829l-.004-.006c-.656-1.069-1.575-1.952-2.67-2.564-1.094-.613-2.327-.934-3.581-.934s-2.487.321-3.582.934c-1.094.612-2.013 1.495-2.67 2.564l-.003.006C3.04 7.324 2.667 8.65 2.666 10c0 1.351.374 2.676 1.079 3.829l.004.006c.656 1.069 1.575 1.952 2.67 2.564 1.094.613 2.327.934 3.58.934 1.255 0 2.488-.321 3.582-.934 1.095-.612 2.014-1.495 2.67-2.564l.004-.007zm-5.318 2.247c-.14.135-.3.246-.476.33-.144.068-.302.103-.461.103-.16 0-.317-.035-.461-.104-.335-.17-.62-.422-.832-.732-.433-.625-.753-1.32-.947-2.055.746-.046 1.492-.07 2.24-.07.747 0 1.494.023 2.24.07-.107.378-.242.748-.402 1.106-.21.505-.516.964-.9 1.352zm-7.432-5.664h2.958c.019.825.108 1.648.267 2.458-.808.07-1.615.169-2.42.293-.47-.845-.746-1.785-.805-2.751zm.806-3.575c.804.125 1.61.222 2.42.293-.159.81-.249 1.633-.268 2.458H3.505c.06-.966.335-1.906.806-2.75zm4.751-2.914c.14-.134.301-.245.477-.328.144-.069.301-.104.46-.104.16 0 .318.035.462.104.334.17.62.422.832.732.432.625.753 1.32.947 2.055-.746.046-1.493.07-2.24.07-.747 0-1.494-.023-2.24-.07.107-.378.241-.748.401-1.106.21-.505.517-.964.901-1.353zm7.433 5.665h-2.958c-.02-.825-.109-1.648-.267-2.458.808-.07 1.615-.169 2.42-.293.47.845.746 1.785.805 2.751zm-8.936 3.218c-.161-.789-.252-1.59-.272-2.394h5.426c-.02.804-.11 1.605-.272 2.394-.813-.054-1.626-.08-2.441-.082-.814 0-1.628.027-2.441.082zm4.882-5.612c.161.789.252 1.59.272 2.394H7.287c.02-.804.11-1.605.271-2.394.813.054 1.627.08 2.442.082.814 0 1.628-.027 2.44-.082zm1.096 3.218h2.958c-.06.966-.335 1.906-.806 2.75-.804-.124-1.61-.221-2.42-.292.159-.81.248-1.633.268-2.458zm1.658-4.333c-.703.101-1.408.181-2.116.24-.127-.473-.29-.935-.49-1.383-.182-.412-.41-.802-.682-1.161 1.311.402 2.462 1.208 3.288 2.304zm-9.798-.682c.752-.753 1.678-1.31 2.695-1.622l-.046.06c-.523.753-.904 1.595-1.124 2.485-.708-.06-1.413-.14-2.117-.241.181-.24.38-.469.592-.682zm-.592 8.524c.703-.101 1.408-.181 2.115-.24.127.473.291.935.49 1.383.182.412.411.802.683 1.161-1.312-.402-2.463-1.209-3.288-2.304zm9.798.682c-.753.753-1.678 1.31-2.696 1.622l.047-.06c.523-.753.904-1.595 1.124-2.485.707.06 1.413.14 2.117.241-.181.24-.38.469-.592.682z"/>
</svg>
