<svg width="30" height="30" viewBox="0 0 30 30" fill="none" xmlns="http://www.w3.org/2000/svg">
<path d="M15.9974 10.2819V15.0159H20.6774V16.8458H14.1675V10.2819H15.9974ZM10.2569 13.6786L7.94645 14.2975C8.22373 10.8838 10.6191 7.9997 13.9425 7.10917C18.2759 5.94799 22.7297 8.51947 23.8908 12.8529C25.052 17.1863 22.4805 21.6403 18.1471 22.8012L18.6207 24.5688C23.9301 23.1462 27.0811 17.6886 25.6584 12.3793C24.2358 7.06986 18.7782 3.91886 13.4687 5.34164C9.16978 6.49352 6.16007 10.3616 6.09075 14.7946L4 15.3551C5.52716 16.8817 7.05353 18.4091 8.58069 19.9363C9.1395 17.8503 9.69884 15.7646 10.2569 13.6786V13.6786Z" fill="#14B1BD"/>
</svg>
