<svg width="31" height="30" viewBox="0 0 21 22" fill="none" xmlns="http://www.w3.org/2000/svg">
<path d="M15.592 3.13923C15.411 3.01103 15.1523 3.06231 15.0229 3.26743C14.8936 3.44691 14.9453 3.70331 15.1523 3.83151C17.6873 5.44682 19.1876 8.21592 19.1876 11.1901C19.1876 16.0361 15.2299 19.959 10.3409 19.959C9.22864 19.959 8.11634 19.7538 7.08165 19.3436L7.65073 19.2154C7.88353 19.1641 8.01287 18.9334 7.96114 18.7283C7.9094 18.4975 7.70246 18.3693 7.46966 18.4206L5.71067 18.8308C5.58133 18.8565 5.47787 18.9334 5.42613 19.0616V19.0872C5.3744 19.1898 5.3744 19.318 5.42613 19.4462L6.25389 21.0358C6.33149 21.164 6.46083 21.2666 6.61603 21.2666C6.66777 21.2666 6.74537 21.241 6.7971 21.2153C7.00404 21.1128 7.08164 20.8564 6.97818 20.6769L6.69363 20.1128C7.85767 20.5743 9.0993 20.8307 10.3409 20.8307C15.6696 20.8307 20.0154 16.5232 20.0154 11.2414C20.0154 7.93388 18.3598 4.90838 15.592 3.13923Z" fill="#4CAF50" stroke="#4CAF50" stroke-width="0.5"/>
<path d="M1.49438 11.1902C1.49438 6.34427 5.47797 2.42137 10.341 2.42137C11.0653 2.42137 11.7896 2.49829 12.488 2.67777L11.9707 2.88289C11.7637 2.95981 11.6603 3.19056 11.7379 3.42132C11.7896 3.57516 11.9448 3.67772 12.1259 3.67772C12.1776 3.67772 12.2294 3.67772 12.2811 3.65208L13.9625 3.01109C14.0918 2.95981 14.1694 2.85725 14.1953 2.75469V2.72905C14.1953 2.72905 14.1953 2.72905 14.1953 2.70341C14.2212 2.60085 14.2212 2.47265 14.1435 2.34445L13.083 0.882978C12.9278 0.729139 12.695 0.677859 12.488 0.806058C12.307 0.934257 12.2552 1.19066 12.3846 1.37013L12.7726 1.90857C11.9707 1.70345 11.1688 1.60089 10.3152 1.60089C5.01235 1.60089 0.666626 5.90839 0.666626 11.1902C0.666626 14.0362 1.93413 16.7284 4.15873 18.5745C4.23633 18.6258 4.3398 18.677 4.4174 18.677C4.54674 18.677 4.65021 18.6258 4.72781 18.5232C4.88301 18.3437 4.85715 18.0873 4.67607 17.9591C2.65842 16.2669 1.49438 13.8055 1.49438 11.1902Z" fill="#4CAF50" stroke="#4CAF50" stroke-width="0.5"/>
<path d="M13.0572 9.11314C12.695 8.75419 12.2294 8.57471 11.7379 8.57471C11.2464 8.57471 10.7808 8.75419 10.4187 9.11314L10.3411 9.2157L10.2635 9.13878C9.90134 8.77983 9.43572 8.60035 8.94424 8.60035C8.45276 8.60035 7.98715 8.77983 7.625 9.13878C6.90072 9.8567 6.90072 11.0361 7.625 11.754L10.3411 14.4206L13.0572 11.7284C13.7814 11.0105 13.7814 9.83106 13.0572 9.11314ZM12.4622 11.1387L10.3411 13.2668L8.21995 11.1643C7.80607 10.7541 7.80607 10.1131 8.21995 9.70286C8.42689 9.49774 8.68557 9.39518 8.94424 9.39518C9.22878 9.39518 9.48746 9.49774 9.66853 9.70286L10.3411 10.3695L11.0136 9.70286C11.4016 9.31826 12.0742 9.31826 12.4881 9.70286C12.8761 10.1131 12.8761 10.7541 12.4622 11.1387Z" fill="#4CAF50" stroke="#4CAF50" stroke-width="0.5" stroke-linecap="round" stroke-linejoin="round"/>
<path d="M4.26305 11.3896C4.46417 11.3896 4.6206 11.2346 4.6206 11.0352C4.6206 10.8359 4.46417 10.6808 4.26305 10.6808L3.54797 10.6587C3.34685 10.6587 3.19043 10.8137 3.19043 11.0131C3.19043 11.2124 3.34685 11.3675 3.54797 11.3675L4.26305 11.3896Z" fill="#4CAF50" stroke="#4CAF50" stroke-width="0.5"/>
<path d="M10.3411 5.52012C10.5422 5.52012 10.6986 5.36508 10.6986 5.16573V4.45694C10.6986 4.25759 10.5422 4.10254 10.3411 4.10254C10.1399 4.10254 9.98352 4.25759 9.98352 4.45694V5.16573C9.98352 5.36508 10.1399 5.52012 10.3411 5.52012Z" fill="#4CAF50" stroke="#4CAF50" stroke-width="0.5"/>
<path d="M9.98352 17.2152V17.924C9.98352 18.1234 10.1399 18.2784 10.3411 18.2784C10.5422 18.2784 10.6986 18.1234 10.6986 17.924V17.2152C10.6986 17.0159 10.5422 16.8608 10.3411 16.8608C10.1399 16.8608 9.98352 17.0159 9.98352 17.2152Z" fill="#4CAF50" stroke="#4CAF50" stroke-width="0.5"/>
<path d="M17.4919 11.0131C17.4919 10.8137 17.3132 10.6587 17.1344 10.6587L16.4193 10.6808C16.2182 10.6808 16.0618 10.858 16.0618 11.0352C16.0618 11.2346 16.2182 11.3896 16.4193 11.3896L17.1344 11.3675C17.3579 11.3675 17.5143 11.2124 17.4919 11.0131Z" fill="#4CAF50" stroke="#4CAF50" stroke-width="0.5"/>
</svg>
