<svg xmlns="http://www.w3.org/2000/svg" width="20" height="20" fill="none" viewBox="0 0 20 20">
    <path fill="#fff" d="M10 11.724l4.195-4.195c.26-.26.683-.26.943 0 .26.26.26.682 0 .942l-4.667 4.667c-.26.26-.682.26-.942 0L4.862 8.471c-.26-.26-.26-.682 0-.942.26-.26.682-.26.943 0L10 11.724z"/>
    <mask id="xfuvhiteya" width="12" height="7" x="4" y="7" maskUnits="userSpaceOnUse">
        <path fill="#fff" d="M10 11.724l4.195-4.195c.26-.26.683-.26.943 0 .26.26.26.682 0 .942l-4.667 4.667c-.26.26-.682.26-.942 0L4.862 8.471c-.26-.26-.26-.682 0-.942.26-.26.682-.26.943 0L10 11.724z"/>
    </mask>
    <g mask="url(#xfuvhiteya)">
        <path fill="#fff" d="M0 0H20V20H0z"/>
    </g>
</svg>
