<svg xmlns="http://www.w3.org/2000/svg" width="19" height="18" fill="none" viewBox="0 0 19 18">
    <path fill="#231E1E" d="M9.529 10.551l3.776-3.776c.234-.234.614-.234.848 0 .234.235.234.615 0 .849l-4.2 4.2c-.234.234-.614.234-.848 0l-4.2-4.2c-.235-.234-.235-.614 0-.849.234-.234.614-.234.848 0l3.776 3.776z"/>
    <mask id="stnn8us1ma" width="11" height="6" x="4" y="6" maskUnits="userSpaceOnUse">
        <path fill="#fff" d="M9.529 10.551l3.776-3.776c.234-.234.614-.234.848 0 .234.235.234.615 0 .849l-4.2 4.2c-.234.234-.614.234-.848 0l-4.2-4.2c-.235-.234-.235-.614 0-.849.234-.234.614-.234.848 0l3.776 3.776z"/>
    </mask>
    <g mask="url(#stnn8us1ma)">
        <path fill="#231E1E" d="M0.529 0H18.529V18H0.529z"/>
    </g>
</svg>
