<svg xmlns="http://www.w3.org/2000/svg" width="20" height="20" fill="none" viewBox="0 0 20 20">
    <path fill="#96A5B8" fill-rule="evenodd" d="M10.586 6.072v3.594l2.654 1.53c.28.162.375.52.213.8s-.518.375-.799.213l-2.946-1.702c-.176-.102-.293-.29-.293-.506V6.072c0-.324.262-.586.586-.586.323 0 .585.262.585.586zM2.867 10c0-3.93 3.203-7.134 7.134-7.134 3.93 0 7.133 3.203 7.133 7.134 0 3.93-3.203 7.133-7.133 7.133S2.867 13.93 2.867 10zm13.095 0c0-3.302-2.66-5.962-5.961-5.962-3.302 0-5.962 2.66-5.962 5.962 0 3.301 2.66 5.961 5.962 5.961 3.302 0 5.961-2.66 5.961-5.961z" clip-rule="evenodd"/>
</svg>
