<svg width="20" height="20" fill="none" xmlns="http://www.w3.org/2000/svg">
    <path d="M13.041 3.334a3.046 3.046 0 0 0-3.04 3.04 3.046 3.046 0 0 0 3.04 3.041 3.046 3.046 0 0 0 3.04-3.04 3.046 3.046 0 0 0-3.04-3.041zm0 .715a2.32 2.32 0 0 1 2.325 2.326A2.32 2.32 0 0 1 13.041 8.7a2.32 2.32 0 0 1-2.325-2.325 2.32 2.32 0 0 1 2.325-2.326zm-6.12 5.545a.359.359 0 0 0-.123.04l-1.27.832v-.162a.372.372 0 0 0-.357-.358H3.025a.372.372 0 0 0-.358.358v2.862a.372.372 0 0 0 .358.363c.189 0 .36-.174.357-.363v-2.504h1.431v4.292h-1.43v-.357a.372.372 0 0 0-.358-.363.372.372 0 0 0-.358.363v.715c0 .187.17.358.358.358H5.17c.187 0 .358-.17.358-.358v-.53h.296l4.768 1.765a.363.363 0 0 0 .302-.028s6.008-3.47 6.031-3.488c.247-.187.408-.485.408-.815 0-.56-.47-1.012-1.023-1.012-1.068.294-2.155.685-3.22 1.034-.037-.022-.076-.045-.117-.062l-5.88-2.56a.36.36 0 0 0-.173-.022zm.055.75 5.73 2.492c.109.044.156.095.156.263 0 .088-.026.132-.072.173a.357.357 0 0 1-.235.078h-2.136l-2.095-.698a.373.373 0 0 0-.484.215.373.373 0 0 0 .26.46l2.146.716c.036.014.074.021.112.023h2.197c.26 0 .517-.088.71-.257a.95.95 0 0 0 .313-.71c0-.089-.012-.175-.034-.257l2.79-.917c.164.011.284.125.284.29a.3.3 0 0 1-.145.258l-5.796 3.342-4.667-1.727a.358.358 0 0 0-.123-.022h-.358v-2.61l1.447-1.113z" fill="#96A5B8"/>
</svg>
