<svg xmlns="http://www.w3.org/2000/svg" width="24" height="24" fill="none" viewBox="0 0 24 24">
    <path fill="#231E1E" fill-rule="evenodd" d="M14.381 7.252h3.703c.135.004.264.06.36.155.095.096.15.224.154.36 0 .135-.054.266-.15.363-.097.096-.227.15-.364.15h-.891v8.023c.002.361-.067.719-.204 1.053-.137.333-.34.637-.595.892-.255.255-.558.457-.892.594-.334.137-.691.206-1.052.204H9.564c-.727 0-1.425-.289-1.94-.803-.514-.515-.803-1.212-.803-1.94V8.28h-.908c-.137 0-.267-.054-.364-.15-.096-.097-.15-.228-.15-.364.004-.135.06-.263.155-.359.095-.095.224-.15.359-.155h3.703v-.48c0-.364.144-.713.401-.97.258-.257.606-.402.97-.402h2.023c.364 0 .712.145.97.402.257.257.401.606.401.97v.48zm-3.636-.723c-.065.065-.1.152-.1.243v.48h2.708v-.48c0-.091-.036-.178-.1-.243-.065-.064-.152-.1-.243-.1h-2.023c-.09 0-.178.036-.242.1zm5.289 10.43c.086-.208.13-.43.13-.656V8.28H7.85v8.023c0 .225.044.448.13.656.087.208.213.397.372.556.16.16.348.286.556.372.208.086.431.13.656.13h4.886c.225 0 .448-.044.656-.13.208-.086.397-.212.556-.372.16-.159.285-.348.372-.556zm-6.02-.72c-.097.096-.228.15-.364.15-.135-.004-.263-.06-.359-.155-.096-.096-.151-.224-.155-.36v-5.828c0-.136.054-.267.15-.364.097-.096.227-.15.364-.15.068-.003.136.01.2.034.063.025.12.063.169.111.048.048.086.106.11.17.026.063.038.13.035.2v5.828c0 .136-.054.267-.15.363zm1.984.15c.137 0 .268-.054.364-.15.097-.097.15-.228.15-.364v-5.829c0-.136-.053-.267-.15-.364-.096-.096-.227-.15-.364-.15-.136 0-.267.054-.363.15-.097.097-.15.228-.15.364v5.829c0 .136.053.267.15.363.096.097.227.151.363.151zm2.708-.155c-.096.095-.224.15-.359.155-.136 0-.267-.054-.364-.15-.096-.097-.15-.228-.15-.364v-5.829c-.003-.068.009-.136.034-.2.025-.063.063-.12.111-.169.048-.048.106-.086.17-.11.063-.026.13-.038.199-.035.136 0 .267.054.364.15.096.097.15.228.15.364v5.829c-.004.135-.06.263-.155.359z" clip-rule="evenodd"/>
</svg>
