<svg xmlns="http://www.w3.org/2000/svg" width="40" height="40" fill="none" viewBox="0 0 40 40">
    <path fill="#F44336" d="M33.746 19.079h-3.17c-.442-5.123-4.532-9.213-9.655-9.655v-3.17c0-.515-.405-.92-.92-.92-.517 0-.922.405-.922.92v3.17c-5.122.442-9.213 4.532-9.655 9.655h-3.17c-.515 0-.92.405-.92.92 0 .517.405.922.92.922h3.17c.442 5.123 4.533 9.213 9.655 9.655v3.17c0 .515.405.92.921.92s.921-.405.921-.92v-3.17c5.123-.442 9.213-4.532 9.655-9.655h3.17c.515 0 .92-.405.92-.921s-.404-.921-.92-.921zm-5.012 1.842c-.442 4.09-3.685 7.37-7.813 7.813-.294.036-.626.036-.92.036-.296 0-.627 0-.922-.036-4.09-.443-7.37-3.686-7.813-7.813-.036-.295-.036-.626-.036-.921 0-.295 0-.627.037-.921.442-4.09 3.685-7.37 7.812-7.813.295-.037.626-.037.921-.037.295 0 .627 0 .921.037 4.09.443 7.37 3.722 7.813 7.813.037.294.037.59.037.92 0 .296 0 .627-.037.922z"/>
    <path fill="#F44336" d="M20 23.943c2.178 0 3.943-1.765 3.943-3.943S22.178 16.057 20 16.057c-2.177 0-3.943 1.765-3.943 3.943s1.766 3.943 3.943 3.943z"/>
</svg>
