<svg width="57" height="57" fill="none" xmlns="http://www.w3.org/2000/svg">
    <path d="M21.81 9.366h16.892v20.19a.698.698 0 0 0 1.395 0V8.669a.697.697 0 0 0-.697-.697H21.81a.697.697 0 1 0 0 1.394zM16.9 20.972h14.76a.697.697 0 1 0 0-1.395H16.9a.697.697 0 1 0 0 1.395zm0 3.518h14.76a.698.698 0 0 0 0-1.394H16.9a.697.697 0 1 0 0 1.394zm0 3.518h14.76a.698.698 0 0 0 0-1.395H16.9a.697.697 0 1 0 0 1.395zm11.157 2.821a.698.698 0 0 0-.697-.697H16.9a.697.697 0 1 0 0 1.395h10.46a.698.698 0 0 0 .697-.698zm-3.584 2.82H16.9a.697.697 0 1 0 0 1.395h7.574a.698.698 0 0 0 0-1.395zm10.48 1.465a.693.693 0 0 0-.987-.004s-.002 0-.002.002l-3.506 3.506a.697.697 0 1 0 .986.986l2.316-2.317v6.763a.698.698 0 0 0 1.395 0v-6.762l2.316 2.316a.697.697 0 1 0 .986-.986l-3.504-3.504zm1.802-4.736V12.01a.697.697 0 0 0-.697-.697H18.74a.696.696 0 0 0-.453.167l-5.851 4.998a.697.697 0 0 0-.245.53V43.51c0 .385.312.697.698.697h12.888c1.607 3.17 4.89 5.353 8.68 5.353 5.368 0 9.734-4.367 9.734-9.734 0-4.574-3.176-8.411-7.436-9.448zM25.197 42.813h-11.61V17.33l5.41-4.622H35.36v17.43a9.84 9.84 0 0 0-.903-.045c-5.368 0-9.735 4.367-9.735 9.734 0 1.042.17 2.044.474 2.986zm9.26 5.353c-4.598 0-8.339-3.741-8.339-8.34 0-4.598 3.741-8.339 8.34-8.339 4.598 0 8.338 3.741 8.338 8.34 0 4.598-3.74 8.34-8.338 8.34z" fill="#6E6B6B" fill-opacity=".7"/>
</svg>
