<svg xmlns="http://www.w3.org/2000/svg" width="20" height="20" fill="none" viewBox="0 0 20 20">
    <path fill="#96A5B8" fill-rule="evenodd" d="M10.115 2.666c-.386 0-.693.319-.693.705v.449C7.502 4.103 6 5.545 6 7.318c0 .807.31 1.502.915 2.075.578.548 1.42.98 2.507 1.304v4.385c-1.194-.247-2.035-1.1-2.035-2.068 0-.386-.307-.705-.694-.705-.386 0-.693.319-.693.705 0 1.773 1.502 3.215 3.422 3.498v.45c0 .385.307.704.693.704.386 0 .694-.319.694-.705v-.449c1.92-.283 3.422-1.725 3.422-3.498 0-.808-.311-1.503-.915-2.075-.579-.549-1.421-.98-2.508-1.304V5.25c1.195.246 2.036 1.1 2.036 2.068 0 .386.307.705.693.705.387 0 .694-.319.694-.705 0-1.773-1.502-3.215-3.422-3.498v-.45c0-.385-.307-.704-.694-.704zM7.387 7.318c0-.968.84-1.821 2.035-2.068v3.978c-1.409-.487-2.035-1.143-2.035-1.91zm3.422 7.764v-3.978c1.016.35 1.519.748 1.77 1.084.264.353.265.658.265.826 0 .968-.841 1.822-2.035 2.068z" clip-rule="evenodd"/>
</svg>
