<svg width="13" height="16" viewBox="0 0 13 16" fill="none" xmlns="http://www.w3.org/2000/svg">
<path d="M12.1085 14.3101H11.0375V12.0282C11.0367 11.1818 10.8026 10.3519 10.361 9.62986C9.9193 8.90778 9.28714 8.32142 8.53395 7.93519C9.28714 7.54896 9.9193 6.9626 10.361 6.24053C10.8026 5.51845 11.0367 4.68861 11.0375 3.84217V1.68992H12.1085C12.2442 1.68992 12.3744 1.63602 12.4703 1.54007C12.5663 1.44412 12.6202 1.31398 12.6202 1.17829C12.6202 1.0426 12.5663 0.912465 12.4703 0.816516C12.3744 0.720568 12.2442 0.666664 12.1085 0.666664H0.511628C0.375936 0.666664 0.245801 0.720568 0.149852 0.816516C0.0539034 0.912465 0 1.0426 0 1.17829C0 1.31398 0.0539034 1.44412 0.149852 1.54007C0.245801 1.63602 0.375936 1.68992 0.511628 1.68992H1.58264V3.84217C1.58343 4.68861 1.81752 5.51845 2.25919 6.24053C2.70086 6.9626 3.33301 7.54896 4.0862 7.93519C3.33301 8.32142 2.70086 8.90778 2.25919 9.62986C1.81752 10.3519 1.58343 11.1818 1.58264 12.0282V14.3101H0.511628C0.375936 14.3101 0.245801 14.364 0.149852 14.4599C0.0539034 14.5559 0 14.686 0 14.8217C0 14.9574 0.0539034 15.0875 0.149852 15.1835C0.245801 15.2794 0.375936 15.3333 0.511628 15.3333H12.1085C12.2442 15.3333 12.3744 15.2794 12.4703 15.1835C12.5663 15.0875 12.6202 14.9574 12.6202 14.8217C12.6202 14.686 12.5663 14.5559 12.4703 14.4599C12.3744 14.364 12.2442 14.3101 12.1085 14.3101ZM2.60589 3.84217V1.68992H10.0143V3.84217C10.0134 4.79174 9.63575 5.70215 8.9643 6.3736C8.29285 7.04505 7.38244 7.42266 6.43287 7.42356H6.18388C5.2349 7.42176 4.32536 7.04375 3.65465 6.3724C2.98394 5.70105 2.60679 4.79115 2.60589 3.84217ZM2.60589 12.0282C2.60679 11.0786 2.98441 10.1682 3.65586 9.49678C4.3273 8.82534 5.23772 8.44772 6.18729 8.44682H6.43628C7.38585 8.44772 8.29627 8.82534 8.96771 9.49678C9.63916 10.1682 10.0168 11.0786 10.0177 12.0282V14.1805H2.60589V12.0282Z" fill="#14B1BD"/>
</svg>
