<svg width="21" height="20" viewBox="0 0 21 20" fill="none" xmlns="http://www.w3.org/2000/svg">
<path d="M10.5022 7.4462C10.5753 7.4462 10.6455 7.41691 10.6972 7.36477C10.7489 7.31263 10.7779 7.24192 10.7779 7.16818V4.94403C10.7779 4.8703 10.7489 4.79958 10.6972 4.74745C10.6455 4.69531 10.5753 4.66602 10.5022 4.66602C10.4291 4.66602 10.359 4.69531 10.3073 4.74745C10.2556 4.79958 10.2266 4.8703 10.2266 4.94403V7.16818C10.2266 7.24192 10.2556 7.31263 10.3073 7.36477C10.359 7.41691 10.4291 7.4462 10.5022 7.4462Z" fill="#FF9800" stroke="#FF9800" stroke-width="0.7"/>
<path d="M7.1026 8.51591C7.15061 8.56821 7.2167 8.59992 7.28722 8.60449C7.35775 8.60906 7.42732 8.58615 7.48157 8.54047C7.53582 8.4948 7.5706 8.42986 7.57874 8.35906C7.58688 8.28827 7.56775 8.21702 7.5253 8.16004L6.10834 6.45486C6.08505 6.42687 6.05652 6.40378 6.02439 6.38691C5.99225 6.37003 5.95713 6.35971 5.92104 6.35653C5.88494 6.35334 5.84858 6.35736 5.81402 6.36835C5.77947 6.37934 5.7474 6.39708 5.71965 6.42057C5.69189 6.44406 5.66899 6.47283 5.65227 6.50524C5.63554 6.53765 5.6253 6.57307 5.62214 6.60947C5.61899 6.64587 5.62297 6.68254 5.63386 6.71739C5.64476 6.75224 5.66236 6.78459 5.68565 6.81258L7.1026 8.51591Z" fill="#FF9800" stroke="#FF9800" stroke-width="0.7"/>
<path d="M3.39997 11.1856L5.57227 11.5711C5.58814 11.573 5.60418 11.573 5.62005 11.5711C5.69317 11.5775 5.7658 11.5543 5.82198 11.5067C5.87816 11.4591 5.91328 11.3909 5.91962 11.3172C5.92595 11.2434 5.90299 11.1702 5.85577 11.1135C5.80855 11.0569 5.74095 11.0215 5.66784 11.0151L3.49554 10.637C3.42242 10.6242 3.34727 10.6412 3.28661 10.6843C3.22595 10.7274 3.18475 10.7931 3.17208 10.8668C3.15941 10.9405 3.1763 11.0163 3.21904 11.0775C3.26177 11.1387 3.32686 11.1802 3.39997 11.193V11.1856Z" fill="#FF9800" stroke="#FF9800" stroke-width="0.7"/>
<path d="M15.1137 11.3468C15.1248 11.4112 15.1579 11.4696 15.2072 11.5119C15.2566 11.5542 15.319 11.5778 15.3838 11.5785C15.3997 11.5804 15.4157 11.5804 15.4316 11.5785L17.6039 11.193C17.677 11.1802 17.7421 11.1387 17.7848 11.0775C17.8276 11.0163 17.8445 10.9405 17.8318 10.8668C17.8191 10.7931 17.7779 10.7274 17.7173 10.6843C17.6566 10.6412 17.5814 10.6242 17.5083 10.637L15.336 11.0262C15.3005 11.0324 15.2666 11.0457 15.2362 11.0652C15.2058 11.0848 15.1795 11.1101 15.1588 11.1399C15.1382 11.1697 15.1235 11.2033 15.1158 11.2388C15.108 11.2743 15.1073 11.311 15.1137 11.3468Z" fill="#FF9800" stroke="#FF9800" stroke-width="0.7"/>
<path d="M13.6861 8.61599C13.7264 8.61567 13.7661 8.60656 13.8026 8.58929C13.8391 8.57201 13.8714 8.54698 13.8974 8.5159L15.3144 6.81258C15.3377 6.78459 15.3553 6.75224 15.3662 6.71739C15.3771 6.68254 15.381 6.64587 15.3779 6.60947C15.3747 6.57307 15.3645 6.53765 15.3478 6.50524C15.331 6.47283 15.3081 6.44406 15.2804 6.42057C15.2526 6.39708 15.2206 6.37934 15.186 6.36835C15.1515 6.35736 15.1151 6.35334 15.079 6.35653C15.0429 6.35971 15.0078 6.37003 14.9756 6.38691C14.9435 6.40378 14.915 6.42687 14.8917 6.45486L13.4747 8.16004C13.4278 8.21638 13.405 8.28917 13.4112 8.36247C13.4174 8.43578 13.4521 8.50361 13.5078 8.55112C13.5579 8.59303 13.621 8.61598 13.6861 8.61599Z" fill="#FF9800" stroke="#FF9800" stroke-width="0.7"/>
<path d="M17.5062 14.8047H3.49833C3.42522 14.8047 3.3551 14.834 3.3034 14.8861C3.2517 14.9383 3.22266 15.009 3.22266 15.0827C3.22266 15.1564 3.2517 15.2272 3.3034 15.2793C3.3551 15.3314 3.42522 15.3607 3.49833 15.3607H17.5062C17.5793 15.3607 17.6494 15.3314 17.7011 15.2793C17.7528 15.2272 17.7818 15.1564 17.7818 15.0827C17.7818 15.009 17.7528 14.9383 17.7011 14.8861C17.6494 14.834 17.5793 14.8047 17.5062 14.8047Z" fill="#FF9800" stroke="#FF9800" stroke-width="0.7"/>
<path d="M7.37696 13.9203C7.40031 13.9642 7.43505 14.0008 7.47746 14.0263C7.51987 14.0517 7.56836 14.0651 7.61772 14.0649C7.66459 14.0642 7.7106 14.0521 7.75188 14.0297C7.81343 13.9935 7.85883 13.9348 7.87867 13.8658C7.89851 13.7968 7.89128 13.7228 7.85847 13.659C7.60176 13.1935 7.47007 12.6684 7.47642 12.1358C7.48278 11.6031 7.62697 11.0814 7.89472 10.6223C8.16247 10.1631 8.54449 9.78247 9.00295 9.51799C9.46142 9.25351 9.98043 9.11439 10.5086 9.11439C11.0368 9.11439 11.5558 9.25351 12.0143 9.51799C12.4727 9.78247 12.8547 10.1631 13.1225 10.6223C13.3902 11.0814 13.5344 11.6031 13.5408 12.1358C13.5471 12.6684 13.4154 13.1935 13.1587 13.659C13.1298 13.6898 13.1082 13.7268 13.0957 13.7673C13.0831 13.8078 13.0799 13.8506 13.0863 13.8926C13.0927 13.9345 13.1085 13.9744 13.1325 14.0092C13.1566 14.044 13.1882 14.0728 13.225 14.0934C13.2617 14.114 13.3027 14.1258 13.3447 14.128C13.3867 14.1301 13.4286 14.1226 13.4673 14.1059C13.506 14.0892 13.5403 14.0638 13.5678 14.0316C13.5952 13.9994 13.6149 13.9614 13.6255 13.9203C13.9291 13.3702 14.0848 12.7496 14.0774 12.1201C14.07 11.4906 13.8996 10.8739 13.5832 10.3312C13.2668 9.78847 12.8153 9.33853 12.2735 9.0259C11.7316 8.71328 11.1182 8.54883 10.4939 8.54883C9.86964 8.54883 9.25621 8.71328 8.71435 9.0259C8.17249 9.33853 7.721 9.78847 7.40459 10.3312C7.08819 10.8739 6.91784 11.4906 6.91041 12.1201C6.90298 12.7496 7.05874 13.3702 7.36226 13.9203H7.37696Z" fill="#FF9800" stroke="#FF9800" stroke-width="0.7"/>
</svg>
