<svg width="21" height="21" viewBox="0 0 21 21" fill="none" xmlns="http://www.w3.org/2000/svg">
<g opacity="0.6" clip-path="url(#clip0)">
<path fill-rule="evenodd" clip-rule="evenodd" d="M0.410783 2.69049H19.589C20.0186 2.69049 20.4061 2.85547 20.6936 3.12411L9.99992 12.2903L-0.691513 3.12696C-0.403329 2.85689 -0.0158513 2.69049 0.410783 2.69049ZM-0.694711 18.256L7.22884 11.4646L9.99992 13.8904L12.7717 11.4646L20.6904 18.256C20.403 18.5248 20.0156 18.6902 19.589 18.6902H0.410783C-0.0180092 18.6902 -0.406319 18.5248 -0.694711 18.256ZM-1.20007 17.3873L6.53269 10.817L-1.20007 4.09518V17.3873ZM21.1999 4.09041V17.3873L13.4671 10.817L21.1999 4.09041Z" fill="#6E6B6B"/>
</g>
<defs>
<clipPath id="clip0">
<rect width="19.6231" height="19.6231" fill="white" transform="translate(0.401489 0.879456)"/>
</clipPath>
</defs>
</svg>
