<svg xmlns="http://www.w3.org/2000/svg" width="20" height="20" fill="none" viewBox="0 0 20 20">
    <path fill="#96A5B8" fill-rule="evenodd" d="M5.333 3.333c-.369 0-.667.298-.667.667v12.666c0 .369.298.667.667.667.368 0 .666-.298.666-.667V12h10c.567 0 .875-.662.51-1.096l-2.357-3.47 2.316-2.96c.424-.42.127-1.141-.469-1.141H5.333zm.666 1.333v6h8.568l-1.83-2.843c-.224-.266-.206-.659.04-.903l1.602-2.254H6z" clip-rule="evenodd"/>
    <mask id="4opk891rha" width="13" height="15" x="4" y="3" maskUnits="userSpaceOnUse">
        <path fill="#fff" fill-rule="evenodd" d="M5.333 3.333c-.369 0-.667.298-.667.667v12.666c0 .369.298.667.667.667.368 0 .666-.298.666-.667V12h10c.567 0 .875-.662.51-1.096l-2.357-3.47 2.316-2.96c.424-.42.127-1.141-.469-1.141H5.333zm.666 1.333v6h8.568l-1.83-2.843c-.224-.266-.206-.659.04-.903l1.602-2.254H6z" clip-rule="evenodd"/>
    </mask>
    <g mask="url(#4opk891rha)">
        <path fill="#96A5B8" d="M0 0H20V20H0z"/>
    </g>
</svg>
