<?xml version="1.0" encoding="utf-8"?>
<!-- Generator: Adobe Illustrator 26.0.2, SVG Export Plug-In . SVG Version: 6.00 Build 0)  -->
<svg version="1.1" id="Layer_1" xmlns="http://www.w3.org/2000/svg" xmlns:xlink="http://www.w3.org/1999/xlink" x="0px" y="0px"
	 viewBox="0 0 30 30" style="enable-background:new 0 0 30 30;" xml:space="preserve">
<style type="text/css">
	.st0{fill-rule:evenodd;clip-rule:evenodd;fill:#96A5B8;}
</style>
<path class="st0" d="M7,12.2C7,16.5,12.2,26,15,26s8-9.5,8-13.8C23,7.7,19.4,4,15,4S7,7.7,7,12.2z M18.4,19.6C17,22.1,15.4,24,15,24
	s-2-1.9-3.4-4.4C10.1,16.8,9,13.8,9,12.2C9,8.8,11.7,6,15,6s6,2.8,6,6.2C21,13.8,19.9,16.8,18.4,19.6z M15,16c-2.2,0-4-1.8-4-4
	c0-2.2,1.8-4,4-4s4,1.8,4,4C19,14.2,17.2,16,15,16z M17,12c0,1.1-0.9,2-2,2s-2-0.9-2-2s0.9-2,2-2S17,10.9,17,12z"/>
</svg>
