<svg width="64" height="64" fill="none" xmlns="http://www.w3.org/2000/svg">
    <circle cx="32" cy="32" r="32" fill="#DBE2EA"/>
    <path fill-rule="evenodd" clip-rule="evenodd" d="M32 30.72a6.4 6.4 0 1 1 0-12.8 6.4 6.4 0 0 1 0 12.8zm0-2.56a3.84 3.84 0 1 0 0-7.68 3.84 3.84 0 0 0 0 7.68zM21.733 44.8a1.28 1.28 0 0 0 1.309-1.252c.156-7.02 3.043-8.988 8.96-8.988 6.247 0 9.11 1.943 8.954 8.931a1.28 1.28 0 0 0 2.56.057C43.7 35.177 39.741 32 32 32c-7.394 0-11.334 3.152-11.52 11.491a1.28 1.28 0 0 0 1.251 1.309z" fill="#fff"/>
</svg>
