<svg width="12" height="12" viewBox="0 0 12 12" fill="none" xmlns="http://www.w3.org/2000/svg">
<path d="M11.8338 4.37273C11.7528 4.13257 11.5503 3.95897 11.2986 3.92135L8.04629 3.44971L6.59376 0.50126C6.48092 0.272676 6.25233 0.133789 6.0006 0.133789C5.74597 0.133789 5.52028 0.275569 5.40744 0.50126L3.95202 3.44971L0.69975 3.92135C0.448017 3.95897 0.245474 4.13257 0.16735 4.37273C0.086333 4.61578 0.152883 4.8762 0.335172 5.04981L2.69046 7.34433L2.13491 10.5821C2.09151 10.8339 2.19278 11.0798 2.39822 11.2303C2.60366 11.3778 2.86986 11.3981 3.09555 11.2795L5.99771 9.7546L8.90565 11.2824C9.00403 11.3344 9.11109 11.3605 9.21525 11.3605C9.35125 11.3605 9.48724 11.3171 9.60298 11.2332C9.80841 11.0827 9.90969 10.8368 9.86628 10.585L9.31363 7.34723L11.666 5.0527C11.8483 4.8762 11.912 4.61578 11.8338 4.37273Z" fill="white"/>
</svg>
