<svg width="121" height="120" viewBox="0 0 121 120" fill="none" xmlns="http://www.w3.org/2000/svg">
<circle cx="60.5" cy="60" r="60" fill="#BCD5FF"/>
<g style="mix-blend-mode:screen">
<circle cx="59.94" cy="59.4393" r="56.0748" fill="#E3F0E2"/>
</g>
<path d="M64.9503 88.1856H36.469C32.7119 88.1856 29.6582 85.132 29.6582 81.3749V42.9871C29.6582 39.23 32.7119 36.1763 36.469 36.1763H64.9503C68.7073 36.1763 71.761 39.23 71.761 42.9871V81.3749C71.761 85.132 68.7073 88.1856 64.9503 88.1856Z" fill="#DBE2EA"/>
<path d="M51.9479 36.1763H36.4689C32.7119 36.1763 29.6582 39.23 29.6582 42.9871V81.3749C29.6582 85.132 32.7119 88.1856 36.4689 88.1856H51.9479V36.1763Z" fill="#BCD5FF"/>
<path d="M77.3331 95.6156H48.8518C45.0947 95.6156 42.041 92.5619 42.041 88.8048V52.8936C42.041 49.1365 45.0947 46.0828 48.8518 46.0828H77.3331C81.0901 46.0828 84.1438 49.1365 84.1438 52.8936V88.8048C84.1438 92.5619 81.0901 95.6156 77.3331 95.6156Z" fill="#14B1BD"/>
<path d="M72.3776 78.2791H53.8028C52.7775 78.2791 51.9453 77.447 51.9453 76.4216C51.9453 75.3963 52.7775 74.5642 53.8028 74.5642H72.3776C73.4029 74.5642 74.235 75.3963 74.235 76.4216C74.235 77.447 73.4029 78.2791 72.3776 78.2791Z" fill="white"/>
<path d="M72.3776 88.1856H53.8028C52.7775 88.1856 51.9453 87.3535 51.9453 86.3282C51.9453 85.3028 52.7775 84.4707 53.8028 84.4707H72.3776C73.4029 84.4707 74.235 85.3028 74.235 86.3282C74.235 87.3535 73.4029 88.1856 72.3776 88.1856Z" fill="white"/>
<path d="M72.3776 69.6109H53.8028C52.7775 69.6109 51.9453 68.7787 51.9453 67.7534C51.9453 66.7281 52.7775 65.8959 53.8028 65.8959H72.3776C73.4029 65.8959 74.235 66.7281 74.235 67.7534C74.235 68.7787 73.4029 69.6109 72.3776 69.6109Z" fill="white"/>
<path d="M72.3776 59.7043H53.8028C52.7775 59.7043 51.9453 58.8722 51.9453 57.8469C51.9453 56.8215 52.7775 55.9894 53.8028 55.9894H72.3776C73.4029 55.9894 74.235 56.8215 74.235 57.8469C74.235 58.8722 73.4029 59.7043 72.3776 59.7043Z" fill="white"/>
<path d="M63.0924 46.0828H48.8518C45.0947 46.0828 42.041 49.1365 42.041 52.8936V88.8048C42.041 92.5619 45.0947 95.6156 48.8518 95.6156H63.0924V88.1857H53.805C52.7797 88.1857 51.9476 87.3535 51.9476 86.3282C51.9476 85.3028 52.7797 84.4707 53.805 84.4707H63.0924V78.2791H53.805C52.7797 78.2791 51.9476 77.447 51.9476 76.4216C51.9476 75.3963 52.7797 74.5642 53.805 74.5642H63.0924V69.6109H53.805C52.7797 69.6109 51.9476 68.7787 51.9476 67.7534C51.9476 66.7281 52.7797 65.8959 53.805 65.8959H63.0924V59.7043H53.805C52.7797 59.7043 51.9476 58.8722 51.9476 57.8469C51.9476 56.8215 52.7797 55.9894 53.805 55.9894H63.0924V46.0828Z" fill="#0E57D7"/>
<path d="M63.0902 74.5642H53.8028C52.7775 74.5642 51.9453 75.3963 51.9453 76.4216C51.9453 77.447 52.7775 78.2791 53.8028 78.2791H63.0902V74.5642Z" fill="#DBE2EA"/>
<path d="M63.0902 84.4707H53.8028C52.7775 84.4707 51.9453 85.3028 51.9453 86.3282C51.9453 87.3535 52.7775 88.1856 53.8028 88.1856H63.0902V84.4707Z" fill="#DBE2EA"/>
<path d="M63.0902 65.8959H53.8028C52.7775 65.8959 51.9453 66.7281 51.9453 67.7534C51.9453 68.7787 52.7775 69.6109 53.8028 69.6109H63.0902V65.8959Z" fill="#DBE2EA"/>
<path d="M63.0902 55.9894H53.8028C52.7775 55.9894 51.9453 56.8215 51.9453 57.8469C51.9453 58.8722 52.7775 59.7043 53.8028 59.7043H63.0902V55.9894Z" fill="#DBE2EA"/>
<circle cx="80.1232" cy="39.2523" r="13.0334" fill="url(#paint0_linear)"/>
<g style="mix-blend-mode:screen">
<circle cx="80.003" cy="39.1305" r="12.1807" fill="url(#paint1_linear)"/>
</g>
<g filter="url(#filter0_d)">
<path d="M86.5031 38.5601C86.5031 34.9913 83.5958 32.084 80.0269 32.084C76.4581 32.084 73.5508 34.9913 73.5508 38.5601C73.5508 40.0369 74.0276 41.4214 74.9352 42.5751C75.166 42.8673 75.5967 42.9135 75.889 42.6827C76.1812 42.452 76.2274 42.0213 75.9967 41.729C75.2737 40.8214 74.9045 39.7292 74.9045 38.5601C74.9045 35.7451 77.1965 33.4531 80.0116 33.4531C82.8266 33.4531 85.1187 35.7451 85.1187 38.5601C85.1187 41.3137 82.9343 43.5442 80.2269 43.6672V42.5443C80.2269 42.129 79.7654 41.8675 79.4116 42.0982L76.6427 43.9134C76.3197 44.1287 76.3197 44.5902 76.6427 44.7902L79.427 46.6054C79.7808 46.8361 80.2423 46.59 80.2423 46.1593V45.0209C83.7188 44.9133 86.5031 42.0521 86.5031 38.5601Z" fill="white"/>
<path d="M80.0265 34.9452C79.6573 34.9452 79.3496 35.2528 79.3496 35.622V38.5602C79.3496 38.8217 79.5034 39.0524 79.7342 39.1755L81.7493 40.1754C81.8416 40.2215 81.9493 40.2523 82.057 40.2523C82.3031 40.2523 82.5492 40.1138 82.6723 39.8677C82.8415 39.5293 82.7031 39.1139 82.3646 38.9601L80.7341 38.1448V35.622C80.7033 35.2528 80.3956 34.9452 80.0265 34.9452Z" fill="white"/>
</g>
<defs>
<filter id="filter0_d" x="69.5508" y="30.084" width="20.9531" height="22.6098" filterUnits="userSpaceOnUse" color-interpolation-filters="sRGB">
<feFlood flood-opacity="0" result="BackgroundImageFix"/>
<feColorMatrix in="SourceAlpha" type="matrix" values="0 0 0 0 0 0 0 0 0 0 0 0 0 0 0 0 0 0 127 0" result="hardAlpha"/>
<feOffset dy="2"/>
<feGaussianBlur stdDeviation="2"/>
<feColorMatrix type="matrix" values="0 0 0 0 0.180392 0 0 0 0 0.180392 0 0 0 0 0.180392 0 0 0 0.1 0"/>
<feBlend mode="normal" in2="BackgroundImageFix" result="effect1_dropShadow"/>
<feBlend mode="normal" in="SourceGraphic" in2="effect1_dropShadow" result="shape"/>
</filter>
<linearGradient id="paint0_linear" x1="91.5926" y1="27.0878" x2="67.0898" y2="52.2857" gradientUnits="userSpaceOnUse">
<stop stop-color="#FFB133"/>
<stop offset="1" stop-color="#CD7F00"/>
</linearGradient>
<linearGradient id="paint1_linear" x1="90.722" y1="27.7619" x2="67.8223" y2="51.3113" gradientUnits="userSpaceOnUse">
<stop stop-color="#FFB133"/>
<stop offset="1" stop-color="#CD7F00"/>
</linearGradient>
</defs>
</svg>
