<svg xmlns="http://www.w3.org/2000/svg" width="24" height="24" fill="none" viewBox="0 0 24 24">
    <path fill="#231E1E" fill-rule="evenodd" d="M3.2 12c0 4.86 3.94 8.8 8.8 8.8 4.86 0 8.8-3.94 8.8-8.8 0-4.86-3.94-8.8-8.8-8.8-4.86 0-8.8 3.94-8.8 8.8zm16.192 0c0 4.083-3.31 7.392-7.392 7.392-4.083 0-7.392-3.31-7.392-7.392 0-4.082 3.31-7.392 7.392-7.392 4.082 0 7.392 3.31 7.392 7.392zm-8.192-.8c0-.442.358-.8.8-.8.442 0 .8.358.8.8v4c0 .442-.358.8-.8.8-.442 0-.8-.358-.8-.8v-4zm1.6-2.4c0 .442-.358.8-.8.8-.442 0-.8-.358-.8-.8 0-.442.358-.8.8-.8.442 0 .8.358.8.8z" clip-rule="evenodd"/>
</svg>
