<svg xmlns="http://www.w3.org/2000/svg" width="29" height="28" fill="none" viewBox="0 0 29 28">
    <path fill="#14B1BD" fill-rule="evenodd" d="M18.508 5.557l-.072.895H15.46l-.074-.931V3.733h3.122l-.001 1.824zm-.905-.917h-1.31v.863l.004.043H17.6l.004-.043V4.64zm2.182 10.148l-1.697-8.034h-2.305l-1.697 8.034 2.85 2.85 2.85-2.85zM16.518 7.66h.835l1.444 6.833-1.861 1.861-1.862-1.86 1.444-6.834zm7.487 11.431c-.11-.365-.357-.666-.695-.847-.33-.177-.708-.218-1.066-.117l-3.682.715c-.268-.452-.787-.76-1.382-.76H15.31l-.036.006c-.006 0-.565.067-1.532-.285-.6-.218-.976-.36-1.25-.465l-.003-.002c-.237-.09-.394-.15-.544-.2-.294-.098-1.59-.12-2.505-.124-.057-.474-.46-.843-.95-.843H5.167v.906h1.712v5.136H5.166v.906H8.49c.407 0 .755-.256.892-.616.657.03 1.021.217 1.054.235l.03.019 3.12 1.125c.867.308 1.515.386 1.95.386.398 0 .618-.066.662-.08l.03-.01 2.542-1.272 4.313-2.04c.349-.115.636-.356.812-.683.18-.338.22-.725.11-1.09zM8.54 22.162c0 .026-.024.05-.05.05h-.705v-5.136h.705c.026 0 .05.023.05.05v5.035zm14.556-2.409c-.067.125-.177.215-.31.256l-.033.01-4.375 2.069-2.483 1.242c-.133.027-.794.127-2.003-.302l-3.037-1.095c-.15-.08-.628-.297-1.409-.335v-3.679c.972.005 2.02.035 2.22.08.13.045.279.101.502.186.277.106.657.25 1.263.47 1.076.392 1.759.355 1.942.334h1.807c.363 0 .669.254.669.554 0 .3-.306.554-.669.554h-1.83l-1.118-.025c-.15-.017-.666-.047-1.043.292-.18.163-.39.468-.362 1l.905-.047c-.004-.08-.001-.22.062-.279.08-.072.265-.075.333-.066l.025.005 1.183.026h1.845c.8 0 1.461-.555 1.561-1.271l3.697-.718.044-.011c.134-.04.276-.026.4.04.124.067.215.178.255.31.04.134.026.276-.041.4z" clip-rule="evenodd"/>
</svg>
