<svg width="14" height="14" fill="none" xmlns="http://www.w3.org/2000/svg">
    <path fill-rule="evenodd" clip-rule="evenodd" d="M9.753 7.3 7.62 7.275l-.025 2.11-.824-.01.033-2.934 2.958.034-.009.825zM8.252 4.695l-.267-1.044a3.662 3.662 0 1 1-3.717 5.058l-.792.24A4.486 4.486 0 1 0 7.77 2.811l-.242-.945L6.276 3.09l-.835.816.845.237 1.966.551zM3.46 6.291h.445V5.047H3.46v1.244zm0 .607a.222.222 0 1 0 .445 0 .222.222 0 0 0-.444 0zm-1.593-.875a1.803 1.803 0 1 1 3.605 0 1.803 1.803 0 0 1-3.605 0z" fill="#fff"/>
</svg>
