<svg width="10" height="14" viewBox="0 0 10 14" fill="none" xmlns="http://www.w3.org/2000/svg">
<path fill-rule="evenodd" clip-rule="evenodd" d="M0 5.29714C0 7.90977 3.14172 13.5999 4.8 13.5999C6.45828 13.5999 9.6 7.90977 9.6 5.29714C9.6 2.5955 7.45408 0.399902 4.8 0.399902C2.14592 0.399902 0 2.5955 0 5.29714ZM6.82641 9.7485C5.98453 11.2733 5.0395 12.3999 4.8 12.3999C4.5605 12.3999 3.61547 11.2733 2.77359 9.7485C1.83815 8.05428 1.2 6.27948 1.2 5.29714C1.2 3.25218 2.81489 1.5999 4.8 1.5999C6.78511 1.5999 8.4 3.25218 8.4 5.29714C8.4 6.27948 7.76185 8.05428 6.82641 9.7485ZM4.8 7.5999C3.47452 7.5999 2.4 6.52539 2.4 5.1999C2.4 3.87442 3.47452 2.7999 4.8 2.7999C6.12548 2.7999 7.2 3.87442 7.2 5.1999C7.2 6.52539 6.12548 7.5999 4.8 7.5999ZM6 5.1999C6 5.86264 5.46274 6.3999 4.8 6.3999C4.13726 6.3999 3.6 5.86264 3.6 5.1999C3.6 4.53716 4.13726 3.9999 4.8 3.9999C5.46274 3.9999 6 4.53716 6 5.1999Z" fill="#96A5B8"/>
</svg>
