<svg width="20" height="20" viewBox="0 0 20 20" fill="none" xmlns="http://www.w3.org/2000/svg">
<path d="M14.772 8.00022H15.6692V8.89742C15.6692 9.05122 15.7717 9.15376 15.9255 9.15376C16.0793 9.15376 16.1819 9.05122 16.1819 8.89742V8.00022H17.0791C17.2329 8.00022 17.3354 7.89768 17.3354 7.74387C17.3354 7.59007 17.2329 7.48753 17.0791 7.48753H16.1819V6.59033C16.1819 6.43652 16.0793 6.33398 15.9255 6.33398C15.7717 6.33398 15.6692 6.43652 15.6692 6.59033V7.48753H14.772C14.6182 7.48753 14.5156 7.59007 14.5156 7.74387C14.5156 7.89768 14.6438 8.00022 14.772 8.00022Z" fill="#004ED5" stroke="#004ED5" stroke-width="0.8"/>
<path d="M10.7993 4.48753H11.1838V4.87204C11.1838 5.02585 11.2864 5.12839 11.4402 5.12839C11.594 5.12839 11.6965 5.02585 11.6965 4.87204V4.48753H12.081C12.2348 4.48753 12.3374 4.38499 12.3374 4.23119C12.3374 4.07738 12.2348 3.97484 12.081 3.97484H11.6965V3.59033C11.6965 3.43652 11.594 3.33398 11.4402 3.33398C11.2864 3.33398 11.1838 3.43652 11.1838 3.59033V3.97484H10.7993C10.6455 3.97484 10.543 4.07738 10.543 4.23119C10.543 4.38499 10.6711 4.48753 10.7993 4.48753Z" fill="#004ED5" stroke="#004ED5" stroke-width="0.4"/>
<path d="M9.69581 17.126C11.1313 17.126 12.5925 16.6902 13.8486 15.7673C14.4125 15.3572 14.8996 14.8701 15.3354 14.3062C15.4123 14.2036 15.4123 14.1011 15.3354 13.9986C15.2585 13.896 15.1559 13.8704 15.0534 13.896C12.3361 14.8445 9.33692 13.9217 7.64506 11.5889C5.92756 9.25622 5.95319 6.12883 7.67069 3.82174C7.7476 3.7192 7.7476 3.61666 7.67069 3.51413C7.59379 3.41159 7.49125 3.38596 7.38871 3.41159C6.72222 3.6423 6.107 3.97554 5.54304 4.38569C4.03062 5.48797 3.03088 7.12857 2.7489 8.99987C2.46692 10.8712 2.92834 12.7169 4.03062 14.2293C5.38924 16.1262 7.51689 17.126 9.69581 17.126ZM3.23595 9.07678C3.4923 7.35928 4.41513 5.84685 5.82502 4.79584C6.13263 4.56513 6.44024 4.38569 6.77349 4.20625C5.38924 6.61588 5.54304 9.58946 7.20927 11.8709C8.87551 14.1524 11.6953 15.1777 14.3869 14.5882C14.1305 14.8445 13.8486 15.1008 13.541 15.3059C10.6443 17.4336 6.54278 16.7927 4.41513 13.896C3.38976 12.5374 2.95398 10.7943 3.23595 9.07678Z" fill="#004ED5" stroke="#004ED5" stroke-width="0.8"/>
</svg>
