<svg width="18" height="20" viewBox="0 0 18 20" fill="none" xmlns="http://www.w3.org/2000/svg">
<path fill-rule="evenodd" clip-rule="evenodd" d="M2.96678 12.2511C4.15037 10.7064 4.79644 8.80684 4.79057 6.84523V6.15571C4.78994 5.634 4.89539 5.1176 5.10052 4.6379C5.30565 4.1582 5.60617 3.72522 5.98383 3.36527C6.36148 3.00531 6.80837 2.7259 7.29736 2.54402C7.78634 2.36213 8.3072 2.28156 8.82829 2.30722C10.8455 2.40664 12.4876 4.19619 12.4876 6.30003V6.84523C12.4815 8.88062 13.1773 10.8492 14.4472 12.4239C14.4472 12.4239 14.4472 12.4239 14.4472 12.4239M4.79057 6.15571L4.32391 6.84663L4.3239 6.84523L4.32391 6.15628L4.79057 6.15571ZM2.96678 12.2511C2.92226 12.3092 2.87698 12.3668 2.83094 12.4239L2.96678 12.2511ZM2.83094 12.4239C2.70214 12.5836 2.56743 12.7393 2.42695 12.8906L2.83094 12.4239ZM14.4731 12.4559C14.594 12.6044 14.7201 12.7494 14.8512 12.8906H2.42695M6.56901 0.572068C7.32459 0.291544 8.1293 0.167522 8.93427 0.207527C10.4776 0.299786 11.926 0.983087 12.9787 2.11551C14.0318 3.24847 14.6077 4.74377 14.5866 6.29046V6.8411C14.5834 7.73665 14.7581 8.62391 15.1003 9.45148C15.4425 10.279 15.9456 11.0303 16.5802 11.662C16.8516 11.9349 17.0363 12.282 17.111 12.6597C17.1857 13.0377 17.1468 13.4293 16.9993 13.7853C16.8518 14.1412 16.6022 14.4456 16.282 14.6599C15.9617 14.8742 15.5853 14.9889 15.1999 14.9896H2.07825C1.69366 14.9883 1.31802 14.8734 0.99851 14.6593C0.678848 14.4451 0.429639 14.1412 0.282214 13.7858C0.134789 13.4304 0.0957281 13.0393 0.169943 12.6617C0.244067 12.2846 0.427888 11.9378 0.698337 11.6648C1.3328 11.0332 1.83566 10.282 2.17781 9.45469C2.52005 8.62716 2.69468 7.73994 2.69157 6.84444L2.69157 6.15513C2.69056 5.34843 2.85368 4.54995 3.17099 3.80828C3.4883 3.0666 3.95318 2.39723 4.53734 1.84088C5.12151 1.28454 5.81275 0.852845 6.56901 0.572068ZM10.7381 19.8002H6.54012V18.1679H10.7381V19.8002Z" fill="#14B1BD"/>
</svg>
