<svg xmlns="http://www.w3.org/2000/svg" width="24" height="24" fill="none" viewBox="0 0 24 24">
    <path fill="#F43628" fill-rule="evenodd" d="M12 3.2c-.442 0-.8.358-.8.8v5.6c0 .442.358.8.8.8.442 0 .8-.358.8-.8V4c0-.442-.358-.8-.8-.8zM9.306 5.388c-.213-.387-.698-.53-1.084-.32-.658.359-1.264.812-1.803 1.351-3.103 3.103-3.086 8.151.038 11.276 3.124 3.124 8.172 3.14 11.276.038 3.103-3.104 3.086-8.152-.038-11.276-.513-.512-1.085-.948-1.703-1.301-.383-.22-.87-.087-1.086.295-.216.382-.081.869.303 1.088.494.282.95.63 1.362 1.042 2.5 2.5 2.513 6.538.03 9.02-2.482 2.483-6.521 2.47-9.02-.03-2.5-2.5-2.513-6.538-.03-9.02.432-.433.917-.795 1.442-1.082.386-.21.525-.695.313-1.082z" clip-rule="evenodd"/>
</svg>
