<svg width="28" height="28" fill="none" xmlns="http://www.w3.org/2000/svg">
    <path fill-rule="evenodd" clip-rule="evenodd" d="M11.795 12.481h-3.02a.998.998 0 0 1-.997-.997v-3.02a.997.997 0 0 1 .998-.997h3.02a.997.997 0 0 1 .997.997v3.02a.997.997 0 0 1-.998.997zm.01-.988V8.455H8.765v3.038h3.038zM8.07 20.241a.997.997 0 0 1-.292-.705v-3.02a.997.997 0 0 1 .998-.997h3.02a.997.997 0 0 1 .997.997v3.02a.997.997 0 0 1-.998.997h-3.02a.998.998 0 0 1-.705-.292zm3.734-.696v-3.038H8.766v3.038h3.038zM20.553 12.189a.997.997 0 0 1-.705.292h-3.02a.997.997 0 0 1-.997-.997v-3.02a.997.997 0 0 1 .997-.997h3.02a.997.997 0 0 1 .997.997v3.02a.997.997 0 0 1-.292.705zm-.696-3.734h-3.038v3.038h3.038V8.455z" fill="#14B1BD"/>
    <path d="M20.717 15.281h-1.708v1.708h1.708v-1.708zM19.009 16.99H17.3v1.707h-1.708v1.708H17.3v-1.708h1.708v1.708h1.708v-1.708h-1.708V16.99zM15.593 15.281H17.3v1.708h-1.708v-1.708z" fill="#14B1BD"/>
    <path fill-rule="evenodd" clip-rule="evenodd" d="M20.845 4.667H7.778a2.8 2.8 0 0 0-2.8 2.8v13.066a2.8 2.8 0 0 0 2.8 2.8h13.067a2.8 2.8 0 0 0 2.8-2.8V7.467a2.8 2.8 0 0 0-2.8-2.8zM7.778 3.733a3.733 3.733 0 0 0-3.733 3.734v13.066a3.733 3.733 0 0 0 3.733 3.734h13.067a3.733 3.733 0 0 0 3.733-3.734V7.467a3.733 3.733 0 0 0-3.733-3.734H7.778z" fill="#14B1BD"/>
</svg>
