<svg width="80" height="80" viewBox="0 0 80 80" fill="none" xmlns="http://www.w3.org/2000/svg">
<circle cx="40" cy="40" r="40" fill="#F3F3F3"/>
<circle cx="40" cy="40.002" r="29.4737" fill="#F8B248"/>
<path fill-rule="evenodd" clip-rule="evenodd" d="M49.8632 51.6953L48.4534 43.4356L54.4544 37.5822C54.9194 37.1319 55.0818 36.4676 54.8825 35.8476C54.6758 35.2349 54.1591 34.792 53.517 34.6961L45.2204 33.4929L41.5149 25.9714C41.2271 25.3882 40.644 25.0339 40.0018 25.0339C39.3522 25.0339 38.7765 25.3956 38.4886 25.9714L34.7758 33.4929L26.4792 34.6961C25.837 34.792 25.3203 35.2349 25.121 35.8476C24.9144 36.4676 25.0841 37.1319 25.5492 37.5748L31.5575 43.4282L30.1403 51.6879C30.0296 52.33 30.288 52.9575 30.812 53.3413C31.3361 53.7177 32.0152 53.7694 32.5909 53.4668L39.9944 49.5768L47.4126 53.4741C47.6636 53.607 47.9367 53.6734 48.2024 53.6734C48.5493 53.6734 48.8963 53.5627 49.1915 53.3487C49.7156 52.9648 49.9739 52.3374 49.8632 51.6953ZM31.6788 52.1461C31.6383 52.1151 31.6166 52.0823 31.6051 52.054C31.5933 52.025 31.5867 51.9877 31.5951 51.9387L33.1439 42.9126L26.5733 36.5115L26.5673 36.5058C26.5382 36.4781 26.5226 36.4482 26.5154 36.4196C26.5084 36.3914 26.5075 36.3565 26.5215 36.3144L26.5232 36.3093L26.5249 36.3042C26.5402 36.2572 26.5645 36.2247 26.5904 36.2027C26.6156 36.1812 26.6494 36.1636 26.6956 36.1564L35.756 34.8425L39.809 26.6316C39.8093 26.6309 39.8097 26.6303 39.81 26.6296C39.8322 26.5861 39.8608 26.558 39.8892 26.5404C39.9176 26.5227 39.954 26.5102 40.0018 26.5102C40.0497 26.5102 40.0879 26.523 40.1168 26.5408C40.1449 26.5581 40.1711 26.5843 40.191 26.6244C40.1909 26.6242 40.191 26.6245 40.191 26.6244L44.2395 34.8424L53.2988 36.1561C53.2994 36.1562 53.3 36.1563 53.3006 36.1564C53.3464 36.1636 53.3813 36.1812 53.4089 36.2045C53.4356 36.2272 53.4619 36.2609 53.4801 36.3093C53.4932 36.3556 53.4917 36.3947 53.4841 36.4257C53.476 36.4585 53.4589 36.4912 53.4275 36.5216L46.8678 42.9199L48.408 51.9436L48.4084 51.9461C48.4169 51.995 48.4103 52.0324 48.3984 52.0614C48.3867 52.0903 48.3643 52.1238 48.3222 52.1555C48.2775 52.187 48.2344 52.1972 48.2024 52.1972C48.1806 52.1972 48.1443 52.1911 48.1033 52.1694L39.9944 47.9092L31.9043 52.1599C31.8613 52.1825 31.8222 52.1887 31.7882 52.1862C31.7553 52.1839 31.7178 52.1728 31.6788 52.1461Z" fill="white"/>
<path d="M40.191 26.6244C40.1711 26.5843 40.1449 26.5581 40.1168 26.5408C40.0879 26.523 40.0497 26.5102 40.0018 26.5102C39.954 26.5102 39.9176 26.5227 39.8892 26.5404C39.8608 26.558 39.8322 26.5861 39.81 26.6296C39.8097 26.6303 39.8093 26.6309 39.809 26.6316L35.756 34.8425L26.6956 36.1564C26.6494 36.1636 26.6156 36.1812 26.5904 36.2027C26.5645 36.2247 26.5402 36.2572 26.5249 36.3042L26.5232 36.3093L26.5215 36.3144C26.5075 36.3565 26.5084 36.3914 26.5154 36.4196C26.5226 36.4482 26.5382 36.4781 26.5673 36.5058L26.5733 36.5115L33.1439 42.9126L31.5951 51.9387C31.5867 51.9877 31.5933 52.025 31.6051 52.054C31.6166 52.0823 31.6383 52.1151 31.6788 52.1461C31.7178 52.1728 31.7553 52.1839 31.7882 52.1862C31.8222 52.1887 31.8613 52.1825 31.9043 52.1599L39.9944 47.9092L48.1033 52.1694C48.1443 52.1911 48.1806 52.1972 48.2024 52.1972C48.2344 52.1972 48.2775 52.187 48.3222 52.1555C48.3643 52.1238 48.3867 52.0903 48.3984 52.0614C48.4103 52.0324 48.4169 51.995 48.4084 51.9461L48.408 51.9436L46.8678 42.9199L53.4275 36.5216C53.4589 36.4912 53.476 36.4585 53.4841 36.4257C53.4917 36.3947 53.4932 36.3556 53.4801 36.3093C53.4619 36.2609 53.4356 36.2272 53.4089 36.2045C53.3813 36.1812 53.3464 36.1636 53.3006 36.1564C53.3 36.1563 53.2994 36.1562 53.2988 36.1561L44.2395 34.8424L40.191 26.6244ZM40.191 26.6244C40.191 26.6245 40.1909 26.6242 40.191 26.6244ZM49.8632 51.6953L48.4534 43.4356L54.4544 37.5822C54.9194 37.1319 55.0818 36.4676 54.8825 35.8476C54.6758 35.2349 54.1591 34.792 53.517 34.6961L45.2204 33.4929L41.5149 25.9714C41.2271 25.3882 40.644 25.0339 40.0018 25.0339C39.3522 25.0339 38.7765 25.3956 38.4886 25.9714L34.7758 33.4929L26.4792 34.6961C25.837 34.792 25.3203 35.2349 25.121 35.8476C24.9144 36.4676 25.0841 37.1319 25.5492 37.5748L31.5575 43.4282L30.1403 51.6879C30.0296 52.33 30.288 52.9575 30.812 53.3413C31.3361 53.7177 32.0152 53.7694 32.5909 53.4668L39.9944 49.5768L47.4126 53.4741C47.6636 53.607 47.9367 53.6734 48.2024 53.6734C48.5493 53.6734 48.8963 53.5627 49.1915 53.3487C49.7156 52.9648 49.9739 52.3374 49.8632 51.6953Z" stroke="white" stroke-width="2"/>
</svg>
