<svg xmlns="http://www.w3.org/2000/svg" width="24" height="24" fill="none" viewBox="0 0 24 24">
    <path fill="#fff" d="M5.973 3.2C5.33 3.2 4.8 3.73 4.8 4.373v15.254c0 .643.53 1.173 1.173 1.173h11.342c.644 0 1.174-.53 1.174-1.173V4.373c0-.643-.53-1.173-1.174-1.173H5.973zm0 .782h11.342c.224 0 .392.168.392.391v15.254c0 .223-.168.39-.392.39H5.973c-.223 0-.39-.167-.39-.39V4.373c0-.223.167-.39.39-.39zm7.786 1.363c-.099.01-.192.06-.257.134l-2.5 2.86-1.276-.959c-.165-.124-.429-.086-.551.08-.123.166-.081.429.086.55l1.565 1.173c.155.115.397.09.525-.055l2.738-3.13c.107-.115.133-.3.061-.44-.07-.141-.234-.23-.391-.213zm-6.221 5.873c-.216 0-.391.175-.391.39 0 .217.175.392.39.392h8.214c.216 0 .391-.175.391-.391 0-.216-.175-.391-.39-.391H7.537zm0 3.129c-.216 0-.391.175-.391.39 0 .217.175.392.39.392h8.214c.216 0 .391-.175.391-.391 0-.216-.175-.391-.39-.391H7.537zm0 3.129c-.216 0-.391.175-.391.39 0 .217.175.392.39.392h8.214c.216 0 .391-.175.391-.391 0-.216-.175-.391-.39-.391H7.537z"/>
</svg>
