<svg width="20" height="20" fill="none" xmlns="http://www.w3.org/2000/svg">
    <path d="M4.978 2.667A.983.983 0 0 0 4 3.645v12.71c0 .537.442.979.978.979h9.452a.983.983 0 0 0 .977-.978V3.645a.983.983 0 0 0-.977-.978H4.978zm0 .652h9.452c.186 0 .325.14.325.326v12.71c0 .187-.14.327-.325.327H4.978a.318.318 0 0 1-.326-.326V3.645c0-.186.14-.326.326-.326zm6.488 1.135a.33.33 0 0 0-.214.113L9.169 6.95l-1.064-.8a.339.339 0 0 0-.46.067.339.339 0 0 0 .073.458l1.303.978c.13.096.331.074.438-.046l2.282-2.608c.089-.096.11-.25.051-.367a.335.335 0 0 0-.326-.178zM6.28 9.348a.326.326 0 1 0 0 .652h6.845a.326.326 0 1 0 0-.652H6.28zm0 2.608a.326.326 0 1 0 0 .652h6.845a.326.326 0 1 0 0-.652H6.28zm0 2.607a.326.326 0 1 0 0 .652h6.845a.326.326 0 1 0 0-.652H6.28z" fill="#96A5B8"/>
</svg>
