<svg xmlns="http://www.w3.org/2000/svg" width="24" height="24" fill="none" viewBox="0 0 24 24">
    <path fill="#fff" fill-rule="evenodd" d="M7.385 3.2h.575c.2 0 .397.04.58.116.184.076.351.188.492.328.14.141.252.308.328.493.076.184.115.38.115.58v.216h5.05v-.216c0-.402.16-.787.444-1.071.284-.284.669-.444 1.07-.444h.576c.402 0 .787.16 1.071.444.284.284.444.67.444 1.07v.217h.29c.631 0 1.236.251 1.683.697.446.447.697 1.052.697 1.683v10.57c0 .632-.25 1.237-.697 1.683-.447.447-1.052.697-1.683.697H5.58c-.631 0-1.237-.25-1.683-.697-.446-.446-.697-1.051-.697-1.683V7.311c0-.631.25-1.236.697-1.683.446-.446 1.052-.697 1.683-.697h.29v-.216c0-.402.16-.787.444-1.071.284-.284.669-.444 1.07-.444zM7.23 4.562c-.041.04-.064.095-.064.153l.002 1.73c0 .058.023.113.064.154.04.04.095.063.153.063h.575c.058 0 .113-.023.153-.063.04-.04.064-.096.064-.153V4.715c0-.058-.023-.113-.064-.153-.04-.04-.095-.064-.153-.064h-.577c-.058 0-.113.023-.153.064zm11.188 14.403c.287 0 .562-.114.765-.317.203-.203.317-.478.317-.765l.002-7.3H4.498v7.3c0 .142.028.283.083.414.054.131.134.25.234.351.1.1.22.18.351.235.131.054.272.082.414.082h12.838zM15.885 4.562c-.041.04-.064.095-.064.153l.002 1.73c0 .058.023.113.064.154.04.04.095.063.153.063h.575c.058 0 .113-.023.153-.063.04-.04.064-.096.064-.153V4.715c0-.058-.023-.113-.064-.153-.04-.04-.095-.064-.153-.064h-.577c-.058 0-.113.023-.153.064zm-1.362 1.884v-.217H9.475v.217c0 .401-.16.787-.444 1.07-.284.285-.669.444-1.07.444h-.578c-.402 0-.787-.16-1.071-.443-.285-.284-.444-.67-.444-1.071v-.217H5.58c-.287 0-.562.114-.765.317-.203.203-.317.478-.317.765v1.97H19.5V7.31c0-.287-.114-.562-.317-.765-.203-.203-.478-.317-.765-.317h-.288v.217c0 .401-.16.787-.444 1.07-.284.285-.669.444-1.07.444h-.578c-.402 0-.787-.16-1.071-.443-.285-.284-.444-.67-.444-1.071zm.837 4.78l.896.936-5.385 5.156-3.131-3.13.917-.918 2.233 2.231 4.47-4.276z" clip-rule="evenodd"/>
</svg>
