<svg xmlns="http://www.w3.org/2000/svg" width="24" height="24" fill="none" viewBox="0 0 24 24">
    <path fill="#231E1E" fill-rule="evenodd" d="M3.697 7.984c-.155.32-.291.648-.408.984-.257.737.056 1.552.74 1.928.402.22.655.64.655 1.104 0 .465-.253.884-.654 1.105-.685.376-.998 1.19-.74 1.928.116.336.252.664.407.984.34.702 1.137 1.056 1.886.838.44-.127.915-.01 1.244.319.329.329.446.804.318 1.243-.218.75.137 1.546.839 1.887.32.154.648.29.984.408.737.256 1.552-.057 1.928-.741.22-.401.64-.654 1.104-.654.465 0 .884.253 1.104.654.377.684 1.191.997 1.929.74.336-.116.664-.253.983-.407.703-.34 1.057-1.138.84-1.887-.128-.44-.011-.914.318-1.243.328-.329.804-.446 1.243-.319.75.218 1.546-.136 1.886-.838.155-.32.291-.648.408-.984.257-.737-.056-1.552-.74-1.928-.401-.22-.654-.64-.654-1.105 0-.465.253-.884.654-1.104.684-.376.997-1.19.74-1.928-.117-.336-.253-.664-.408-.984-.34-.702-1.137-1.056-1.886-.839-.44.128-.915.01-1.243-.318-.33-.329-.446-.804-.319-1.243.218-.75-.136-1.547-.839-1.887-.319-.155-.647-.29-.983-.408-.738-.256-1.553.057-1.928.74-.22.402-.64.655-1.105.655-.465 0-.884-.253-1.104-.654-.376-.684-1.191-.997-1.928-.74-.336.116-.665.252-.984.407-.702.34-1.057 1.137-.839 1.887.128.439.01.914-.318 1.243-.329.329-.804.446-1.244.318-.749-.217-1.546.137-1.886.84zM6.284 12c0-1.08-.6-2.02-1.484-2.506.097-.279.21-.55.337-.812.969.281 2.057.04 2.821-.724.764-.763 1.005-1.852.724-2.82.262-.128.533-.24.812-.338.486.885 1.426 1.484 2.506 1.484 1.08 0 2.02-.6 2.507-1.484.278.097.55.21.812.337-.282.969-.04 2.058.723 2.821.764.764 1.853 1.005 2.821.724.128.262.24.533.337.812-.884.486-1.483 1.426-1.483 2.506 0 1.08.599 2.021 1.483 2.507-.097.278-.21.55-.337.812-.968-.282-2.057-.04-2.82.723-.765.764-1.006 1.853-.724 2.822-.263.127-.534.24-.812.336-.486-.884-1.426-1.483-2.507-1.483-1.08 0-2.02.6-2.506 1.483-.279-.096-.55-.21-.812-.336.281-.97.04-2.058-.724-2.822-.764-.763-1.852-1.005-2.821-.723-.127-.263-.24-.534-.337-.812.885-.486 1.484-1.426 1.484-2.507zm7.316 0c0 .884-.716 1.6-1.6 1.6-.883 0-1.6-.716-1.6-1.6 0-.883.716-1.6 1.6-1.6.884 0 1.6.717 1.6 1.6z" clip-rule="evenodd"/>
</svg>
