<svg width="30" height="30" viewBox="0 0 30 30" fill="none" xmlns="http://www.w3.org/2000/svg">
<path fill-rule="evenodd" clip-rule="evenodd" d="M18.9714 7.08571H25.1429C25.3679 7.09286 25.5818 7.18547 25.741 7.34469C25.9003 7.50391 25.9929 7.7178 26 7.94286C26 8.17019 25.9097 8.3882 25.749 8.54895C25.5882 8.70969 25.3702 8.8 25.1429 8.8H23.6571V22.1714C23.6609 22.7728 23.5453 23.369 23.3169 23.9253C23.0885 24.4817 22.7519 24.9871 22.3267 25.4124C21.9014 25.8376 21.3959 26.1742 20.8396 26.4026C20.2833 26.631 19.6871 26.7467 19.0857 26.7429H10.9429C9.73044 26.7429 8.56768 26.2612 7.71037 25.4039C6.85306 24.5466 6.37143 23.3838 6.37143 22.1714V8.8H4.85714C4.62981 8.8 4.4118 8.70969 4.25105 8.54895C4.09031 8.3882 4 8.17019 4 7.94286C4.00715 7.7178 4.09975 7.50391 4.25897 7.34469C4.41819 7.18547 4.63208 7.09286 4.85714 7.08571H11.0286V6.28571C11.0286 5.67951 11.2694 5.09812 11.698 4.66947C12.1267 4.24082 12.7081 4 13.3143 4H16.6857C17.2919 4 17.8733 4.24082 18.302 4.66947C18.7306 5.09812 18.9714 5.67951 18.9714 6.28571V7.08571ZM12.9102 5.88165C12.8031 5.98882 12.7429 6.13416 12.7429 6.28571V7.08571H17.2571V6.28571C17.2571 6.13416 17.1969 5.98882 17.0898 5.88165C16.9826 5.77449 16.8373 5.71429 16.6857 5.71429H13.3143C13.1627 5.71429 13.0174 5.77449 12.9102 5.88165ZM21.7254 23.2648C21.869 22.9182 21.9429 22.5466 21.9429 22.1714V8.8H8.08571V22.1714C8.08571 22.5466 8.15962 22.9182 8.3032 23.2648C8.44679 23.6115 8.65724 23.9264 8.92255 24.1917C9.18786 24.457 9.50283 24.6675 9.84948 24.8111C10.1961 24.9547 10.5677 25.0286 10.9429 25.0286H19.0857C19.4609 25.0286 19.8325 24.9547 20.1791 24.8111C20.5257 24.6675 20.8407 24.457 21.106 24.1917C21.3713 23.9264 21.5818 23.6115 21.7254 23.2648ZM11.6918 22.0632C11.5311 22.224 11.3131 22.3143 11.0857 22.3143C10.8607 22.3071 10.6468 22.2145 10.4876 22.0553C10.3283 21.8961 10.2357 21.6822 10.2286 21.4571V11.7429C10.2286 11.5155 10.3189 11.2975 10.4796 11.1368C10.6404 10.976 10.8584 10.8857 11.0857 10.8857C11.1994 10.8817 11.3126 10.9012 11.4184 10.9428C11.5242 10.9845 11.6203 11.0475 11.7007 11.1279C11.7811 11.2083 11.8441 11.3044 11.8858 11.4102C11.9274 11.516 11.9469 11.6292 11.9429 11.7429V21.4571C11.9429 21.6845 11.8526 21.9025 11.6918 22.0632ZM15 22.3143C15.2273 22.3143 15.4453 22.224 15.6061 22.0632C15.7668 21.9025 15.8571 21.6845 15.8571 21.4571V11.7429C15.8571 11.5155 15.7668 11.2975 15.6061 11.1368C15.4453 10.976 15.2273 10.8857 15 10.8857C14.7727 10.8857 14.5547 10.976 14.3939 11.1368C14.2332 11.2975 14.1429 11.5155 14.1429 11.7429V21.4571C14.1429 21.6845 14.2332 21.9025 14.3939 22.0632C14.5547 22.224 14.7727 22.3143 15 22.3143ZM19.5125 22.0553C19.3532 22.2145 19.1394 22.3071 18.9143 22.3143C18.687 22.3143 18.4689 22.224 18.3082 22.0632C18.1475 21.9025 18.0572 21.6845 18.0572 21.4571V11.7429C18.0532 11.6292 18.0726 11.516 18.1143 11.4102C18.1559 11.3044 18.2189 11.2083 18.2993 11.1279C18.3797 11.0475 18.4758 10.9845 18.5816 10.9428C18.6874 10.9012 18.8007 10.8817 18.9143 10.8857C19.1416 10.8857 19.3596 10.976 19.5204 11.1368C19.6811 11.2975 19.7714 11.5155 19.7714 11.7429V21.4571C19.7643 21.6822 19.6717 21.8961 19.5125 22.0553Z" fill="#f43628"/>
</svg>
