<svg width="71" height="71" fill="none" xmlns="http://www.w3.org/2000/svg">
    <path d="M50.554 28.699a9.693 9.693 0 0 0 .157-1.808 12.229 12.229 0 0 0-23.58-4.505 6.05 6.05 0 0 0-2.696-.606 6.544 6.544 0 0 0-6.605 6.605 4.445 4.445 0 0 0 0 .67 8.131 8.131 0 0 0-5.968 7.911v.408a8.246 8.246 0 0 0 8.236 8.235h9.615a1.045 1.045 0 1 0 0-2.09h-9.615a6.271 6.271 0 0 1-6.146-6.145v-.408a6.03 6.03 0 0 1 5.31-6.02 1.046 1.046 0 0 0 .898-1.296l-.073-.282a3.878 3.878 0 0 1-.167-.962 4.474 4.474 0 0 1 4.515-4.515 3.648 3.648 0 0 1 2.519.91 1.044 1.044 0 0 0 1.045.271 1.046 1.046 0 0 0 .732-.742 10.138 10.138 0 0 1 19.92 2.582 5.519 5.519 0 0 1-.428 2.383 1.044 1.044 0 0 0 .94 1.515h1.213a6.27 6.27 0 0 1 6.114 6.156v.408a6.271 6.271 0 0 1-6.145 6.145h-9.626a1.045 1.045 0 1 0 0 2.09h9.626a8.246 8.246 0 0 0 8.236-8.235v-.408a8.247 8.247 0 0 0-8.027-8.267z" fill="#6E6B6B"/>
    <path d="M36.36 36.444a1.226 1.226 0 0 0-.313-.199h-.094a1.138 1.138 0 0 0-.272-.052h-.094a.907.907 0 0 0-.638.261l-2.884 2.885a1.046 1.046 0 0 0 1.474 1.484l1.097-1.098V51.87a1.045 1.045 0 1 0 2.09 0V39.715l1.108 1.097a1.045 1.045 0 1 0 1.474-1.484l-2.948-2.884zM32.745 26.295a1.046 1.046 0 0 0 .941-.607c.094-.188 2.3-4.766 7.16-2.936a1.046 1.046 0 0 0 1.337-.617 1.045 1.045 0 0 0-.606-1.338 7.608 7.608 0 0 0-9.783 4.013 1.045 1.045 0 0 0 .502 1.39c.142.063.295.095.45.095z" fill="#6E6B6B"/>
</svg>
