<svg xmlns="http://www.w3.org/2000/svg" width="28" height="28" fill="none" viewBox="0 0 28 28">
    <path fill="#FF9800" fill-rule="evenodd" d="M14.817 5.147c-.355-.64-1.276-.64-1.632 0l-9.333 16.8c-.345.622.104 1.386.816 1.386h18.667c.711 0 1.161-.764.816-1.386l-9.334-16.8zm-8.563 16.32l7.747-13.945 7.748 13.945H6.254zm6.814-9.334c0-.515.418-.933.933-.933.516 0 .934.418.934.933v3.734c0 .515-.418.933-.934.933-.515 0-.933-.418-.933-.933v-3.734zm.933 5.6c-.515 0-.933.418-.933.934v.933c0 .515.418.933.933.933.516 0 .934-.418.934-.933v-.933c0-.516-.418-.934-.934-.934z" clip-rule="evenodd"/>
</svg>
