<svg xmlns="http://www.w3.org/2000/svg" width="20" height="20" fill="none" viewBox="0 0 20 20">
    <path fill="#96A5B8" d="M12.588 14.561l-2.056-7.133 1.999-4.003c.04-.08.059-.168.055-.258-.004-.089-.03-.175-.077-.251-.046-.076-.112-.14-.19-.183-.077-.044-.165-.067-.254-.067H7.878c-.089 0-.177.023-.254.067-.078.044-.144.107-.19.183-.047.076-.073.162-.077.251-.004.09.015.178.055.258l2 4.003-2.057 7.133c-.028.091-.03.188-.007.28.023.092.07.176.138.244l2.093 2.093c.049.049.107.088.17.114.064.027.132.04.202.04.069 0 .137-.013.2-.04.065-.026.123-.065.171-.114l2.093-2.093c.075-.063.13-.145.161-.238.03-.092.035-.191.012-.286zM11.217 3.713l-1.245 2.49-1.246-2.49h2.491zM9.972 16.058l-1.508-1.507 1.508-5.27 1.507 5.27-1.507 1.507z"/>
</svg>
