<svg xmlns="http://www.w3.org/2000/svg" width="21" height="20" fill="none" viewBox="0 0 21 20">
    <rect width="20" height="20" x=".5" fill="#50C9D1" rx="10"/>
    <path fill="#fff" fill-rule="evenodd" d="M10.5 9.467c-1.473 0-2.666-1.194-2.666-2.667 0-1.473 1.193-2.667 2.666-2.667 1.473 0 2.667 1.194 2.667 2.667 0 1.473-1.194 2.667-2.667 2.667zm0-1.067c.884 0 1.6-.716 1.6-1.6 0-.884-.716-1.6-1.6-1.6-.883 0-1.6.716-1.6 1.6 0 .884.717 1.6 1.6 1.6zm-4.278 6.933c.294.007.538-.227.545-.521.065-2.925 1.268-3.745 3.733-3.745 2.603 0 3.796.81 3.731 3.721-.006.294.227.539.521.545.295.007.539-.227.545-.521C15.375 11.324 13.726 10 10.5 10c-3.08 0-4.722 1.313-4.8 4.788-.006.294.227.539.522.545z" clip-rule="evenodd"/>
</svg>
