<svg xmlns="http://www.w3.org/2000/svg" width="25.287" height="23.333" viewBox="0 0 25.287 23.333">
    <defs>
        <style>
            .prefix__cls-1{fill:#028c6a;stroke:#3e81ac;stroke-width:.2px}
        </style>
    </defs>
    <g id="prefix__pen" transform="translate(.1 .1)">
        <g id="prefix__Group_1323" data-name="Group 1323">
            <g id="prefix__Group_1316" data-name="Group 1316" transform="translate(4.182 5.672)">
                <path id="prefix__Path_3491" d="M94.29 136.253h-8.163a.488.488 0 1 1 0-.977h8.163a.488.488 0 1 1 0 .977z" class="prefix__cls-1" data-name="Path 3491" transform="translate(-85.639 -135.276)"/>
            </g>
            <g id="prefix__Group_1317" data-name="Group 1317" transform="translate(4.182 7.705)">
                <path id="prefix__Path_3492" d="M94.29 177.894h-8.163a.488.488 0 1 1 0-.977h8.163a.488.488 0 1 1 0 .977z" class="prefix__cls-1" data-name="Path 3492" transform="translate(-85.639 -176.917)"/>
            </g>
            <g id="prefix__Group_1318" data-name="Group 1318" transform="translate(4.182 11.772)">
                <path id="prefix__Path_3493" d="M94.29 261.174h-8.163a.488.488 0 1 1 0-.977h8.163a.488.488 0 1 1 0 .977z" class="prefix__cls-1" data-name="Path 3493" transform="translate(-85.639 -260.197)"/>
            </g>
            <g id="prefix__Group_1322" data-name="Group 1322" transform="translate(4.182 9.738)">
                <g id="prefix__Group_1319" data-name="Group 1319" transform="translate(6.407)">
                    <path id="prefix__Path_3494" d="M219.325 219.533h-1.992a.488.488 0 0 1 0-.977h1.992a.488.488 0 1 1 0 .977z" class="prefix__cls-1" data-name="Path 3494" transform="translate(-216.845 -218.556)"/>
                </g>
                <g id="prefix__Group_1320" data-name="Group 1320">
                    <path id="prefix__Path_3495" d="M88.119 219.533h-1.992a.488.488 0 0 1 0-.977h1.992a.488.488 0 0 1 0 .977z" class="prefix__cls-1" data-name="Path 3495" transform="translate(-85.639 -218.556)"/>
                </g>
                <g id="prefix__Group_1321" data-name="Group 1321" transform="translate(4.209 .001)">
                    <path id="prefix__Path_3496" d="M172.328 219.557a.488.488 0 1 1 .479-.393.492.492 0 0 1-.479.393z" class="prefix__cls-1" data-name="Path 3496" transform="translate(-171.841 -218.582)"/>
                </g>
            </g>
            <path id="prefix__Path_3497" d="M24.26 21.9l-1.637-1.026a1.579 1.579 0 0 0-1.939.207 1.984 1.984 0 0 0-1.984-1.962H1.981A1.984 1.984 0 0 0 0 21.1v19.17a1.984 1.984 0 0 0 1.981 1.981H18.7a1.984 1.984 0 0 0 1.981-1.981v-9.684l4.076-6.513a1.58 1.58 0 0 0-.497-2.173zm-4.553-.8v1.458l-.257.411-.014.022-1.179 1.885-.918 1.467v-2.96a.548.548 0 0 0-.143-.347l-2.94-2.94H18.7a1.006 1.006 0 0 1 1.008 1.004zm-3.281 14.45l-.095-.412a.489.489 0 0 0-.585-.366l-.125.029 4.946-7.9.913.572zm-2.861-14.764l2.107 2.107h-2.107zm5.261 5.023l.915.573L14.8 34.28l-.028-.121a.488.488 0 0 0-.585-.366l-.411.095zM13.3 37.6l-.01-.3.04.025.236.148zm1.339-.6l-1.383-.866-.034-1.112.7-.162.183.8a.488.488 0 0 0 .585.366l.8-.183.162.705zM1.981 41.275a1.006 1.006 0 0 1-1-1V21.1a1.006 1.006 0 0 1 1-1h10.607v3.285a.488.488 0 0 0 .488.488h3.285V27.9l-4.055 6.481a.489.489 0 0 0-.074.273l.1 3.193H4.67a.488.488 0 1 0 0 .977h8.177a.486.486 0 0 0 .195-.047l3.32-1.491v3.985H1.981zm17.726-1a1.006 1.006 0 0 1-1 1h-1.369v-5.341l2.37-3.787zM22 26.645l-2.656-1.664.662-1.058 2.656 1.664zm1.934-3.089l-.753 1.2-2.656-1.664.752-1.2a.6.6 0 0 1 .823-.192l1.637 1.026a.6.6 0 0 1 .19.828z" class="prefix__cls-1" data-name="Path 3497" transform="translate(0 -19.119)"/>
        </g>
    </g>
</svg>
