<svg xmlns="http://www.w3.org/2000/svg" width="137" height="141" fill="none" viewBox="0 0 137 141">
    <path fill="#14B1BD" d="M36.3.5c-1.794 0-3.25 1.458-3.25 3.256V31.43c0 1.798 1.456 3.256 3.25 3.256 1.796 0 3.25-1.458 3.25-3.256V3.756C39.55 1.958 38.097.5 36.3.5zm65.001 0c-1.795 0-3.25 1.458-3.25 3.256V31.43c0 1.798 1.455 3.256 3.25 3.256s3.25-1.458 3.25-3.256V3.756c0-1.798-1.455-3.256-3.25-3.256zm-87.75 9.768C6.327 10.268.5 16.104.5 23.342v29.251H137V23.342c0-7.238-5.827-13.074-13.051-13.074h-16.148v13.888c1.993 1.788 3.25 4.383 3.25 7.274 0 5.395-4.365 9.768-9.75 9.768s-9.75-4.373-9.75-9.768c0-2.891 1.257-5.486 3.25-7.274V10.268H42.75v13.837c2.024 1.79 3.3 4.408 3.3 7.325 0 5.395-4.364 9.768-9.75 9.768-5.384 0-9.75-4.373-9.75-9.768 0-2.865 1.238-5.437 3.2-7.224V10.268h-16.2zM.5 59.105v68.321c0 7.237 5.827 13.074 13.05 13.074H123.95c7.224 0 13.051-5.837 13.051-13.074V59.105H.5z"/>
</svg>
