<svg xmlns="http://www.w3.org/2000/svg" width="30" height="31" fill="none" viewBox="0 0 30 31">
    <path fill="#14B1BD" fill-rule="evenodd" d="M20.335 4.96h1.528v2.714h3.953V26.96H4V7.674h3.952V4.96H9.48v2.714h4.664V4.96h1.528v2.714h4.663V4.96zm3.952 20.472V9.202h-2.424v1.844h-1.528V9.202h-4.663v1.844h-1.528V9.202H9.48v1.844H7.952V9.202H5.528v16.23h18.76zM13.222 14.524h3.346v1.528h-3.346v-1.528zm-2.056 3.557H7.82v1.528h3.346v-1.528zm0 3.557H7.82v1.528h3.346v-1.528zm5.402 0h-3.346v1.528h3.346v-1.528zm-3.346-3.557h3.346v1.528h-3.346v-1.528zm8.773-3.557H18.65v1.528h3.346v-1.528zm-3.346 7.114h3.346v1.528H18.65v-1.528zm3.346-3.557H18.65v1.528h3.346v-1.528z" clip-rule="evenodd"/>
</svg>
