<svg xmlns="http://www.w3.org/2000/svg" width="20" height="20" fill="none" viewBox="0 0 20 20">
    <path fill="#96A5B8" fill-rule="evenodd" d="M10.586 6.071v3.594l2.653 1.531c.28.162.375.519.214.8-.162.28-.519.374-.8.213l-2.946-1.703c-.175-.102-.293-.29-.293-.506V6.071c0-.323.263-.585.586-.585.323 0 .586.262.586.585zM2.866 10c0-3.93 3.204-7.133 7.134-7.133S17.133 6.07 17.133 10 13.93 17.133 10 17.133 2.867 13.93 2.867 10zm13.096 0c0-3.302-2.66-5.962-5.962-5.962-3.302 0-5.962 2.66-5.962 5.962 0 3.302 2.66 5.962 5.962 5.962 3.302 0 5.962-2.66 5.962-5.962z" clip-rule="evenodd"/>
</svg>
