<svg xmlns="http://www.w3.org/2000/svg" width="24" height="24" fill="none" viewBox="0 0 24 24">
    <g opacity=".86">
        <path fill="#000" fill-rule="evenodd" d="M17.366 6.634c.312.313.312.82 0 1.132L13.13 12l4.235 4.234c.312.313.312.82 0 1.132-.313.312-.82.312-1.132 0L12 13.13l-4.234 4.235c-.313.312-.82.312-1.132 0-.312-.313-.312-.82 0-1.132L10.868 12 6.634 7.766c-.312-.313-.312-.82 0-1.132.313-.312.82-.312 1.132 0L12 10.87l4.234-4.235c.313-.312.82-.312 1.132 0z" clip-rule="evenodd"/>
        <mask id="0lsfz857oa" width="12" height="12" x="6" y="6" maskUnits="userSpaceOnUse">
            <path fill="#fff" fill-rule="evenodd" d="M17.366 6.634c.312.313.312.82 0 1.132L13.13 12l4.235 4.234c.312.313.312.82 0 1.132-.313.312-.82.312-1.132 0L12 13.13l-4.234 4.235c-.313.312-.82.312-1.132 0-.312-.313-.312-.82 0-1.132L10.868 12 6.634 7.766c-.312-.313-.312-.82 0-1.132.313-.312.82-.312 1.132 0L12 10.87l4.234-4.235c.313-.312.82-.312 1.132 0z" clip-rule="evenodd"/>
        </mask>
        <g mask="url(#0lsfz857oa)">
            <path fill="#14B1BD" d="M0 0H24V24H0z"/>
        </g>
    </g>
</svg>
