<svg xmlns="http://www.w3.org/2000/svg" id="prefix__close-24px" width="20" height="20" viewBox="0 0 16 16">
    <path id="prefix__Path_2062" d="M0 0h16v16H0z" data-name="Path 2062" style="fill:none"/>
    <path id="prefix__Path_2063" d="M14 5.609a.664.664 0 0 0-.94 0L9.8 8.863 6.543 5.6a.665.665 0 1 0-.94.94l3.26 3.26L5.6 13.062a.665.665 0 0 0 .94.94l3.26-3.26L13.062 14a.665.665 0 0 0 .94-.94l-3.26-3.26L14 6.543a.668.668 0 0 0 0-.934z" data-name="Path 2063" transform="translate(-1.802 -1.802)" fill="#ff0000"/>
</svg>
