<svg xmlns="http://www.w3.org/2000/svg" width="20" height="20" fill="none" viewBox="0 0 20 20">
    <path fill="#96A5B8" fill-rule="evenodd" d="M17.31 8.841l.006.024c.007.025.014.049.014.073l.001.007.002.007c0 .013-.003.023-.006.033l-.004.013c-.004.024-.007.049-.014.073-.007.025-.021.046-.035.066l-.012.021c-.004.007-.007.014-.013.021l-.005.004c-.002 0-.003.002-.005.003-.025.028-.056.05-.087.067-.006.001-.01.005-.014.008l-.014.01c-.042.02-.091.03-.14.03H14.54v6.286h1.047c.192 0 .35.157.35.35 0 .192-.158.349-.35.349H4.413c-.193 0-.35-.157-.35-.35 0-.192.157-.349.35-.349H5.46V9.302H3.016L3.012 9.3c-.002 0-.005-.002-.01 0-.025 0-.05-.006-.074-.013l-.027-.008-.032-.01c-.009-.005-.017-.011-.024-.017-.008-.006-.016-.013-.025-.018-.02-.014-.042-.028-.06-.045l-.004-.004-.006-.003c-.01-.014-.017-.028-.024-.042-.014-.021-.025-.042-.035-.066-.007-.025-.01-.05-.014-.074l-.005-.018c-.003-.01-.006-.02-.006-.03 0-.004.004-.011.007-.015 0-.024.007-.048.014-.073l.008-.027c.003-.012.006-.023.01-.032l.017-.025c.006-.008.013-.015.018-.024.014-.021.028-.042.045-.06l.004-.005c0-.002.001-.003.003-.005L9.776 2.75c.13-.111.322-.111.45 0l6.985 5.937c.002.002.003.003.003.005l.004.005c.017.018.031.039.045.06.014.014.028.031.035.049.007.01.01.023.012.035zM6.159 15.587h.698V9.302h-.698v6.285zm1.396 0h.699V9.302h-.699v6.285zm1.397 0h.699V9.302h-.699v6.285zm1.397 0h.698V9.302h-.698v6.285zm1.397 0h.698V9.302h-.698v6.285zm1.397 0h.698V9.302h-.698v6.285zm1.047-6.984h1.844L10 3.473l-6.034 5.13H14.19zm1.397 8.032h1.397c.192 0 .35.157.35.35 0 .191-.158.348-.35.348H3.016c-.192 0-.35-.157-.35-.349 0-.192.158-.35.35-.35H15.587z" clip-rule="evenodd"/>
</svg>
