<svg xmlns="http://www.w3.org/2000/svg" width="31" height="30" fill="none" viewBox="0 0 31 30">
    <path fill="#1D1E2C" fill-rule="evenodd" d="M14.333 6.999c0-.552.448-.999 1-.999.553 0 1 .447 1 .999v8.587l2.293-2.293c.39-.39 1.024-.39 1.414 0 .39.39.39 1.024 0 1.414l-4 4c-.39.39-1.023.39-1.414 0l-4-4c-.39-.39-.39-1.024 0-1.414.39-.39 1.024-.39 1.414 0l2.293 2.293V6.999zm9 15.001v-6c0-.552.448-1 1-1 .553 0 1 .448 1 1v7c0 .552-.447 1-1 1h-18c-.552 0-1-.448-1-1v-7c0-.552.448-1 1-1 .553 0 1 .448 1 1v6h16z" clip-rule="evenodd"/>
</svg>
