<svg xmlns="http://www.w3.org/2000/svg" width="30" height="30" fill="none" viewBox="0 0 30 30">
    <path fill="#231E1E" d="M24.163 24.465h-1.607v-3.423c0-1.27-.352-2.514-1.015-3.597-.662-1.083-1.61-1.963-2.74-2.542 1.13-.58 2.078-1.46 2.74-2.542.663-1.083 1.014-2.328 1.015-3.598V5.535h1.607c.203 0 .398-.081.543-.225.143-.144.224-.339.224-.543 0-.203-.08-.398-.224-.542-.145-.144-.34-.225-.543-.225H6.767c-.203 0-.398.08-.542.225-.144.144-.225.339-.225.542 0 .204.08.4.225.543.144.144.339.225.542.225h1.607v3.228c.001 1.27.352 2.515 1.015 3.598.662 1.083 1.61 1.962 2.74 2.542-1.13.58-2.078 1.459-2.74 2.542-.663 1.083-1.014 2.328-1.015 3.597v3.423H6.767c-.203 0-.398.081-.542.225-.144.144-.225.339-.225.543 0 .203.08.398.225.542.144.144.339.225.542.225h17.396c.203 0 .398-.08.543-.225.143-.144.224-.339.224-.542 0-.204-.08-.4-.224-.543-.145-.144-.34-.225-.543-.225zM9.909 8.763V5.535H21.02v3.228c-.001 1.425-.567 2.79-1.575 3.797-1.007 1.008-2.372 1.574-3.797 1.575h-.373c-1.424-.002-2.788-.57-3.794-1.576-1.006-1.007-1.572-2.372-1.573-3.796zm0 12.28c.001-1.425.568-2.79 1.575-3.798 1.007-1.007 2.373-1.573 3.797-1.575h.373c1.425.002 2.79.568 3.798 1.575 1.007 1.007 1.573 2.373 1.574 3.797v3.229H9.91v-3.229z"/>
</svg>
