<svg xmlns="http://www.w3.org/2000/svg" width="20" height="20" fill="none" viewBox="0 0 20 20">
    <path fill="#96A5B8" d="M16.108 16.31h-1.07v-2.282c-.001-.846-.235-1.676-.677-2.398-.442-.722-1.074-1.309-1.827-1.695.753-.386 1.385-.972 1.827-1.695.442-.722.676-1.551.676-2.398V3.69h1.071c.136 0 .266-.054.362-.15.096-.096.15-.226.15-.362 0-.135-.054-.266-.15-.362-.096-.095-.226-.15-.361-.15H4.511c-.136 0-.266.055-.362.15-.096.096-.15.227-.15.362 0 .136.054.266.15.362.096.096.226.15.362.15h1.07v2.152c.001.847.236 1.676.677 2.398.442.723 1.074 1.309 1.827 1.695-.753.386-1.385.973-1.827 1.695-.441.722-.676 1.552-.676 2.398v2.282H4.512c-.136 0-.266.054-.362.15-.096.096-.15.226-.15.362 0 .135.054.265.15.361.096.096.226.15.362.15h11.596c.136 0 .266-.054.362-.15.096-.096.15-.226.15-.361 0-.136-.054-.266-.15-.362-.096-.096-.226-.15-.361-.15zM6.606 5.842V3.69h7.408v2.152c0 .95-.378 1.86-1.05 2.532-.671.671-1.582 1.049-2.531 1.05h-.25c-.948-.002-1.858-.38-2.528-1.052-.671-.671-1.048-1.58-1.05-2.53zm0 8.186c0-.95.378-1.86 1.05-2.531.671-.672 1.582-1.05 2.531-1.05h.25c.949 0 1.86.378 2.53 1.05.672.671 1.05 1.582 1.05 2.531v2.152H6.607v-2.152z"/>
</svg>
