<svg xmlns="http://www.w3.org/2000/svg" width="31" height="30" fill="none" viewBox="0 0 31 30">
    <path fill="#FF9800" stroke="#FF9800" stroke-width=".7" d="M15.5 11.17c.11 0 .215-.044.292-.122.078-.078.121-.184.121-.295V7.417c0-.11-.043-.217-.12-.295C15.714 7.044 15.61 7 15.5 7c-.11 0-.215.044-.293.122-.077.078-.12.184-.12.295v3.336c0 .11.043.217.12.295.078.078.183.122.293.122zM10.402 12.775c.072.078.172.126.277.133.106.007.21-.028.292-.096.081-.069.133-.166.146-.272.012-.107-.017-.214-.08-.299L8.91 9.683c-.035-.042-.078-.076-.126-.102-.048-.025-.1-.04-.155-.045-.054-.005-.109.001-.16.017-.052.017-.1.044-.142.079-.042.035-.076.078-.101.127-.025.048-.04.102-.045.156-.005.055.001.11.017.162.017.052.043.1.078.143l2.125 2.555zM4.848 16.78l3.258.579c.024.003.048.003.072 0 .11.01.219-.025.303-.097.084-.071.137-.174.146-.284.01-.11-.024-.22-.095-.306-.071-.085-.173-.138-.282-.147l-3.259-.567c-.11-.02-.222.006-.313.07-.091.065-.153.164-.172.274-.019.11.006.225.07.316.065.092.162.155.272.174v-.012zM22.417 17.02c.016.096.066.184.14.247.074.064.168.1.265.1.024.003.048.003.072 0l3.258-.578c.11-.019.207-.081.271-.173.064-.092.09-.206.07-.316-.018-.11-.08-.21-.171-.274-.091-.065-.204-.09-.313-.07l-3.259.583c-.053.01-.104.03-.15.058-.045.03-.085.068-.116.112-.03.045-.053.096-.064.149-.012.053-.013.108-.003.162zM20.28 12.925c.06 0 .12-.014.175-.04.055-.026.103-.064.142-.11l2.126-2.555c.035-.042.06-.09.077-.143.017-.052.023-.107.018-.162-.005-.054-.02-.108-.045-.156-.026-.049-.06-.092-.101-.127-.042-.035-.09-.062-.142-.079-.052-.016-.106-.022-.16-.017-.055.004-.107.02-.156.045-.048.026-.09.06-.125.102l-2.126 2.558c-.07.085-.105.194-.095.304.009.11.061.211.145.283.075.063.17.097.267.097zM26.006 22.207H4.994c-.11 0-.215.044-.292.123-.078.078-.121.184-.121.295 0 .11.043.216.12.294.078.079.183.123.293.123h21.012c.11 0 .215-.044.292-.123.078-.078.121-.184.121-.294 0-.111-.043-.217-.12-.295-.078-.078-.183-.122-.293-.122zM10.813 20.882c.035.066.088.12.151.159.064.038.137.058.21.058.07-.002.14-.02.202-.053.092-.055.16-.142.19-.246.03-.104.019-.215-.03-.31-.385-.699-.583-1.486-.573-2.285.01-.8.226-1.582.627-2.27.402-.69.975-1.26 1.662-1.657.688-.396 1.467-.605 2.259-.605.792 0 1.57.209 2.258.605.688.397 1.261.968 1.663 1.657.401.688.618 1.47.627 2.27.01.799-.188 1.586-.573 2.285-.043.046-.076.101-.095.162-.018.06-.023.125-.013.188s.033.123.069.175c.036.052.083.095.139.126.055.031.116.049.18.052.062.003.125-.008.183-.033.058-.025.11-.063.15-.111.042-.049.072-.106.087-.167.456-.826.69-1.756.678-2.7-.011-.945-.267-1.87-.741-2.684-.475-.814-1.152-1.489-1.965-1.958-.813-.469-1.733-.715-2.67-.715-.935 0-1.856.246-2.668.715-.813.469-1.49 1.144-1.965 1.958-.475.814-.73 1.739-.741 2.683-.012.945.222 1.875.677 2.7h.022z"/>
</svg>
