<svg width="19" height="22" viewBox="0 0 19 22" fill="none" xmlns="http://www.w3.org/2000/svg">
<path fill-rule="evenodd" clip-rule="evenodd" d="M9.98858 9.79534V12.6193L11.6346 14.2506L10.7792 15.1264L8.76676 13.1139V9.79534H9.98858ZM9.80191 12.6972V9.98201H8.95342V13.0366L10.7777 14.8608L11.3716 14.2527L9.80191 12.6972ZM16.4102 21.4535H3.03102C1.79602 21.4535 0.791016 20.4485 0.791016 19.2135V2.78688C0.791016 1.55188 1.79602 0.546875 3.03102 0.546875H13.0402C13.2135 0.546875 13.3698 0.621021 13.4787 0.73869L18.4584 5.71839C18.5761 5.82725 18.6502 5.98355 18.6502 6.15691V19.2135C18.6502 20.4485 17.6452 21.4535 16.4102 21.4535ZM18.3292 5.85317C18.4117 5.9283 18.4635 6.03658 18.4635 6.15691V19.2135C18.4635 20.3454 17.5421 21.2669 16.4102 21.2669H3.03102C1.89912 21.2669 0.977682 20.3454 0.977682 19.2135V2.78688C0.977682 1.65498 1.89912 0.733542 3.03102 0.733542H13.0402C13.1605 0.733542 13.2688 0.785356 13.3439 0.86788L18.3292 5.85317ZM12.4428 1.74154H3.03102C2.4548 1.74154 1.98568 2.21066 1.98568 2.78688V19.2135C1.98568 19.7898 2.4548 20.2589 3.03102 20.2589H16.4093C16.9856 20.2589 17.4547 19.7898 17.4547 19.2135V6.75424H13.0402C12.7103 6.75424 12.4428 6.48672 12.4428 6.15691V1.74154ZM13.6375 2.58661V5.55958H16.6099L13.6375 2.58661ZM13.4508 5.74624H17.0605L13.4508 2.1359V5.74624ZM6.68132 8.83148C7.47945 8.29818 8.4178 8.01354 9.3777 8.01354C10.6649 8.01354 11.8994 8.52488 12.8095 9.43505C13.7197 10.3452 14.231 11.5797 14.231 12.8669C14.231 13.8268 13.9464 14.7651 13.4131 15.5633C12.8798 16.3614 12.1218 16.9835 11.235 17.3508C10.3482 17.7181 9.37231 17.8142 8.43086 17.627C7.4894 17.4397 6.62462 16.9775 5.94586 16.2987C5.26711 15.62 4.80487 14.7552 4.61761 13.8137C4.43034 12.8723 4.52645 11.8964 4.89379 11.0096C5.26113 10.1228 5.88319 9.36477 6.68132 8.83148ZM7.36013 15.8864C7.95733 16.2854 8.65945 16.4984 9.3777 16.4984C10.3408 16.4984 11.2645 16.1158 11.9456 15.4348C12.6266 14.7537 13.0092 13.83 13.0092 12.8669C13.0092 12.1486 12.7962 11.4465 12.3972 10.8493C11.9982 10.2521 11.431 9.78666 10.7674 9.5118C10.1038 9.23693 9.37367 9.16502 8.66922 9.30514C7.96477 9.44526 7.3177 9.79113 6.80982 10.299C6.30194 10.8069 5.95607 11.454 5.81595 12.1584C5.67583 12.8629 5.74774 13.593 6.0226 14.2566C6.29747 14.9202 6.76293 15.4874 7.36013 15.8864ZM12.6295 1.55488V6.15691C12.6295 6.38363 12.8134 6.56757 13.0402 6.56757H17.6413V19.2135C17.6413 19.8929 17.0886 20.4455 16.4093 20.4455H3.03102C2.3517 20.4455 1.79902 19.8929 1.79902 19.2135V2.78688C1.79902 2.10756 2.3517 1.55488 3.03102 1.55488H12.6295ZM6.78503 8.98669C7.55246 8.4739 8.45471 8.20021 9.3777 8.20021C10.6154 8.20021 11.8024 8.69188 12.6775 9.56705C13.5527 10.4422 14.0444 11.6292 14.0444 12.8669C14.0444 13.7899 13.7707 14.6921 13.2579 15.4596C12.7451 16.227 12.0163 16.8251 11.1636 17.1783C10.3108 17.5315 9.37252 17.624 8.46727 17.4439C7.56203 17.2638 6.7305 16.8194 6.07786 16.1667C5.42521 15.5141 4.98075 14.6826 4.80069 13.7773C4.62062 12.8721 4.71304 11.9338 5.06625 11.081C5.41946 10.2283 6.0176 9.49947 6.78503 8.98669ZM7.25642 16.0416C7.88432 16.4611 8.62253 16.6851 9.3777 16.6851C10.3903 16.6851 11.3615 16.2828 12.0776 15.5668C12.7936 14.8507 13.1959 13.8795 13.1959 12.8669C13.1959 12.1117 12.972 11.3735 12.5524 10.7456C12.1329 10.1177 11.5365 9.62833 10.8389 9.33934C10.1412 9.05035 9.37346 8.97474 8.63281 9.12206C7.89215 9.26939 7.21181 9.63303 6.67783 10.167C6.14384 10.701 5.7802 11.3813 5.63287 12.122C5.48554 12.8627 5.56116 13.6304 5.85015 14.328C6.13914 15.0257 6.62852 15.6221 7.25642 16.0416Z" fill="#14B1BD"/>
</svg>
