<svg xmlns="http://www.w3.org/2000/svg" width="20" height="20" fill="none" viewBox="0 0 20 20">
    <path fill="#96A5B8" fill-rule="evenodd" d="M7.353 4.07c0-.688.55-1.237 1.236-1.237h2.806c.687 0 1.236.55 1.236 1.236v.713h2.505c1.122 0 2.016.906 2.03 2.016v4.098c0 .357-.24.653-.578.743l-.123.034v2.964c0 1.108-.907 2.015-2.015 2.015h-8.9c-1.108 0-2.015-.907-2.015-2.015v-2.965l-.124-.033c-.336-.09-.578-.386-.578-.743V6.797c0-1.108.908-2.015 2.016-2.015h2.504v-.713zm1.236-.323c-.084 0-.168.029-.23.092-.063.062-.092.146-.092.23v.713h3.45v-.713c0-.084-.029-.168-.091-.23-.063-.063-.146-.092-.231-.092H8.589zM4.85 5.695c-.607 0-1.102.496-1.102 1.102v3.954H8.35V9.598h3.282v1.153h4.604V6.797c0-.606-.495-1.102-1.101-1.102H4.849zm5.87 4.816H9.265v1.456h1.456V10.51zm-2.384 1.185H4.433v2.94c0 .607.495 1.103 1.101 1.103h8.916c.606 0 1.102-.496 1.102-1.102v-.167h-.031v-2.774h-3.903v1.184H8.335v-1.184z" clip-rule="evenodd"/>
</svg>
