<svg xmlns="http://www.w3.org/2000/svg" width="20" height="20" fill="none" viewBox="0 0 20 20">
    <rect width="20" height="20" fill="#7FC782" rx="10"/>
    <path fill="#fff" fill-rule="evenodd" d="M8.005 6.306c0 1.2.973 2.173 2.173 2.173 1.2 0 2.173-.973 2.173-2.173 0-1.2-.973-2.173-2.173-2.173-1.2 0-2.173.973-2.173 2.173zm3.476 0c0 .72-.583 1.304-1.303 1.304s-1.304-.584-1.304-1.304c0-.72.584-1.304 1.304-1.304.72 0 1.303.584 1.303 1.304zm-4.345 6.528c-.006.24-.205.43-.445.425-.24-.005-.43-.204-.424-.444.063-2.831 1.4-3.901 3.91-3.901 2.629 0 3.973 1.078 3.91 3.92-.006.24-.205.43-.444.425-.24-.005-.43-.204-.425-.444.053-2.373-.92-3.032-3.04-3.032-2.009 0-2.99.668-3.042 3.051zm1.153.578l1.07 1.072 2.348-2.35.426.423-2.773 2.776-1.493-1.495.422-.426z" clip-rule="evenodd"/>
</svg>
