<svg width="95" height="95" viewBox="0 0 95 95" fill="none" xmlns="http://www.w3.org/2000/svg">
<path d="M59.2922 91.5088C57.7137 91.9317 53.4114 88.1097 51.7862 88.2805C50.161 88.4513 46.7474 93.0844 45.1155 92.9988C43.4836 92.9133 40.573 87.9488 38.9746 87.6091C37.3761 87.2693 32.6979 90.6207 31.1723 90.0351C29.6467 89.4495 28.4126 83.8286 26.9974 83.0115C25.5822 82.1944 20.0974 83.9362 18.8274 82.9078C17.5574 81.8794 18.1208 76.1522 17.0273 74.9378C15.9338 73.7234 10.1792 73.685 9.28913 72.3144C8.39911 70.9439 10.7047 65.6712 10.04 64.1783C9.37532 62.6854 3.91417 60.8706 3.49122 59.2921C3.06828 57.7137 6.89034 53.4114 6.71952 51.7862C6.54871 50.161 1.91565 46.7474 2.00117 45.1155C2.08668 43.4836 7.05117 40.573 7.39093 38.9746C7.73068 37.3761 4.37929 32.6979 4.96491 31.1723C5.55054 29.6467 11.1715 28.4126 11.9885 26.9974C12.8056 25.5822 11.0639 20.0973 12.0923 18.8274C13.1207 17.5574 18.8478 18.1207 20.0622 17.0272C21.2766 15.9338 21.3151 10.1791 22.6856 9.2891C24.0561 8.39909 29.3288 10.7046 30.8217 10.0399C32.3146 9.37527 34.1294 3.91415 35.7079 3.49119C37.2863 3.06825 41.5886 6.8903 43.2138 6.71948C44.839 6.54867 48.2526 1.91565 49.8845 2.00117C51.5164 2.08668 54.427 7.05117 56.0255 7.39093C57.6239 7.73068 62.3022 4.37926 63.8278 4.96489C65.3533 5.55052 66.5874 11.1714 68.0026 11.9885C69.4178 12.8056 74.9027 11.0638 76.1727 12.0922C77.4426 13.1206 76.8793 18.8478 77.9728 20.0622C79.0662 21.2766 84.8209 21.315 85.711 22.6856C86.6009 24.0561 84.2954 29.3288 84.9601 30.8217C85.6247 32.3146 91.0859 34.1294 91.5088 35.7079C91.9318 37.2863 88.1097 41.5886 88.2805 43.2138C88.4513 44.839 93.0843 48.2526 92.9988 49.8845C92.9131 51.5164 87.9489 54.427 87.6091 56.0255C87.2694 57.6239 90.6208 62.3021 90.0351 63.8277C89.4495 65.3533 83.8287 66.5874 83.0115 68.0026C82.1945 69.4178 83.9362 74.9027 82.9078 76.1726C81.8794 77.4426 76.1522 76.8793 74.9378 77.9728C73.7234 79.0662 73.685 84.8209 72.3145 85.7109C70.9439 86.6009 65.6712 84.2954 64.1783 84.9601C62.6855 85.6247 60.8706 91.0859 59.2922 91.5088Z" fill="url(#paint0_radial)"/>
<path d="M12.0923 18.8274L11.3151 18.198C11.5901 17.8584 11.9613 17.6478 12.2924 17.5085C12.6338 17.3649 13.017 17.2625 13.4008 17.1843C14.1649 17.0284 15.0706 16.9416 15.9176 16.8652C15.9924 16.8584 16.0669 16.8517 16.1408 16.8451C16.9307 16.7742 17.6654 16.7082 18.2846 16.6049C18.6204 16.5488 18.891 16.4865 19.0967 16.4179C19.198 16.3841 19.2725 16.3523 19.325 16.3252C19.3783 16.2977 19.3958 16.2816 19.3931 16.2841C19.3903 16.2866 19.4081 16.2708 19.4411 16.2207C19.4735 16.1713 19.5129 16.1006 19.5571 16.0033C19.6469 15.806 19.7371 15.5433 19.828 15.2152C19.9955 14.6102 20.1379 13.8864 20.2909 13.1083C20.3053 13.0355 20.3197 12.9621 20.3343 12.8883C20.4989 12.054 20.6799 11.1623 20.9147 10.4187C21.0327 10.0452 21.1745 9.67479 21.353 9.35032C21.5261 9.03558 21.7745 8.68844 22.141 8.45043C22.5075 8.21243 22.9256 8.12677 23.2835 8.09662C23.6525 8.06554 24.0486 8.08663 24.4378 8.13079C25.2126 8.2187 26.1009 8.41604 26.93 8.60502C27.0033 8.62173 27.0762 8.63838 27.1486 8.65492C27.9217 8.83156 28.6408 8.99586 29.2616 9.08891C29.5983 9.13938 29.875 9.16376 30.0917 9.16203C30.1986 9.16118 30.2792 9.15401 30.3375 9.14445C30.3968 9.13473 30.4184 9.12488 30.415 9.12639C30.4116 9.12791 30.4334 9.11843 30.4802 9.0809C30.5263 9.044 30.5856 8.98886 30.6577 8.91003C30.8041 8.75009 30.9711 8.52815 31.1589 8.24418C31.5051 7.72056 31.8642 7.07621 32.2503 6.38347C32.2864 6.31861 32.3228 6.25333 32.3594 6.18768C32.7738 5.44508 33.2215 4.65293 33.6746 4.01831C33.9022 3.69952 34.1516 3.39106 34.4216 3.13762C34.6835 2.89179 35.0269 2.63838 35.4491 2.52527L35.7079 3.49119L35.4491 2.52527C35.8712 2.41217 36.2953 2.45991 36.645 2.54185C37.0056 2.62633 37.3758 2.76878 37.7323 2.93105C38.442 3.25408 39.2258 3.71625 39.956 4.15219C40.0205 4.19074 40.0847 4.2291 40.1484 4.2672C40.8291 4.6741 41.4623 5.05257 42.0239 5.3329C42.3285 5.48494 42.5842 5.59363 42.7909 5.65898C42.8927 5.69118 42.9717 5.70928 43.03 5.7182C43.0814 5.72605 43.106 5.72508 43.1093 5.72494C43.1125 5.7244 43.1368 5.72024 43.1854 5.70186C43.2406 5.68101 43.3141 5.64689 43.407 5.59421C43.5956 5.48732 43.8231 5.32785 44.0894 5.11581C44.5805 4.72482 45.1211 4.22298 45.7024 3.68345C45.7568 3.63293 45.8116 3.58207 45.8667 3.53095C46.4902 2.95273 47.1608 2.3377 47.7879 1.87417C48.1029 1.64132 48.4353 1.42501 48.7705 1.26742C49.0955 1.11455 49.5005 0.97967 49.9369 1.00254C50.3733 1.02541 50.7619 1.20188 51.0692 1.38788C51.386 1.57965 51.6941 1.82952 51.983 2.09402C52.5581 2.62056 53.1608 3.30232 53.7204 3.94255C53.7699 3.99913 53.819 4.05541 53.8679 4.11132C54.3895 4.70868 54.8748 5.26431 55.3223 5.70452C55.565 5.94324 55.7746 6.1256 55.9509 6.25162C56.0379 6.31373 56.1074 6.35534 56.1601 6.38185L12.0923 18.8274ZM12.0923 18.8274L11.3151 18.198C11.0401 18.5377 10.9112 18.9445 10.8438 19.2974C10.7743 19.6611 10.7539 20.0572 10.7571 20.4489C10.7636 21.2287 10.867 22.1327 10.9683 22.977C10.9772 23.0517 10.9862 23.1259 10.995 23.1996C11.0899 23.987 11.1781 24.7193 11.2058 25.3465C11.2208 25.6866 11.2161 25.9643 11.1917 26.1797C11.1797 26.2859 11.1642 26.3653 11.1486 26.4223C11.1348 26.4724 11.1239 26.4945 11.1225 26.4974C11.1207 26.5001 11.107 26.5206 11.0704 26.5576C11.0289 26.5996 10.9679 26.6528 10.882 26.7163C10.7076 26.8451 10.4694 26.988 10.1674 27.145C9.61043 27.4347 8.93208 27.7244 8.20278 28.036C8.13449 28.0651 8.06576 28.0945 7.99664 28.1241C7.2148 28.4585 6.38019 28.821 5.70168 29.2052C5.36084 29.3983 5.02801 29.6141 4.74773 29.8561C4.47587 30.0909 4.18794 30.406 4.03133 30.8139C3.87473 31.2219 3.87787 31.6487 3.92281 32.0051C3.96913 32.3725 4.0721 32.7556 4.19622 33.1271C4.4433 33.8667 4.821 34.6945 5.17823 35.4662C5.20981 35.5344 5.24124 35.6022 5.27246 35.6696C5.60599 36.3891 5.91622 37.0583 6.13632 37.6463C6.25568 37.9651 6.33706 38.2307 6.38044 38.4431C6.40182 38.5477 6.41157 38.6281 6.41433 38.6871C6.41677 38.7391 6.41323 38.7635 6.41275 38.7667C6.41188 38.7698 6.40519 38.7935 6.38185 38.8399C6.35534 38.8927 6.31373 38.9622 6.25162 39.0491C6.1256 39.2255 5.94324 39.435 5.70452 39.6777C5.26433 40.1253 4.70873 40.6105 4.1114 41.1321C4.05546 41.181 3.99916 41.2301 3.94255 41.2796C3.30232 41.8393 2.62056 42.4419 2.09402 43.0171C1.82952 43.306 1.57965 43.614 1.38788 43.9309C1.20188 44.2382 1.02541 44.6268 1.00254 45.0632C0.97967 45.4996 1.11456 45.9045 1.26742 46.2296C1.42502 46.5647 1.64132 46.8972 1.87418 47.2122C2.33772 47.8392 2.95275 48.5098 3.53097 49.1333C3.5821 49.1885 3.63296 49.2433 3.68348 49.2977C4.22302 49.8789 4.72486 50.4195 5.11585 50.9106C5.32789 51.177 5.48736 51.4044 5.59425 51.593C5.64694 51.6859 5.68105 51.7594 5.70191 51.8146C5.72311 51.8708 5.72539 51.8944 5.725 51.8907C5.72461 51.887 5.7273 51.9106 5.71824 51.97C5.70932 52.0284 5.69122 52.1073 5.65902 52.2092C5.59367 52.4159 5.48498 52.6715 5.33294 52.9761C5.0526 53.5378 4.67411 54.1709 4.2672 54.8516C4.2291 54.9154 4.19076 54.9795 4.15223 55.044C3.71629 55.7742 3.25411 56.558 2.93108 57.2677C2.76881 57.6242 2.62636 57.9944 2.54188 58.355C2.45994 58.7047 2.41219 59.1288 2.5253 59.5509L3.49122 59.2921L2.5253 59.5509C2.6384 59.9731 2.89182 60.3165 3.13765 60.5784C3.3911 60.8484 3.69955 61.0978 4.01835 61.3254C4.65296 61.7785 5.44512 62.2262 6.18772 62.6406C6.25336 62.6772 6.31863 62.7136 6.38348 62.7497C7.07624 63.1358 7.7206 63.4949 8.24424 63.8411C8.5282 64.0289 8.75015 64.1959 8.91009 64.3423C8.98891 64.4144 9.04406 64.4737 9.08096 64.5198C9.11344 64.5603 9.12491 64.5821 9.12642 64.585C9.12757 64.5881 9.13608 64.6112 9.1445 64.6625C9.15406 64.7208 9.16124 64.8014 9.16209 64.9083C9.16381 65.125 9.13943 65.4017 9.08896 65.7384C8.99591 66.3592 8.8316 67.0783 8.65496 67.8515C8.63842 67.9239 8.62177 67.9967 8.60506 68.07C8.41608 68.8991 8.21873 69.7874 8.13082 70.5622C8.08666 70.9514 8.06557 71.3475 8.09665 71.7165C8.1268 72.0744 8.21245 72.4926 8.45046 72.8591C8.68847 73.2256 9.03561 73.4739 9.35035 73.647C9.67483 73.8255 10.0452 73.9674 10.4188 74.0853C11.1624 74.3202 12.0541 74.5012 12.8884 74.6657C12.9621 74.6803 13.0355 74.6947 13.1083 74.7091C13.8865 74.8622 14.6102 75.0045 15.2152 75.172C15.5433 75.2629 15.806 75.3531 16.0034 75.4429C16.1006 75.4871 16.1714 75.5265 16.2207 75.5589C16.2641 75.5874 16.2817 75.6046 16.2841 75.6069C16.2861 75.6094 16.3014 75.6288 16.3253 75.675C16.3524 75.7275 16.3841 75.802 16.4179 75.9033C16.4866 76.1089 16.5489 76.3796 16.6049 76.7154C16.7083 77.3346 16.7742 78.0693 16.8451 78.8592C16.8518 78.9331 16.8584 79.0076 16.8652 79.0825C16.9417 79.9294 17.0285 80.8351 17.1843 81.5992C17.2626 81.983 17.3649 82.3662 17.5085 82.7076C17.6478 83.0387 17.8585 83.4099 18.1981 83.6849C18.5377 83.9599 18.9446 84.0888 19.2974 84.1562C19.6612 84.2257 20.0573 84.2461 20.449 84.2429C21.2287 84.2365 22.1327 84.133 22.9771 84.0318C23.0517 84.0228 23.1259 84.0139 23.1996 84.005C23.987 83.9101 24.7193 83.8219 25.3465 83.7942C25.6866 83.7792 25.9643 83.7839 26.1797 83.8083C26.2859 83.8203 26.3653 83.8359 26.4223 83.8515C26.4721 83.8651 26.4942 83.8759 26.4973 83.8775C26.4997 83.8791 26.5202 83.8927 26.5576 83.9296C26.5996 83.9711 26.6528 84.0321 26.7163 84.1181C26.8451 84.2924 26.988 84.5306 27.1451 84.8326C27.4347 85.3896 27.7244 86.0679 28.0359 86.7971C28.0651 86.8654 28.0945 86.9342 28.1241 87.0034C28.4585 87.7852 28.821 88.6198 29.2053 89.2983C29.3983 89.6392 29.6141 89.972 29.8561 90.2523C30.0909 90.5242 30.406 90.8121 30.814 90.9687C31.2219 91.1253 31.6487 91.1222 32.0051 91.0772C32.3725 91.0309 32.7556 90.9279 33.1271 90.8038C33.8667 90.5567 34.6945 90.179 35.4662 89.8218C35.5345 89.7901 35.6025 89.7587 35.6699 89.7274C36.3893 89.3939 37.0584 89.0837 37.6463 88.8637C37.9651 88.7443 38.2307 88.6629 38.4431 88.6196C38.5478 88.5982 38.6282 88.5884 38.6871 88.5857C38.7471 88.5829 38.7703 88.588 38.7667 88.5872C38.763 88.5865 38.7863 88.5912 38.84 88.6182C38.8927 88.6447 38.9622 88.6863 39.0491 88.7484C39.2255 88.8744 39.435 89.0568 39.6777 89.2955C40.1253 89.7357 40.6105 90.2913 41.1322 90.8887C41.181 90.9446 41.2302 91.0009 41.2796 91.0575C41.8393 91.6977 42.4419 92.3794 43.0171 92.906C43.306 93.1705 43.614 93.4204 43.9309 93.6121C44.2382 93.7981 44.6268 93.9746 45.0632 93.9975C45.4996 94.0203 45.9045 93.8854 46.2296 93.7326C46.5647 93.575 46.8972 93.3587 47.2122 93.1258C47.8392 92.6623 48.5098 92.0473 49.1334 91.469C49.1885 91.4179 49.2433 91.367 49.2978 91.3165C49.879 90.777 50.4195 90.2751 50.9106 89.8842C51.177 89.6721 51.4044 89.5127 51.593 89.4058C51.686 89.3531 51.7594 89.319 51.8146 89.2981C51.852 89.284 51.875 89.2783 51.8851 89.2761C51.8902 89.2751 51.892 89.2749 51.8908 89.275M12.0923 18.8274L51.8904 89.2751L51.8908 89.275M63.8278 4.96489L64.1862 4.03131C63.7782 3.8747 63.3514 3.87785 62.995 3.92278C62.6276 3.96911 62.2445 4.07208 61.873 4.1962C61.1334 4.44328 60.3056 4.82099 59.5339 5.17822C59.4656 5.20981 59.3978 5.24125 59.3304 5.27249C58.6109 5.60601 57.9417 5.91623 57.3538 6.13631C57.035 6.25567 56.7694 6.33706 56.557 6.38044C56.4523 6.40182 56.3719 6.41157 56.3129 6.41433L63.8278 4.96489ZM63.8278 4.96489L64.1862 4.03131C64.5941 4.18793 64.9092 4.47586 65.144 4.74772C65.386 5.028 65.6018 5.36083 65.7948 5.70167C66.1791 6.38017 66.5415 7.21477 66.876 7.99661C66.9055 8.06574 66.9349 8.13448 66.9641 8.20277C67.2756 8.93206 67.5653 9.6104 67.855 10.1673C68.012 10.4694 68.155 10.7076 68.2838 10.8819C68.3473 10.9679 68.4005 11.0289 68.4425 11.0704C68.4823 11.1098 68.503 11.1226 68.5029 11.1227M63.8278 4.96489L51.8908 89.275M51.8908 89.275C51.8941 89.2749 51.9188 89.274 51.97 89.2818C52.0284 89.2907 52.1073 89.3088 52.2092 89.341C52.4159 89.4064 52.6715 89.5151 52.9761 89.6671C53.5378 89.9474 54.1708 90.3258 54.8515 90.7327C54.9153 90.7708 54.9795 90.8092 55.0441 90.8478C55.7742 91.2837 56.558 91.7459 57.2677 92.0689C57.6243 92.2312 57.9944 92.3737 58.355 92.4581C58.7048 92.5401 59.1289 92.5878 59.551 92.4747C59.9731 92.3616 60.3166 92.1082 60.5785 91.8624C60.8485 91.6089 61.0978 91.3005 61.3255 90.9817C61.7786 90.3471 62.2263 89.5549 62.6406 88.8123C62.6773 88.7466 62.7137 88.6813 62.7498 88.6164C63.1359 87.9237 63.4949 87.2794 63.8411 86.7558C64.0289 86.4718 64.1959 86.2499 64.3423 86.09C64.4144 86.0111 64.4737 85.956 64.5198 85.9191C64.5593 85.8874 64.581 85.8757 64.5848 85.8737C64.5865 85.8731 64.6094 85.8643 64.6625 85.8556C64.7208 85.846 64.8014 85.8388 64.9083 85.838C65.1251 85.8362 65.4018 85.8606 65.7384 85.9111C66.3593 86.0041 67.0784 86.1685 67.8516 86.3451C67.9239 86.3616 67.9968 86.3783 68.07 86.395C68.8992 86.584 69.7874 86.7813 70.5622 86.8692C70.9514 86.9134 71.3475 86.9345 71.7166 86.9034C72.0745 86.8732 72.4926 86.7876 72.8591 86.5496L72.3145 85.7109L72.8592 86.5496C73.2257 86.3116 73.474 85.9644 73.6471 85.6497C73.8256 85.3252 73.9674 84.9548 74.0854 84.5813C74.3202 83.8377 74.5012 82.946 74.6658 82.1117C74.6804 82.0379 74.6948 81.9646 74.7091 81.8917C74.8622 81.1136 75.0046 80.3898 75.1721 79.7848C75.2629 79.4567 75.3532 79.194 75.4429 78.9967C75.4872 78.8994 75.5265 78.8287 75.559 78.7793C75.5874 78.7361 75.6045 78.7185 75.6069 78.716C75.6072 78.7158 75.6077 78.7154 75.6084 78.7148C75.6141 78.7105 75.6339 78.6961 75.6751 78.6748C75.7275 78.6477 75.802 78.616 75.9034 78.5821C76.109 78.5135 76.3797 78.4512 76.7155 78.3951C77.3348 78.2918 78.0695 78.2258 78.8595 78.1549C78.9334 78.1483 79.0077 78.1416 79.0825 78.1348C79.9294 78.0584 80.8352 77.9716 81.5993 77.8157C81.9831 77.7375 82.3663 77.6351 82.7076 77.4915C83.0387 77.3522 83.4099 77.1416 83.6849 76.802C83.9599 76.4624 84.0889 76.0555 84.1563 75.7026C84.2257 75.3389 84.2462 74.9428 84.2429 74.5511C84.2365 73.7713 84.1331 72.8673 84.0318 72.023C84.0229 71.9483 84.0139 71.8741 84.005 71.8004C83.9102 71.013 83.8219 70.2807 83.7943 69.6535C83.7793 69.3134 83.784 69.0357 83.8083 68.8203C83.8203 68.7141 83.8359 68.6347 83.8515 68.5777C83.8651 68.5281 83.8759 68.506 83.8775 68.5027C83.8791 68.5003 83.8927 68.4798 83.9296 68.4424C83.9711 68.4005 84.0322 68.3472 84.1181 68.2838C84.2925 68.1549 84.5307 68.012 84.8327 67.8549C85.3897 67.5653 86.068 67.2755 86.7974 66.964C86.8656 66.9349 86.9343 66.9055 87.0034 66.8759C87.7853 66.5415 88.6199 66.179 89.2983 65.7947C89.6392 65.6017 89.972 65.3859 90.2523 65.1439C90.5241 64.9091 90.8121 64.594 90.9687 64.1861C91.1253 63.7781 91.1221 63.3513 91.0772 62.9949C91.0309 62.6275 90.9279 62.2444 90.8038 61.8729C90.5568 61.1333 90.179 60.3055 89.8218 59.5338C89.7902 59.4655 89.7587 59.3975 89.7274 59.33C89.3939 58.6107 89.0838 57.9416 88.8637 57.3537C88.7443 57.0349 88.663 56.7693 88.6196 56.5569C88.5982 56.4523 88.5884 56.3719 88.5857 56.3129C88.5833 56.2627 88.5865 56.2382 88.5872 56.2337C88.5873 56.2334 88.5889 56.2271 88.5937 56.2145C88.5984 56.2023 88.606 56.1843 88.6182 56.1601C88.6447 56.1073 88.6863 56.0378 88.7484 55.9509C88.8744 55.7745 89.0568 55.565 89.2955 55.3223C89.7357 54.8747 90.2913 54.3895 90.8887 53.8678C90.9446 53.819 91.0008 53.7698 91.0574 53.7204C91.6976 53.1607 92.3793 52.5581 92.9059 51.9829C93.1704 51.694 93.4202 51.386 93.612 51.0692C93.798 50.7619 93.9745 50.3733 93.9975 49.937L93.9975 49.9368C94.0203 49.5004 93.8854 49.0955 93.7326 48.7704C93.575 48.4353 93.3587 48.1028 93.1258 47.7878C92.6623 47.1608 92.0472 46.4902 91.469 45.8667C91.418 45.8116 91.3672 45.7569 91.3167 45.7025C90.7771 45.1212 90.2752 44.5806 89.8842 44.0894C89.6721 43.823 89.5127 43.5956 89.4058 43.407C89.3531 43.3141 89.319 43.2406 89.2981 43.1854C89.2798 43.1369 89.2756 43.1126 89.2751 43.1093C89.2754 43.1129 89.2728 43.0893 89.2818 43.03C89.2907 42.9716 89.3088 42.8927 89.341 42.7908C89.4064 42.5841 89.5151 42.3285 89.6671 42.0239C89.9474 41.4623 90.3259 40.8292 90.7327 40.1486C90.7709 40.0848 90.8092 40.0206 90.8478 39.956C91.2838 39.2258 91.7459 38.442 92.069 37.7323C92.2312 37.3758 92.3737 37.0056 92.4581 36.645C92.5401 36.2953 92.5878 35.8711 92.4747 35.4491C92.3616 35.027 92.1082 34.6835 91.8624 34.4216C91.6089 34.1516 91.3005 33.9022 90.9817 33.6746C90.3471 33.2215 89.5549 32.7738 88.8123 32.3594C88.7467 32.3228 88.6814 32.2864 88.6166 32.2503C87.9238 31.8642 87.2795 31.5051 86.7558 31.1589C86.4719 30.9711 86.2499 30.8041 86.09 30.6578C86.0112 30.5856 85.956 30.5263 85.9192 30.4802C85.8873 30.4405 85.8756 30.4188 85.8738 30.4152C85.8732 30.4136 85.8643 30.3908 85.8556 30.3375C85.846 30.2792 85.8389 30.1986 85.838 30.0917C85.8363 29.875 85.8607 29.5983 85.9111 29.2616C86.0042 28.6408 86.1685 27.9217 86.3451 27.1486C86.3616 27.0762 86.3783 27.0033 86.395 26.93C86.584 26.1009 86.7813 25.2126 86.8693 24.4378C86.9134 24.0486 86.9345 23.6525 86.9034 23.2835C86.8733 22.9256 86.7877 22.5074 86.5497 22.1409L85.711 22.6856L86.5496 22.1409C86.3116 21.7744 85.9645 21.5261 85.6497 21.353C85.3253 21.1745 84.9548 21.0326 84.5813 20.9147C83.8377 20.6798 82.946 20.4988 82.1117 20.3342C82.0379 20.3197 81.9646 20.3053 81.8917 20.2909C81.1136 20.1378 80.3898 19.9955 79.7849 19.828C79.4568 19.7371 79.1941 19.6469 78.9967 19.5571C78.8995 19.5129 78.8287 19.4735 78.7794 19.4411C78.7369 19.4131 78.7191 19.3961 78.7161 19.3933C78.7151 19.3919 78.6996 19.3729 78.6748 19.325C78.6477 19.2725 78.616 19.198 78.5822 19.0967C78.5135 18.891 78.4512 18.6204 78.3952 18.2846C78.2918 17.6654 78.2259 16.9307 78.1549 16.1408C78.1483 16.0668 78.1416 15.9924 78.1349 15.9175C78.0584 15.0706 77.9716 14.1649 77.8158 13.4008C77.7375 13.017 77.6351 12.6338 77.4916 12.2924C77.3523 11.9613 77.1416 11.5901 76.802 11.3151C76.4624 11.0401 76.0555 10.9112 75.7027 10.8438C75.3389 10.7743 74.9428 10.7539 74.5511 10.7571C73.7713 10.7635 72.8673 10.867 72.023 10.9682C71.9483 10.9772 71.8741 10.9861 71.8004 10.995C71.0131 11.0899 70.2807 11.1781 69.6536 11.2058C69.3135 11.2208 69.0358 11.2161 68.8204 11.1917C68.7142 11.1797 68.6347 11.1641 68.5778 11.1485C68.5289 11.1352 68.5067 11.1246 68.5029 11.1227M68.5029 11.1227C68.5022 11.1223 68.5021 11.1222 68.5026 11.1225L68.5029 11.1227Z" stroke="white" stroke-opacity="0.4" stroke-width="2"/>
<g filter="url(#filter0_d)">
<path fill-rule="evenodd" clip-rule="evenodd" d="M40.7043 60.3881C41.9307 61.5202 43.9369 61.4201 45.0268 60.1715L64.8551 37.4639C65.8747 36.2954 65.6876 34.5754 64.4359 33.6235C63.1842 32.6716 61.3417 32.8463 60.322 34.0148L42.5585 54.4145L35.8262 48.208C34.6779 47.1468 32.8257 47.1578 31.6909 48.2298C30.5543 49.3018 30.566 51.0309 31.7143 52.0902L40.7043 60.3881Z" fill="white"/>
</g>
<defs>
<filter id="filter0_d" x="26.8457" y="31.0098" width="42.6667" height="36.1667" filterUnits="userSpaceOnUse" color-interpolation-filters="sRGB">
<feFlood flood-opacity="0" result="BackgroundImageFix"/>
<feColorMatrix in="SourceAlpha" type="matrix" values="0 0 0 0 0 0 0 0 0 0 0 0 0 0 0 0 0 0 127 0"/>
<feOffset dy="2"/>
<feGaussianBlur stdDeviation="2"/>
<feColorMatrix type="matrix" values="0 0 0 0 0.145098 0 0 0 0 0.145098 0 0 0 0 0.145098 0 0 0 0.08 0"/>
<feBlend mode="normal" in2="BackgroundImageFix" result="effect1_dropShadow"/>
<feBlend mode="normal" in="SourceGraphic" in2="effect1_dropShadow" result="shape"/>
</filter>
<radialGradient id="paint0_radial" cx="0" cy="0" r="1" gradientUnits="userSpaceOnUse" gradientTransform="translate(47.5 54.8784) rotate(-130.747) scale(52.2807)">
<stop stop-color="#ABE64C"/>
<stop offset="1" stop-color="#3CB641"/>
</radialGradient>
</defs>
</svg>
