<svg xmlns="http://www.w3.org/2000/svg" width="132" height="132" fill="none" viewBox="0 0 132 132">
    <rect width="130" height="130" x="1" y="1" fill="#14B1BD" fill-opacity=".05" stroke="#DFEBFF" stroke-width="2" rx="4"/>
    <mask id="9wqvn6qypa" width="130" height="130" x="1" y="1" maskUnits="userSpaceOnUse">
        <rect width="130" height="130" x="1" y="1" fill="#C4C4C4" rx="4"/>
    </mask>
    <g mask="url(#9wqvn6qypa)">
        <path fill="#14B1BD" fill-opacity=".3" d="M85.244 42H46.756C44.132 42 42 44.132 42 46.756v38.488C42 87.868 44.132 90 46.756 90h38.488C87.868 90 90 87.868 90 85.244V46.756C90 44.132 87.868 42 85.244 42zm-7.982 9.895c2.077 0 3.772 1.695 3.772 3.772 0 2.078-1.695 3.773-3.772 3.773-2.078 0-3.772-1.695-3.772-3.773.054-2.132 1.695-3.772 3.772-3.772zm7.49 29.358c0 1.968-1.586 3.499-3.5 3.499H50.748c-1.968 0-3.499-1.586-3.499-3.5V77.59L61.08 63.758l13.503 13.504 4.811-4.811 5.358 5.358v3.444z"/>
    </g>
</svg>
