<svg xmlns="http://www.w3.org/2000/svg" width="18" height="16" fill="none" viewBox="0 0 18 16">
    <g opacity=".9">
        <path fill="#FFB241" d="M17.203 5.78l-5.441-.504L9.6.263c-.151-.35-.65-.35-.8 0L6.637 5.276l-5.442.504c-.38.035-.535.509-.247.761l4.105 3.602-1.201 5.324c-.084.373.319.666.648.47L9.2 13.152l4.699 2.787c.329.195.732-.098.648-.47l-1.202-5.325 4.106-3.602c.287-.252.133-.726-.248-.76z"/>
        <path fill="#FF9800" d="M10.386 2.086L9.6.263c-.151-.35-.65-.35-.8 0L6.637 5.276l-5.442.504c-.38.035-.535.509-.247.761l4.105 3.602-1.201 5.324c-.084.373.319.666.648.47l.625-.37c1.026-6.629 3.908-11.494 5.26-13.48z"/>
    </g>
</svg>
