<svg xmlns="http://www.w3.org/2000/svg" width="100" height="100" fill="none" viewBox="0 0 100 100">
    <circle cx="50" cy="50" r="50" fill="#F3F3F3"/>
    <circle cx="50" cy="50.003" r="36.842" fill="#9084F1"/>
    <path fill="#fff" fill-rule="evenodd" d="M48 51.8c-3.313 0-6-2.686-6-6s2.687-6 6-6c3.314 0 6 2.686 6 6s-2.686 6-6 6zm0-2.4c1.988 0 3.6-1.612 3.6-3.6s-1.612-3.6-3.6-3.6-3.6 1.612-3.6 3.6 1.612 3.6 3.6 3.6zM38.373 65c.663.014 1.212-.51 1.227-1.173.147-6.582 2.853-8.427 8.4-8.427 5.857 0 8.541 1.822 8.395 8.373-.015.663.51 1.212 1.173 1.227.662.014 1.211-.51 1.226-1.173C58.97 55.978 55.258 53 48 53c-6.931 0-10.625 2.955-10.8 10.773-.014.663.51 1.212 1.173 1.227zM65.586 35.071v3.594l2.653 1.531c.28.162.376.519.214.8-.162.279-.519.374-.8.212l-2.946-1.702c-.175-.102-.293-.29-.293-.506v-3.929c0-.323.263-.585.586-.585.323 0 .586.262.586.585zM57.866 39c0-3.93 3.204-7.133 7.134-7.133S72.133 35.07 72.133 39 68.93 46.133 65 46.133 57.867 42.93 57.867 39zm13.096 0c0-3.302-2.66-5.962-5.962-5.962-3.302 0-5.962 2.66-5.962 5.962 0 3.302 2.66 5.962 5.962 5.962 3.302 0 5.962-2.66 5.962-5.962z" clip-rule="evenodd"/>
    <path fill="#fff" d="M65.586 38.665h-.1v.058l.05.029.05-.087zm2.653 1.531l.05-.086-.05.086zm.214.8l.086.05-.086-.05zm-.8.212l-.05.087.05-.087zm-2.946-1.702l-.05.087.05-.087zm.979-.84V35.07h-.2v3.594h.2zm2.603 1.444l-2.653-1.531-.1.173 2.653 1.53.1-.172zm.25.935c.19-.328.078-.746-.25-.935l-.1.173c.232.134.311.43.177.662l.173.1zm-.935.25c.328.19.746.078.935-.25l-.173-.1c-.134.232-.43.311-.662.177l-.1.173zm-2.947-1.702l2.947 1.702.1-.173-2.947-1.702-.1.173zM64.314 39c0 .253.138.474.343.593l.1-.173c-.146-.085-.243-.242-.243-.42h-.2zm0-3.929V39h.2v-3.929h-.2zm.686-.685c-.379 0-.686.307-.686.685h.2c0-.268.218-.485.486-.485v-.2zm.686.685c0-.378-.307-.685-.686-.685v.2c.268 0 .486.217.486.485h.2zM65 31.767c-3.986 0-7.233 3.247-7.233 7.233h.2c0-3.875 3.158-7.033 7.033-7.033v-.2zM72.233 39c0-3.986-3.247-7.233-7.233-7.233v.2c3.875 0 7.033 3.158 7.033 7.033h.2zM65 46.233c3.986 0 7.233-3.247 7.233-7.233h-.2c0 3.875-3.158 7.033-7.033 7.033v.2zM57.767 39c0 3.986 3.247 7.233 7.233 7.233v-.2c-3.875 0-7.033-3.158-7.033-7.033h-.2zM65 33.138c3.247 0 5.862 2.615 5.862 5.862h.2c0-3.357-2.705-6.062-6.062-6.062v.2zM59.138 39c0-3.247 2.615-5.862 5.862-5.862v-.2c-3.357 0-6.062 2.705-6.062 6.062h.2zM65 44.862c-3.247 0-5.862-2.615-5.862-5.862h-.2c0 3.357 2.705 6.062 6.062 6.062v-.2zM70.862 39c0 3.247-2.615 5.862-5.862 5.862v.2c3.357 0 6.062-2.705 6.062-6.062h-.2z"/>
</svg>
