<svg xmlns="http://www.w3.org/2000/svg" width="168" height="168" fill="none" viewBox="0 0 168 168">
    <rect width="168" height="168" fill="#028c6a" opacity=".1" rx="8"/>
    <path fill="#028c6a" d="M52.88 121.87H50.1v2.933h-1.224v-2.933H46.11v-1.134h2.765v-2.926H50.1v2.926h2.779v1.134zm10.225.35l-1.386-3.682c-.112-.285-.226-.646-.343-1.085-.051.219-.107.422-.168.609-.06.182-.116.343-.168.483l-1.386 3.675h3.451zm3.101 3.78H64.94c-.144 0-.261-.035-.35-.105-.088-.075-.156-.166-.203-.273l-.84-2.226h-4.34l-.84 2.226c-.037.093-.102.18-.196.259-.093.079-.21.119-.35.119h-1.267l3.997-10.08h1.66L66.205 126zm5.303-5.383c-.21-.271-.44-.46-.693-.567-.252-.107-.525-.161-.819-.161-.588 0-1.047.217-1.379.651-.331.429-.497 1.066-.497 1.911 0 .439.038.814.112 1.127.075.308.182.56.322.756.14.196.31.338.511.427.2.089.427.133.68.133.382 0 .71-.082.986-.245.28-.168.54-.404.777-.707v-3.325zm1.505-4.977V126h-.91c-.2 0-.329-.096-.385-.287l-.133-.777c-.299.35-.64.632-1.022.847-.378.215-.819.322-1.323.322-.401 0-.765-.079-1.092-.238-.326-.163-.606-.399-.84-.707-.233-.308-.415-.688-.546-1.141-.126-.457-.189-.98-.189-1.568 0-.532.07-1.024.21-1.477.145-.453.35-.845.616-1.176.266-.336.588-.597.966-.784.383-.191.81-.287 1.281-.287.42 0 .777.068 1.071.203.294.131.558.315.791.553v-3.843h1.505zm6.398 4.977c-.21-.271-.442-.46-.694-.567-.252-.107-.525-.161-.819-.161-.588 0-1.047.217-1.379.651-.33.429-.496 1.066-.496 1.911 0 .439.037.814.111 1.127.075.308.182.56.322.756.14.196.31.338.512.427.2.089.427.133.678.133.383 0 .712-.082.987-.245.28-.168.54-.404.778-.707v-3.325zm1.504-4.977V126h-.91c-.2 0-.329-.096-.385-.287l-.132-.777c-.3.35-.64.632-1.023.847-.377.215-.819.322-1.322.322-.402 0-.766-.079-1.093-.238-.326-.163-.606-.399-.84-.707-.233-.308-.415-.688-.546-1.141-.126-.457-.189-.98-.189-1.568 0-.532.07-1.024.21-1.477.145-.453.35-.845.616-1.176.266-.336.588-.597.966-.784.383-.191.81-.287 1.281-.287.42 0 .777.068 1.072.203.294.131.557.315.79.553v-3.843h1.505zM88.168 126h-1.645v-10.08h1.645V126zm1.999 0v-7.14h.91c.205 0 .336.096.392.287l.098.623c.13-.149.266-.285.406-.406.14-.126.29-.233.448-.322.163-.093.336-.166.518-.217.187-.051.387-.077.602-.077.229 0 .439.033.63.098s.36.159.504.28c.15.121.278.268.385.441.107.173.196.366.266.581.107-.247.243-.46.406-.637.163-.177.345-.322.546-.434.2-.112.413-.194.637-.245.229-.056.46-.084.693-.084.383 0 .723.061 1.022.182.303.121.558.299.763.532.21.229.369.511.476.847.107.336.161.719.161 1.148V126h-1.505v-4.543c0-.504-.11-.882-.329-1.134-.215-.257-.534-.385-.959-.385-.191 0-.371.033-.539.098-.168.065-.315.161-.441.287-.126.126-.226.285-.301.476-.07.187-.105.406-.105.658V126h-1.505v-4.543c0-.523-.105-.905-.315-1.148-.21-.247-.518-.371-.924-.371-.28 0-.539.072-.777.217-.238.14-.457.334-.658.581V126h-1.505zm15.436-3.122c-.537.019-.989.063-1.358.133-.369.065-.667.152-.896.259-.229.103-.394.226-.497.371-.098.145-.147.303-.147.476 0 .168.026.313.077.434.056.117.131.215.224.294.098.075.21.131.336.168.131.033.273.049.427.049.392 0 .728-.072 1.008-.217.285-.149.56-.364.826-.644v-1.323zm-3.99-3.024c.807-.751 1.769-1.127 2.884-1.127.411 0 .775.068 1.092.203.322.131.59.317.805.56.219.243.385.532.497.868.117.331.175.7.175 1.106V126h-.672c-.145 0-.254-.021-.329-.063-.075-.047-.138-.138-.189-.273l-.147-.581c-.182.163-.362.31-.539.441-.177.126-.362.233-.553.322-.187.089-.39.154-.609.196-.215.047-.453.07-.714.07-.289 0-.56-.04-.812-.119-.247-.079-.462-.198-.644-.357-.182-.163-.327-.364-.434-.602-.103-.238-.154-.518-.154-.84 0-.275.072-.544.217-.805.149-.261.392-.495.728-.7.341-.21.786-.383 1.337-.518.555-.135 1.239-.212 2.051-.231v-.476c0-.513-.11-.896-.329-1.148-.219-.252-.541-.378-.966-.378-.289 0-.532.037-.728.112-.196.07-.366.147-.511.231-.145.084-.273.163-.385.238-.112.07-.231.105-.357.105-.103 0-.191-.026-.266-.077-.07-.056-.128-.124-.175-.203l-.273-.49zm9.764 2.513c.467 0 .817-.119 1.05-.357.233-.238.35-.548.35-.931 0-.392-.117-.702-.35-.931-.233-.229-.583-.343-1.05-.343-.462 0-.812.114-1.05.343-.233.229-.35.539-.35.931 0 .187.03.359.091.518.061.159.149.296.266.413.117.112.261.201.434.266.177.061.38.091.609.091zm2.093 3.983c0-.159-.047-.285-.14-.378-.089-.098-.21-.173-.364-.224-.154-.056-.334-.096-.539-.119-.205-.028-.425-.047-.658-.056-.229-.014-.464-.026-.707-.035-.238-.014-.469-.037-.693-.07-.224.117-.408.257-.553.42-.14.163-.21.352-.21.567 0 .14.035.271.105.392.075.121.187.226.336.315.154.089.348.159.581.21.238.051.523.077.854.077.663 0 1.16-.103 1.491-.308.331-.205.497-.469.497-.791zm1.512-7.231v.56c0 .187-.112.301-.336.343l-.714.119c.121.271.182.572.182.903 0 .35-.07.667-.21.952-.135.285-.324.527-.567.728-.243.201-.532.355-.868.462-.336.107-.7.161-1.092.161-.149 0-.296-.007-.441-.021-.14-.019-.278-.042-.413-.07-.135.079-.236.163-.301.252s-.098.18-.098.273c0 .154.068.268.203.343.135.075.313.128.532.161.224.033.478.054.763.063.285.009.574.026.868.049.294.023.583.063.868.119.285.051.537.14.756.266.224.121.404.287.539.497.135.21.203.483.203.819 0 .308-.077.609-.231.903-.154.294-.378.555-.672.784-.289.229-.644.411-1.064.546-.42.14-.898.21-1.435.21-.532 0-.996-.051-1.393-.154-.392-.103-.721-.243-.987-.42-.261-.173-.457-.373-.588-.602-.126-.229-.189-.467-.189-.714 0-.336.105-.623.315-.861.215-.238.504-.425.868-.56-.196-.093-.355-.222-.476-.385-.117-.163-.175-.378-.175-.644 0-.21.077-.429.231-.658.154-.229.385-.422.693-.581-.355-.196-.635-.455-.84-.777-.205-.327-.308-.707-.308-1.141 0-.355.068-.674.203-.959.14-.285.334-.527.581-.728.247-.201.539-.355.875-.462.341-.107.712-.161 1.113-.161.616 0 1.153.128 1.61.385h1.995zm5.749 2.506c0-.252-.037-.485-.112-.7-.07-.219-.175-.408-.315-.567-.14-.163-.315-.289-.525-.378-.205-.093-.443-.14-.714-.14-.546 0-.975.156-1.288.469-.313.313-.511.751-.595 1.316h3.549zm-3.591.924c.019.406.082.758.189 1.057.107.294.25.539.427.735.182.196.397.343.644.441.252.093.532.14.84.14.294 0 .548-.033.763-.098.215-.07.401-.145.56-.224.159-.084.294-.159.406-.224.112-.07.215-.105.308-.105.121 0 .215.047.28.14l.427.553c-.177.21-.378.387-.602.532-.224.145-.462.264-.714.357-.252.089-.511.152-.777.189-.266.042-.525.063-.777.063-.495 0-.954-.082-1.379-.245-.42-.168-.786-.413-1.099-.735-.308-.322-.551-.721-.728-1.197-.173-.476-.259-1.024-.259-1.645 0-.495.077-.957.231-1.386.159-.429.383-.803.672-1.12.294-.317.649-.567 1.064-.749.42-.187.894-.28 1.421-.28.439 0 .845.072 1.218.217.373.14.695.348.966.623s.481.614.63 1.015c.154.397.231.849.231 1.358 0 .233-.026.39-.077.469-.051.079-.145.119-.28.119h-4.585zM104.093 40H63.907c-1.036 0-2.03.412-2.763 1.144-.732.733-1.144 1.727-1.144 2.763v40.186c0 1.036.412 2.03 1.144 2.763.733.732 1.727 1.144 2.763 1.144h40.186c1.036 0 2.03-.412 2.763-1.144.732-.733 1.144-1.727 1.144-2.763V43.907c0-1.036-.412-2.03-1.144-2.763-.733-.732-1.727-1.144-2.763-1.144zm-40.744 3.907c0-.148.059-.29.163-.395.105-.104.247-.163.395-.163h40.186c.148 0 .29.059.395.163.104.105.163.247.163.395v16.945l-4.309-4.309c-.32-.3-.743-.468-1.183-.468-.44 0-.863.168-1.183.468L84.77 69.75l-6.273-6.274c-.281-.282-.654-.455-1.052-.486-.397-.03-.793.083-1.114.319 0 0-6.932 5.023-12.982 9.377V43.907z"/>
    <path fill="#028c6a" d="M71.99 46.14c-7.323.223-7.312 10.839 0 11.073 7.323-.2 7.323-10.817 0-11.073z"/>
</svg>
