<svg xmlns="http://www.w3.org/2000/svg" width="30" height="30" fill="none" viewBox="0 0 30 30">
    <path fill="#000" d="M14.659 4c-.677 0-1.253.243-1.728.729-.476.476-.713 1.052-.713 1.728 0 .676.237 1.252.713 1.727.475.476 1.052.714 1.728.714.676 0 1.252-.238 1.727-.714.486-.475.73-1.05.73-1.727 0-.676-.238-1.252-.713-1.728C15.927 4.243 15.346 4 14.659 4zM11 11.333v.917c.479.03 1.833.917 1.833 1.833v9.167c-.015.881-.571 1.794-1.833 1.833V26h7.333v-.917c-.89-.055-1.825-.498-1.833-1.833V11.333H11z"/>
</svg>
