<svg xmlns="http://www.w3.org/2000/svg" width="90" height="90" fill="none" viewBox="0 0 90 90">
    <circle cx="45" cy="45" r="45" fill="#FF9800" fill-opacity=".1"/>
    <path fill="#FF9800" d="M44.248 20.8c-1.487 0-2.755.535-3.801 1.604-1.046 1.046-1.568 2.314-1.568 3.802s.522 2.754 1.568 3.8c1.046 1.046 2.314 1.569 3.801 1.569 1.488 0 2.755-.523 3.8-1.57 1.07-1.045 1.605-2.311 1.605-3.8 0-1.487-.522-2.755-1.568-3.801-1.046-1.07-2.325-1.604-3.837-1.604zM36.2 36.933v2.017c1.053.064 4.034 2.017 4.034 4.033V63.15c-.035 1.939-1.258 3.948-4.034 4.033V69.2h16.134v-2.017c-1.96-.12-4.017-1.097-4.034-4.033V36.933H36.2z"/>
</svg>
