<svg width="32" height="32" viewBox="0 0 32 32" fill="none" xmlns="http://www.w3.org/2000/svg">
<rect width="32" height="32" rx="4" fill="#005DFF"/>
<path fill-rule="evenodd" clip-rule="evenodd" d="M15.2 9.59863C15.2 9.15745 15.5582 8.7998 16 8.7998C16.4418 8.7998 16.8 9.15745 16.8 9.59863V16.4684L18.6343 14.6341C18.9467 14.3217 19.4533 14.3217 19.7657 14.6341C20.0781 14.9465 20.0781 15.4531 19.7657 15.7655L16.5657 18.9655C16.2533 19.2779 15.7467 19.2779 15.4343 18.9655L12.2343 15.7655C11.9219 15.4531 11.9219 14.9465 12.2343 14.6341C12.5467 14.3217 13.0533 14.3217 13.3657 14.6341L15.2 16.4684V9.59863ZM9.6 21.5998H22.4V16.7998C22.4 16.358 22.7582 15.9998 23.2 15.9998C23.6418 15.9998 24 16.358 24 16.7998V22.3998C24 22.8416 23.6418 23.1998 23.2 23.1998H8.8C8.35817 23.1998 8 22.8416 8 22.3998V16.7998C8 16.358 8.35817 15.9998 8.8 15.9998C9.24183 15.9998 9.6 16.358 9.6 16.7998V21.5998Z" fill="white"/>
</svg>
