<svg xmlns="http://www.w3.org/2000/svg" width="28" height="29" fill="none" viewBox="0 0 28 29">
    <rect width="28" height="28" y=".5" fill="#BA4FDF" rx="14"/>
    <path fill="#fff" fill-rule="evenodd" d="M10.824 7.383c0-.824.659-1.483 1.484-1.483h3.366c.825 0 1.484.659 1.484 1.483v.855h3.005c1.347 0 2.42 1.087 2.437 2.42v4.918c0 .428-.29.782-.693.891l-.148.04v3.557c0 1.33-1.089 2.419-2.419 2.419H8.66c-1.33 0-2.418-1.089-2.418-2.419v-3.557l-.148-.04c-.404-.109-.694-.463-.694-.891v-4.92c0-1.33 1.09-2.418 2.419-2.418h3.005v-.855zm1.484-.387c-.102 0-.202.035-.277.11-.076.076-.11.176-.11.277v.855h4.14v-.855c0-.101-.034-.201-.11-.277-.075-.075-.175-.11-.277-.11h-3.366zm-4.49 2.338c-.727 0-1.321.595-1.321 1.322v4.745h5.524v-1.384h3.94v1.384h5.524v-4.745c0-.727-.594-1.322-1.322-1.322H7.82zm7.046 5.78h-1.746v1.746h1.746v-1.746zm-2.861 1.421H7.32v3.53c0 .727.594 1.322 1.322 1.322H19.34c.728 0 1.323-.595 1.323-1.323v-.2h-.038v-3.329h-4.683v1.422h-3.94v-1.422z" clip-rule="evenodd"/>
</svg>
