<svg xmlns="http://www.w3.org/2000/svg" width="93" height="86" fill="none" viewBox="0 0 93 86">
    <path fill="#CDFFCF" d="M70.84 20.61c-.36-1.53-.87-3.022-1.52-4.454-.184-.43-.389-.85-.615-1.26C64.54 6.7 56.124 1.537 46.93 1.537S29.319 6.7 25.152 14.896c-.226.41-.43.83-.614 1.26-.662 1.455-1.177 2.973-1.535 4.53-.435 1.853-.651 3.75-.645 5.652.004 4.653.697 9.28 2.057 13.729 1.192 3.912 2.842 7.67 4.915 11.195.276.492.568.968.86 1.428.186.33.391.647.614.953 4.289 6.606 9.754 12.368 16.125 17 6.37-4.632 11.836-10.394 16.125-17 .222-.306.427-.624.614-.953.292-.46.584-.936.86-1.428 2.056-3.492 3.695-7.213 4.883-11.087 1.38-4.483 2.084-9.147 2.09-13.837-.001-1.929-.223-3.85-.661-5.728zM46.929 43c-9.33 0-16.893-7.563-16.893-16.893 0-9.33 7.563-16.892 16.893-16.892 9.33 0 16.893 7.563 16.893 16.892.002 4.481-1.777 8.78-4.946 11.948C55.709 41.224 51.41 43.003 46.93 43z"/>
    <path fill="#4CAF50" d="M70.84 20.61c-.361-1.53-.87-3.022-1.52-4.454-.184-.43-.389-.85-.615-1.259C64.536 6.703 56.122 1.54 46.929 1.537c-.779 0-1.536.049-2.304.12 8.328.793 15.673 5.787 19.473 13.24.226.409.431.83.614 1.26.65 1.43 1.16 2.922 1.52 4.453.439 1.878.66 3.8.66 5.728-.005 4.69-.709 9.354-2.088 13.837-1.188 3.874-2.827 7.596-4.883 11.088-.277.49-.569.967-.86 1.428-.187.328-.392.646-.615.952-3.786 5.777-8.449 10.928-13.821 15.27 1.425 1.142 2.304 1.73 2.304 1.73 6.37-4.632 11.836-10.394 16.124-17 .223-.306.428-.624.615-.952.291-.461.583-.937.86-1.428 2.056-3.492 3.695-7.214 4.883-11.088 1.38-4.483 2.083-9.147 2.089-13.837 0-1.928-.222-3.85-.66-5.728z"/>
    <path fill="#FFDEAC" d="M46.929 43c9.33 0 16.893-7.563 16.893-16.892 0-9.33-7.564-16.893-16.893-16.893-9.33 0-16.893 7.563-16.893 16.893C30.036 35.438 37.6 43 46.93 43z"/>
    <path fill="#F44336" d="M46.929 9.215c-.771.006-1.541.065-2.304.175 8.359 1.141 14.59 8.281 14.59 16.718 0 8.436-6.231 15.576-14.59 16.717 6.252.867 12.465-1.827 16.107-6.982 3.642-5.154 4.105-11.91 1.2-17.514-2.904-5.603-8.692-9.119-15.003-9.114z"/>
    <path fill="#FFDEAC" d="M24.415 40.067c-1.592.918-3.398 1.4-5.236 1.398-5.937 0-10.75-4.813-10.75-10.75s4.813-10.75 10.75-10.75c1.309-.007 2.607.238 3.824.721-.435 1.853-.651 3.75-.645 5.652.004 4.653.697 9.28 2.057 13.73z"/>
    <path fill="#CDFFCF" d="M29.33 51.262c-2.771 3.914-6.164 7.348-10.044 10.167-4.38-3.19-8.138-7.156-11.087-11.702-.154-.23-.292-.43-.43-.66-3.46-5.427-5.323-11.718-5.375-18.153-.003-2.418.505-4.81 1.49-7.018 2.69-6.108 8.728-10.057 15.402-10.074 2.005-.008 3.995.356 5.867 1.075-.227.409-.432.83-.615 1.26-.662 1.454-1.177 2.972-1.535 4.53-1.217-.484-2.515-.73-3.824-.722-5.937 0-10.75 4.813-10.75 10.75s4.813 10.75 10.75 10.75c1.838.002 3.644-.48 5.237-1.398 1.191 3.912 2.84 7.67 4.914 11.195z"/>
    <path fill="#FFDEAC" d="M85.106 30.715c.016 2.837-1.097 5.564-3.093 7.58-1.996 2.017-4.712 3.157-7.55 3.17-1.766.004-3.504-.44-5.052-1.29 1.38-4.483 2.083-9.147 2.089-13.837 0-1.929-.222-3.85-.66-5.728 1.16-.427 2.387-.645 3.624-.645 2.837.012 5.553 1.152 7.55 3.169 1.995 2.016 3.108 4.743 3.092 7.58z"/>
    <path fill="#CDFFCF" d="M91.465 30.914c-.053 6.435-1.916 12.726-5.375 18.152-.139.23-.277.43-.43.66-2.95 4.547-6.708 8.513-11.088 11.703-3.88-2.819-7.273-6.253-10.044-10.167 2.057-3.492 3.696-7.213 4.884-11.087 1.547.85 3.286 1.295 5.052 1.29 5.937 0 10.75-4.813 10.75-10.75s-4.813-10.75-10.75-10.75c-1.236 0-2.463.218-3.624.645-.36-1.53-.87-3.022-1.52-4.454-.183-.43-.388-.85-.615-1.26 1.872-.718 3.862-1.082 5.867-1.074 6.674.017 12.712 3.966 15.403 10.074.984 2.209 1.492 4.6 1.49 7.018z"/>
    <path fill="#231E1E" d="M46.928 7.679c-10.177 0-18.428 8.25-18.428 18.428s8.25 18.429 18.428 18.429 18.429-8.25 18.429-18.429C65.346 15.934 57.102 7.69 46.929 7.68zm0 33.785c-8.481 0-15.357-6.875-15.357-15.357 0-8.481 6.876-15.357 15.357-15.357 8.482 0 15.358 6.876 15.358 15.357-.01 8.478-6.88 15.348-15.358 15.358z"/>
    <path fill="#231E1E" d="M74.571 12.286c-1.74 0-3.47.252-5.137.751C64.81 4.973 56.224 0 46.93 0c-9.296 0-17.882 4.973-22.506 13.037-1.667-.498-3.397-.751-5.137-.75C9.066 12.37.832 20.692.857 30.913c.04 6.715 1.98 13.282 5.594 18.942.12.2.24.38.368.57l.09.134c2.918 4.48 6.585 8.423 10.841 11.658v8.425H14.68c-.848 0-1.536.688-1.536 1.536 0 .848.688 1.535 1.536 1.535h9.214c.848 0 1.536-.687 1.536-1.535 0-.849-.688-1.536-1.536-1.536h-3.071v-8.425c3.126-2.377 5.938-5.142 8.37-8.227.065.1.127.206.194.307l.125.19c4.26 6.536 9.637 12.273 15.882 16.95v11.49h-4.607c-.848 0-1.536.688-1.536 1.536 0 .848.688 1.536 1.536 1.536H53.07c.849 0 1.536-.688 1.536-1.536 0-.848-.687-1.535-1.536-1.535h-4.607v-11.49c6.243-4.675 11.616-10.41 15.875-16.942l.132-.2c.072-.104.127-.201.195-.307 2.43 3.085 5.243 5.85 8.37 8.228v8.425h-3.072c-.848 0-1.535.688-1.535 1.536 0 .848.687 1.535 1.535 1.535h9.214c.849 0 1.536-.687 1.536-1.535 0-.849-.687-1.536-1.536-1.536h-3.071v-8.425c4.252-3.23 7.916-7.169 10.831-11.642l.1-.154c.128-.19.247-.37.356-.551 3.62-5.663 5.563-12.236 5.606-18.957.005-2.633-.547-5.237-1.622-7.641-2.942-6.66-9.527-10.963-16.807-10.987zm-1.968 9.432c.61-.137 1.235-.21 1.86-.218 5.09 0 9.215 4.126 9.215 9.215 0 5.088-4.125 9.214-9.214 9.214-1.103.003-2.197-.199-3.225-.596 1.183-4.229 1.787-8.598 1.797-12.989-.01-1.552-.154-3.1-.433-4.626zm-50.01 17.537c-1.082.449-2.243.678-3.415.674-5.088 0-9.214-4.126-9.214-9.214 0-5.09 4.126-9.215 9.214-9.215.698.007 1.392.097 2.069.268-.274 1.51-.416 3.041-.425 4.576.008 4.364.604 8.706 1.772 12.91zm-3.307 20.27c-3.831-2.988-7.145-6.585-9.809-10.648l-.107-.153c-.098-.154-.192-.284-.296-.46-3.319-5.182-5.102-11.197-5.145-17.35-.005-2.203.458-4.383 1.357-6.394 2.45-5.55 7.934-9.14 14-9.162 1.257 0 2.51.16 3.727.476-.413.953-.768 1.93-1.063 2.927-.907-.218-1.838-.33-2.772-.332-6.785 0-12.285 5.5-12.285 12.286C6.893 37.5 12.393 43 19.178 43c1.479-.006 2.944-.283 4.322-.818 1.062 3.098 2.404 6.093 4.008 8.948-2.36 3.148-5.124 5.97-8.222 8.394zm42.633-6.934l-.154.222c-4.012 6.111-9.028 11.5-14.836 15.938-5.813-4.441-10.834-9.833-14.85-15.948l-.14-.212c-.145-.217-.29-.429-.449-.708-4.895-7.624-7.529-16.48-7.597-25.539 0-12.722 10.313-23.036 23.036-23.036 12.722 0 23.035 10.314 23.035 23.036-.071 9.078-2.715 17.95-7.625 25.586-.132.232-.276.438-.42.66zm22.853-4.314c-.093.154-.186.292-.285.44l-.116.174c-2.66 4.059-5.972 7.652-9.8 10.635-3.099-2.423-5.863-5.246-8.22-8.396 1.588-2.833 2.92-5.803 3.98-8.873 1.324.487 2.722.738 4.133.743 6.785 0 12.285-5.5 12.285-12.285s-5.5-12.286-12.285-12.286c-.864.004-1.725.1-2.568.289-.292-.982-.643-1.945-1.052-2.884 1.218-.315 2.47-.475 3.727-.476 6.067.023 11.552 3.613 14.001 9.163.899 2.012 1.36 4.19 1.356 6.393-.045 6.159-1.833 12.178-5.156 17.363z"/>
</svg>
