<svg xmlns="http://www.w3.org/2000/svg" width="31" height="30" fill="none" viewBox="0 0 31 30">
    <path fill="#004ED5" stroke="#004ED5" stroke-width=".8" d="M22.655 11.998h1.346v1.346c0 .23.154.384.384.384.231 0 .385-.153.385-.384v-1.346h1.346c.23 0 .384-.154.384-.384 0-.231-.154-.385-.384-.385H24.77V9.883c0-.23-.154-.384-.385-.384-.23 0-.384.154-.384.384v1.346h-1.346c-.23 0-.385.154-.385.385 0 .23.193.384.385.384z"/>
    <path fill="#004ED5" stroke="#004ED5" stroke-width=".4" d="M16.695 6.73h.577v.577c0 .23.154.385.384.385.231 0 .385-.154.385-.385V6.73h.577c.23 0 .384-.153.384-.384 0-.23-.154-.385-.384-.385h-.577v-.576c0-.231-.154-.385-.385-.385-.23 0-.384.154-.384.385v.576h-.577c-.23 0-.384.154-.384.385 0 .23.192.384.384.384z"/>
    <path fill="#004ED5" stroke="#004ED5" stroke-width=".8" d="M15.042 25.687c2.153 0 4.345-.654 6.229-2.038.846-.615 1.576-1.346 2.23-2.192.115-.154.115-.307 0-.461-.115-.154-.27-.192-.423-.154-4.076 1.423-8.575.039-11.112-3.46-2.577-3.5-2.538-8.19.038-11.651.115-.154.115-.308 0-.462-.115-.154-.27-.192-.423-.154-1 .346-1.922.846-2.768 1.462-2.269 1.653-3.769 4.114-4.192 6.92-.423 2.808.27 5.576 1.923 7.845 2.038 2.845 5.23 4.345 8.498 4.345zm-9.69-12.074c.384-2.576 1.769-4.845 3.884-6.421.461-.346.922-.615 1.422-.885-2.076 3.615-1.845 8.075.654 11.497 2.5 3.423 6.729 4.96 10.766 4.076-.384.385-.807.77-1.268 1.077-4.345 3.191-10.498 2.23-13.69-2.115-1.537-2.038-2.191-4.653-1.768-7.229z"/>
</svg>
