<svg xmlns="http://www.w3.org/2000/svg" width="30" height="30" fill="none" viewBox="0 0 30 30">
    <path fill="#000" fill-rule="evenodd" d="M21.644 20.846H7.583c-.51-.002-1.01-.154-1.434-.439-.425-.284-.756-.688-.951-1.16-.196-.471-.248-.99-.15-1.492.1-.501.344-.962.703-1.325.634-.63 1.136-1.38 1.478-2.206.341-.825.515-1.71.512-2.604v-.74c-.001-.931.187-1.854.554-2.71.367-.858.904-1.631 1.579-2.274.675-.643 1.473-1.142 2.347-1.466.874-.325 1.805-.468 2.736-.421 1.783.106 3.456.895 4.672 2.203 1.216 1.308 1.881 3.034 1.857 4.82v.584c-.004.894.17 1.78.512 2.605.342.826.844 1.576 1.477 2.206.361.362.607.824.706 1.326.1.501.047 1.021-.148 1.494-.196.473-.528.877-.953 1.161-.425.285-.925.437-1.436.438zM10.49 10.88v.739c.007 2.402-.898 4.717-2.533 6.477H21.27c-1.634-1.76-2.54-4.075-2.532-6.477v-.584c0-2.255-1.76-4.172-3.92-4.278-.56-.028-1.117.058-1.641.253s-1.003.494-1.408.88c-.404.386-.726.85-.946 1.364-.22.514-.333 1.067-.332 1.626zm1.374 12.37h5.498V26h-5.498v-2.749z" clip-rule="evenodd"/>
</svg>
