<svg xmlns="http://www.w3.org/2000/svg" width="212" height="165" fill="none" viewBox="0 0 212 165">
    <path fill="#9CD499" d="M203.242 95.14c-.015.285-.031.569-.048.854-.142 2.251-.357 4.47-.658 6.645-.112.818-.237 1.626-.375 2.43v.004c-.562 3.334-1.323 6.552-2.292 9.608-.201.639-.413 1.274-.636 1.898-2.688 7.601-6.739 14.078-12.323 18.683-3.956 3.26-8.048 5.695-12.186 7.421-.303.131-.608.254-.912.37-6.658 2.621-13.409 3.444-19.858 3.002-.388-.028-.778-.059-1.163-.095-3.087-.286-6.098-.857-8.989-1.655-.534-.148-1.064-.302-1.592-.465-4.478-1.384-8.644-3.302-12.324-5.525-.244-.149-.492-.292-.742-.434-.201-.116-.409-.229-.619-.339-4.961-2.673-11.325-4.442-19.148-4.617-.233-.005-.47-.007-.708-.011-4.753-.049-10.028.484-15.845 1.743h-.004c-.233.053-.475.106-.71.163h-.004c-2.822.635-5.767 1.443-8.845 2.439-.56.18-1.124.366-1.694.561-1.683.575-3.402 1.203-5.16 1.886-3.67 1.433-7.354 2.366-11 2.816h-.005c-.377.049-.753.091-1.128.127-5.4.527-10.71.004-15.77-1.489-.346-.1-.69-.205-1.033-.313-4.246-1.369-8.312-3.427-12.097-6.122-7.39-5.261-13.72-12.957-18.274-22.724-1.293-2.777-2.447-5.72-3.44-8.825v-.004c-.927-2.894-1.716-5.928-2.35-9.092-.576-2.864-1.026-5.837-1.34-8.912v-.005c-.487-4.734-.657-9.718-.47-14.924.994-27.768 7.174-43.06 15.728-50.61 7.257-6.412 16.22-7.243 25.173-5.403 6.046 1.246 11.07 3.56 15.484 6.338.301.19.598.38.89.575 8.646 5.659 14.966 13.006 22.178 17.205.208.122.418.239.626.355 5.225 2.885 10.964 4.076 18.416 1.779 6.867-2.117 12.402-6.291 17.522-10.818.18-.159.364-.317.54-.48 7.649-6.825 14.438-14.315 23.479-16.707.357-.096.721-.185 1.086-.26 5.215-1.122 11.191-.54 18.486 2.783 5.054 2.304 9.676 6.09 13.784 10.95C194.512 39.7 201.977 62.03 203.204 83.5c.021.387.043.78.06 1.167.171 3.535.165 7.038-.022 10.472z"/>
    <path fill="url(#paint0_linear)" d="M54.094 112.888c3.108 12.191 7.545 22.364 11.313 29.632-.378.049-.753.091-1.128.127-3.753-7.3-8.122-17.399-11.202-29.459-3.806-14.9-4.925-29.829-3.33-44.377 1.83-16.677 7.256-32.883 16.14-48.247.302.19.599.38.891.575-20.608 35.693-18.384 69.406-12.684 91.749z"/>
    <path fill="url(#paint1_linear)" d="M92.82 134.653c-.233.053-.474.106-.71.163h-.004c-3.32-6.308-7.004-14.658-9.667-24.463-3.585-13.215-4.643-26.453-3.136-39.352 1.302-11.172 4.537-22.106 9.655-32.66.208.123.418.24.625.356-13.468 27.912-11.276 53.71-6.468 71.443 2.67 9.849 6.38 18.222 9.706 24.513z"/>
    <path fill="url(#paint2_linear)" d="M167.696 111.388c-3.657 14.985-9.395 26.992-13.744 34.667-.388-.028-.778-.059-1.163-.095 4.339-7.586 10.19-19.686 13.886-34.864 5.753-23.623 7.267-59.612-17.136-98.621.356-.096.72-.184 1.085-.26 10.449 16.776 17.015 34.328 19.538 52.23 2.181 15.493 1.35 31.291-2.466 46.943z"/>
    <path fill="url(#paint3_linear)" d="M138.578 112.122c-2.542 10.422-6.194 19.233-9.434 25.757-.201-.117-.409-.229-.619-.339 3.218-6.488 6.846-15.25 9.375-25.613 4.891-20.066 6.491-50.244-12.381-82.267.18-.159.365-.317.541-.48 8.066 13.64 13.093 28.007 14.965 42.781 1.664 13.164.841 26.675-2.447 40.161z"/>
    <path fill="url(#paint4_linear)" d="M109.378 114.415v18.505l-.709-.01v-18.495h.709z"/>
    <path fill="url(#paint5_linear)" d="M108.099 114.737l-1.011.448-58.582 25.971c-.346-.1-.689-.206-1.032-.314l60.335-26.753.144.324.146.324z"/>
    <path fill="url(#paint6_linear)" d="M108.727 114.675l-.058.049-25.406 22.529c-.56.179-1.123.366-1.694.56l25.521-22.63.867-.77.301-.265.413.464.056.063z"/>
    <path fill="url(#paint7_linear)" d="M143.8 144.303c-.534-.148-1.064-.302-1.592-.465l-32.83-29.116-.053-.047.053-.059.417-.465.297.264.869.77 32.839 29.118z"/>
    <path fill="url(#paint8_linear)" d="M174.722 142.681c-.303.131-.608.254-.912.37l-62.849-27.866-1.011-.449.142-.321.144-.324 64.486 28.59z"/>
    <path fill="url(#paint9_linear)" d="M56.852 128.256c-6.326 1.902-13.43 4.04-21.476 6.465-.517-.366-1.026-.749-1.53-1.143-4.442-3.429-8.461-7.765-11.896-12.927-8.285-12.432-13.192-29.626-12.446-50.416.57-15.946 2.849-27.775 6.309-36.389.133-.332.27-.655.403-.977 2.107-4.967 4.625-8.817 7.437-11.732.095-.1.19-.195.286-.29.165-.169.335-.334.506-.497.261-.25.524-.49.785-.723L56.854 35.78c-12.366 24.803-12.366 65.082-.002 92.476z"/>
    <path fill="url(#paint10_linear)" d="M54.914 127.363c-.282.085-.587.176-.912.271-4.695 1.405-13.303 3.916-20.154 5.942-4.442-3.429-8.461-7.765-11.896-12.927-8.287-12.43-13.195-29.624-12.448-50.414.591-16.555 3.027-28.676 6.712-37.366 2.107-4.967 4.625-8.817 7.437-11.732.095-.1.19-.195.286-.29l31.039 15.561c-11.629 24.634-11.65 63.889-.064 90.955z"/>
    <path fill="url(#paint11_linear)" d="M54 127.636c-4.695 1.405-13.303 3.916-20.154 5.942-4.442-3.429-8.461-7.765-11.896-12.927L54 127.636z"/>
    <path fill="#DB8C0E" d="M56.852 35.782l-.793 1.804c-.036.074-3.328 7.252-3.9 10.1l-.255 1.262-36.093-15.1c.134-.332.27-.655.403-.977 2.107-4.967 4.626-8.817 7.437-11.732.095-.1.19-.194.286-.29.165-.169 1.121-1.057 1.291-1.22l31.624 16.153z"/>
    <path fill="#FFB631" d="M55.19 36.565s-1.45 3.19-2.659 6.284c-.583 1.485-1.106 2.95-1.39 4.026-.057.205-.102.398-.138.571l-.528-.218-3.458-1.45-7.072-2.965-2.85-1.193-2.944-1.235-17.935-7.516c2.107-4.967 4.912-9.107 7.723-12.022l24.14 12.138 2.706 1.363 2.62 1.315 1.785.902z"/>
    <path fill="#DB8C0E" d="M27.749 33.935c-.22.544.044 1.166.589 1.386l6.493 2.62c.545.219 1.164-.044 1.385-.587l1.064-2.621-8.467-3.419-1.064 2.621zM37.352 31.712l-1.63-.658.255-.605c.19-.47-.036-1.007-.51-1.195l-1.496-.603c-.496-.201-1.06.038-1.26.533l-.233.565-1.62-.654c-.544-.22-1.163.04-1.384.584l-.364.899 8.467 3.418.365-.899c.22-.545-.043-1.165-.59-1.385zm-4.108-2.357c.057-.141.22-.211.362-.154l1.722.694c.13.053.19.199.138.326l-.261.622-2.21-.891.249-.597z"/>
    <path fill="#fff" d="M55.19 36.565s-1.45 3.19-2.658 6.284l-5.512 2.928-7.073-2.964 13.458-7.148 1.785.9zM50.782 34.348L37.096 41.62l-2.947-1.235 13.928-7.398 2.705 1.36z" opacity=".6"/>
    <path fill="#9CD499" d="M40.38 127.915c-.584.275-1.207.371-1.207.371l-.293-.544-.186.618-3.509 1.495c-.731.311-1.53-.228-1.524-1.024.004-.243.026-.516.085-.803.19-.967 1.944-1.864 3.019-2.33-1.751-2.403-8.667-11.926-10.732-15.285-.763-1.409-2.313-6.234-3.392-10.353-1.963 2.991-4.424 6.676-5.605 8.151.07.247.303 2.25.11 3.503-.015.084-.027.179-.046.281-1.294-2.777-2.447-5.72-3.441-8.825v-.005c.625-1.588 1.422-3.384 2.228-5.074l-3.32-4.136c-.131.207-.248.349-.329.349-.335 0-.667-.218-.926-.233-.577-2.864-1.026-5.836-1.34-8.912v-.004l4.639-3.713c.43-.342 1.06-.274 1.407.155l1.552 1.93c-.307-3.227-.623-6.641-.89-9.118-.23-2.078.943-4.051 2.875-4.861.328-.142.678-.275 1.038-.407l.16-1.33s.25-.154.657-.353c-.022-.26-.039-.523-.053-.777-1.336.908-2.648 1.227-3.452.112-1.577-2.197.647-6.4 1.825-8.32-.307-.716-1.539-.07-1.384-.706.367-1.517 4.092-3.158 6.364-2.253 2.273.914 2.212 3.423 2.212 3.423s.682 1.037.811 2.206c.075.66-2.15 2.46-3.773 3.852.163.633.375 1.204.602 1.712.212.015.418.048.619.101l.784 1.443c.567.046 1.128.144 1.669.313.032.01.064.021.091.032 2.457.808 3.933 3.313 3.504 5.86-.81 4.816-2.51 15.344-2.38 17.868.031.575-.23 1.051-.683 1.432.371.533.623 1.172.7 1.887.402 3.634 1.068 9.993 1.09 12.367.211.143 1.782 1.205 2.673 3.257.964 2.219 5.353 11.104 6.41 13.247l.017-.011 1.627 1.955c.396.48.248 1.195-.304 1.457z"/>
    <path fill="#CCF8CA" d="M83.106 120.327c.005.007.005.015.007.022-6.528 1.965-14.109 4.247-23.013 6.93-1.774-4.062-3.277-8.409-4.51-12.949-6.851-25.234-5.348-56.383 4.51-76.887 8.904 4.548 16.485 8.42 23.013 11.757-7.134 19.703-7.138 49.923-.007 71.127z"/>
    <path fill="url(#paint12_linear)" d="M81.321 119.414l-1.01.302-19.407 5.847c-1.423-3.406-2.68-7.057-3.748-10.892-.068-.237-.134-.472-.198-.709-6.775-24.949-5.223-54.687 3.806-74.597l20.608 10.529c-6.726 19.681-6.746 48.417-.05 69.52z"/>
    <path fill="#9CD499" d="M80.31 119.718l-19.406 5.847c-1.423-3.406-2.68-7.057-3.748-10.892l23.154 5.045z"/>
    <path fill="#DB8C0E" d="M55.633 49.3s1.493-5.939 4.467-11.857L83.113 49.2l-2.563 8.774L55.633 49.3z"/>
    <path fill="#FFB631" d="M81.455 49.67l-.35 1.182-.943 3.215-.72 2.45-2.341-.823-3.07-1.079-3.167-1.115-13.54-4.76c.205-.835.43-1.64.66-2.402v-.005c.435-1.43.891-2.716 1.304-3.786.783-2.018 1.404-3.268 1.404-3.268l2.444 1.224 3.002 1.5 13.575 6.795 1.742.871z"/>
    <path fill="#DB8C0E" d="M73.817 47.313l-4.632-1.654c-.187-.068-.397.027-.467.218l-.937 2.614c-.068.19.032.398.218.465l2.023.722-.34.943-1.208-.431-.201.56 3.006 1.075.202-.56-1.209-.432.34-.944 2.02.722c.19.067.398-.028.466-.218l.937-2.615c.072-.19-.025-.4-.218-.465zm-1.05 2.96l-.01.006-4.637-1.655.933-2.63 4.643 1.649-.929 2.63z"/>
    <path fill="#fff" d="M66.138 42.001l-8.154 4.33c.435-1.43.89-2.716 1.304-3.786l3.848-2.044 3.002 1.5zM77.098 55.692l3.064-1.627-.721 2.45-2.343-.823zM81.455 49.67l-.35 1.182-7.074 3.761-3.17-1.115 8.851-4.7 1.743.871z" opacity=".6"/>
    <path fill="#CCF8CA" d="M100.401 115.404v.004l-14.484 4.362c-.837-2.547-1.57-5.225-2.202-8.002-4.512-19.836-3.776-44.63 2.202-61.577l14.484 7.402c-4.643 16.318-4.643 40.518 0 57.811z"/>
    <path fill="url(#paint13_linear)" d="M98.695 114.447l-.34.101-.784.237-1.412.428-9.313 2.8c-.583-1.876-1.117-3.856-1.603-5.916-.049-.216-.1-.43-.148-.646-.753-3.321-1.36-6.763-1.81-10.278-1.165-8.92-1.37-18.288-.652-27.14.043-.544.09-1.088.142-1.627.28-2.99.668-5.91 1.164-8.73.71-4.083 1.646-7.95 2.795-11.49l12 6.138c-4.269 16.04-4.284 39.166-.04 56.123z"/>
    <path fill="#9CD499" d="M97.569 114.785l-10.725 3.228c-.583-1.876-1.117-3.856-1.603-5.916l12.328 2.688z"/>
    <path fill="#DB8C0E" d="M83.668 58.03l1.656-6.135.595-1.71s1.474.559 13.721 6.846l.765.393-1.39 5.943-15.347-5.338z"/>
    <path fill="#FFB631" d="M99.153 57.974l-.647 2.357-.439 1.589-1.545-.538-10.566-3.68-1.007-.35 1.492-5.525c-.091-.226 2.699 1.11 5.686 2.598 3.388 1.68 7.026 3.55 7.026 3.55z"/>
    <path fill="#DB8C0E" d="M91.495 55.643l-.763 2.198c-.07.197.036.408.229.48l1.499.519.89-2.556-1.855-.64zm.706 2.226l-.742-.258.117-.332.742.258-.117.332zm-.46-1.062l.113-.335.746.259-.117.334-.742-.258zM93.032 59.043c-.229-.08-.35-.328-.27-.557l.53-1.518.83.287-.53 1.52c-.08.227-.331.348-.56.268z"/>
    <path fill="#fff" d="M92.127 54.425l-6.171 3.279-1.007-.35 1.492-5.525c-.091-.226 2.699 1.11 5.686 2.596zM98.506 60.33l-.439 1.59-1.545-.538 1.984-1.051z" opacity=".6"/>
    <path fill="#9CD499" d="M100.047 118.087c-.439.233-.91.328-.91.328l-.243-.406-.121.476-2.625 1.269c-.549.26-1.176-.122-1.202-.727-.006-.191.005-.396.036-.618.113-.745 1.423-1.494 2.224-1.887l-1.05-1.312c-2.166-2.716-6.279-7.907-7.686-9.972-.63-1.047-1.985-4.679-2.953-7.784-.709 1.195-1.51 2.536-2.235 3.714-1.164-8.92-1.37-18.287-.65-27.14.07-.036.143-.068.218-.095l.074-1.02s.186-.13.492-.292c-.026-.2-.05-.402-.068-.592-.195.144-.386.27-.577.374-.784.438-1.53.498-2.054-.165-1.283-1.622.265-4.907 1.096-6.413-.26-.538-.418-1.122-.322-1.617.176-.907 1.18-.877 2.444-.533.371.1.763.229 1.164.366 1.747.607 1.757 2.234 1.757 2.272 0 0 .541.24.683 1.13.08.501-1.075 2.088-2.264 3.211.148.474.328.903.523 1.284.16.004.319.021.475.057l.647 1.073c.439.014.87.07 1.287.184.025.004.049.01.07.017 1.906.528 3.118 2.392 2.885 4.351-.445 3.704-1.372 11.802-1.18 13.722.046.438-.138.813-.471 1.12.3.39.517.871.602 1.415.439 2.758 1.17 7.59 1.272 9.403.165.101 1.401.854 2.156 2.388.697 1.415 3.462 6.439 4.808 8.88l.555 1.003.01-.006 1.313 1.432c.32.342.231.892-.18 1.11z"/>
    <path fill="#CCF8CA" d="M136.838 111.494c-.647 2.872-1.404 5.646-2.267 8.273-5.442-1.637-10.233-3.08-14.484-4.362.026-.091.049-.184.075-.279 4.568-17.272 4.543-41.307-.075-57.537 4.251-2.172 9.042-4.622 14.484-7.401 5.955 16.87 6.708 41.514 2.267 61.306z"/>
    <path fill="url(#paint14_linear)" d="M135.457 111.187c-.048.216-.099.427-.148.639-.496 2.138-1.054 4.216-1.666 6.189-4.103-1.231-7.825-2.356-11.219-3.38-.208-.059-.418-.123-.626-.186 4.236-16.936 4.215-40.114-.042-56.123 3.6-1.843 7.577-3.874 12.001-6.137 5.309 16.333 6.015 39.775 1.7 58.998z"/>
    <path fill="#9CD499" d="M135.309 111.826c-.496 2.138-1.053 4.216-1.666 6.189-4.102-1.231-7.825-2.356-11.219-3.38l12.885-2.809z"/>
    <path fill="#DB8C0E" d="M119.844 57.606l.765-.393c12.245-6.287 13.96-7.025 13.96-7.025l2.383 8.307-15.414 5.278-1.694-6.167z"/>
    <path fill="#FFB631" d="M135.688 57.562l-3.029 1.055-3.373 1.172-7.433 2.587-1.145-4.16s9.526-4.887 12.521-6.19c.583-.254.92-.375.888-.29l.709 2.619.862 3.207z"/>
    <path fill="#DB8C0E" d="M128.415 58.408l-.668-1.142.085-.1c.144-.197.254-.414.331-.645l.076-.235c.019-.059-.002-.125-.053-.16-.051-.039-.121-.039-.172-.003l-.201.144c-.197.142-.371.313-.515.51l-.07.112-1.294-.285c-.074-.017-.118.08-.057.124l.997.726-.492.783-.592-.132c-.074-.016-.118.08-.057.125l1.185.863c.062.045.14-.025.102-.093l-.305-.522.597-.705.997.726c.066.046.144-.025.106-.091z"/>
    <path fill="#fff" d="M134.822 54.355l-2.165 4.262-3.373 1.172 3.943-7.763c.583-.254.92-.375.889-.29l.706 2.619z" opacity=".6"/>
    <path fill="#CCF8CA" d="M164.97 114.055c-1.249 4.639-2.775 9.082-4.583 13.226l-23.013-6.93c.036-.1.068-.201.1-.301 7.04-21.191 7.008-51.232-.1-70.85 6.528-3.334 14.107-7.21 23.013-11.758 9.819 20.43 11.348 51.428 4.583 76.613z"/>
    <path fill="url(#paint15_linear)" d="M163.605 113.687c-.064.237-.128.474-.197.709-1.086 3.937-2.373 7.687-3.827 11.167l-19.901-5.995-.513-.154c6.687-21.082 6.661-49.875-.048-69.52 0 0 15.565-7.954 20.608-10.529 8.978 19.817 10.562 49.443 3.878 74.322z"/>
    <path fill="#9CD499" d="M163.408 114.398c-1.086 3.937-2.373 7.687-3.827 11.167l-19.9-5.995 23.727-5.172z"/>
    <path fill="#DB8C0E" d="M136.344 49.318l24.439-12.227 4.073 12.193-25.532 8.781-2.98-8.747z"/>
    <path fill="#FFB631" d="M163.422 48.601l-3.417 1.202-6.186 2.172-12.852 4.512-.915.322-.793-2.376-1.518-4.537 5.122-2.564h.004l3.687-1.847 13.563-6.786.176.525 2.016 6.041 1.113 3.336z"/>
    <path fill="#DB8C0E" d="M151.589 48.39c-.53-1.337-2.048-1.987-3.384-1.46-1.339.529-1.995 2.04-1.465 3.376.533 1.337 2.048 1.99 3.386 1.462 1.336-.531 1.993-2.044 1.463-3.379zm-1.855 2.164l.161.406-.246.097-.157-.396c-.227.087-.494.108-.67.066l-.01-.3c.178.038.413.031.634-.055.277-.108.402-.347.311-.567-.085-.218-.29-.29-.627-.294-.462.004-.783-.08-.916-.42-.129-.325.004-.663.339-.862l-.157-.396.246-.097.151.38c.237-.086.424-.086.564-.065l.004.298c-.102-.014-.295-.036-.547.064-.301.118-.344.347-.284.499.085.207.267.248.665.256.471.004.755.127.895.476.125.309.023.683-.356.91z"/>
    <path fill="#fff" d="M146.554 45.485l-5.586 11.002-.916.322-.793-2.376 3.604-7.101h.004l3.687-1.847zM162.309 45.265l-2.304 4.538-6.186 2.172 6.474-12.751 2.016 6.041z" opacity=".6"/>
    <path fill="#CCF8CA" d="M197.641 120.583c-2.436 5.479-5.69 10.226-9.826 13.903-.297.26-.598.518-.905.772-8.787-2.646-16.479-4.961-23.271-7.004l.127-.286c12.234-27.388 12.192-67.472-.127-92.19 5.739-2.932 12.113-6.19 19.258-9.837.218.26.441.529.657.798.11.13.218.264.324.397.117.144.234.292.35.44 2.525 3.222 4.84 6.856 6.92 10.793.165.313.328.628.487.946 12.307 24.02 15.996 58.814 6.006 81.268z"/>
    <path fill="url(#paint16_linear)" d="M197.641 120.583v.005h-.005c-2.31 5.216-5.537 10.092-9.824 13.898-7.53-2.34-16.379-5.352-22.241-7.121 11.783-27.457 11.752-65.998-.057-90.955l18.364-9.272c19.073 24.695 25.226 66.76 13.763 93.445z"/>
    <path fill="#9CD499" d="M197.641 120.586c-2.319 5.214-5.537 10.092-9.826 13.898-7.301-2.268-16.226-5.297-21.836-6.998 0 .002 31.66-6.903 31.662-6.9z"/>
    <path fill="#DB8C0E" d="M191.635 39.317L168.62 48.75s-2.465-7.057-4.984-12.973l19.258-9.835c-.657-.793.878 1.058.984 1.193.117.144.233.292.35.44 2.525 3.222 4.84 6.856 6.919 10.793.168.315.329.63.488.948z"/>
    <path fill="#FFB631" d="M191.147 38.375l-18.772 7.497-2.886 1.153c-.175-.876-.587-2.12-1.081-3.444-.725-1.937-1.63-4.042-2.23-5.413-.396-.897-.661-1.474-.661-1.474l1.869-.91 6.619-3.226 6.814-3.321 3.409-1.659c2.525 3.224 4.84 6.858 6.919 10.797z"/>
    <path fill="#DB8C0E" d="M184.272 33.408l-1.329 1.225-.187-.057-1.316 4.235c-.117.372-.513.582-.886.465-.373-.116-.583-.511-.467-.884l1.317-4.235-.187-.057-.398-1.76 1.329-1.225.329.102-.369 1.184c-.077.248.008.53.231.663.328.199.729.031.835-.31l.375-1.207.329.101.394 1.76z"/>
    <path fill="#fff" d="M180.819 29.239l-8.444 16.633-2.885 1.153c-.176-.876-.587-2.12-1.081-3.444l5.596-11.023 6.814-3.319zM167.384 35.784l-1.208 2.386c-.397-.897-.662-1.474-.662-1.474l1.87-.912z" opacity=".6"/>
    <path fill="#9CD499" d="M203.242 95.14c-.015.285-.032.569-.049.854l-2.546 2.852c.662 1.248 1.315 2.557 1.889 3.793-.112.818-.237 1.626-.375 2.43v.004c-.562 3.334-1.323 6.552-2.292 9.609-.275-1.111-.485-2.029-.583-2.583-.212-1.217.047-3.169.121-3.408-1.272-1.437-3.939-5.022-6.061-7.933-1.164 4.004-2.843 8.705-3.67 10.074-2.23 3.268-9.718 12.535-11.609 14.871 1.164.454 3.061 1.326 3.267 2.267.064.282.089.544.091.783.007.77-.856 1.299-1.647.994l-3.797-1.457-.197-.601-.318.529s-.672-.091-1.304-.364c-.593-.254-.761-.95-.339-1.405l1.762-1.901.021.01c1.143-2.081 5.887-10.727 6.934-12.885.965-1.996 2.663-3.027 2.892-3.168.021-2.315.742-8.5 1.175-12.035.089-.698.356-1.32.763-1.838-.492-.37-.774-.834-.742-1.394.144-2.452-1.7-12.699-2.572-17.389-.466-2.477 1.132-4.914 3.787-5.7.031-.011.063-.017.099-.028.587-.165 1.196-.26 1.806-.307l.846-1.404c.223-.053.445-.085.668-.1.248-.497.195-1.758.371-2.371-1.753-1.354-3.207-2.6-3.129-3.247.142-1.136.89-1.475.89-1.475s-1.641-2.081.817-2.97c2.461-.882 4.061-1.7 5.367-.522.503.45 1.249 1.874.916 2.572 1.272 1.866 3.681 5.957 1.974 8.094-.867 1.083-2.288.772-3.733-.11-.015.247-.032.5-.058.759.439.19.715.343.715.343l.174 1.29c.388.127.763.26 1.121.396 2.091.79 3.36 2.71 3.112 4.732-.296 2.41-.634 5.733-.969 8.874l1.68-1.88c.377-.418 1.057-.485 1.52-.149l1.18.85c.022.388.043.781.06 1.168.165 3.54.159 7.042-.028 10.476z"/>
    <path fill="#BF1D1D" d="M96.083 154.394s-5.192-.802-6.456.729c-.26.316-.466.629-.631.927-.528.96.093 2.147 1.187 2.244l5.266.47.632-.63v.856s.822.29 1.717.335c.844.042 1.497-.732 1.33-1.557l-.703-3.448-2.342.074zM131.607 152.536s-4.954 1.745-5.34 3.692c-.08.399-.112.774-.117 1.114-.01 1.096 1.101 1.847 2.112 1.418l4.861-2.075.259-.855.405.753s.863-.133 1.672-.516c.764-.362.973-1.352.433-1.999l-2.254-2.708-2.031 1.176z"/>
    <path fill="#180051" d="M133.935 152.02l-.18.11-.35.207-2.389 1.432s-12.15-16.603-15.431-21.942c-1.843-3.406-7.009-21.226-6.225-23.079.159-.37.507-.783.98-1.179 2.281-1.891 5.357-1.546 7.316.197.994.882 1.698 2.124 1.863 3.618.556 5.034 1.478 13.84 1.508 17.134.292.201 2.467 1.669 3.705 4.51 1.402 3.218 7.993 16.551 9.057 18.7l.146.292z"/>
    <path fill="#180051" d="M112.805 114.542c-.657 1.013-1.435 2.208-2.266 3.471v.004c-2.657 4.037-5.851 8.805-7.416 10.759.095.343.42 3.118.153 4.851-.634 4.047-5.035 21.494-5.035 21.494l-1.228-.175-2.145-.307 1.804-27.001c.18-3.74 8.147-20.606 9.932-21.547.356-.186.884-.29 1.503-.296 4.469-.043 7.125 5.003 4.698 8.747z"/>
    <path fill="#4E19CE" d="M133.789 151.728l-.036.402-.063.717s-.1-.18-.287-.508c-1.857-3.321-12.219-21.841-12.826-22.501-.661-.73-3.911-21.012-3.911-21.012l.99-1.058c.994.882 1.698 2.124 1.864 3.618.555 5.034 1.477 13.841 1.507 17.134.292.201 2.468 1.669 3.706 4.51 1.401 3.216 7.992 16.549 9.056 18.698zM103.125 128.776c.096.343.42 3.118.153 4.851-.634 4.047-5.035 21.494-5.035 21.494l-1.227-.175c1.344-4.214 6.682-21.45 5.573-25.719 0 0-.324-.846.153-1.341.477-.497 7.801-9.869 7.801-9.869-2.658 4.037-5.855 8.803-7.418 10.759z"/>
    <path fill="#FFB631" d="M104.943 63.902s-1.128.674-1.185 1.284c-.057.609.218.943.218.943h.246l.721-2.227z"/>
    <path fill="#FFCE80" d="M115.462 63.722c-.456 1.927-6.036 8.973-9.493 8.662-.63-.057-1.192-.355-1.637-.977-2.472-3.44 1.793-10.437 3.08-12.392.217-.332.35-.518.35-.518 4.571-2.162 8.245 2.942 7.7 5.225z"/>
    <path fill="#FFCE80" d="M109.023 68.826s.06 5.947.842 6.907 6.078-.721 6.078-.721-3.07-3.123-3.61-8.168c.002 0-2.466.18-3.31 1.982z"/>
    <path fill="#FFB631" d="M105.969 72.384c-.63-.057-1.192-.355-1.637-.977-2.472-3.44 1.793-10.437 3.08-12.392l.049.516c-.002 0-5.423 10.888-1.492 12.853z"/>
    <path fill="#262627" d="M117.088 63.299c.18 1.622-5.506 8.472-7.132 6.729-.956-1.024-2.035-2.943-1.596-4.847.146-.632.053-1.339-.488-.979l-1.157.903.871-3.858c-.82-1.263-1.497-3-1.174-4.311.513-2.103 3.394-1.259 6.544 0 3.15 1.263 2.991 4.266 2.991 4.266s.961.479 1.141 2.097z"/>
    <path fill="#FFCE80" d="M108.614 66.027c.437-.756.424-1.58-.029-1.841-.453-.262-1.175.14-1.613.895-.437.756-.424 1.58.029 1.841.454.262 1.175-.14 1.613-.895z"/>
    <path fill="#280077" d="M107.955 75.456l.315-2.636s3.431-2.136 6.14-1.383l1.264 2.329-7.719 1.69z"/>
    <path fill="#4E19CE" d="M122.788 82.03c-1.117 6.672-3.477 21.262-3.292 24.753.064 1.231-.825 2.14-2.186 2.731-1.079.469-2.455.738-3.886.812-3.455.18-7.242-.781-8.013-2.822-.647-1.722-1.889-17.348-2.786-25.546-.314-2.874 1.312-5.614 3.986-6.735 1.068-.448 2.266-.882 3.525-1.21 2.483-.656 5.209-.918 7.672-.142.028.011.058.017.085.028.015.004.028.01.043.015 3.402 1.12 5.446 4.588 4.852 8.117z"/>
    <path fill="#280077" d="M113.424 110.326c-3.455.18-7.242-.781-8.013-2.822-.647-1.722-1.889-17.348-2.786-25.545-.314-2.875 1.312-5.615 3.986-6.736 1.068-.448 2.266-.882 3.525-1.21-1.429 1.422-3.513 6.757-3.729 13.132-.282 8.405 8.679 11.487 9.267 19.466.076 1.041-1.065 2.539-2.25 3.715z"/>
    <path fill="#5F30EF" d="M122.788 82.03c-1.117 6.672-3.477 21.262-3.292 24.753.063 1.231-.825 2.14-2.186 2.731.498-2.953 1.8-10.755 3.394-21.167 1.24-8.093-.911-12.35-2.811-14.448.015.004.028.01.042.015 3.403 1.121 5.447 4.588 4.853 8.117z"/>
    <path fill="#8EB8FF" d="M113.142 108.339l-9.122 7.305c-.598.476-1.471.381-1.948-.216l-3.738-4.65-2.493-3.096-5.41-6.732c-.481-.592-.386-1.463.212-1.944l9.122-7.3c.598-.48 1.471-.385 1.948.212l7.702 9.58.486.603 3.456 4.299c.479.592.383 1.461-.215 1.939z"/>
    <path fill="#01276A" d="M109.899 102.097l-11.567 8.679-2.491-3.097 5.628-4.679 7.946-1.506.484.603zM102.697 93.512l-11.054 8.939.222.275 11.055-8.94-.223-.274z"/>
    <path fill="#01276A" d="M97.151 99.275c.507 0 .918-.41.918-.916s-.41-.916-.918-.916c-.507 0-.918.41-.918.916s.411.916.918.916zM99.227 101.797c.507 0 .918-.411.918-.916 0-.506-.411-.916-.918-.916-.507 0-.918.41-.918.916 0 .505.41.916.918.916z"/>
    <path fill="#FFCE80" d="M98.309 106.123s-1.355 3.393-1.836 3.393c-.481 0-.963-.324-1.325-.326-.363-.002-.288-.806-.873-.815-.933-.014-.524-1.085-.874-1.201-1.128-.374-.572-1.441-.602-1.682-.03-.241 5.026-.901 5.026-.901l.484 1.532z"/>
    <path fill="#4E19CE" d="M110.745 101.369c-.895.423-4.071 1.919-7.278 3.374-1.944.882-3.903 1.748-5.374 2.346l-.942-2.504c2.742-2.067 7.528-5.447 10.916-6.987-2.005-3.84-6.088-12.354-4.774-15.7.827-2.1 2.135-2.552 3.32-2.224l.004.004c1.291.356 2.436 1.631 2.663 2.7.354 1.7 3.564 10.504 4.166 14.335.275 2.562-1.266 3.977-2.701 4.656z"/>
    <path fill="#5F30EF" d="M110.744 101.369c-.894.423-4.07 1.919-7.278 3.374 1.69-1.153 5.343-3.672 6.608-4.776 1.669-1.458 2.033-3.501.948-9.05-1.064-5.466-4.308-11.065-4.405-11.237 1.291.356 2.435 1.631 2.662 2.7.354 1.7 3.564 10.505 4.166 14.336.276 2.56-1.266 3.974-2.701 4.653z"/>
    <g filter="url(#filter0_d)">
        <rect width="46" height="46" x="6" y="12" fill="#fff" rx="23"/>
        <path fill="#444363" fill-rule="evenodd" d="M29.24 34.134l-.275-1.912 3.362-6.311.506.202-1.897 6.916-1.49 1.187-.206-.082zM29.507 35.716l1.75 1.018 5.728 10.884-.491.266L29.39 37.85l-.066-2.034.183-.1z" clip-rule="evenodd"/>
        <path fill="#CC5427" fill-rule="evenodd" d="M17.576 24.977l.293-.303 10.59 9.508-.338.408-10.545-9.614z" clip-rule="evenodd"/>
        <path fill="#444363" fill-rule="evenodd" d="M28.386 14.818h1.235L29.4 16.91h-.78l-.234-2.09zm2.574.097l.337.035-.3 1.236-.037-1.271zm2.071.31l.33.07-.427 1.198.097-1.268zm2.043.53l.322.104-.55 1.146.228-1.25zm1.981.74l.31.139-.669 1.082.36-1.22zm1.558.752l.957.552-1.566 1.806-.17-.097.78-2.261zm7.59 7.186l.552.957-2.26.781-.097-.169 1.804-1.57zm-.98-1.437l.198.274-1.12.603.922-.877zm-1.347-1.635l.226.252-1.05.717.824-.969zm-1.507-1.478l.252.227-.97.823.718-1.05zm-1.638-1.304l.274.198-.876.921.602-1.12zm8.319 14.119l.035.337-1.271-.039 1.236-.298zm-.346-2.064l.07.331-1.268.097 1.198-.428zm-.565-2.032l.104.323-1.25.227 1.146-.55zm-.773-1.976l.139.31-1.22.358 1.081-.668zm1.815 8.991v-1.235l-2.09.221v.78l2.09.234zm-22.14-20.702l-.336.035.3 1.236.037-1.271zm-2.07.31l-.33.07.427 1.198-.097-1.268zm-2.043.53l-.322.104.55 1.146-.227-1.25zm-1.982.74l-.309.139.669 1.082-.36-1.22zm-1.557.752l-.957.552 1.566 1.806.169-.097-.778-2.261zm-7.59 7.186l-.552.957 2.26.781.097-.169-1.804-1.57zm.98-1.437l-.198.274 1.12.603-.922-.877zm1.348-1.635l-.228.252 1.05.717-.822-.969zm1.506-1.478l-.252.227.97.823-.718-1.05zm1.638-1.304l-.275.198.877.921-.602-1.12zM8.952 32.698l-.035.337 1.271-.039-1.236-.298zm.347-2.064l-.07.331 1.268.097-1.198-.428zm.564-2.032l-.104.323 1.25.227-1.146-.55zm.773-1.976l-.138.31 1.22.358-1.082-.668zm-1.815 8.991v-1.235l2.091.221v.78l-2.09.234zM28.386 55.18h1.235l-.221-2.091h-.78l-.234 2.09zm2.574-.096l.337-.035-.3-1.236-.037 1.27zm2.071-.31l.33-.071-.427-1.197.097 1.267zm2.043-.53l.322-.105-.55-1.146.228 1.25zm1.981-.74l.31-.14-.669-1.081.36 1.22zm1.558-.752l.957-.553-1.566-1.805-.17.097.78 2.26zm7.59-7.186l.552-.957-2.26-.781-.097.169 1.804 1.569zm-.98 1.437l.198-.275-1.12-.603.922.878zm-1.347 1.634l.226-.252-1.05-.717.824.969zm-1.507 1.478l.252-.227-.97-.823.718 1.05zm-1.638 1.304l.274-.199-.876-.92.602 1.12zM49.05 37.3l.035-.337-1.271.038 1.236.3zm-.346 2.065l.07-.332-1.268-.096 1.198.428zm-.565 2.03l.104-.322-1.25-.227 1.146.55zm-.773 1.977l.139-.31-1.22-.358 1.081.668zM27.042 55.083l-.337-.035.3-1.236.037 1.27zm-2.071-.31l-.33-.071.427-1.197-.097 1.267zm-2.043-.53l-.322-.105.55-1.146-.227 1.25zm-1.982-.74l-.309-.14.669-1.081-.36 1.22zm-1.557-.752l-.957-.553 1.566-1.805.169.097-.778 2.26zm-7.59-7.186l-.552-.957 2.26-.781.097.169-1.804 1.569zm.98 1.437l-.198-.275 1.12-.603-.922.878zm1.348 1.634l-.228-.252 1.05-.717-.822.969zm1.506 1.478l-.252-.227.97-.823-.718 1.05zm1.638 1.304l-.275-.199.877-.92-.602 1.12zM8.952 37.3l-.035-.337 1.271.038-1.236.3zm.347 2.065l-.07-.332 1.268-.096-1.198.428zm.564 2.03l-.104-.322 1.25-.227-1.146.55zm.773 1.977l-.138-.31 1.22-.358-1.082.668z" clip-rule="evenodd"/>
        <path fill="#CC5427" fill-rule="evenodd" d="M26.93 17.605h.804v3.512h-.492v-3.02h-.313v-.492zm1.636 1.026c0-.335.169-.584.41-.757.274-.196.65-.287.955-.288.27 0 .607.034.888.183.312.165.548.452.565.945.023.726-.65 1.046-1.317 1.363-.354.169-.705.336-.886.546h2.062v.491h-2.698l.023-.267c.055-.626.67-.918 1.29-1.213.523-.249 1.05-.5 1.037-.905-.01-.28-.137-.438-.303-.526-.196-.104-.451-.128-.66-.127-.217 0-.48.063-.669.198-.12.086-.204.204-.204.357h-.493zm14.932 15.622c-.002-.295.137-.552.373-.734.215-.166.514-.267.852-.27h.038c.317.002.63.063.873.215.268.168.444.434.448.833v.018c-.001.303-.14.52-.336.673l-.02.015c.04.023.077.047.113.074.226.17.373.422.374.778v.012c-.002.436-.193.72-.477.895-.257.16-.586.218-.908.22H44.8c-.36-.002-.692-.106-.931-.319-.224-.199-.365-.485-.371-.862l.49-.008c.003.227.08.393.205.503.147.13.364.194.609.195h.025c.241 0 .48-.04.651-.146.146-.09.243-.241.245-.478v-.012c0-.182-.07-.306-.179-.387-.157-.118-.395-.165-.638-.166l-.245-.001v-.481l.219-.024c.177-.02.41-.074.564-.194.087-.068.148-.162.148-.29V34.3c-.002-.205-.089-.34-.22-.422-.157-.099-.38-.139-.614-.14h-.031c-.229.002-.423.066-.558.17-.115.088-.183.209-.182.344h-.49zM29.792 49.712c-.007-.19-.086-.317-.2-.399-.175-.124-.435-.166-.68-.166-.227 0-.471.072-.65.201-.132.097-.223.226-.228.379l-.008.247c-.004.098-.008.204-.01.312.058-.04.12-.077.185-.112.23-.12.502-.204.799-.205.351-.001.685.095.929.288.237.185.39.453.4.8v.01c.008.35-.118.647-.354.861-.225.205-.546.328-.94.34h-.016c-.384.009-.71-.067-.955-.213-.272-.161-.446-.403-.5-.707-.065-.376-.044-.95-.028-1.39l.009-.243c.009-.323.18-.58.43-.762.26-.19.613-.294.937-.294.331 0 .694.064.964.256.233.165.393.415.406.78l-.49.017zm-1.776 1.229c.006.119.016.228.033.322.027.157.12.284.265.37.169.1.405.152.695.146l.014-.001c.27-.008.483-.085.623-.212.129-.118.198-.286.195-.487v-.009c-.006-.186-.087-.33-.213-.427-.157-.123-.381-.185-.625-.184-.209 0-.406.062-.573.15-.18.094-.324.218-.413.332zM12.429 35.859c.006.19.085.317.2.399.175.124.435.166.68.166.228 0 .472-.071.65-.201.132-.097.224-.226.228-.38l.008-.247.01-.312c-.058.04-.12.077-.185.112-.23.121-.502.204-.8.205-.35.002-.684-.095-.928-.287-.237-.186-.39-.454-.4-.8v-.01c-.008-.35.118-.646.353-.86.225-.206.546-.328.94-.34l.017-.001c.384-.008.71.067.955.213.272.161.446.403.5.707.065.376.044.95.027 1.39l-.008.244c-.01.322-.18.58-.43.76-.26.191-.613.295-.937.295-.332 0-.695-.064-.964-.255-.233-.166-.393-.416-.405-.781l.489-.017zm1.776-1.228c-.006-.119-.016-.229-.032-.322-.028-.157-.12-.284-.265-.37-.17-.1-.406-.152-.696-.146h-.014c-.27.009-.482.086-.622.213-.13.118-.2.286-.195.486v.01c.006.186.087.328.212.427.156.122.382.185.626.184.208-.001.405-.062.572-.15.18-.095.325-.218.414-.332zM8.773 35.718v-1.44h2.268v1.44H8.773zm38.187-1.44h2.267v1.44H46.96v-1.44zM28.28 14.735h1.44V17h-1.44v-2.267zm1.44 38.187v2.268h-1.44V52.92h1.44z" clip-rule="evenodd"/>
        <path fill="#A2D7ED" fill-rule="evenodd" d="M29 13.16c12.062 0 21.84 9.778 21.84 21.84S41.062 56.84 29 56.84 7.16 47.06 7.16 35 16.94 13.16 29 13.16zm0 .948c-11.538 0-20.891 9.354-20.891 20.891 0 11.539 9.353 20.892 20.891 20.892 11.538 0 20.892-9.354 20.892-20.892 0-11.537-9.353-20.891-20.892-20.891z" clip-rule="evenodd"/>
        <path fill="#444363" fill-rule="evenodd" d="M29 34.687c.172 0 .312.14.312.312 0 .173-.14.313-.312.313-.173 0-.313-.14-.313-.313 0-.172.14-.312.313-.312zm0-.316c-.348 0-.63.281-.63.628 0 .348.282.63.63.63.347 0 .628-.282.628-.63.001-.347-.28-.628-.628-.628zm0-.51c-.63 0-1.14.51-1.14 1.138 0 .63.51 1.14 1.14 1.14.63 0 1.139-.51 1.139-1.14 0-.628-.51-1.139-1.14-1.139z" clip-rule="evenodd"/>
        <path fill="#444363" fill-rule="evenodd" d="M29 12c6.351 0 12.1 2.575 16.264 6.737C49.425 22.899 52 28.648 52 35c0 6.351-2.575 12.101-6.736 16.264C41.102 55.425 35.35 58 29 58c-6.351 0-12.102-2.575-16.264-6.736C8.575 47.102 6 41.35 6 35c0-6.35 2.575-12.101 6.736-16.263C16.9 14.574 22.65 12 29 12zm15.854 7.146C40.796 15.09 35.19 12.58 29 12.58c-6.191 0-11.796 2.51-15.854 6.566C9.09 23.204 6.58 28.81 6.58 35c0 6.191 2.509 11.797 6.566 15.854C17.204 54.91 22.81 57.42 29 57.42c6.191 0 11.796-2.51 15.854-6.567C48.91 46.797 51.42 41.19 51.42 35c0-6.191-2.509-11.796-6.566-15.854z" clip-rule="evenodd"/>
    </g>
    <defs>
        <linearGradient id="paint0_linear" x1="56.947" x2="63.599" y1="32.98" y2="171.354" gradientUnits="userSpaceOnUse">
            <stop stop-color="#FF6161"/>
            <stop offset="1" stop-color="#BF1D1D"/>
        </linearGradient>
        <linearGradient id="paint1_linear" x1="82.658" x2="89.31" y1="31.744" y2="170.118" gradientUnits="userSpaceOnUse">
            <stop stop-color="#FF6161"/>
            <stop offset="1" stop-color="#BF1D1D"/>
        </linearGradient>
        <linearGradient id="paint2_linear" x1="158.009" x2="164.66" y1="28.122" y2="166.496" gradientUnits="userSpaceOnUse">
            <stop stop-color="#FF6161"/>
            <stop offset="1" stop-color="#BF1D1D"/>
        </linearGradient>
        <linearGradient id="paint3_linear" x1="131.295" x2="137.947" y1="29.406" y2="167.78" gradientUnits="userSpaceOnUse">
            <stop stop-color="#FF6161"/>
            <stop offset="1" stop-color="#BF1D1D"/>
        </linearGradient>
        <linearGradient id="paint4_linear" x1="108.993" x2="109.113" y1="112.79" y2="157.112" gradientUnits="userSpaceOnUse">
            <stop stop-color="#FF6161"/>
            <stop offset="1" stop-color="#BF1D1D"/>
        </linearGradient>
        <linearGradient id="paint5_linear" x1="77.746" x2="77.866" y1="112.874" y2="157.197" gradientUnits="userSpaceOnUse">
            <stop stop-color="#FF6161"/>
            <stop offset="1" stop-color="#BF1D1D"/>
        </linearGradient>
        <linearGradient id="paint6_linear" x1="95.111" x2="95.231" y1="112.827" y2="157.15" gradientUnits="userSpaceOnUse">
            <stop stop-color="#FF6161"/>
            <stop offset="1" stop-color="#BF1D1D"/>
        </linearGradient>
        <linearGradient id="paint7_linear" x1="126.517" x2="126.636" y1="112.742" y2="157.065" gradientUnits="userSpaceOnUse">
            <stop stop-color="#FF6161"/>
            <stop offset="1" stop-color="#BF1D1D"/>
        </linearGradient>
        <linearGradient id="paint8_linear" x1="142.293" x2="142.412" y1="112.7" y2="157.022" gradientUnits="userSpaceOnUse">
            <stop stop-color="#FF6161"/>
            <stop offset="1" stop-color="#BF1D1D"/>
        </linearGradient>
        <linearGradient id="paint9_linear" x1="32.582" x2="-36.372" y1="75.668" y2="114.48" gradientUnits="userSpaceOnUse">
            <stop stop-color="#C3F1C1"/>
            <stop offset="1" stop-color="#72A86F"/>
        </linearGradient>
        <linearGradient id="paint10_linear" x1="31.666" x2="-35.178" y1="75.737" y2="112.632" gradientUnits="userSpaceOnUse">
            <stop stop-color="#C3F1C1"/>
            <stop offset="1" stop-color="#72A86F"/>
        </linearGradient>
        <linearGradient id="paint11_linear" x1="37.597" x2="32.676" y1="126.946" y2="143.611" gradientUnits="userSpaceOnUse">
            <stop stop-color="#C3F1C1"/>
            <stop offset="1" stop-color="#72A86F"/>
        </linearGradient>
        <linearGradient id="paint12_linear" x1="66.731" x2="21.296" y1="81.336" y2="101.935" gradientUnits="userSpaceOnUse">
            <stop stop-color="#C3F1C1"/>
            <stop offset="1" stop-color="#72A86F"/>
        </linearGradient>
        <linearGradient id="paint13_linear" x1="90.281" x2="61.979" y1="84.239" y2="93.94" gradientUnits="userSpaceOnUse">
            <stop stop-color="#C3F1C1"/>
            <stop offset="1" stop-color="#72A86F"/>
        </linearGradient>
        <linearGradient id="paint14_linear" x1="129.819" x2="101.521" y1="84.241" y2="93.94" gradientUnits="userSpaceOnUse">
            <stop stop-color="#C3F1C1"/>
            <stop offset="1" stop-color="#72A86F"/>
        </linearGradient>
        <linearGradient id="paint15_linear" x1="153.08" x2="107.655" y1="81.336" y2="101.924" gradientUnits="userSpaceOnUse">
            <stop stop-color="#C3F1C1"/>
            <stop offset="1" stop-color="#72A86F"/>
        </linearGradient>
        <linearGradient id="paint16_linear" x1="184.014" x2="125.149" y1="79.407" y2="107.793" gradientUnits="userSpaceOnUse">
            <stop stop-color="#C3F1C1"/>
            <stop offset="1" stop-color="#72A86F"/>
        </linearGradient>
        <filter id="filter0_d" width="54" height="58" x="6" y="12" color-interpolation-filters="sRGB" filterUnits="userSpaceOnUse">
            <feFlood flood-opacity="0" result="BackgroundImageFix"/>
            <feColorMatrix in="SourceAlpha" values="0 0 0 0 0 0 0 0 0 0 0 0 0 0 0 0 0 0 127 0"/>
            <feOffset dx="4" dy="8"/>
            <feGaussianBlur stdDeviation="2"/>
            <feColorMatrix values="0 0 0 0 0.319767 0 0 0 0 0.4875 0 0 0 0 0.310781 0 0 0 0.24 0"/>
            <feBlend in2="BackgroundImageFix" result="effect1_dropShadow"/>
            <feBlend in="SourceGraphic" in2="effect1_dropShadow" result="shape"/>
        </filter>
    </defs>
</svg>
