<svg xmlns="http://www.w3.org/2000/svg" width="20" height="20" fill="none" viewBox="0 0 20 20">
    <rect width="20" height="20" fill="#FF7171" rx="10"/>
    <path fill="#fff" fill-rule="evenodd" d="M10 6.267c3.19 0 5.687 3.367 5.792 3.51.1.137.1.321 0 .457-.105.143-2.602 3.511-5.792 3.511s-5.688-3.367-5.792-3.51c-.1-.137-.1-.321 0-.457C4.312 9.634 6.81 6.267 10 6.267zm-4.987 3.739c.602.73 2.637 2.966 4.987 2.966 2.355 0 4.385-2.234 4.987-2.966-.603-.73-2.638-2.966-4.987-2.966-2.355 0-4.386 2.234-4.987 2.966zm2.666 0c0-1.28 1.041-2.321 2.32-2.321 1.28 0 2.322 1.041 2.322 2.32 0 1.28-1.041 2.322-2.321 2.322-1.28 0-2.321-1.041-2.321-2.321zm.774 0c0 .853.694 1.547 1.547 1.547s1.547-.694 1.547-1.547S10.853 8.459 10 8.459s-1.547.694-1.547 1.547z" clip-rule="evenodd"/>
</svg>
