<svg id="Layer_1" data-name="Layer 1" xmlns="http://www.w3.org/2000/svg" viewBox="0 0 800 800"><defs><style>.cls-1{fill:#ea4b2d;}.cls-2{fill:#efe6d2;}</style></defs><rect class="cls-1" y="3.19" width="798.67" height="798.67"/><path class="cls-2" d="M586.49,382.22a42.18,42.18,0,1,1-42.18,42.17,42.22,42.22,0,0,1,42.18-42.17m0-27.29A69.47,69.47,0,1,0,656,424.39a69.46,69.46,0,0,0-69.47-69.46Z"/><path class="cls-2" d="M735,387.17v-27.3H696.53V326.3h-27.3V448a43.48,43.48,0,0,0,43.43,43.43h14.8V464.1h-14.8A16.15,16.15,0,0,1,696.53,448v-60.8Z"/><rect class="cls-2" x="200.32" y="361.11" width="27.3" height="129.05"/><path class="cls-2" d="M488.63,361.11C477.89,421,459.48,466.58,449.45,466.58S421,421,410.27,361.11H382.49c8.23,49.33,27.92,132.77,67,132.77s58.73-83.44,67-132.77Z"/><path class="cls-2" d="M348.88,361.11C338.14,421,319.74,466.58,309.7,466.58S281.26,421,270.52,361.11H242.75c8.23,49.33,27.92,132.77,66.95,132.77s58.73-83.44,67-132.77Z"/><circle class="cls-2" cx="213.96" cy="327.51" r="17.37"/><path class="cls-2" d="M63.67,326.3h61.82c36.73,0,59.57,20.83,59.57,52.41v.45c0,35.16-28.22,53.53-62.71,53.53H91.22v57.25H63.67Zm59.58,81.53c20.83,0,33.82-11.65,33.82-28v-.45c0-18.36-13.22-28-33.82-28h-32v56.44Z"/></svg>