<svg width="30" height="30" viewBox="0 0 30 30" fill="none" xmlns="http://www.w3.org/2000/svg">
<path d="M25.026 4.00128H20.9262C20.8975 3.99977 20.8677 3.99977 20.8386 4.00128C19.7359 4.08271 19.8209 5.72668 20.9262 5.69379H23.1067L17.7834 11.0157C16.9835 11.8155 18.1837 13.0156 18.9836 12.2155L24.3064 6.8888V9.07384C24.3319 10.1773 25.9748 10.1773 25.9993 9.07384V4.95505C25.9993 4.28687 25.7371 4.00138 25.0256 4.00138L25.026 4.00128ZM4.7638 4.00128C4.33023 4.04379 3.99981 4.40859 4 4.84425V25.1533C4.00189 25.6186 4.37916 25.9953 4.84485 25.9963H25.1568C25.6218 25.9944 25.9981 25.6181 26 25.1533V14.9773C25.9745 13.8738 24.3317 13.8738 24.3071 14.9773V24.3036H5.69459L5.69478 5.6935H15.0414C16.1451 5.66895 16.1451 4.02556 15.0414 4.00099H4.84504C4.81954 3.99967 4.79101 3.99967 4.76418 4.00099L4.7638 4.00128ZM8.23046 10.7663C7.10094 10.7663 7.10094 12.4603 8.23046 12.4603H12.4607C13.5904 12.4603 13.5904 10.7663 12.4607 10.7663H8.23046ZM8.1428 14.1528C6.98794 14.1872 7.07804 15.9304 8.23046 15.8453H18.3838C19.5377 15.8708 19.5377 14.1273 18.3838 14.1528H8.23046C8.20174 14.1513 8.1719 14.1513 8.1428 14.1528ZM8.1428 17.5377C7.01381 17.5966 7.1015 19.2906 8.23046 19.2317H21.7697C22.8987 19.2311 22.8987 17.5369 21.7697 17.5377H8.23046C8.20174 17.5361 8.1719 17.5361 8.1428 17.5377Z" fill="#231E1E"/>
</svg>
