<svg width="105" height="106" viewBox="0 0 105 106" fill="none" xmlns="http://www.w3.org/2000/svg">
<rect x="2.5" y="2.42285" width="100" height="101.155" rx="50" fill="#231E1E"/>
<path d="M52.502 56.9967L48.4224 59.3304L45.2411 57.5102V33.3312L35.6459 38.8235L31.5687 41.1572V36.4898L45.2411 28.6638L45.6633 28.4229L49.3208 30.5156V55.1765L52.502 56.9967Z" fill="white"/>
<path d="M35.6459 38.8235L45.2411 33.3312L49.3208 30.5156L45.6633 28.4229L45.2411 28.6638L31.5687 36.4898V41.1572L35.6459 38.8235Z" fill="white"/>
<path d="M45.2411 33.3312V57.5102L49.3208 55.1765V30.5156L45.2411 33.3312Z" fill="white"/>
<path d="M73.4328 36.4898V41.1572L69.3556 38.8235L59.7579 33.3312V57.5102L56.5791 59.3304L52.664 61.5717L52.502 61.6641L45.6633 65.5772L31.5687 57.5102V36.4931L35.6459 38.8235L35.6459 55.1765L45.6633 60.9098L48.4224 59.3304L52.502 56.9967L55.6807 55.1765V30.5156L59.3382 28.4229L73.4328 36.4898Z" fill="white"/>
<path d="M56.5791 59.3304L59.7579 57.5102L55.6807 55.1765L52.502 56.9967L48.4224 59.3304L45.6633 60.9098V65.5772L52.502 61.6641L52.664 61.5717L56.5791 59.3304Z" fill="white"/>
<path d="M31.5687 36.4931V57.5102L35.6459 55.1765L35.6459 38.8235L31.5687 36.4931Z" fill="white"/>
<path d="M31.5687 57.5102L45.6633 65.5772V60.9098L35.6459 55.1765L31.5687 57.5102Z" fill="white"/>
<path d="M59.7579 57.5102V33.3312L55.6807 30.5156V55.1765L59.7579 57.5102Z" fill="white"/>
<path d="M73.4315 36.5029V57.5103L59.3369 65.5772L52.502 61.6641L52.664 61.5717L56.5791 59.3304L59.3369 60.9098L69.3543 55.1766L69.3556 38.8235L73.4315 36.5029Z" fill="white"/>
<path d="M52.502 61.6641L59.3369 65.5772V60.9098L56.5791 59.3304L52.664 61.5717L52.502 61.6641Z" fill="white"/>
<path d="M59.3369 65.5772L73.4315 57.5103L69.3543 55.1766L59.3369 60.9098V65.5772Z" fill="white"/>
<path d="M35.9316 73.8249C35.9316 74.3555 35.8416 74.8491 35.6617 75.3058C35.4849 75.7624 35.2346 76.1604 34.9106 76.4995C34.5867 76.8353 34.1956 77.0989 33.7375 77.2903C33.2826 77.4817 32.777 77.5774 32.2207 77.5774C31.6644 77.5774 31.1572 77.4817 30.6991 77.2903C30.2409 77.0989 29.8482 76.8353 29.521 76.4995C29.197 76.1604 28.945 75.7624 28.7651 75.3058C28.5884 74.8491 28.5 74.3555 28.5 73.8249C28.5 73.2943 28.5884 72.8007 28.7651 72.344C28.945 71.8874 29.197 71.4911 29.521 71.1553C29.8482 70.8195 30.2409 70.5559 30.6991 70.3645C31.1572 70.1731 31.6644 70.0774 32.2207 70.0774C32.777 70.0774 33.2826 70.1748 33.7375 70.3696C34.1956 70.561 34.5867 70.8246 34.9106 71.1604C35.2346 71.4962 35.4849 71.8924 35.6617 72.3491C35.8416 72.8058 35.9316 73.2977 35.9316 73.8249ZM34.2332 73.8249C34.2332 73.4622 34.1874 73.1365 34.0958 72.8477C34.0042 72.5556 33.8716 72.3088 33.6982 72.1073C33.528 71.9058 33.3186 71.7514 33.0699 71.6439C32.8212 71.5364 32.5381 71.4827 32.2207 71.4827C31.9 71.4827 31.6137 71.5364 31.3617 71.6439C31.113 71.7514 30.9019 71.9058 30.7285 72.1073C30.5583 72.3088 30.4274 72.5556 30.3358 72.8477C30.2442 73.1365 30.1984 73.4622 30.1984 73.8249C30.1984 74.1909 30.2442 74.52 30.3358 74.8121C30.4274 75.1009 30.5583 75.3461 30.7285 75.5475C30.9019 75.749 31.113 75.9035 31.3617 76.0109C31.6137 76.115 31.9 76.1671 32.2207 76.1671C32.5381 76.1671 32.8212 76.115 33.0699 76.0109C33.3186 75.9035 33.528 75.749 33.6982 75.5475C33.8716 75.3461 34.0042 75.1009 34.0958 74.8121C34.1874 74.52 34.2332 74.1909 34.2332 73.8249Z" fill="white"/>
<path d="M42.8228 71.6489C42.7738 71.7295 42.7214 71.79 42.6658 71.8303C42.6134 71.8706 42.5447 71.8907 42.4596 71.8907C42.3843 71.8907 42.3025 71.8672 42.2142 71.8202C42.1291 71.7698 42.0309 71.7144 41.9197 71.654C41.8117 71.5935 41.6873 71.5398 41.5466 71.4928C41.4059 71.4424 41.2455 71.4172 41.0656 71.4172C40.7547 71.4172 40.5223 71.4861 40.3685 71.6238C40.218 71.7581 40.1427 71.9411 40.1427 72.1728C40.1427 72.3205 40.1886 72.4431 40.2802 72.5405C40.3718 72.6379 40.4913 72.7218 40.6385 72.7923C40.789 72.8628 40.9592 72.9283 41.149 72.9888C41.3421 73.0459 41.5384 73.1113 41.738 73.1852C41.9377 73.2557 42.1324 73.3397 42.3222 73.4371C42.5152 73.5344 42.6854 73.6587 42.8327 73.8098C42.9832 73.9609 43.1043 74.1456 43.1959 74.3639C43.2875 74.5788 43.3333 74.839 43.3333 75.1446C43.3333 75.4837 43.2761 75.8011 43.1615 76.0966C43.047 76.3921 42.8801 76.6506 42.6609 76.8722C42.4449 77.0905 42.1765 77.2634 41.8558 77.3911C41.5384 77.5153 41.1768 77.5774 40.771 77.5774C40.5485 77.5774 40.3211 77.5539 40.0888 77.5069C39.8597 77.4599 39.6372 77.3944 39.4212 77.3105C39.2052 77.2232 39.0023 77.1207 38.8125 77.0032C38.6227 76.8857 38.4575 76.7547 38.3167 76.6103L38.8076 75.8145C38.8469 75.7574 38.8976 75.7104 38.9598 75.6735C39.0252 75.6332 39.0956 75.613 39.1708 75.613C39.269 75.613 39.3672 75.6449 39.4654 75.7087C39.5668 75.7725 39.6797 75.843 39.8041 75.9203C39.9317 75.9975 40.0773 76.068 40.2409 76.1318C40.4045 76.1956 40.5976 76.2275 40.8201 76.2275C41.1212 76.2275 41.3552 76.1604 41.5221 76.026C41.689 75.8884 41.7724 75.6718 41.7724 75.3763C41.7724 75.205 41.7266 75.0657 41.635 74.9582C41.5433 74.8508 41.4223 74.7618 41.2717 74.6913C41.1245 74.6207 40.9559 74.5586 40.7661 74.5049C40.5763 74.4512 40.3816 74.3924 40.182 74.3286C39.9824 74.2614 39.7877 74.1808 39.5979 74.0868C39.4081 73.9894 39.2379 73.8635 39.0874 73.7091C38.9401 73.5512 38.8207 73.3565 38.7291 73.1248C38.6374 72.8897 38.5916 72.6009 38.5916 72.2584C38.5916 71.9831 38.6456 71.7144 38.7536 71.4525C38.8616 71.1906 39.0203 70.9572 39.2297 70.7524C39.4392 70.5475 39.6961 70.3847 40.0004 70.2638C40.3047 70.1395 40.6532 70.0774 41.0459 70.0774C41.2652 70.0774 41.4779 70.0959 41.684 70.1328C41.8935 70.1664 42.0915 70.2185 42.278 70.289C42.4645 70.3561 42.638 70.4384 42.7983 70.5358C42.9619 70.6298 43.1075 70.7373 43.2352 70.8581L42.8228 71.6489Z" fill="white"/>
<path d="M48.7938 73.7594C49.2257 73.7594 49.5366 73.6536 49.7264 73.4421C49.9162 73.2305 50.0111 72.935 50.0111 72.5556C50.0111 72.3877 49.9866 72.2349 49.9375 72.0972C49.8884 71.9596 49.8131 71.842 49.7117 71.7446C49.6135 71.6439 49.4875 71.5667 49.3337 71.5129C49.1832 71.4592 49.0032 71.4324 48.7938 71.4324H47.9299V73.7594H48.7938ZM48.7938 70.158C49.2977 70.158 49.7297 70.2201 50.0896 70.3444C50.4529 70.4653 50.7507 70.6332 50.983 70.8481C51.2186 71.063 51.3921 71.3165 51.5033 71.6086C51.6146 71.9008 51.6702 72.2164 51.6702 72.5556C51.6702 72.9216 51.613 73.2574 51.4984 73.563C51.3839 73.8686 51.2088 74.1305 50.9732 74.3487C50.7376 74.567 50.4382 74.7383 50.0749 74.8625C49.715 74.9834 49.2879 75.0438 48.7938 75.0438H47.9299V77.4968H46.2708V70.158H48.7938Z" fill="white"/>
<path d="M56.8021 73.6083C57.0279 73.6083 57.2193 73.5798 57.3764 73.5227C57.5367 73.4622 57.6676 73.38 57.7691 73.2759C57.8705 73.1718 57.9442 73.0509 57.99 72.9132C58.0358 72.7722 58.0587 72.6211 58.0587 72.4599C58.0587 72.1375 57.9556 71.8857 57.7494 71.7043C57.5466 71.523 57.2308 71.4324 56.8021 71.4324H56.1345V73.6083H56.8021ZM60.3265 77.4968H58.8244C58.5463 77.4968 58.3467 77.3894 58.2256 77.1745L57.0377 75.0438C56.9821 74.9532 56.9199 74.8877 56.8512 74.8474C56.7825 74.8037 56.6843 74.7819 56.5567 74.7819H56.1345V77.4968H54.4754V70.158H56.8021C57.3191 70.158 57.7593 70.2134 58.1225 70.3242C58.489 70.4317 58.7868 70.5828 59.0159 70.7776C59.2482 70.9723 59.4167 71.2023 59.5215 71.4676C59.6262 71.7329 59.6785 72.0217 59.6785 72.334C59.6785 72.5724 59.6474 72.7974 59.5853 73.0089C59.5231 73.2205 59.4315 73.4169 59.3104 73.5982C59.1893 73.7762 59.0388 73.9357 58.8588 74.0767C58.6821 74.2178 58.4776 74.3336 58.2452 74.4243C58.3532 74.4814 58.4547 74.5536 58.5496 74.6409C58.6444 74.7248 58.7295 74.8256 58.8048 74.9431L60.3265 77.4968Z" fill="white"/>
<path d="M64.5599 71.4676V73.1802H66.808V74.4394H64.5599V76.1872H67.4952V77.4968H62.891V70.158H67.4952V71.4676H64.5599Z" fill="white"/>
<path d="M73.9083 74.7064V77.4968H72.2492V74.7064L69.6574 70.158H71.1202C71.2642 70.158 71.3771 70.1933 71.4589 70.2638C71.544 70.3309 71.6143 70.4183 71.6699 70.5257L72.6811 72.6614C72.7662 72.8293 72.8431 72.9871 72.9118 73.1348C72.9805 73.2792 73.0411 73.4219 73.0934 73.563C73.1425 73.4186 73.1981 73.2742 73.2603 73.1298C73.3258 72.9821 73.401 72.8259 73.4861 72.6614L74.4875 70.5257C74.5104 70.4821 74.5382 70.4384 74.5709 70.3947C74.6036 70.3511 74.6413 70.3125 74.6838 70.2789C74.7296 70.242 74.7804 70.2134 74.836 70.1933C74.8949 70.1698 74.9587 70.158 75.0274 70.158H76.5L73.9083 74.7064Z" fill="white"/>
<rect x="2.5" y="2.42285" width="100" height="101.155" rx="50" stroke="white" stroke-width="4"/>
</svg>
