<svg width="28" height="28" fill="none" xmlns="http://www.w3.org/2000/svg">
    <path fill-rule="evenodd" clip-rule="evenodd" d="M6.573 4.706a2.684 2.684 0 0 1 1.873-.786h10.549a2.684 2.684 0 0 1 2.659 2.659V21.42a2.684 2.684 0 0 1-2.659 2.659H8.445a2.684 2.684 0 0 1-2.658-2.659V6.58a2.684 2.684 0 0 1 .786-1.873zm12.426.392H8.441a1.506 1.506 0 0 0-1.476 1.476v14.851a1.506 1.506 0 0 0 1.476 1.477h10.558a1.506 1.506 0 0 0 1.477-1.477V6.575a1.506 1.506 0 0 0-1.477-1.476zm-5.92 2.908a1.675 1.675 0 1 1 1.282 3.095 1.675 1.675 0 0 1-1.282-3.095zm-.753 4.312c.327-.134.677-.201 1.03-.198h.728a2.655 2.655 0 0 1 2.682 2.682v.146l.001.006h-6.094l.001-.006v-.146a2.66 2.66 0 0 1 1.652-2.484zm-2.614 6.327a.564.564 0 0 1 .226-.039H17.761a.564.564 0 0 1 .583.583v.007a.589.589 0 0 1-.59.589h-7.81a.59.59 0 0 1-.588-.59v-.006a.563.563 0 0 1 .356-.544z" fill="#14B1BD"/>
</svg>
