<svg xmlns="http://www.w3.org/2000/svg" width="106" height="106" fill="none" viewBox="0 0 106 106">
    <rect width="106" height="106" fill="#F3F3F3" rx="53"/>
    <path fill="#F44336" d="M68.17 29.915h-.647l-.773.113c-1.453.53-2.475 1.934-2.475 3.532v6.157l.113.315h7.355c.188 0 .34-.152.34-.34v-5.864c0-2.161-1.752-3.913-3.913-3.913z"/>
    <path fill="#E6FFE4" d="M54.565 58.94c-3.406-4.075-2.864-10.142 1.212-13.548 2.483-2.075 5.703-2.682 8.611-1.921v-9.91c0-1.84 1.363-3.362 3.135-3.61v-.036H34.671c-2.161 0-3.913 1.752-3.913 3.913v36.415h24.96c.187 0 .34.152.34.34v1.59c0 2.16 1.752 3.912 3.913 3.912h.504c2.161 0 3.913-1.752 3.913-3.913V62.077c-3.492.914-7.355-.183-9.823-3.136z"/>
    <path fill="#DBE3DB" d="M35.492 70.243V33.828c0-2.161 1.752-3.913 3.913-3.913h-4.734c-2.161 0-3.913 1.752-3.913 3.913v36.415h4.734z"/>
    <path fill="#83C4E8" d="M72.644 63.24l-3.456-4.136c-.326.371-.683.723-1.074 1.049-.39.327-.8.616-1.223.87l3.456 4.135 2.297-1.919z"/>
    <path fill="#478CB1" d="M80.895 73.038l-2.368 1.98c-.302.253-.752.212-1.004-.09l-7.302-8.736c-.252-.302-.212-.751.09-1.003l2.37-1.98c.301-.253.75-.213 1.003.09l7.301 8.735c.253.302.212.752-.09 1.004z"/>
    <path fill="#266C8F" d="M72.544 66.192c-.253-.302-.213-.751.09-1.003l1.548-1.295-.498-.596c-.252-.302-.702-.342-1.004-.09l-2.369 1.98c-.302.253-.342.702-.09 1.004l7.302 8.736c.252.302.701.343 1.003.09l.82-.686-6.802-8.14z"/>
    <path fill="#14B1BD" d="M61.946 62.391c5.312 0 9.619-4.306 9.619-9.619 0-5.312-4.307-9.619-9.619-9.619-5.312 0-9.619 4.307-9.619 9.62 0 5.312 4.307 9.618 9.619 9.618z"/>
    <path fill="#EAF6FF" d="M61.946 59.228c3.566 0 6.456-2.89 6.456-6.456 0-3.565-2.89-6.456-6.456-6.456-3.566 0-6.456 2.89-6.456 6.456 0 3.566 2.89 6.456 6.456 6.456z"/>
    <path fill="#D8ECFE" d="M60.507 56.913c-2.286-2.736-1.922-6.808.814-9.094.72-.602 1.534-1.019 2.383-1.259-1.983-.559-4.198-.162-5.898 1.259-2.736 2.286-3.1 6.358-.814 9.093 1.685 2.016 4.337 2.742 6.711 2.072-1.208-.34-2.33-1.036-3.196-2.072z"/>
    <path fill="#F44336" d="M56.058 72.172v-1.59c0-.187-.153-.34-.34-.34H25.189c-.187 0-.34.153-.34.34v1.59c0 2.161 1.753 3.913 3.914 3.913H59.97c-2.161 0-3.913-1.752-3.913-3.913z"/>
    <path fill="#B3DAFE" d="M29.55 72.172v-1.59c0-.187.153-.34.34-.34h-4.7c-.188 0-.34.153-.34.34v1.59c0 2.161 1.752 3.913 3.913 3.913h4.7c-2.16 0-3.912-1.752-3.912-3.913z"/>
    <path fill="#000" d="M36.036 43.856c0 .47.38.85.85.85h14.868c.47 0 .85-.38.85-.85s-.38-.85-.85-.85H36.885c-.469 0-.85.38-.85.85zM48.695 47.4h-11.81c-.469 0-.85.38-.85.85s.381.85.85.85h11.81c.47 0 .85-.38.85-.85s-.38-.85-.85-.85zM48.695 51.794h-11.81c-.469 0-.85.38-.85.85 0 .469.381.85.85.85h11.81c.47 0 .85-.381.85-.85 0-.47-.38-.85-.85-.85zM49.545 57.038c0-.47-.38-.85-.85-.85h-11.81c-.469 0-.85.38-.85.85 0 .469.381.85.85.85h11.81c.47 0 .85-.381.85-.85zM51.754 60.582h-7.93c-.469 0-.85.38-.85.85 0 .469.381.849.85.849h7.93c.47 0 .85-.38.85-.85 0-.469-.38-.85-.85-.85zM36.885 60.582c-.469 0-.85.38-.85.85 0 .469.381.849.85.849h4.107c.47 0 .85-.38.85-.85 0-.469-.38-.85-.85-.85h-4.107zM36.885 66.675h20.948c.47 0 .85-.38.85-.85s-.38-.85-.85-.85H36.885c-.469 0-.85.38-.85.85s.381.85.85.85zM57.833 40.301c.47 0 .85-.38.85-.85 0-.468-.38-.849-.85-.849H46.43c-.47 0-.85.38-.85.85 0 .469.38.85.85.85h11.403z"/>
    <path fill="#000" d="M81.637 71.49l-7.301-8.736c-.268-.32-.644-.517-1.06-.555-.129-.011-.257-.005-.382.015l-2.605-3.117c1.18-1.55 1.906-3.403 2.084-5.392.25-2.785-.601-5.5-2.394-7.646-1.296-1.55-2.95-2.629-4.741-3.22v-1.957h6.505c.656 0 1.19-.534 1.19-1.19v-5.864c0-2.626-2.137-4.763-4.763-4.763H44.05c-.468 0-.849.38-.849.85 0 .469.38.85.85.85h20.47c-.616.773-.982 1.75-.982 2.795v8.873c-2.87-.44-5.908.303-8.306 2.307-2.146 1.793-3.465 4.314-3.714 7.1-.249 2.785.601 5.5 2.395 7.646 1.793 2.145 4.314 3.464 7.1 3.713.317.029.634.043.95.043.531 0 1.057-.042 1.575-.121v2.227c0 .469.38.85.85.85.468 0 .849-.381.849-.85v-2.634c.497-.165.983-.367 1.452-.607l2.605 3.116c-.174.502-.09 1.079.274 1.514l7.302 8.737c.308.369.753.56 1.2.56.353 0 .709-.12 1-.364l2.37-1.98c.66-.552.748-1.54.196-2.2zm-16.4-37.93c0-1.386 1.034-2.576 2.404-2.768h.001c.101-.014.202-.028.304-.028h.224c1.692 0 3.064 1.372 3.064 3.064v5.355h-5.996V33.56zm-4.072 27.947c-2.333-.209-4.446-1.314-5.948-3.111-1.502-1.797-2.214-4.072-2.005-6.405.208-2.333 1.313-4.445 3.11-5.947 1.638-1.37 3.633-2.037 5.617-2.037 2.51 0 5.004 1.07 6.736 3.142 1.502 1.797 2.214 4.072 2.005 6.405-.208 2.333-1.313 4.445-3.11 5.947-1.797 1.502-4.072 2.215-6.405 2.006zm7.494-.702c.167-.14.326-.284.483-.432l2.305 2.759-.992.83-2.306-2.76c.173-.127.344-.258.51-.397zm9.428 13.473l-7.126-8.525 2.159-1.804 7.126 8.525-2.16 1.804z"/>
    <path fill="#000" d="M68.339 54.006c-.446-.148-.927.093-1.074.539-.328.986-.924 1.86-1.724 2.53-1.149.96-2.603 1.415-4.095 1.281-1.491-.133-2.841-.84-3.802-1.988-.96-1.15-1.416-2.604-1.282-4.095.133-1.492.84-2.842 1.989-3.802 2.372-1.983 5.914-1.666 7.897.706.477.57.83 1.218 1.05 1.924.14.448.616.697 1.064.558.448-.14.698-.616.558-1.064-.287-.92-.747-1.764-1.368-2.508-2.584-3.09-7.2-3.503-10.291-.92s-3.504 7.2-.92 10.29c1.25 1.498 3.01 2.418 4.954 2.592.222.02.443.03.664.03 1.707 0 3.346-.593 4.672-1.701 1.043-.871 1.82-2.012 2.246-3.298.148-.445-.093-.926-.538-1.074z"/>
    <path fill="#000" d="M64.388 68.463c-.469 0-.85.38-.85.85v2.86c0 1.688-1.374 3.063-3.063 3.063h-.504c-1.69 0-3.064-1.375-3.064-3.064v-1.59c0-.655-.533-1.189-1.19-1.189h-24.11V33.828c0-1.69 1.375-3.064 3.064-3.064h5.415c.47 0 .85-.38.85-.85 0-.469-.38-.849-.85-.849H34.67c-2.626 0-4.763 2.137-4.763 4.763v35.565H25.19c-.655 0-1.189.534-1.189 1.19v1.59c0 2.626 2.137 4.762 4.763 4.762h31.712c2.626 0 4.763-2.137 4.763-4.763v-2.86c0-.469-.38-.85-.85-.85zm-35.625 6.773c-1.69 0-3.064-1.375-3.064-3.064v-1.08h29.509v1.08c0 1.166.42 2.235 1.119 3.064H28.763z"/>
    <path fill="#000" d="M36.857 40.313c.47 0 .85-.38.85-.85s-.38-.85-.85-.85c-.469 0-.85.38-.85.85s.381.85.85.85zM39.916 40.313c.47 0 .85-.38.85-.85s-.38-.85-.85-.85-.85.38-.85.85.38.85.85.85zM42.975 40.313c.469 0 .85-.38.85-.85s-.381-.85-.85-.85c-.47 0-.85.38-.85.85s.38.85.85.85z"/>
</svg>
