<svg width="44" height="44" viewBox="0 0 44 44" fill="none" xmlns="http://www.w3.org/2000/svg">
<path d="M23.1209 0.676867L28.9838 13.1312C29.1562 13.4922 29.5011 13.6727 29.846 13.8532L42.9514 15.8387C43.986 16.0192 44.3309 17.2827 43.6411 18.0047L34.157 27.7515C33.8121 28.1125 33.8121 28.4735 33.8121 28.8345L36.0538 42.5524C36.2263 43.6354 35.1916 44.3574 34.3294 43.8159L22.6035 37.3179C22.2587 37.1374 21.9138 37.1374 21.5689 37.3179L9.84302 43.8159C8.98082 44.3574 7.94619 43.4549 8.11863 42.5524L10.3603 28.8345C10.3603 28.4735 10.3603 27.932 10.0155 27.7515L0.358853 17.8242C-0.330905 17.1022 0.0139739 15.8387 1.04861 15.8387L14.154 13.8532C14.4989 13.8532 14.8438 13.4922 15.0162 13.1312L20.8791 0.676867C21.3965 -0.225622 22.6035 -0.225622 23.1209 0.676867Z" fill="#FFC001"/>
<path d="M20 19.1938V19.1794C20 18.0392 19.1364 17 17.8333 17C16.803 17 16.2121 17.7072 16 18.3711C15.803 17.7072 15.197 17 14.1667 17C12.8636 17 12 18.0392 12 19.1794V19.1938C12 19.4392 12 21.9505 15.9848 24C20 21.9505 20 19.4392 20 19.1938Z" fill="#E62728"/>
<path d="M32 19.1938V19.1794C32 18.0392 31.1364 17 29.8333 17C28.803 17 28.2121 17.7072 28 18.3711C27.803 17.7072 27.197 17 26.1667 17C24.8636 17 24 18.0392 24 19.1794V19.1938C24 19.4392 24 21.9505 27.9848 24C32 21.9505 32 19.4392 32 19.1938Z" fill="#E62728"/>
<path d="M15 28.3798C15 28.2296 15.3125 27.9824 15.5 28.0012L28.5 28.0039C28.6875 27.9664 29 28.332 29 28.501C28.9792 29.9279 28.1667 31.4112 26.8125 32.4438C25.5208 33.4577 23.75 34.0397 22 34.0022C20.2708 34.0022 18.5417 33.4389 17.2292 32.4438C16.5625 31.9369 16.0208 31.3173 15.625 30.6602C15.2292 29.9467 15 29.0933 15 28.3798Z" fill="#333333"/>
<mask id="mask0" mask-type="alpha" maskUnits="userSpaceOnUse" x="15" y="28" width="14" height="7">
<path d="M15 28.3798C15 28.2296 15.3125 27.9824 15.5 28.0012L28.5 28.0039C28.6875 27.9664 29 28.332 29 28.501C28.9792 29.9279 28.1667 31.4112 26.8125 32.4438C25.5208 33.4577 23.75 34.0397 22 34.0022C20.2708 34.0022 18.5417 33.4389 17.2292 32.4438C16.5625 31.9369 16.0208 31.3173 15.625 30.6602C15.2292 29.9467 15 29.0933 15 28.3798Z" fill="#333333"/>
</mask>
<g mask="url(#mask0)">
<path d="M14 31.7392C16.1138 33.7609 18.9756 35 22.1301 35C25.1545 35 27.8862 33.8587 30 32.0001L29.9024 31.7392C21.9675 27.8588 14.0976 31.674 14 31.7392Z" fill="#F06669"/>
</g>
</svg>
