<svg width="44" height="44" viewBox="0 0 44 44" fill="none" xmlns="http://www.w3.org/2000/svg">
<path d="M23.1209 0.676867L28.9838 13.1312C29.1562 13.4922 29.5011 13.6727 29.846 13.8532L42.9514 15.8387C43.986 16.0192 44.3309 17.2827 43.6411 18.0047L34.157 27.7515C33.8121 28.1125 33.8121 28.4735 33.8121 28.8345L36.0538 42.5524C36.2263 43.6354 35.1916 44.3574 34.3294 43.8159L22.6035 37.3179C22.2587 37.1374 21.9138 37.1374 21.5689 37.3179L9.84302 43.8159C8.98082 44.3574 7.94619 43.4549 8.11863 42.5524L10.3603 28.8345C10.3603 28.4735 10.3603 27.932 10.0155 27.7515L0.358853 17.8242C-0.330905 17.1022 0.0139739 15.8387 1.04861 15.8387L14.154 13.8532C14.4989 13.8532 14.8438 13.4922 15.0162 13.1312L20.8791 0.676867C21.3965 -0.225622 22.6035 -0.225622 23.1209 0.676867Z" fill="#FFC001"/>
<path d="M27.8727 33C28.4723 33 28.9425 32.4717 28.7701 31.8975C27.9203 29.0664 25.2119 27 22 27C18.7862 27 16.0612 29.0689 15.2232 31.9027C15.0538 32.4755 15.5236 33 16.1209 33H27.8727Z" fill="#333333"/>
<mask id="mask0" mask-type="alpha" maskUnits="userSpaceOnUse" x="15" y="27" width="14" height="6">
<path d="M27.8727 33C28.4723 33 28.9425 32.4717 28.7701 31.8975C27.9203 29.0664 25.2119 27 22 27C18.7862 27 16.0612 29.0689 15.2232 31.9027C15.0538 32.4755 15.5236 33 16.1209 33H27.8727Z" fill="#333333"/>
</mask>
<g mask="url(#mask0)">
<path d="M14.7953 33C14.5874 33 14.5169 32.737 14.7042 32.6468C17.3536 31.3715 26.729 27.3547 29.8418 32.7091C29.9168 32.8381 29.8233 33 29.6741 33H14.7953Z" fill="#F06669"/>
</g>
<path d="M14.7294 24C14.5505 24 14.3879 23.9009 14.2578 23.7226C14.0626 23.4057 14.1114 22.9698 14.3554 22.7122L16.3555 20.8103L14.2903 19.3245C14.0139 19.1263 13.9163 18.6905 14.0789 18.3537C14.2415 18.0169 14.5993 17.898 14.8757 18.0961L17.7052 20.1169C17.8679 20.2358 17.9817 20.4537 17.998 20.6915C18.0142 20.9292 17.9329 21.1471 17.7703 21.3056L15.0871 23.8415C14.9733 23.9604 14.8432 24 14.7294 24Z" fill="#333333"/>
<path d="M29.2839 24C29.1533 24 29.0227 23.9604 28.9247 23.8415L26.2304 21.3056C26.0834 21.1669 25.9854 20.9292 26.0018 20.6915C26.0181 20.4537 26.1161 20.2358 26.2957 20.1169L29.1206 18.0961C29.3982 17.898 29.7575 18.0169 29.9208 18.3537C30.0841 18.6905 29.9861 19.1263 29.7085 19.3245L27.6347 20.8103L29.6432 22.7122C29.9044 22.95 29.9534 23.4057 29.7411 23.7226C29.6432 23.9009 29.4635 24 29.2839 24Z" fill="#333333"/>
</svg>
