<svg width="44" height="44" viewBox="0 0 44 44" fill="none" xmlns="http://www.w3.org/2000/svg">
<path d="M28.5314 13.3442L28.5326 13.3467C28.7781 13.8605 29.2567 14.1099 29.5743 14.2754C29.5879 14.2825 29.6012 14.2894 29.6141 14.2962L29.6883 14.335L29.7711 14.3476L42.8703 16.3321C43.4727 16.441 43.716 17.2006 43.2808 17.658C43.2804 17.6584 43.28 17.6588 43.2796 17.6593L33.7986 27.4028L33.7954 27.4062C33.3117 27.9126 33.3119 28.4488 33.3121 28.8138L33.3121 28.8345V28.8751L33.3186 28.9152L35.56 42.631C35.5601 42.6311 35.5601 42.6313 35.5601 42.6314C35.6174 42.9919 35.4742 43.2531 35.2876 43.3875C35.1027 43.5205 34.849 43.5517 34.5953 43.3924L34.5837 43.3852L34.5718 43.3785L22.8459 36.8806L22.846 36.8805L22.8354 36.8749C22.3453 36.6184 21.8272 36.6184 21.3371 36.8749L21.337 36.8748L21.3265 36.8806L9.60067 43.3785L9.58869 43.3852L9.5771 43.3924C9.35921 43.5293 9.11495 43.4998 8.90158 43.3323C8.67628 43.1555 8.56474 42.8817 8.60974 42.6462L8.60992 42.6462L8.61208 42.633L10.8538 28.9152L10.8603 28.8751V28.8345L10.8603 28.8185C10.8604 28.6465 10.8605 28.3766 10.8063 28.1215C10.7559 27.884 10.637 27.5567 10.3279 27.3557L0.720384 17.4788C0.719905 17.4783 0.719427 17.4778 0.718949 17.4773C0.506987 17.2543 0.457435 16.9513 0.533509 16.7124C0.604209 16.4904 0.772507 16.3387 1.04861 16.3387H1.08627L1.12351 16.333L14.198 14.3523C14.5229 14.3382 14.7939 14.1701 14.9837 13.9998C15.1887 13.8158 15.3559 13.5801 15.4674 13.3467L15.4686 13.3442L21.3221 0.909865C21.6485 0.363378 22.3515 0.363378 22.6779 0.909865L28.5314 13.3442Z" stroke="#999999"/>
</svg>
