<svg width="57" height="56" viewBox="0 0 57 56" fill="none" xmlns="http://www.w3.org/2000/svg">
<path d="M28.0922 40.8945L22.8299 43.9046L18.7266 41.5567V10.3687L6.34988 17.4532L1.09082 20.4634V14.4431L6.34988 11.4328L18.7266 4.34835L19.2711 4.0376L23.9888 6.73705V38.5466L28.0922 40.8945Z" fill="#14B1BD"/>
<path d="M6.34988 17.4532L18.7266 10.3687L23.9888 6.73705L19.2711 4.0376L18.7266 4.34835L6.34988 11.4328L1.09082 14.4431V20.4634L6.34988 17.4532Z" fill="#14B1BD"/>
<path d="M18.7261 10.3688V41.5567L23.9883 38.5465V6.73706L18.7261 10.3688Z" fill="#14B1BD"/>
<path d="M55.0903 14.4431V20.4634L49.8313 17.4532L37.4515 10.3687V41.5567L33.3512 43.9046L28.3011 46.7956L28.0922 46.9148L19.2711 51.9622L1.09082 41.5567V14.4473L6.34988 17.4532V38.5466L19.2711 45.9418L22.8299 43.9046L28.0922 40.8945L32.1924 38.5466V6.73705L36.91 4.0376L55.0903 14.4431Z" fill="#14B1BD"/>
<path d="M33.3506 43.9045L37.4508 41.5566L32.1918 38.5464L28.0915 40.8943L22.8293 43.9045L19.2705 45.9416V51.9619L28.0915 46.9147L28.3005 46.7954L33.3506 43.9045Z" fill="#14B1BD"/>
<path d="M1.09033 14.4473V41.5567L6.34939 38.5465V17.4531L1.09033 14.4473Z" fill="#14B1BD"/>
<path d="M1.09033 41.5566L19.2706 51.9619V45.9416L6.34939 38.5464L1.09033 41.5566Z" fill="#14B1BD"/>
<path d="M37.451 41.5567V10.3688L32.1919 6.73706V38.5465L37.451 41.5567Z" fill="#14B1BD"/>
<path d="M55.09 14.46V41.5569L36.9096 51.9623L28.0918 46.915L28.3008 46.7957L33.3508 43.9048L36.9096 45.9419L49.8309 38.5467V17.4533L55.09 14.46Z" fill="#14B1BD"/>
<path d="M28.0918 46.915L36.9096 51.9623V45.942L33.3508 43.9048L28.3008 46.7957L28.0918 46.915Z" fill="#14B1BD"/>
<path d="M36.9097 51.9619L55.09 41.5566L49.831 38.5464L36.9097 45.9416V51.9619Z" fill="#14B1BD"/>
</svg>
