<svg xmlns="http://www.w3.org/2000/svg" width="101" height="100" fill="none" viewBox="0 0 101 100">
    <circle cx="50.32" cy="50" r="50" fill="#F3F3F3"/>
    <circle cx="50.32" cy="50.003" r="36.842" fill="#50C9D1"/>
    <path fill="#fff" fill-rule="evenodd" d="M51.166 41.188v8.061l5.952 3.434c.627.363.841 1.163.478 1.792-.362.628-1.163.842-1.792.479l-6.608-3.819c-.395-.228-.658-.651-.658-1.135v-8.812c0-.725.589-1.314 1.314-1.314.726 0 1.314.589 1.314 1.314zM33.852 50c0-8.816 7.184-16 16-16 8.816 0 16 7.184 16 16 0 8.816-7.184 16-16 16-8.816 0-16-7.184-16-16zm29.373 0c0-7.406-5.967-13.373-13.373-13.373S36.48 42.594 36.48 50s5.966 13.373 13.372 13.373S63.225 57.406 63.225 50z" clip-rule="evenodd"/>
</svg>
