<svg xmlns="http://www.w3.org/2000/svg" width="20" height="20" fill="none" viewBox="0 0 20 20">
    <path fill="#96A5B8" fill-rule="evenodd" d="M10 9.333C8.16 9.333 6.667 7.841 6.667 6c0-1.84 1.492-3.333 3.333-3.333 1.841 0 3.333 1.492 3.333 3.333 0 1.841-1.492 3.333-3.333 3.333zM10 8c1.105 0 2-.895 2-2s-.895-2-2-2-2 .895-2 2 .895 2 2 2zm-5.348 8.666c.368.009.673-.283.681-.651.082-3.657 1.585-4.682 4.667-4.682 3.254 0 4.745 1.012 4.664 4.652-.009.368.283.673.651.681.368.009.673-.283.682-.651C16.094 11.655 14.032 10 10 10c-3.85 0-5.903 1.642-6 5.985-.008.368.284.673.652.681z" clip-rule="evenodd"/>
</svg>
