<svg xmlns="http://www.w3.org/2000/svg" width="20" height="20" fill="none" viewBox="0 0 20 20">
    <path fill="#96A5B8" d="M12.59 14.562l-2.058-7.133 2-4.004c.04-.08.059-.168.055-.257-.004-.09-.03-.176-.077-.252-.046-.076-.112-.139-.19-.182-.077-.044-.165-.067-.254-.067H7.879c-.089 0-.177.023-.254.067-.078.043-.144.106-.19.182-.047.076-.073.163-.077.252-.004.09.015.178.055.257l2 4.004-2.057 7.133c-.028.09-.03.188-.007.28.023.092.07.176.138.243l2.093 2.093c.049.05.107.088.17.115.064.027.132.04.202.04.069 0 .137-.013.2-.04.065-.026.123-.066.171-.114l2.093-2.094c.075-.062.13-.145.161-.237.03-.092.035-.192.012-.286zM11.217 3.713L9.972 6.204l-1.245-2.49h2.491zM9.972 16.06L8.465 14.55l1.507-5.27 1.508 5.27-1.508 1.508z"/>
</svg>
