<svg xmlns="http://www.w3.org/2000/svg" width="20" height="20" fill="none" viewBox="0 0 20 20">
    <path fill="#96A5B8" d="M13.81 3.81h-.763v-.762c0-.21-.171-.381-.38-.381-.21 0-.381.171-.381.38v.763h-1.143v-.762c0-.21-.172-.381-.381-.381-.21 0-.381.171-.381.38v.763H9.238v-.762c0-.21-.171-.381-.381-.381s-.381.171-.381.38v.763H7.333v-.762c0-.21-.171-.381-.38-.381-.21 0-.382.171-.382.38v.763H5.81c-.63 0-1.143.512-1.143 1.142v11.239c0 .63.513 1.142 1.143 1.142h8c.63 0 1.143-.512 1.143-1.142V4.951c0-.63-.512-1.142-1.143-1.142zm.38 12.38c0 .21-.171.381-.38.381h-8c-.21 0-.382-.171-.382-.38V4.951c0-.21.172-.38.381-.38h8c.21 0 .381.17.381.38v11.239zm-1.143-7.428c0 .21-.171.38-.38.38H6.951c-.21 0-.38-.17-.38-.38s.17-.381.38-.381h5.714c.21 0 .381.171.381.38zm0 2.286c0 .21-.171.38-.38.38H6.951c-.21 0-.38-.17-.38-.38s.17-.381.38-.381h5.714c.21 0 .381.171.381.38zm-1.904 2.285c0 .21-.172.381-.381.381h-3.81c-.21 0-.38-.171-.38-.38 0-.21.17-.382.38-.382h3.81c.21 0 .38.172.38.381z"/>
</svg>
