<svg id="Layer_1" data-name="Layer 1" xmlns="http://www.w3.org/2000/svg" viewBox="0 0 566.93 566.93"><defs><style>.cls-1{fill:#eae0c7;}</style></defs><path class="cls-1" d="M399,271.25a26,26,0,1,1-26,26,26.06,26.06,0,0,1,26-26m0-16.84a42.87,42.87,0,1,0,42.87,42.87A42.86,42.86,0,0,0,399,254.41Z"/><path class="cls-1" d="M490.6,274.3V257.46H466.86V236.75H450v75.08a26.84,26.84,0,0,0,26.8,26.8h9.13V321.78h-9.13a10,10,0,0,1-9.95-9.95V274.3Z"/><rect class="cls-1" x="160.66" y="258.22" width="16.85" height="79.64"/><path class="cls-1" d="M338.57,258.22c-6.63,36.95-18,65.09-24.18,65.09s-17.55-28.14-24.18-65.09H273.07c5.08,30.45,17.23,81.94,41.32,81.94s36.24-51.49,41.32-81.94Z"/><path class="cls-1" d="M252.33,258.22c-6.62,36.95-18,65.09-24.17,65.09S210.61,295.17,204,258.22H186.84c5.08,30.45,17.23,81.94,41.32,81.94s36.24-51.49,41.31-81.94Z"/><circle class="cls-1" cx="169.08" cy="237.49" r="10.72"/><path class="cls-1" d="M76.33,236.75h38.15c22.67,0,36.76,12.85,36.76,32.34v.27c0,21.7-17.41,33-38.7,33H93.33v35.33h-17Zm36.77,50.31c12.85,0,20.87-7.19,20.87-17.28v-.28c0-11.33-8.16-17.27-20.87-17.27H93.33v34.83Z"/></svg>