<svg width="30" height="30" viewBox="0 0 30 30" fill="none" xmlns="http://www.w3.org/2000/svg">
<path fill-rule="evenodd" clip-rule="evenodd" d="M11.03 6.10414C11.03 5.07325 11.8533 4.25 12.8842 4.25H17.0925C18.1234 4.25 18.9466 5.07325 18.9466 6.10414V7.17242H22.7035C24.3867 7.17242 25.7275 8.53145 25.75 10.1972V16.3443C25.75 16.8797 25.3877 17.323 24.8829 17.4589L24.6979 17.5087V21.9554C24.6979 23.6175 23.337 24.9785 21.6748 24.9785H8.32519C6.66304 24.9785 5.30207 23.6175 5.30207 21.9554V17.5087L5.11707 17.4589C4.6123 17.323 4.25 16.8797 4.25 16.3443V10.1955C4.25 8.5334 5.61097 7.17242 7.27311 7.17242H11.03V6.10414ZM12.8842 5.62035C12.7572 5.62035 12.632 5.66376 12.5379 5.75787C12.4438 5.85198 12.4004 5.97719 12.4004 6.10414V7.17242H17.5762V6.10414C17.5762 5.97719 17.5328 5.85198 17.4387 5.75787C17.3446 5.66376 17.2194 5.62035 17.0925 5.62035H12.8842ZM7.27311 8.54277C6.36352 8.54277 5.62035 9.28595 5.62035 10.1955V16.1267H12.5263V14.3967H17.4503V16.1267H24.3563V10.1955C24.3563 9.28595 23.6131 8.54277 22.7035 8.54277H7.27311ZM16.08 15.767H13.8967V17.9503H16.08V15.767ZM12.5029 17.5438H6.64904V21.9554C6.64904 22.865 7.39222 23.6081 8.30181 23.6081H21.6748C22.5844 23.6081 23.3276 22.865 23.3276 21.9554V21.7054H23.2808V17.5438H17.4269V19.3207H12.5029V17.5438Z" fill="#231E1E"/>
</svg>
