<svg width="24" height="24" viewBox="0 0 24 24" fill="none" xmlns="http://www.w3.org/2000/svg">
<path fill-rule="evenodd" clip-rule="evenodd" d="M10.3058 3.39844C9.48105 3.39844 8.82245 4.05703 8.82245 4.88175V5.73638H5.81693C4.48722 5.73638 3.39844 6.82515 3.39844 8.15487V13.0739C3.39844 13.5022 3.68828 13.8569 4.09209 13.9656L4.2401 14.0054V17.5627C4.2401 18.8924 5.32887 19.9812 6.65859 19.9812H17.3383C18.668 19.9812 19.7568 18.8924 19.7568 17.5627V14.0054L19.9048 13.9656C20.3086 13.8569 20.5984 13.5022 20.5984 13.0739V8.1562C20.5805 6.8236 19.5078 5.73638 18.1612 5.73638H15.1557V4.88175C15.1557 4.05703 14.4971 3.39844 13.6724 3.39844H10.3058ZM10.0287 4.60473C10.104 4.52944 10.2042 4.49472 10.3058 4.49472H13.6724C13.774 4.49472 13.8741 4.52944 13.9494 4.60473C14.0247 4.68002 14.0594 4.78019 14.0594 4.88175V5.73638H9.91874V4.88175C9.91874 4.78019 9.95346 4.68002 10.0287 4.60473ZM4.49472 8.15487C4.49472 7.42719 5.08926 6.83266 5.81693 6.83266H18.1612C18.8889 6.83266 19.4835 7.42719 19.4835 8.15487V12.8998H18.9967C18.9976 12.9325 18.998 12.9652 18.998 12.998C18.998 13.5645 18.8661 14.109 18.6231 14.6167V17.3627H18.6605V17.5627C18.6605 18.2904 18.066 18.8849 17.3383 18.8849H6.63988C5.91221 18.8849 5.31767 18.2904 5.31767 17.5627V14.4961C5.10999 14.0232 4.99805 13.5199 4.99805 12.998C4.99805 12.9652 4.99849 12.9325 4.99937 12.8998H4.49472V8.15487Z" fill="white"/>
<path d="M11.5385 10V12.5385H9V13.4615H11.5385V16H12.4615V13.4615H15V12.5385H12.4615V10H11.5385Z" fill="white" stroke="white" stroke-width="0.5"/>
</svg>
