<svg xmlns="http://www.w3.org/2000/svg" width="20" height="20" fill="none" viewBox="0 0 20 20">
    <path fill="#96A5B8" fill-rule="evenodd" d="M7.352 4.07c0-.687.549-1.236 1.236-1.236h2.806c.687 0 1.236.549 1.236 1.236v.712h2.504c1.122 0 2.016.906 2.031 2.017v4.098c0 .357-.241.652-.578.743l-.123.033v2.965c0 1.108-.907 2.015-2.015 2.015h-8.9c-1.108 0-2.016-.907-2.016-2.015v-2.965l-.123-.033c-.336-.09-.578-.386-.578-.743v-4.1c0-1.107.907-2.015 2.015-2.015h2.505V4.07zm1.236-.322c-.084 0-.168.028-.23.091-.063.063-.092.146-.092.231v.712h3.45V4.07c0-.085-.029-.168-.091-.23-.063-.064-.147-.092-.231-.092H8.588zm-3.74 1.948c-.607 0-1.102.495-1.102 1.102v3.954H8.35V9.598h3.282v1.154h4.604V6.798c0-.607-.495-1.102-1.102-1.102H4.847zm5.87 4.816H9.264v1.455h1.456v-1.455zm-2.384 1.184H4.431v2.942c0 .606.496 1.101 1.102 1.101h8.916c.606 0 1.101-.495 1.101-1.101v-.167h-.03v-2.774h-3.903v1.184H8.334v-1.184z" clip-rule="evenodd"/>
</svg>
