<svg width="18" height="21" viewBox="0 0 18 21" fill="none" xmlns="http://www.w3.org/2000/svg">
<path fill-rule="evenodd" clip-rule="evenodd" d="M3.49364 12.7501C4.67722 11.2054 5.3233 9.30586 5.31743 7.34426V6.65473C5.3168 6.13302 5.42225 5.61662 5.62738 5.13693C5.83251 4.65723 6.13303 4.22425 6.51068 3.86429C6.88833 3.50434 7.33523 3.22493 7.82421 3.04304C8.3132 2.86115 8.83406 2.78059 9.35514 2.80624C11.3724 2.90566 13.0144 4.69521 13.0144 6.79905V7.34426C13.0083 9.37965 13.7042 11.3482 14.974 12.9229C14.9827 12.9336 14.9913 12.9442 14.9999 12.9549C15.1209 13.1034 15.2469 13.2484 15.378 13.3896H2.95381C3.09429 13.2383 3.22899 13.0827 3.35779 12.9229C3.35779 12.9229 3.3578 12.9229 3.3578 12.9229M5.31743 6.65473L4.85076 7.34565L4.85076 7.34426L4.85076 6.6553L5.31743 6.65473ZM7.09586 1.07109C7.85145 0.790567 8.65616 0.666545 9.46113 0.70655C11.0044 0.798809 12.4529 1.48211 13.5055 2.61453C14.5587 3.74749 15.1345 5.24279 15.1134 6.78948V7.34013C15.1103 8.23567 15.2849 9.12293 15.6272 9.95051C15.9694 10.778 16.4724 11.5293 17.1071 12.161C17.3785 12.4339 17.5632 12.7811 17.6378 13.1587C17.7125 13.5367 17.6737 13.9284 17.5262 14.2843C17.3786 14.6403 17.129 14.9446 16.8088 15.1589C16.4886 15.3732 16.1121 15.4879 15.7268 15.4886H2.60511C2.22052 15.4873 1.84487 15.3724 1.52537 15.1583C1.2057 14.9441 0.956495 14.6402 0.809069 14.2848C0.661644 13.9294 0.622584 13.5383 0.696798 13.1608C0.770923 12.7837 0.954744 12.4368 1.22519 12.1638C1.85965 11.5322 2.36252 10.781 2.70466 9.95371C3.04691 9.12618 3.22153 8.23896 3.21843 7.34346L3.21843 6.65415C3.21742 5.84745 3.38053 5.04897 3.69784 4.3073C4.01516 3.56562 4.48004 2.89625 5.0642 2.33991C5.64836 1.78356 6.3396 1.35187 7.09586 1.07109ZM11.265 20.2992H7.06697V18.6669H11.265V20.2992Z" fill="#14B1BD"/>
</svg>
