<svg xmlns="http://www.w3.org/2000/svg" width="20" height="20" fill="none" viewBox="0 0 20 20">
    <path fill="#96A5B8" fill-rule="evenodd" d="M5.168 3.5c0-.552.448-1 1-1h7.25c.552 0 1 .448 1 1v13.667c0 .552-.448 1-1 1h-2.05c-.553 0-1-.448-1-1v-.699h-1.15v.699c0 .552-.448 1-1 1h-2.05c-.552 0-1-.448-1-1V3.5zm8.25 0h-7.25v13.667h2.05v-.902c0-.223.095-.429.252-.575.155-.146.359-.222.565-.222h1.515c.207 0 .41.076.566.222.157.146.251.352.251.575v.902h2.051V3.5zM7.326 5.406c0-.276.224-.5.5-.5h.888c.276 0 .5.224.5.5s-.224.5-.5.5h-.888c-.276 0-.5-.224-.5-.5zm.5 1.454c-.276 0-.5.224-.5.5s.224.5.5.5h.888c.276 0 .5-.224.5-.5s-.224-.5-.5-.5h-.888zm-.5 2.455c0-.277.224-.5.5-.5h.888c.276 0 .5.223.5.5 0 .276-.224.5-.5.5h-.888c-.276 0-.5-.224-.5-.5zm.5 1.454c-.276 0-.5.224-.5.5s.224.5.5.5h.888c.276 0 .5-.224.5-.5s-.224-.5-.5-.5h-.888zm-.5 2.454c0-.276.224-.5.5-.5h.888c.276 0 .5.224.5.5 0 .277-.224.5-.5.5h-.888c-.276 0-.5-.223-.5-.5zm3.546-8.317c-.276 0-.5.224-.5.5s.224.5.5.5h.888c.277 0 .5-.224.5-.5s-.223-.5-.5-.5h-.888zm-.5 2.454c0-.276.224-.5.5-.5h.888c.277 0 .5.224.5.5s-.223.5-.5.5h-.888c-.276 0-.5-.224-.5-.5zm.5 1.455c-.276 0-.5.223-.5.5 0 .276.224.5.5.5h.888c.277 0 .5-.224.5-.5 0-.277-.223-.5-.5-.5h-.888zm-.5 2.454c0-.276.224-.5.5-.5h.888c.277 0 .5.224.5.5s-.223.5-.5.5h-.888c-.276 0-.5-.224-.5-.5zm.5 1.454c-.276 0-.5.224-.5.5 0 .277.224.5.5.5h.888c.277 0 .5-.223.5-.5 0-.276-.223-.5-.5-.5h-.888z" clip-rule="evenodd"/>
</svg>
