<svg xmlns="http://www.w3.org/2000/svg" width="29" height="28" fill="none" viewBox="0 0 29 28">
    <path fill="#14B1BD" fill-rule="evenodd" d="M19.48 3.733h1.426v2.533h3.689v18H4.233v-18h3.689V3.733h1.426v2.533h4.353V3.733h1.426v2.533h4.353V3.733zm3.688 19.107V7.692h-2.262v1.722H19.48V7.692h-4.353v1.722h-1.426V7.692H9.348v1.722H7.922V7.692H5.66V22.84h17.508zM12.84 12.66h3.123v1.426H12.84V12.66zm-1.918 3.32H7.8v1.426h3.123V15.98zm0 3.32H7.8v1.426h3.123v-1.427zm5.041 0H12.84v1.426h3.123v-1.427zm-3.123-3.32h3.123v1.426H12.84V15.98zm8.189-3.32h-3.123v1.426h3.123V12.66zm-3.123 6.64h3.123v1.426h-3.123v-1.427zm3.123-3.32h-3.123v1.426h3.123V15.98z" clip-rule="evenodd"/>
</svg>
