<svg xmlns="http://www.w3.org/2000/svg" width="24" height="24" fill="none" viewBox="0 0 24 24">
    <path fill="#fff" fill-rule="evenodd" d="M16.268 3.2h1.223v2.171h3.162V20.8H3.2V5.371h3.162V3.2h1.222v2.171h3.731V3.2h1.223v2.171h3.73V3.2zm3.162 16.378V6.594h-1.939v1.475h-1.223V6.594h-3.73v1.475h-1.223V6.594h-3.73v1.475H6.361V6.594h-1.94v12.983H19.43zm-8.853-8.727h2.677v1.223h-2.677V10.85zm-1.644 2.846H6.256v1.222h2.677v-1.222zm0 2.845H6.256v1.223h2.677v-1.223zm4.321 0h-2.677v1.223h2.677v-1.223zm-2.677-2.845h2.677v1.222h-2.677v-1.222zm7.02-2.846h-2.678v1.223h2.677V10.85zm-2.678 5.691h2.677v1.223H14.92v-1.223zm2.677-2.845H14.92v1.222h2.677v-1.222z" clip-rule="evenodd"/>
</svg>
