<svg width="32" height="32" fill="none" xmlns="http://www.w3.org/2000/svg">
    <rect width="32" height="32" rx="4" fill="#E8F0FF"/>
    <path d="M9.075 15.755c.354 0 .662-.044.924-.133.266-.088.483-.21.65-.364a1.49 1.49 0 0 0 .386-.56c.084-.214.126-.45.126-.707 0-.513-.17-.907-.511-1.182-.336-.276-.852-.413-1.547-.413H7.899v3.36h1.176zm4.844 5.306h-1.701c-.322 0-.556-.125-.7-.378l-2.128-3.24a.735.735 0 0 0-.266-.26c-.094-.05-.234-.076-.42-.076h-.805v3.954H6.016V10.94h3.087c.686 0 1.274.072 1.764.216.494.14.898.339 1.21.595.318.257.551.565.7.925a3 3 0 0 1 .225 1.175c0 .341-.052.663-.154.966a2.69 2.69 0 0 1-.434.826 2.84 2.84 0 0 1-.7.651c-.276.187-.59.334-.945.441.121.07.233.155.336.253.102.093.196.205.28.335l2.534 3.738zM25.988 10.94V21.06h-1.66v-6.537c0-.262.015-.544.043-.847l-3.06 5.747c-.144.275-.366.413-.664.413h-.266c-.299 0-.52-.138-.665-.413l-3.094-5.768c.014.153.025.305.035.454.01.15.014.288.014.414v6.537h-1.66V10.94h1.422c.084 0 .156.002.217.007.06.004.114.016.16.035a.322.322 0 0 1 .134.09.706.706 0 0 1 .119.169l3.03 5.62a11.81 11.81 0 0 1 .42.952c.066-.172.134-.338.204-.496.07-.164.144-.32.224-.47l2.989-5.607a.709.709 0 0 1 .119-.168.398.398 0 0 1 .133-.09.629.629 0 0 1 .168-.035c.06-.005.133-.007.217-.007h1.42z" fill="#14B1BD"/>
</svg>
