<svg width="32" height="32" fill="none" xmlns="http://www.w3.org/2000/svg">
    <rect width="32" height="32" rx="4" fill="#E8F0FF"/>
    <path d="M14.64 12.466a.717.717 0 0 1-.196.232.425.425 0 0 1-.247.068.68.68 0 0 1-.345-.113 6.599 6.599 0 0 0-.435-.263c-.17-.095-.37-.18-.6-.255a2.398 2.398 0 0 0-.803-.12c-.28 0-.525.035-.736.105-.21.065-.387.158-.532.278-.14.12-.245.265-.315.435-.07.165-.105.348-.105.548 0 .255.07.467.21.637.145.17.335.316.57.436.235.12.503.227.803.322.3.095.607.198.922.308.316.105.623.23.923.375.3.14.568.32.803.54.235.215.423.48.563.795.145.316.217.698.217 1.148 0 .49-.085.95-.255 1.38-.165.426-.41.798-.735 1.119-.32.315-.713.565-1.178.75-.465.18-.998.27-1.598.27-.345 0-.685-.035-1.02-.105a5.263 5.263 0 0 1-.968-.285 5.227 5.227 0 0 1-.863-.45c-.27-.175-.51-.37-.72-.586l.593-.967a.593.593 0 0 1 .195-.173.473.473 0 0 1 .255-.075c.125 0 .26.052.405.157.145.1.318.213.518.338.2.125.432.24.697.345.27.1.593.15.968.15.575 0 1.02-.135 1.336-.405.315-.275.472-.668.472-1.178 0-.285-.072-.517-.217-.697-.14-.18-.328-.33-.563-.45a4.077 4.077 0 0 0-.803-.316c-.3-.085-.605-.177-.915-.277-.31-.1-.615-.22-.915-.36-.3-.14-.568-.323-.803-.548a2.546 2.546 0 0 1-.57-.84c-.14-.34-.21-.758-.21-1.253 0-.395.077-.78.232-1.156.16-.375.39-.707.69-.997.3-.29.67-.523 1.11-.698.44-.175.946-.263 1.516-.263.64 0 1.23.1 1.77.3.541.2 1.001.48 1.381.84l-.502.954zM20.624 19.893c.53-.07.93-.248 1.2-.533.275-.29.413-.668.413-1.133 0-.19-.035-.355-.105-.495a1.111 1.111 0 0 0-.285-.383 1.774 1.774 0 0 0-.428-.285 5.496 5.496 0 0 0-.54-.225l-.255 3.054zm-.48-7.93a2.6 2.6 0 0 0-.713.18c-.195.08-.355.18-.48.3s-.218.255-.278.405c-.055.15-.082.308-.082.473 0 .19.032.357.097.502.07.14.163.268.278.383.12.11.26.21.42.3.16.085.335.165.525.24l.233-2.783zm.878 3.143c.36.11.717.233 1.072.368.355.13.673.3.953.51.285.21.515.473.69.788.176.31.263.7.263 1.17 0 .465-.078.903-.233 1.313a3.22 3.22 0 0 1-.682 1.08c-.3.31-.668.566-1.103.766-.435.195-.933.31-1.493.345l-.09 1.103a.468.468 0 0 1-.15.315c-.09.1-.205.15-.345.15h-.683l.135-1.606a5.719 5.719 0 0 1-1.65-.48 4.639 4.639 0 0 1-1.313-.893l.57-.847a.562.562 0 0 1 .195-.18.524.524 0 0 1 .27-.075c.11 0 .227.04.352.12.126.075.268.165.428.27.16.1.343.202.548.307.205.105.447.183.728.233l.277-3.354c-.355-.1-.708-.217-1.058-.352a3.677 3.677 0 0 1-.938-.533 2.555 2.555 0 0 1-.667-.848c-.17-.34-.255-.765-.255-1.275 0-.38.075-.75.225-1.11.15-.366.37-.69.66-.976a3.61 3.61 0 0 1 1.08-.705 4.11 4.11 0 0 1 1.463-.315l.083-.945c.01-.12.06-.228.15-.323a.464.464 0 0 1 .352-.143h.683l-.12 1.47c.53.086.988.238 1.373.458.385.216.718.458.998.728l-.45.683a.822.822 0 0 1-.203.225.427.427 0 0 1-.255.075.708.708 0 0 1-.27-.067c-.105-.05-.222-.108-.353-.173-.13-.07-.277-.14-.442-.21a3.024 3.024 0 0 0-.533-.173l-.262 3.106z" fill="#14B1BD"/>
</svg>
