<svg xmlns="http://www.w3.org/2000/svg" width="24" height="24" fill="none" viewBox="0 0 24 24">
    <path fill="#fff" fill-rule="evenodd" d="M3.689 20.8c-.27 0-.489-.219-.489-.489s.219-.489.489-.489H20.31c.27 0 .489.22.489.49s-.219.488-.489.488H3.69zM5.156 5.644C5.156 4.294 6.25 3.2 7.6 3.2h.978c1.35 0 2.444 1.094 2.444 2.444v9.778c0 1.35-1.094 2.445-2.444 2.445H7.6c-1.35 0-2.444-1.095-2.444-2.445V5.644zm.977 0v9.778c0 .81.657 1.467 1.467 1.467h.978c.81 0 1.466-.657 1.466-1.467V5.644c0-.81-.656-1.466-1.466-1.466H7.6c-.81 0-1.467.656-1.467 1.466zm6.845 2.934c0-1.35 1.094-2.445 2.444-2.445h.978c1.35 0 2.445 1.095 2.445 2.445v6.844c0 1.35-1.095 2.445-2.445 2.445h-.978c-1.35 0-2.444-1.095-2.444-2.445V8.578zm.978 0v6.844c0 .81.656 1.467 1.466 1.467h.978c.81 0 1.467-.657 1.467-1.467V8.578c0-.81-.657-1.467-1.467-1.467h-.978c-.81 0-1.466.657-1.466 1.467z" clip-rule="evenodd"/>
</svg>
