<svg xmlns="http://www.w3.org/2000/svg" width="31" height="30" fill="none" viewBox="0 0 31 30">
    <path fill="#FF9800" stroke="#FF9800" stroke-width=".7" d="M15.5 11.17c.11 0 .214-.044.292-.122.077-.078.121-.184.121-.295V7.417c0-.11-.044-.217-.121-.295-.078-.078-.183-.122-.293-.122-.11 0-.214.044-.292.122-.078.078-.121.184-.121.295v3.336c0 .11.043.217.121.295.078.078.183.122.292.122v0zM10.402 12.775c.072.078.171.126.277.133.106.007.21-.028.291-.096.082-.069.134-.166.146-.272.012-.107-.016-.213-.08-.299L8.911 9.683c-.035-.042-.078-.076-.126-.102-.049-.025-.101-.04-.155-.045-.055-.005-.11.001-.16.018-.053.016-.1.043-.142.078-.042.035-.076.078-.102.127-.025.048-.04.102-.045.156-.004.055.002.11.018.162.016.052.043.1.078.143l2.125 2.555zM4.848 16.78l3.258.579c.024.002.048.002.072 0 .11.01.219-.026.303-.097.084-.071.137-.174.146-.284.01-.11-.024-.22-.095-.306-.071-.085-.173-.138-.282-.147l-3.259-.568c-.11-.019-.222.007-.313.071-.091.065-.153.164-.172.274-.019.11.006.224.07.316.065.092.162.154.272.173v-.01zM22.417 17.02c.016.097.066.184.14.248.074.063.168.099.265.1.024.003.048.003.072 0l3.258-.578c.11-.02.207-.082.271-.174.064-.091.09-.205.07-.316-.018-.11-.08-.209-.171-.274-.091-.064-.204-.09-.313-.07l-3.259.583c-.053.01-.104.03-.15.059-.045.03-.085.067-.116.112-.03.045-.053.095-.064.148-.012.053-.013.109-.003.162v0zM20.28 12.925c.06 0 .12-.014.174-.04.055-.026.103-.064.142-.11l2.126-2.555c.034-.042.06-.09.077-.143.017-.052.023-.107.018-.162-.005-.054-.02-.108-.045-.156-.025-.049-.06-.092-.101-.127-.042-.035-.09-.062-.142-.079-.052-.016-.106-.022-.16-.017-.055.005-.107.02-.155.045-.049.026-.091.06-.127.102l-2.125 2.558c-.07.085-.105.194-.095.304.009.11.061.211.145.283.075.063.17.097.267.097zM26.005 22.207H4.994c-.11 0-.215.044-.293.122-.077.078-.12.184-.12.295 0 .11.043.217.12.295.078.078.183.122.293.122h21.011c.11 0 .215-.044.293-.122.077-.078.12-.184.12-.295 0-.11-.043-.217-.12-.295-.078-.078-.183-.122-.293-.122v0zM10.813 20.881c.035.066.088.121.151.16.064.038.137.058.21.057.07 0 .14-.019.202-.052.092-.055.16-.143.19-.246.03-.104.019-.215-.03-.31-.385-.699-.583-1.486-.573-2.285.01-.8.226-1.582.627-2.27.402-.69.975-1.26 1.662-1.657.688-.397 1.467-.605 2.259-.605.792 0 1.57.208 2.258.605s1.261.968 1.663 1.656c.401.69.618 1.472.627 2.27.01.8-.188 1.587-.573 2.285-.043.047-.076.102-.095.163-.018.06-.023.125-.013.188s.033.122.069.175c.036.052.083.095.139.126.055.03.116.049.18.052.062.003.125-.008.183-.033.058-.025.11-.063.15-.112.042-.048.072-.105.087-.166.456-.826.69-1.757.678-2.7-.011-.945-.267-1.87-.741-2.684-.475-.814-1.152-1.49-1.965-1.958-.813-.47-1.733-.716-2.67-.716-.935 0-1.856.247-2.668.716-.813.469-1.49 1.144-1.965 1.958-.475.814-.73 1.739-.741 2.683-.012.944.222 1.875.677 2.7h.022z"/>
</svg>
