<svg width="30" height="30" viewBox="0 0 30 30" fill="none" xmlns="http://www.w3.org/2000/svg">
<path fill-rule="evenodd" clip-rule="evenodd" d="M22.0919 4.41421L24.9204 7.24264C25.7014 8.02369 25.7014 9.29002 24.9204 10.0711L11.4853 23.5061C11.1103 23.8812 10.6016 24.0919 10.0711 24.0919L7.24271 24.0919C6.13814 24.0919 5.24271 23.1965 5.24271 22.0919L5.24271 19.2635C5.24271 18.733 5.45342 18.2243 5.82849 17.8492L19.2635 4.41421C20.0446 3.63316 21.3109 3.63316 22.0919 4.41421ZM17.546 8.96016L7.24271 19.2635V22.0919H10.0711L20.3744 11.7886L17.546 8.96016ZM18.9602 7.54594L21.7886 10.3744L23.5062 8.65685L20.6777 5.82843L18.9602 7.54594Z" fill="#231E1E"/>
</svg>
