<svg xmlns="http://www.w3.org/2000/svg" width="28" height="29" fill="none" viewBox="0 0 28 29">
    <rect width="28" height="28" y=".5" fill="#4CAF50" rx="14"/>
    <path fill="#fff" d="M17.108 19.974l-2.468-8.56 2.399-4.803c.048-.096.071-.202.067-.31-.005-.106-.037-.21-.093-.301-.056-.092-.134-.167-.227-.22-.094-.052-.199-.08-.306-.08h-5.024c-.107 0-.212.028-.305.08-.094.053-.172.128-.228.22-.056.09-.088.195-.092.302-.005.107.018.213.066.309l2.4 4.804-2.469 8.56c-.033.108-.036.225-.008.335.027.11.085.212.165.293l2.512 2.511c.059.06.128.106.204.138.077.032.16.048.242.048.083 0 .165-.016.242-.048.076-.032.146-.079.204-.138l2.512-2.512c.09-.075.156-.173.193-.284.037-.111.041-.23.014-.344zM15.463 6.956l-1.495 2.99-1.495-2.99h2.99zM13.968 21.77l-1.809-1.808 1.81-6.324 1.808 6.324-1.809 1.808z"/>
</svg>
