<svg width="15" height="16" viewBox="0 0 15 16" fill="none" xmlns="http://www.w3.org/2000/svg">
<path d="M10.9922 2.38391C10.8629 2.29234 10.6781 2.32897 10.5857 2.47548C10.4933 2.60368 10.5303 2.78682 10.6781 2.87839C12.4888 4.03218 13.5605 6.01012 13.5605 8.13456C13.5605 11.5959 10.7335 14.398 7.24142 14.398C6.44692 14.398 5.65242 14.2515 4.91335 13.9585L5.31984 13.8669C5.48613 13.8303 5.57851 13.6654 5.54156 13.5189C5.50461 13.3541 5.35679 13.2625 5.1905 13.2992L3.93408 13.5922C3.8417 13.6105 3.76779 13.6654 3.73084 13.757V13.7753C3.69389 13.8486 3.69389 13.9402 3.73084 14.0317L4.3221 15.1672C4.37753 15.2588 4.46991 15.332 4.58077 15.332C4.61772 15.332 4.67315 15.3137 4.71011 15.2954C4.85792 15.2221 4.91335 15.039 4.83944 14.9108L4.6362 14.5079C5.46765 14.8375 6.35454 15.0207 7.24142 15.0207C11.0476 15.0207 14.1517 11.9439 14.1517 8.17119C14.1517 5.80866 12.9692 3.64759 10.9922 2.38391Z" fill="#4CAF50" stroke="#4CAF50" stroke-width="0.5"/>
<path d="M0.923287 8.13516C0.923287 4.67378 3.7687 1.87171 7.24233 1.87171C7.75968 1.87171 8.27702 1.92665 8.7759 2.05485L8.40636 2.20136C8.25855 2.25631 8.18464 2.42113 8.24007 2.58596C8.27702 2.69585 8.38788 2.7691 8.51722 2.7691C8.55418 2.7691 8.59113 2.7691 8.62808 2.75079L9.82907 2.29293C9.92145 2.25631 9.97688 2.18305 9.99536 2.10979V2.09148C9.99536 2.09148 9.99536 2.09148 9.99536 2.07316C10.0138 1.99991 10.0138 1.90834 9.95841 1.81677L9.20086 0.772858C9.09 0.662973 8.92371 0.626345 8.7759 0.717915C8.64656 0.809486 8.60961 0.992628 8.70199 1.12083L8.97914 1.50543C8.40636 1.35891 7.83358 1.28566 7.22385 1.28566C3.43612 1.28566 0.332031 4.36244 0.332031 8.13516C0.332031 10.168 1.23739 12.091 2.82639 13.4096C2.88182 13.4463 2.95573 13.4829 3.01116 13.4829C3.10354 13.4829 3.17745 13.4463 3.23288 13.373C3.34374 13.2448 3.32526 13.0617 3.19592 12.9701C1.75474 11.7614 0.923287 10.0032 0.923287 8.13516Z" fill="#4CAF50" stroke="#4CAF50" stroke-width="0.5"/>
<path d="M9.18219 6.65218C8.92351 6.39578 8.59093 6.26758 8.23987 6.26758C7.88882 6.26758 7.55623 6.39578 7.29756 6.65218L7.24213 6.72543L7.1867 6.67049C6.92803 6.41409 6.59544 6.28589 6.24439 6.28589C5.89333 6.28589 5.56075 6.41409 5.30207 6.67049C4.78473 7.18329 4.78473 8.02574 5.30207 8.53854L7.24213 10.4432L9.18219 8.52022C9.69953 8.00743 9.69953 7.16497 9.18219 6.65218ZM8.75722 8.099L7.24213 9.61907L5.72704 8.11731C5.43141 7.82428 5.43141 7.36643 5.72704 7.0734C5.87485 6.92689 6.05962 6.85363 6.24439 6.85363C6.44763 6.85363 6.6324 6.92689 6.76174 7.0734L7.24213 7.54957L7.72252 7.0734C7.99967 6.79869 8.48007 6.79869 8.7757 7.0734C9.05285 7.36643 9.05285 7.82428 8.75722 8.099Z" fill="#4CAF50" stroke="#4CAF50" stroke-width="0.5" stroke-linecap="round" stroke-linejoin="round"/>
<path d="M2.90288 8.27796C3.04653 8.27796 3.15827 8.16721 3.15827 8.02482C3.15827 7.88243 3.04653 7.77168 2.90288 7.77168L2.39211 7.75586C2.24845 7.75586 2.13672 7.86661 2.13672 8.009C2.13672 8.15139 2.24845 8.26214 2.39211 8.26214L2.90288 8.27796Z" fill="#4CAF50" stroke="#4CAF50" stroke-width="0.5"/>
<path d="M7.24367 4.08483C7.38732 4.08483 7.49906 3.97408 7.49906 3.83169V3.32541C7.49906 3.18301 7.38732 3.07227 7.24367 3.07227C7.10001 3.07227 6.98828 3.18301 6.98828 3.32541V3.83169C6.98828 3.97408 7.10001 4.08483 7.24367 4.08483Z" fill="#4CAF50" stroke="#4CAF50" stroke-width="0.5"/>
<path d="M6.98828 12.4387V12.945C6.98828 13.0874 7.10001 13.1981 7.24367 13.1981C7.38732 13.1981 7.49906 13.0874 7.49906 12.945V12.4387C7.49906 12.2963 7.38732 12.1855 7.24367 12.1855C7.10001 12.1855 6.98828 12.2963 6.98828 12.4387Z" fill="#4CAF50" stroke="#4CAF50" stroke-width="0.5"/>
<path d="M12.3497 8.009C12.3497 7.86661 12.222 7.75586 12.0943 7.75586L11.5835 7.77168C11.4399 7.77168 11.3281 7.89825 11.3281 8.02482C11.3281 8.16721 11.4399 8.27796 11.5835 8.27796L12.0943 8.26214C12.2539 8.26214 12.3656 8.15139 12.3497 8.009Z" fill="#4CAF50" stroke="#4CAF50" stroke-width="0.5"/>
</svg>
