<svg xmlns="http://www.w3.org/2000/svg" width="28" height="29" fill="none" viewBox="0 0 28 29">
    <rect width="28" height="28" y=".5" fill="#FF9800" rx="14"/>
    <path fill="#fff" fill-rule="evenodd" d="M14.702 9.786V14.1l3.185 1.837c.335.194.45.622.255.959-.193.335-.622.45-.958.256l-3.536-2.043c-.21-.122-.351-.349-.351-.608V9.786c0-.388.314-.703.702-.703.389 0 .703.315.703.703zM5.44 14.5c0-4.716 3.844-8.56 8.56-8.56 4.717 0 8.56 3.844 8.56 8.56 0 4.717-3.843 8.56-8.56 8.56-4.716 0-8.56-3.843-8.56-8.56zm15.715 0c0-3.962-3.192-7.154-7.155-7.154-3.962 0-7.154 3.192-7.154 7.154 0 3.963 3.192 7.155 7.154 7.155 3.963 0 7.155-3.192 7.155-7.155z" clip-rule="evenodd"/>
</svg>
