<svg xmlns="http://www.w3.org/2000/svg" width="106" height="106" fill="none" viewBox="0 0 106 106">
    <g filter="url(#filter0_d)">
        <path fill="#14B1BD" fill-rule="evenodd" d="M14.133 53c0 21.465 17.401 38.866 38.866 38.866 21.466 0 38.867-17.401 38.867-38.867 0-21.465-17.401-38.866-38.867-38.866-21.465 0-38.866 17.401-38.866 38.867zm71.514 0c0 18.03-14.617 32.647-32.648 32.647-18.03 0-32.648-14.617-32.648-32.648 0-18.03 14.617-32.648 32.648-32.648 18.032 0 32.648 14.617 32.648 32.648zm-36.18-3.534c0-1.951 1.581-3.533 3.532-3.533 1.952 0 3.534 1.582 3.534 3.533v17.667c0 1.951-1.582 3.533-3.534 3.533-1.95 0-3.533-1.582-3.533-3.533V49.466zm7.066-10.6c0 1.952-1.582 3.534-3.534 3.534-1.95 0-3.533-1.582-3.533-3.534 0-1.951 1.582-3.533 3.533-3.533 1.952 0 3.534 1.582 3.534 3.533z" clip-rule="evenodd"/>
    </g>
    <defs>
        <filter id="filter0_d" width="114" height="114" x="-4" y="0" color-interpolation-filters="sRGB" filterUnits="userSpaceOnUse">
            <feFlood flood-opacity="0" result="BackgroundImageFix"/>
            <feColorMatrix in="SourceAlpha" values="0 0 0 0 0 0 0 0 0 0 0 0 0 0 0 0 0 0 127 0"/>
            <feOffset dy="4"/>
            <feGaussianBlur stdDeviation="2"/>
            <feColorMatrix values="0 0 0 0 0 0 0 0 0 0 0 0 0 0 0 0 0 0 0.12 0"/>
            <feBlend in2="BackgroundImageFix" result="effect1_dropShadow"/>
            <feBlend in="SourceGraphic" in2="effect1_dropShadow" result="shape"/>
        </filter>
    </defs>
</svg>
