<svg xmlns="http://www.w3.org/2000/svg" width="94" height="184" fill="none" viewBox="0 0 94 184">
    <path fill="#37474F" d="M47.411 46.942c.052-.12.079-.251.079-.383V.974c0-.538-.436-.974-.974-.974s-.974.436-.974.974V46.56c0 1.06 1.452 1.357 1.87.383z"/>
    <path fill="#263238" d="M47.568 46.941c-.051-.12-.078-.25-.078-.38V.97c0-.536.435-.971.972-.971.536 0 .97.435.97.971v45.59c0 1.056-1.449 1.352-1.864.38z"/>
    <path fill="#546E7A" d="M47.49 87.67H25.671c-1.104 0-2.016-.904-1.82-1.99.488-2.693 1.67-3.978-.305-5.831-2.407-2.259 2.145-4.523 0-6.541-2.145-2.013 1.877-4.439 0-6.541-1.65-1.845.238-2.387.238-4.73 0-2.304 1.563-4.728 6.448-6.03.16-.042.327-.063.492-.063h14.772c1.105 0 2 .895 2 2v29.72c0 .003-.002.006-.006.006z"/>
    <path fill="#455A64" d="M71.438 75.08c-2.145 2.013 2.407 4.283 0 6.541-1.931 1.813-.844 1.94-.338 4.063.255 1.075-.682 1.986-1.787 1.986H49.488c-1.105 0-2-.895-2-2V57.95c0-1.105.895-2 2-2h14.778c.165 0 .332.02.492.064 4.885 1.324 6.448 4.435 6.448 6.74 0 2.342 1.793 4.327.238 5.786-2.073 1.94 2.139 4.528-.006 6.54z"/>
    <path fill="#263238" d="M47.488 45.371c0-1.105.908-1.775 1.619-.93 1.513 1.801 3.019 5.273 4.5 5.61l4.587 1.057c1.56.358 2.967 1.169 4.01 2.315.883.966.198 2.521-1.111 2.521H49.488c-1.105 0-2-.895-2-2v-8.573z"/>
    <path fill="#37474F" d="M30.465 55.95v-.002l2.305-2.52c1.049-1.146 2.449-1.957 4.01-2.315l4.587-1.056c1.48-.343 2.987-3.812 4.5-5.61.71-.846 1.619-.176 1.619.929v8.579c0 1.104-.895 2-2 2H30.469c-.003 0-.004-.002-.004-.005z"/>
    <path fill="#FDE16D" d="M14.604 171.237c-14.805-13.892-17.54-34.812-8.21-51.304 2.115-3.745 4.85-7.262 8.21-10.415 5.342-5.013 8.59-13.172 9.025-19.793.074-1.124.972-2.054 2.098-2.054h19.764c1.104 0 2 .895 2 2v92.331c0 1.104-.895 2.003-1.998 1.96-11.23-.44-22.318-4.677-30.89-12.725z"/>
    <path fill="#FDD735" d="M80.38 171.237c-2.513 2.359-5.248 4.377-8.131 6.082-6.959 4.111-14.82 6.323-22.756 6.641-1.103.044-2-.856-2-1.96V89.67c0-1.104.896-2 2-2h19.764c1.126 0 2.025.931 2.098 2.055.435 6.62 3.684 14.78 9.026 19.793 18.16 17.045 18.16 44.679 0 61.719z"/>
    <path fill="#fff" d="M70.03 78.68l-44.785-1.766c-.817-.033-1.514.57-1.55 1.336-.035.766.608 1.42 1.424 1.454l44.785 1.767c.816.033 1.513-.57 1.55-1.337.035-.766-.609-1.42-1.425-1.453zM70.03 72.273l-44.785-1.766c-.817-.034-1.514.57-1.55 1.336-.035.766.608 1.42 1.424 1.454l44.785 1.766c.816.034 1.513-.57 1.55-1.336.035-.766-.609-1.42-1.425-1.454zM70.03 65.632l-44.785-1.766c-.817-.034-1.514.57-1.55 1.336-.035.766.608 1.42 1.424 1.453l44.785 1.767c.816.034 1.513-.57 1.55-1.336.035-.772-.609-1.426-1.425-1.454z" opacity=".42"/>
</svg>
