<svg xmlns="http://www.w3.org/2000/svg" width="25" height="25" fill="none" viewBox="0 0 25 25">
    <path fill="#14B1BD" fill-rule="evenodd" d="M13.036 7.293v4.313l3.185 1.837c.335.194.45.622.256.959-.194.335-.623.45-.96.255l-3.535-2.042c-.21-.123-.351-.349-.351-.608V7.293c0-.388.314-.703.702-.703.389 0 .703.315.703.703zm-9.263 4.714c0-4.716 3.844-8.56 8.56-8.56 4.717 0 8.56 3.844 8.56 8.56 0 4.717-3.843 8.56-8.56 8.56-4.716 0-8.56-3.843-8.56-8.56zm15.715 0c0-3.962-3.192-7.154-7.155-7.154-3.962 0-7.154 3.192-7.154 7.154 0 3.963 3.192 7.155 7.154 7.155 3.963 0 7.155-3.192 7.155-7.155z" clip-rule="evenodd"/>
</svg>
