<svg xmlns="http://www.w3.org/2000/svg" width="14" height="14" fill="none" viewBox="0 0 14 14">
    <path fill="#fff" fill-rule="evenodd" d="M5.253 3.768c0 1.05.852 1.901 1.902 1.901 1.05 0 1.9-.851 1.9-1.901s-.85-1.901-1.9-1.901c-1.05 0-1.902.85-1.902 1.9zm3.042 0c0 .63-.51 1.14-1.14 1.14-.63 0-1.141-.51-1.141-1.14 0-.63.51-1.14 1.14-1.14.63 0 1.141.51 1.141 1.14zM4.493 9.48c-.005.21-.179.376-.389.372-.21-.005-.376-.179-.371-.389.055-2.477 1.225-3.414 3.422-3.414 2.3 0 3.475.944 3.42 3.431-.005.21-.179.376-.389.372-.21-.005-.376-.179-.371-.389.046-2.076-.805-2.653-2.66-2.653-1.758 0-2.616.584-2.662 2.67zm1.01.506l.936.937 2.054-2.056.373.37-2.427 2.43-1.307-1.308.37-.373z" clip-rule="evenodd"/>
</svg>
