<svg width="20" height="20" fill="none" xmlns="http://www.w3.org/2000/svg">
    <path fill-rule="evenodd" clip-rule="evenodd" d="M7.353 4.07A1.23 1.23 0 0 1 8.59 2.832h2.806a1.23 1.23 0 0 1 1.236 1.236v.712h2.505c1.122 0 2.016.906 2.03 2.017v4.098a.769.769 0 0 1-.577.743l-.124.033v2.965a2.022 2.022 0 0 1-2.015 2.015h-8.9a2.022 2.022 0 0 1-2.015-2.015v-2.965l-.124-.033a.769.769 0 0 1-.578-.743v-4.1c0-1.107.908-2.015 2.016-2.015h2.504V4.07zm1.236-.323a.322.322 0 0 0-.23.091.322.322 0 0 0-.092.231v.712h3.45V4.07a.322.322 0 0 0-.091-.23.322.322 0 0 0-.231-.092H8.589zM4.85 5.695c-.607 0-1.102.495-1.102 1.102v3.954H8.35V9.597h3.283v1.154h4.604V6.797c0-.607-.496-1.102-1.102-1.102H4.849zm5.871 4.816H9.264v1.456h1.456V10.51zm-2.385 1.185H4.433v2.94c0 .607.495 1.102 1.102 1.102h8.915c.606 0 1.102-.495 1.102-1.101v-.167h-.031v-2.774h-3.903v1.184H8.335v-1.184z" fill="#96A5B8"/>
</svg>
