<svg xmlns="http://www.w3.org/2000/svg" width="213" height="165" fill="none" viewBox="0 0 213 165">
    <g clip-path="url(#clip0)">
        <path fill="#9CD499" d="M204.225 95.14c-.015.285-.032.569-.049.854-.143 2.25-.357 4.47-.659 6.644-.112.819-.238 1.627-.376 2.431v.004c-.563 3.334-1.325 6.552-2.296 9.608-.202.639-.414 1.274-.637 1.898-2.694 7.6-6.753 14.078-12.349 18.683-3.964 3.26-8.063 5.695-12.21 7.421-.304.131-.61.254-.913.37-6.673 2.621-13.436 3.444-19.898 3.002-.389-.028-.78-.06-1.166-.096-3.093-.285-6.11-.856-9.007-1.654-.536-.148-1.067-.302-1.596-.465-4.486-1.384-8.66-3.302-12.348-5.526-.244-.148-.493-.291-.743-.433-.202-.117-.41-.229-.621-.339-4.97-2.674-11.347-4.442-19.186-4.618l-.709-.01c-4.763-.049-10.048.484-15.877 1.743h-.004c-.234.053-.476.106-.712.163h-.004c-2.828.634-5.778 1.443-8.862 2.439-.561.18-1.126.366-1.698.56-1.686.576-3.41 1.204-5.17 1.887-3.677 1.433-7.37 2.365-11.023 2.816h-.004c-.378.049-.754.091-1.13.127-5.41.527-10.732.004-15.803-1.489-.346-.1-.69-.206-1.034-.313-4.255-1.369-8.33-3.427-12.121-6.122-7.405-5.261-13.748-12.957-18.311-22.724-1.296-2.777-2.451-5.72-3.448-8.825v-.004c-.928-2.894-1.718-5.928-2.353-9.092-.578-2.865-1.029-5.837-1.343-8.912v-.005c-.489-4.734-.659-9.718-.472-14.924.997-27.768 7.189-43.06 15.76-50.61 7.272-6.412 16.253-7.243 25.224-5.403 6.058 1.246 11.093 3.56 15.515 6.338.302.19.6.38.892.575 8.663 5.659 14.995 13.006 22.222 17.204.208.123.419.24.627.356 5.236 2.885 10.986 4.076 18.453 1.779 6.881-2.118 12.427-6.291 17.557-10.818.181-.159.365-.317.542-.48 7.664-6.825 14.466-14.315 23.526-16.708.357-.095.722-.184 1.087-.26 5.226-1.121 11.214-.54 18.524 2.784 5.064 2.304 9.695 6.09 13.812 10.95 11.643 13.753 19.122 36.084 20.352 57.555.022.387.043.78.06 1.167.172 3.535.165 7.038-.021 10.471z"/>
        <path fill="url(#paint0_linear)" d="M54.777 112.888c3.114 12.191 7.56 22.363 11.335 29.632-.378.049-.754.091-1.13.127-3.76-7.3-8.138-17.399-11.224-29.459-3.813-14.9-4.935-29.83-3.338-44.377 1.836-16.677 7.272-32.883 16.174-48.247.302.19.6.38.893.575-20.65 35.693-18.422 69.406-12.71 91.749z"/>
        <path fill="url(#paint1_linear)" d="M93.581 134.653c-.234.053-.476.105-.711.163h-.005c-3.326-6.309-7.018-14.658-9.686-24.463-3.592-13.215-4.652-26.453-3.142-39.352 1.304-11.172 4.546-22.106 9.674-32.66.208.123.418.24.626.356-13.495 27.912-11.299 53.71-6.48 71.443 2.674 9.849 6.391 18.222 9.724 24.513z"/>
        <path fill="url(#paint2_linear)" d="M168.607 111.388c-3.664 14.985-9.415 26.992-13.771 34.667-.389-.028-.78-.06-1.167-.096 4.349-7.585 10.212-19.685 13.914-34.863 5.765-23.623 7.282-59.612-17.17-98.622.357-.095.722-.184 1.087-.26 10.471 16.777 17.05 34.329 19.578 52.231 2.185 15.493 1.353 31.291-2.471 46.943z"/>
        <path fill="url(#paint3_linear)" d="M139.431 112.122c-2.547 10.422-6.207 19.233-9.453 25.757-.202-.117-.41-.229-.621-.339 3.225-6.488 6.86-15.25 9.394-25.613 4.9-20.067 6.504-50.245-12.406-82.267.181-.159.366-.317.542-.48 8.083 13.64 13.119 28.007 14.995 42.781 1.668 13.164.843 26.675-2.451 40.161z"/>
        <path fill="url(#paint4_linear)" d="M110.171 114.415v18.505l-.709-.01v-18.495h.709z"/>
        <path fill="url(#paint5_linear)" d="M108.891 114.736l-1.014.449-58.7 25.97c-.345-.099-.69-.205-1.034-.313l60.457-26.753.144.324.147.323z"/>
        <path fill="url(#paint6_linear)" d="M109.519 114.675l-.057.049-25.457 22.529c-.56.179-1.126.366-1.697.56l25.571-22.63.869-.77.302-.265.414.464.055.063z"/>
        <path fill="url(#paint7_linear)" d="M144.663 144.303c-.536-.148-1.067-.302-1.596-.465l-32.896-29.116-.053-.047.053-.059.419-.466.297.265.871.77 32.905 29.118z"/>
        <path fill="url(#paint8_linear)" d="M175.647 142.681c-.304.131-.61.253-.913.37l-62.976-27.866-1.013-.449.142-.321.145-.324 64.615 28.59z"/>
        <path fill="url(#paint9_linear)" d="M57.54 128.256c-6.338 1.902-13.456 4.04-21.518 6.464-.518-.366-1.028-.748-1.534-1.142-4.45-3.429-8.478-7.765-11.919-12.927-8.301-12.432-13.22-29.626-12.471-50.416.571-15.946 2.855-27.775 6.321-36.389.134-.332.27-.656.404-.977 2.111-4.967 4.635-8.817 7.452-11.732.096-.1.191-.195.287-.29.165-.17.335-.334.507-.497.262-.25.525-.49.786-.723L57.543 35.78c-12.391 24.803-12.391 65.082-.002 92.476z"/>
        <path fill="url(#paint10_linear)" d="M55.6 127.363c-.283.085-.59.176-.914.271-4.706 1.404-13.33 3.915-20.196 5.942-4.45-3.429-8.478-7.766-11.919-12.927-8.304-12.43-13.221-29.624-12.473-50.414.592-16.555 3.033-28.676 6.725-37.366 2.111-4.967 4.635-8.817 7.452-11.732.096-.1.191-.195.287-.29l31.1 15.56c-11.65 24.635-11.672 63.89-.063 90.956z"/>
        <path fill="url(#paint11_linear)" d="M54.684 127.636c-4.706 1.405-13.33 3.916-20.196 5.942-4.45-3.429-8.478-7.765-11.919-12.927l32.115 6.985z"/>
        <path fill="#DB8C0E" d="M57.54 35.782l-.794 1.804c-.036.074-3.335 7.252-3.908 10.099l-.255 1.263-36.166-15.1c.134-.332.27-.655.404-.977 2.112-4.967 4.635-8.817 7.452-11.732.096-.1.191-.195.287-.29.165-.169 1.123-1.058 1.293-1.22l31.688 16.153z"/>
        <path fill="#FFB631" d="M55.876 36.565s-1.453 3.19-2.664 6.284c-.585 1.485-1.11 2.95-1.394 4.026-.057.205-.102.398-.138.571l-.529-.218-3.465-1.451-7.086-2.964-2.855-1.193-2.95-1.235-17.972-7.516c2.112-4.967 4.922-9.107 7.739-12.022L48.75 32.985l2.71 1.362 2.626 1.316 1.788.902z"/>
        <path fill="#DB8C0E" d="M28.38 33.935c-.222.544.044 1.166.59 1.386l6.506 2.62c.546.218 1.166-.044 1.387-.588l1.067-2.62-8.485-3.419-1.066 2.621zM38.002 31.712l-1.633-.658.255-.605c.19-.47-.037-1.007-.51-1.195l-1.5-.603c-.497-.201-1.062.038-1.262.533l-.233.565-1.623-.654c-.546-.22-1.166.04-1.387.584l-.366.899 8.484 3.418.366-.899c.22-.545-.043-1.165-.59-1.385zm-4.117-2.357c.058-.142.221-.211.364-.154l1.725.694c.13.053.19.198.138.325l-.262.622-2.213-.89.248-.597z"/>
        <path fill="#fff" d="M55.876 36.564s-1.453 3.19-2.664 6.285l-5.523 2.928-7.087-2.964 13.485-7.148 1.789.9zM51.46 34.347L37.744 41.62l-2.953-1.235 13.957-7.398 2.71 1.36z" opacity=".6"/>
        <path fill="#9CD499" d="M41.035 127.915c-.584.275-1.208.37-1.208.37l-.294-.543-.187.617-3.515 1.496c-.733.311-1.534-.228-1.528-1.024.005-.243.026-.516.086-.804.19-.966 1.947-1.863 3.024-2.329-1.754-2.403-8.683-11.926-10.752-15.285-.765-1.409-2.318-6.234-3.4-10.353-1.966 2.991-4.433 6.676-5.616 8.15.07.248.304 2.251.11 3.504-.014.084-.027.179-.046.281-1.296-2.778-2.451-5.72-3.448-8.825v-.005c.627-1.588 1.426-3.384 2.233-5.075l-3.327-4.135c-.131.207-.248.349-.329.349-.336 0-.67-.218-.928-.233-.578-2.864-1.028-5.836-1.343-8.912v-.004l4.648-3.713c.431-.342 1.062-.275 1.41.155l1.555 1.929c-.308-3.226-.624-6.64-.892-9.117-.23-2.078.946-4.051 2.88-4.861.33-.142.68-.275 1.042-.407l.159-1.33s.25-.155.659-.353c-.022-.26-.039-.523-.054-.777-1.338.908-2.653 1.227-3.458.112-1.58-2.198.648-6.4 1.83-8.32-.309-.717-1.543-.07-1.388-.706.367-1.517 4.1-3.158 6.377-2.253 2.277.914 2.215 3.423 2.215 3.423s.684 1.036.814 2.206c.075.66-2.154 2.46-3.781 3.852.164.633.376 1.204.603 1.712.213.014.419.048.62.101l.787 1.443c.567.046 1.13.144 1.671.313.032.01.064.021.092.032 2.462.808 3.94 3.312 3.511 5.86-.812 4.816-2.515 15.344-2.386 17.868.032.575-.229 1.051-.684 1.432.372.533.625 1.172.701 1.887.404 3.634 1.071 9.993 1.092 12.367.213.143 1.787 1.205 2.679 3.257.967 2.219 5.364 11.104 6.424 13.247l.017-.011 1.629 1.955c.397.48.249 1.195-.304 1.457z"/>
        <path fill="#CCF8CA" d="M83.847 120.327c.005.007.005.015.007.022-6.54 1.965-14.137 4.247-23.059 6.93-1.778-4.062-3.284-8.409-4.518-12.949-6.866-25.234-5.36-56.383 4.518-76.888 8.922 4.548 16.518 8.422 23.059 11.758-7.148 19.702-7.153 49.923-.007 71.127z"/>
        <path fill="url(#paint12_linear)" d="M82.059 119.413l-1.013.303-19.446 5.847c-1.425-3.406-2.685-7.057-3.756-10.892-.067-.237-.133-.472-.197-.709-6.79-24.949-5.234-54.687 3.813-74.597l20.65 10.529c-6.74 19.681-6.76 48.416-.051 69.519z"/>
        <path fill="#9CD499" d="M81.046 119.718L61.6 125.565c-1.425-3.406-2.685-7.057-3.755-10.892l23.2 5.045z"/>
        <path fill="#DB8C0E" d="M56.32 49.3s1.495-5.939 4.475-11.858L83.854 49.2l-2.568 8.774L56.319 49.3z"/>
        <path fill="#FFB631" d="M82.193 49.67l-.35 1.182-.946 3.215-.722 2.45-2.345-.823-3.076-1.079L71.58 53.5l-13.567-4.76c.206-.835.43-1.64.662-2.402v-.005c.436-1.43.892-2.716 1.307-3.786.784-2.018 1.406-3.268 1.406-3.268l2.45 1.224 3.007 1.5 13.602 6.795 1.746.871z"/>
        <path fill="#DB8C0E" d="M74.54 47.313l-4.642-1.655c-.187-.067-.398.028-.468.218l-.939 2.615c-.068.19.032.398.22.465l2.026.722-.34.943-1.211-.431-.202.56 3.012 1.075.202-.56-1.21-.432.34-.944 2.024.722c.19.067.399-.028.467-.218l.939-2.615c.072-.19-.026-.4-.219-.465zm-1.052 2.96l-.011.005-4.646-1.654.935-2.63 4.652 1.649-.93 2.63z"/>
        <path fill="#fff" d="M66.845 42.001l-8.17 4.33c.436-1.43.892-2.716 1.306-3.786l3.856-2.044 3.008 1.5zM77.827 55.692l3.07-1.627-.722 2.45-2.348-.823zM82.192 49.67l-.35 1.182-7.089 3.76-3.175-1.114 8.868-4.7 1.746.871z" opacity=".6"/>
        <path fill="#CCF8CA" d="M101.177 115.404v.004l-14.513 4.362c-.839-2.547-1.574-5.225-2.207-8.002-4.52-19.836-3.783-44.63 2.207-61.577 5.449 2.78 10.254 5.229 14.513 7.401-4.652 16.319-4.652 40.519 0 57.812z"/>
        <path fill="url(#paint13_linear)" d="M99.467 114.447l-.34.101-.786.237-1.414.427-9.332 2.801c-.585-1.876-1.12-3.856-1.606-5.917l-.149-.645c-.754-3.321-1.362-6.763-1.814-10.278-1.166-8.921-1.372-18.288-.652-27.14.042-.544.089-1.088.142-1.627.28-2.99.67-5.91 1.166-8.73.712-4.083 1.649-7.95 2.8-11.49l12.025 6.137c-4.278 16.041-4.293 39.167-.04 56.124z"/>
        <path fill="#9CD499" d="M98.34 114.785l-10.748 3.228c-.584-1.876-1.119-3.856-1.605-5.917l12.352 2.689z"/>
        <path fill="#DB8C0E" d="M84.41 58.03l1.66-6.135.596-1.71s1.477.559 13.748 6.846l.767.393-1.393 5.942L84.41 58.03z"/>
        <path fill="#FFB631" d="M99.926 57.974l-.648 2.357-.44 1.588-1.548-.537-10.588-3.68-1.009-.35 1.496-5.525c-.091-.226 2.704 1.11 5.697 2.598 3.395 1.68 7.04 3.55 7.04 3.55z"/>
        <path fill="#DB8C0E" d="M92.253 55.643l-.765 2.198c-.07.197.036.408.23.48l1.501.519.893-2.556-1.86-.64zm.707 2.226l-.743-.258.117-.333.743.258-.117.333zm-.46-1.062l.112-.335.748.258-.117.335-.744-.258zM93.793 59.043c-.23-.08-.35-.328-.27-.557l.531-1.519.83.288-.53 1.519c-.081.228-.332.349-.561.269z"/>
        <path fill="#fff" d="M92.886 54.425l-6.184 3.279-1.009-.35 1.496-5.525c-.091-.226 2.704 1.11 5.697 2.596zM99.278 60.33l-.44 1.59-1.548-.538 1.988-1.051z" opacity=".6"/>
        <path fill="#9CD499" d="M100.822 118.087c-.44.233-.911.328-.911.328l-.245-.406-.12.476-2.63 1.269c-.55.26-1.18-.123-1.205-.728-.006-.19.004-.395.036-.617.113-.745 1.426-1.494 2.229-1.887-.24-.301-.606-.755-1.052-1.312-2.17-2.716-6.292-7.907-7.702-9.972-.631-1.047-1.989-4.679-2.96-7.784-.709 1.195-1.512 2.536-2.239 3.714-1.166-8.92-1.372-18.287-.652-27.14.07-.036.145-.068.22-.095l.074-1.02s.186-.131.492-.292c-.025-.2-.048-.402-.068-.592-.195.144-.386.27-.577.374-.786.438-1.534.497-2.059-.165-1.285-1.622.266-4.907 1.098-6.413-.26-.538-.418-1.122-.322-1.617.176-.907 1.183-.878 2.449-.533.372.1.764.229 1.166.366 1.75.607 1.761 2.234 1.761 2.272 0 0 .542.24.684 1.13.08.501-1.077 2.088-2.269 3.21.149.475.33.904.525 1.285.16.004.319.021.476.057l.648 1.073c.44.014.87.07 1.29.184.025.004.048.01.07.017 1.909.528 3.124 2.392 2.89 4.35-.446 3.705-1.374 11.803-1.183 13.723.047.438-.138.813-.471 1.12.301.39.518.87.603 1.415.44 2.758 1.172 7.59 1.274 9.402.166.102 1.405.855 2.16 2.389.7 1.415 3.47 6.439 4.819 8.88.233.423.424.766.556 1.003l.01-.007 1.316 1.433c.32.342.231.892-.181 1.11z"/>
        <path fill="#CCF8CA" d="M137.687 111.493c-.648 2.873-1.407 5.646-2.271 8.274-5.453-1.638-10.254-3.08-14.513-4.362l.074-.279c4.578-17.273 4.552-41.308-.074-57.537 4.259-2.172 9.06-4.622 14.513-7.401 5.967 16.87 6.721 41.514 2.271 61.305z"/>
        <path fill="url(#paint14_linear)" d="M136.304 111.187c-.049.215-.1.427-.149.639-.497 2.138-1.056 4.215-1.67 6.189-4.11-1.231-7.84-2.356-11.241-3.38-.208-.059-.419-.123-.627-.186 4.244-16.936 4.223-40.114-.042-56.124 3.607-1.842 7.592-3.873 12.025-6.136 5.319 16.333 6.027 39.775 1.704 58.998z"/>
        <path fill="#9CD499" d="M136.155 111.826c-.497 2.138-1.056 4.216-1.67 6.189-4.11-1.231-7.84-2.356-11.241-3.38l12.911-2.809z"/>
        <path fill="#DB8C0E" d="M120.659 57.606l.767-.393c12.269-6.287 13.988-7.026 13.988-7.026l2.387 8.308-15.445 5.278-1.697-6.167z"/>
        <path fill="#FFB631" d="M136.535 57.562l-3.035 1.055-3.38 1.172-7.448 2.587-1.147-4.16s9.545-4.887 12.546-6.19c.584-.254.922-.375.89-.29l.71 2.619.864 3.207z"/>
        <path fill="#DB8C0E" d="M129.247 58.408l-.669-1.142.085-.1c.144-.197.255-.414.331-.645l.077-.235c.019-.06-.002-.125-.053-.16-.051-.039-.122-.039-.173-.003l-.201.144c-.198.142-.372.313-.517.51l-.07.112-1.295-.286c-.075-.017-.119.08-.058.125l.999.726-.493.782-.593-.13c-.074-.017-.119.08-.057.124l1.187.863c.062.045.14-.025.102-.093l-.306-.522.599-.705.999.726c.066.046.144-.026.106-.091z"/>
        <path fill="#fff" d="M135.666 54.355l-2.168 4.262-3.38 1.172 3.951-7.763c.584-.254.922-.375.89-.29l.707 2.619z" opacity=".6"/>
        <path fill="#CCF8CA" d="M165.875 114.055c-1.251 4.639-2.78 9.082-4.592 13.226l-23.059-6.93c.036-.1.068-.201.1-.301 7.054-21.192 7.022-51.232-.1-70.85 6.54-3.334 14.135-7.21 23.059-11.758 9.839 20.43 11.371 51.428 4.592 76.613z"/>
        <path fill="url(#paint15_linear)" d="M164.507 113.687c-.063.237-.127.474-.197.709-1.088 3.937-2.377 7.687-3.835 11.167l-19.94-5.995-.514-.155c6.7-21.081 6.674-49.874-.049-69.52 0 0 15.596-7.953 20.65-10.528 8.996 19.817 10.583 49.443 3.885 74.322z"/>
        <path fill="#9CD499" d="M164.31 114.398c-1.088 3.937-2.377 7.687-3.834 11.167l-19.941-5.995 23.775-5.172z"/>
        <path fill="#DB8C0E" d="M137.192 49.318l24.488-12.227 4.081 12.193-25.583 8.781-2.986-8.747z"/>
        <path fill="#FFB631" d="M164.325 48.601l-3.425 1.202-6.198 2.172-12.877 4.512-.918.322-.794-2.376-1.521-4.537 5.132-2.564h.004l3.694-1.847 13.591-6.786.176.525 2.021 6.041 1.115 3.336z"/>
        <path fill="#DB8C0E" d="M152.467 48.39c-.531-1.337-2.052-1.987-3.39-1.46-1.343.529-1.999 2.039-1.468 3.376.533 1.337 2.052 1.99 3.392 1.462 1.339-.531 1.997-2.044 1.466-3.379zm-1.859 2.163l.162.407-.247.097-.157-.396c-.227.087-.495.108-.671.066l-.011-.3c.179.038.415.031.636-.056.278-.107.403-.346.312-.566-.085-.218-.291-.29-.629-.294-.463.004-.784-.08-.918-.42-.129-.325.005-.663.34-.862l-.157-.396.246-.097.151.38c.238-.086.425-.086.565-.065l.005.298c-.102-.015-.296-.036-.548.064-.302.118-.345.347-.285.499.085.207.268.247.667.256.471.004.756.127.896.476.126.309.024.683-.357.91z"/>
        <path fill="#fff" d="M147.422 45.485l-5.597 11.002-.918.322-.794-2.376 3.611-7.101h.004l3.694-1.847zM163.21 45.265l-2.31 4.538-6.198 2.172 6.487-12.752 2.021 6.042z" opacity=".6"/>
        <path fill="#CCF8CA" d="M198.612 120.583c-2.441 5.479-5.701 10.226-9.846 13.903-.297.26-.599.518-.907.772-8.805-2.647-16.512-4.961-23.318-7.004l.128-.286c12.259-27.388 12.216-67.472-.128-92.19 5.751-2.932 12.138-6.19 19.297-9.837.219.26.442.529.658.797.111.132.219.265.325.398.117.144.234.292.351.44 2.53 3.222 4.85 6.856 6.934 10.793.165.313.329.628.488.946 12.331 24.02 16.028 58.814 6.018 81.268z"/>
        <path fill="url(#paint16_linear)" d="M198.612 120.583v.005h-.004c-2.316 5.216-5.549 10.092-9.844 13.898-7.546-2.34-16.412-5.352-22.286-7.121 11.807-27.457 11.775-65.998-.057-90.955l18.4-9.272c19.112 24.695 25.277 66.76 13.791 93.445z"/>
        <path fill="#9CD499" d="M198.612 120.585c-2.324 5.215-5.548 10.093-9.846 13.899-7.316-2.268-16.259-5.297-21.88-6.998 0 .002 31.724-6.903 31.726-6.901z"/>
        <path fill="#DB8C0E" d="M192.594 39.317l-23.061 9.434s-2.47-7.057-4.994-12.973l19.297-9.835c-.659-.793.879 1.058.985 1.193.117.144.234.292.351.44 2.53 3.222 4.85 6.856 6.934 10.793.167.315.329.63.488.948z"/>
        <path fill="#FFB631" d="M192.105 38.375l-18.81 7.497-2.891 1.153c-.176-.876-.588-2.12-1.083-3.444-.727-1.938-1.634-4.042-2.235-5.413-.397-.897-.663-1.475-.663-1.475l1.874-.91 6.632-3.225 6.827-3.321 3.416-1.659c2.53 3.224 4.849 6.858 6.933 10.797z"/>
        <path fill="#DB8C0E" d="M185.216 33.408l-1.332 1.225-.187-.057-1.319 4.235c-.117.372-.514.582-.888.465-.374-.116-.584-.512-.467-.884l1.319-4.235-.187-.057-.399-1.76 1.332-1.225.329.102-.37 1.184c-.076.248.009.53.232.662.329.2.731.032.837-.308l.376-1.208.329.101.395 1.76z"/>
        <path fill="#fff" d="M181.756 29.239l-8.461 16.633-2.891 1.153c-.176-.876-.588-2.12-1.083-3.444l5.608-11.023 6.827-3.32zM168.295 35.784l-1.211 2.386c-.398-.897-.663-1.474-.663-1.474l1.874-.912z" opacity=".6"/>
        <path fill="#9CD499" d="M204.224 95.14c-.015.285-.032.569-.049.854l-2.551 2.852c.663 1.248 1.317 2.557 1.893 3.793-.113.818-.238 1.626-.376 2.43v.004c-.563 3.334-1.326 6.552-2.296 9.608-.277-1.11-.487-2.028-.585-2.582-.212-1.217.047-3.169.122-3.408-1.275-1.437-3.947-5.022-6.074-7.933-1.166 4.004-2.848 8.705-3.677 10.073-2.234 3.269-9.737 12.536-11.632 14.872 1.166.454 3.067 1.326 3.273 2.267.064.282.09.544.092.783.006.77-.859 1.299-1.651.994l-3.804-1.457-.198-.601-.319.529s-.673-.091-1.306-.364c-.595-.254-.763-.95-.34-1.405l1.765-1.901.022.01c1.145-2.081 5.899-10.727 6.948-12.885.967-1.997 2.668-3.027 2.897-3.169.022-2.314.744-8.499 1.177-12.034.09-.698.357-1.32.765-1.838-.493-.37-.775-.834-.743-1.394.144-2.452-1.704-12.699-2.577-17.389-.468-2.477 1.134-4.914 3.794-5.7.032-.011.063-.018.1-.028.588-.165 1.198-.26 1.809-.307l.848-1.404c.223-.053.446-.085.669-.1.249-.497.196-1.758.372-2.371-1.757-1.354-3.214-2.6-3.136-3.247.143-1.136.893-1.475.893-1.475s-1.644-2.081.818-2.97c2.466-.882 4.07-1.7 5.378-.522.504.45 1.251 1.874.918 2.572 1.274 1.866 3.688 5.957 1.977 8.094-.868 1.082-2.292.772-3.74-.11-.015.247-.032.5-.058.759.44.19.716.343.716.343l.174 1.29c.389.127.765.26 1.124.395 2.095.792 3.367 2.71 3.119 4.733-.298 2.41-.636 5.732-.971 8.874l1.682-1.88c.378-.418 1.06-.485 1.523-.149l1.183.85c.022.388.043.781.06 1.168.166 3.54.159 7.042-.028 10.475z"/>
        <path fill="#BF1D1D" d="M96.85 154.393s-5.202-.801-6.468.73c-.261.315-.468.629-.633.927-.53.96.093 2.147 1.19 2.244l5.276.47.633-.631v.857s.824.29 1.72.334c.846.043 1.5-.731 1.333-1.557l-.703-3.448-2.348.074zM132.446 152.536s-4.964 1.745-5.351 3.691c-.081.4-.113.775-.117 1.115-.011 1.096 1.103 1.847 2.116 1.418l4.871-2.076.259-.854.406.753s.864-.133 1.676-.516c.764-.362.975-1.352.433-1.999l-2.258-2.708-2.035 1.176z"/>
        <path fill="#180051" d="M134.779 152.02l-.181.11-.35.207-2.394 1.432s-12.175-16.603-15.463-21.943c-1.846-3.405-7.023-21.225-6.237-23.078.16-.371.508-.783.982-1.179 2.285-1.891 5.368-1.546 7.331.197.996.882 1.701 2.124 1.867 3.617.556 5.035 1.48 13.841 1.51 17.135.293.201 2.473 1.669 3.713 4.51 1.404 3.218 8.009 16.551 9.075 18.7l.147.292z"/>
        <path fill="#180051" d="M113.606 114.542c-.658 1.013-1.438 2.208-2.271 3.471v.004c-2.661 4.036-5.863 8.805-7.43 10.759.095.343.42 3.118.153 4.851-.636 4.046-5.046 21.494-5.046 21.494l-1.23-.175-2.15-.307 1.809-27.001c.18-3.74 8.163-20.606 9.952-21.547.357-.186.885-.29 1.506-.296 4.478-.043 7.139 5.002 4.707 8.747z"/>
        <path fill="#4E19CE" d="M134.632 151.728l-.036.402-.064.717s-.099-.18-.286-.508c-1.861-3.321-12.245-21.841-12.852-22.501-.663-.73-3.919-21.012-3.919-21.012l.992-1.058c.996.882 1.701 2.124 1.867 3.617.556 5.035 1.48 13.841 1.51 17.135.293.201 2.473 1.669 3.713 4.51 1.405 3.215 8.009 16.549 9.075 18.698zM103.907 128.776c.095.343.42 3.118.153 4.851-.635 4.046-5.045 21.494-5.045 21.494l-1.23-.175c1.346-4.214 6.695-21.45 5.584-25.719 0 0-.325-.846.153-1.341.478-.498 7.818-9.869 7.818-9.869-2.664 4.036-5.868 8.802-7.433 10.759z"/>
        <path fill="#FFB631" d="M105.728 63.901s-1.13.675-1.188 1.285c-.057.609.219.943.219.943h.247l.722-2.228z"/>
        <path fill="#FFCE80" d="M116.268 63.722c-.457 1.927-6.048 8.973-9.512 8.662-.631-.057-1.194-.355-1.64-.977-2.477-3.44 1.797-10.437 3.086-12.392.217-.332.351-.518.351-.518 4.58-2.162 8.261 2.942 7.715 5.225z"/>
        <path fill="#FFCE80" d="M109.817 68.826s.059 5.947.843 6.907 6.09-.722 6.09-.722-3.075-3.122-3.617-8.167c.002 0-2.471.18-3.316 1.982z"/>
        <path fill="#FFB631" d="M106.756 72.384c-.631-.057-1.194-.355-1.64-.977-2.477-3.44 1.797-10.437 3.086-12.392l.049.516c-.002 0-5.434 10.888-1.495 12.853z"/>
        <path fill="#262627" d="M117.897 63.299c.181 1.622-5.516 8.472-7.146 6.729-.958-1.024-2.039-2.943-1.599-4.847.146-.632.053-1.339-.489-.98l-1.16.904.873-3.858c-.822-1.263-1.499-3-1.176-4.311.514-2.103 3.401-1.26 6.557 0 3.157 1.262 2.998 4.266 2.998 4.266s.962.478 1.142 2.097z"/>
        <path fill="#FFCE80" d="M109.406 66.027c.438-.756.425-1.58-.029-1.841-.454-.262-1.177.14-1.615.895-.439.756-.426 1.58.029 1.841.454.261 1.177-.14 1.615-.895z"/>
        <path fill="#280077" d="M108.746 75.456l.316-2.636s3.437-2.136 6.152-1.383l1.266 2.329-7.734 1.69z"/>
        <path fill="#4E19CE" d="M123.609 82.03c-1.119 6.672-3.484 21.262-3.299 24.752.064 1.232-.826 2.141-2.19 2.731-1.081.47-2.46.739-3.894.813-3.462.18-7.256-.781-8.029-2.822-.648-1.722-1.893-17.349-2.792-25.546-.314-2.874 1.315-5.614 3.994-6.735 1.071-.448 2.271-.882 3.533-1.21 2.487-.656 5.219-.918 7.687-.142.028.01.058.017.085.028.015.004.028.01.043.015 3.409 1.12 5.457 4.588 4.862 8.116z"/>
        <path fill="#280077" d="M114.226 110.326c-3.462.18-7.256-.781-8.029-2.822-.648-1.722-1.893-17.348-2.792-25.546-.314-2.874 1.315-5.614 3.994-6.735 1.071-.448 2.271-.882 3.533-1.21-1.432 1.422-3.52 6.757-3.737 13.132-.283 8.405 8.697 11.487 9.285 19.466.077 1.041-1.066 2.539-2.254 3.715z"/>
        <path fill="#5F30EF" d="M123.609 82.03c-1.12 6.672-3.484 21.262-3.299 24.753.064 1.231-.826 2.14-2.19 2.731.499-2.954 1.803-10.755 3.401-21.167 1.242-8.093-.914-12.35-2.817-14.448.015.004.028.01.043.015 3.409 1.12 5.457 4.588 4.862 8.117z"/>
        <path fill="#8EB8FF" d="M113.944 108.339l-9.14 7.305c-.6.476-1.475.381-1.953-.216l-3.745-4.65-2.498-3.097-5.42-6.731c-.483-.592-.388-1.463.212-1.944l9.14-7.3c.599-.48 1.474-.385 1.952.212l7.718 9.58.486.603 3.463 4.299c.48.592.384 1.461-.215 1.939z"/>
        <path fill="#01276A" d="M110.694 102.097l-11.59 8.679-2.496-3.097 5.64-4.679 7.961-1.506.485.603zM103.478 93.512l-11.077 8.939.224.274 11.076-8.939-.223-.274z"/>
        <path fill="#01276A" d="M97.92 99.275c.509 0 .92-.41.92-.916s-.411-.916-.92-.916c-.507 0-.919.41-.919.916s.412.916.92.916zM100.001 101.797c.508 0 .919-.411.919-.916 0-.506-.411-.916-.919-.916s-.92.41-.92.916c0 .505.412.916.92.916z"/>
        <path fill="#FFCE80" d="M99.08 106.122s-1.357 3.394-1.839 3.394-.964-.324-1.327-.326c-.364-.002-.29-.806-.876-.815-.934-.014-.524-1.085-.875-1.201-1.13-.375-.573-1.441-.603-1.682-.03-.241 5.037-.901 5.037-.901l.484 1.531z"/>
        <path fill="#4E19CE" d="M111.542 101.369c-.897.423-4.079 1.919-7.293 3.374-1.948.882-3.911 1.748-5.385 2.346l-.943-2.504c2.747-2.067 7.543-5.447 10.938-6.987-2.01-3.84-6.101-12.354-4.784-15.7.828-2.1 2.139-2.552 3.326-2.224l.005.004c1.293.355 2.44 1.631 2.668 2.7.354 1.7 3.571 10.504 4.174 14.335.276 2.562-1.268 3.977-2.706 4.656z"/>
        <path fill="#5F30EF" d="M111.541 101.369c-.896.423-4.078 1.919-7.292 3.374 1.693-1.153 5.353-3.672 6.621-4.776 1.672-1.458 2.037-3.501.95-9.05-1.067-5.466-4.317-11.066-4.415-11.237 1.294.356 2.441 1.631 2.668 2.7.355 1.7 3.571 10.504 4.175 14.335.276 2.56-1.269 3.975-2.707 4.654z"/>
        <g filter="url(#filter0_d)">
            <path fill="#F3F9FD" d="M44.815 11.747H3.643v27.758h41.172V11.747z"/>
            <path fill="#FFA9A3" d="M4.286 6.019c-.35 0-.634.283-.634.633v5.1H44.86V6.02H4.286z"/>
            <path fill="#DBEAF8" d="M45.904 11.747h-1.089v28.548h1.089V11.747z"/>
            <path fill="#F44336" d="M45.71 6.018h-.895v5.73h1.089V6.65c0-.349-.087-.632-.194-.632z"/>
            <path fill="#324953" d="M8.96 8.132c0 .416-.339.754-.757.754-.417 0-.755-.338-.755-.754 0-.417.338-.755.755-.755.418 0 .756.338.756.755z"/>
            <path fill="#324953" d="M8.203 7.81c-.992 0-1.795-.801-1.795-1.79 0-.99.804-1.793 1.795-1.793.992 0 1.795.802 1.795 1.792h.68c0-1.364-1.108-2.47-2.475-2.47s-2.475 1.106-2.475 2.47c0 1.365 1.108 2.471 2.475 2.471v-.68zM15.334 8.132c0 .416-.338.754-.756.754-.417 0-.756-.338-.756-.754 0-.417.339-.755.756-.755s.756.338.756.755z"/>
            <path fill="#324953" d="M14.578 7.81c-.992 0-1.795-.801-1.795-1.79 0-.99.804-1.793 1.795-1.793.991 0 1.795.802 1.795 1.792h.68c0-1.364-1.108-2.47-2.475-2.47s-2.476 1.106-2.476 2.47c0 1.365 1.108 2.471 2.476 2.471v-.68zM21.709 8.132c0 .416-.338.754-.756.754s-.756-.338-.756-.754c0-.417.338-.755.756-.755.417 0 .756.338.756.755z"/>
            <path fill="#324953" d="M20.953 7.81c-.992 0-1.796-.801-1.796-1.79 0-.99.804-1.793 1.796-1.793.991 0 1.795.802 1.795 1.792h.68c0-1.364-1.108-2.47-2.476-2.47-1.367 0-2.475 1.106-2.475 2.47 0 1.365 1.108 2.471 2.476 2.471v-.68zM28.084 8.132c0 .416-.338.754-.756.754s-.756-.338-.756-.754c0-.417.338-.755.756-.755.417 0 .756.338.756.755z"/>
            <path fill="#324953" d="M27.328 7.81c-.992 0-1.796-.801-1.796-1.79 0-.99.804-1.793 1.796-1.793.991 0 1.795.802 1.795 1.792h.68c0-1.364-1.108-2.47-2.476-2.47-1.367 0-2.475 1.106-2.475 2.47 0 1.365 1.108 2.471 2.475 2.471v-.68zM34.459 8.132c0 .416-.339.754-.756.754-.418 0-.756-.338-.756-.754 0-.417.338-.755.756-.755.417 0 .756.338.756.755z"/>
            <path fill="#324953" d="M33.702 7.81c-.991 0-1.795-.801-1.795-1.79 0-.99.804-1.793 1.795-1.793.992 0 1.796.802 1.796 1.792h.68c0-1.364-1.108-2.47-2.476-2.47-1.367 0-2.475 1.106-2.475 2.47 0 1.365 1.108 2.471 2.475 2.471v-.68zM40.833 8.132c0 .416-.338.754-.756.754-.417 0-.755-.338-.755-.754 0-.417.338-.755.755-.755.418 0 .756.338.756.755z"/>
            <path fill="#324953" d="M40.077 7.81c-.991 0-1.795-.801-1.795-1.79 0-.99.804-1.793 1.795-1.793.992 0 1.796.802 1.796 1.792h.68c0-1.364-1.108-2.47-2.476-2.47-1.367 0-2.476 1.106-2.476 2.47 0 1.365 1.109 2.471 2.476 2.471v-.68zM7.125 14.943c0 .093-.01.18-.032.263-.02.083-.057.155-.11.216-.052.061-.123.11-.211.146-.09.035-.202.053-.337.053-.125 0-.232-.015-.322-.045s-.164-.066-.223-.106l.143-.332c.054.032.11.059.17.083.061.024.127.036.199.036.104 0 .18-.026.225-.077.046-.051.07-.137.07-.258v-1.24h.428v1.26zM8.764 15.581c-.021-.066-.044-.133-.069-.203l-.072-.208h-.745l-.072.209c-.024.07-.047.137-.068.203h-.445c.072-.205.14-.394.204-.568.064-.174.127-.338.189-.492.061-.153.122-.3.182-.438s.122-.273.186-.405h.407c.062.132.124.267.185.405.06.139.122.285.184.438.061.154.124.318.189.492.064.174.133.363.205.568h-.46zm-.516-1.47c-.009.027-.023.064-.042.112l-.062.165-.08.206-.088.236h.545l-.085-.236-.077-.207-.065-.164-.046-.113zM10.747 15.581c-.123-.217-.255-.432-.399-.645-.143-.212-.295-.412-.456-.6v1.245h-.424V13.68h.35c.06.06.127.134.2.222.073.088.148.182.224.282.076.1.152.203.227.31.075.107.146.21.212.309v-1.123h.426v1.903h-.36z"/>
            <path fill="#F3714E" d="M10.566 19.508c.036 0 .066-.003.09-.01.023-.005.042-.013.056-.024.014-.01.024-.022.03-.036.005-.015.008-.03.008-.048 0-.037-.018-.068-.053-.093-.035-.024-.095-.05-.18-.079-.038-.013-.074-.028-.112-.044-.037-.017-.07-.039-.1-.064-.03-.026-.053-.057-.072-.093-.019-.037-.028-.082-.028-.134 0-.052.01-.1.03-.141.02-.042.047-.078.083-.107.036-.03.08-.052.132-.068.051-.016.109-.024.174-.024.076 0 .142.008.198.025.056.016.102.034.138.054l-.074.201c-.031-.016-.067-.03-.106-.043-.038-.013-.085-.02-.14-.02-.061 0-.105.01-.132.026-.027.017-.04.043-.04.078 0 .02.005.038.015.052.01.015.023.027.042.04.018.01.038.02.062.03l.078.03c.06.02.11.043.154.064.044.02.08.046.11.074.028.029.05.062.064.1.014.038.021.084.021.14 0 .105-.037.187-.111.245-.075.059-.186.088-.336.088-.05 0-.096-.003-.136-.009-.04-.006-.076-.013-.107-.022-.032-.009-.059-.018-.08-.028-.023-.01-.042-.019-.057-.028l.072-.202c.034.018.075.035.125.05.05.012.11.02.182.02z"/>
            <path fill="#324953" d="M15.196 18.569c.02.035.043.08.068.133.026.053.053.11.08.172l.084.189c.027.064.052.125.077.181l.078-.181c.027-.064.054-.128.083-.19.028-.061.054-.118.08-.171.026-.053.05-.097.069-.134h.232c.011.076.022.16.03.253.01.094.018.19.025.292l.02.303.016.287h-.25l-.012-.36c-.006-.13-.014-.261-.025-.393l-.066.152-.071.167-.068.16-.056.13h-.178l-.056-.13-.068-.16-.072-.167-.065-.152c-.011.132-.02.263-.025.393l-.013.36h-.249c.004-.09.01-.185.016-.287.006-.101.012-.203.02-.303.006-.101.015-.198.024-.292.01-.093.02-.178.03-.253h.242zM20.83 18.569v.217h-.342v.916h-.255v-.916h-.343v-.218h.94zM25.52 18.69l.043.151.05.174.055.18.054.168c.014-.056.03-.116.044-.182.014-.066.029-.133.042-.203l.038-.208.036-.2h.265c-.038.19-.082.382-.132.577-.05.195-.105.38-.163.556h-.234c-.038-.104-.075-.214-.111-.33-.036-.114-.072-.23-.106-.345l-.105.346c-.035.115-.072.225-.11.33h-.234c-.058-.176-.113-.362-.162-.557-.05-.195-.094-.387-.133-.577h.277c.01.064.023.13.036.2l.041.208.044.203c.014.066.03.126.045.181.02-.053.039-.11.058-.17l.054-.18.049-.173.04-.15h.219zM30.66 18.569v.217h-.342v.916h-.256v-.916h-.343v-.218h.941zM34.748 19.703v-1.134h.76v.214h-.505v.237h.45v.215h-.45v.468h-.255zM39.989 19.508c.035 0 .065-.003.089-.01.023-.005.042-.013.056-.024.015-.01.024-.022.03-.036.006-.015.008-.03.008-.048 0-.037-.017-.068-.052-.093-.035-.024-.095-.05-.18-.079-.038-.013-.075-.028-.112-.044-.038-.017-.07-.039-.1-.064-.03-.026-.054-.057-.073-.093-.018-.037-.028-.082-.028-.134 0-.052.01-.1.03-.141.02-.042.048-.078.084-.107.036-.03.08-.052.131-.068.052-.016.11-.024.174-.024.077 0 .143.008.199.025.055.016.101.034.137.054l-.074.201c-.031-.016-.067-.03-.105-.043-.04-.013-.086-.02-.14-.02-.062 0-.106.01-.133.026-.027.017-.04.043-.04.078 0 .02.005.038.015.052.01.015.023.027.042.04.018.01.039.02.062.03l.078.03c.06.02.11.043.154.064.044.02.08.046.11.074.028.029.05.062.064.1.014.038.021.084.021.14 0 .105-.037.187-.111.245-.074.059-.186.088-.336.088-.05 0-.095-.003-.136-.009-.04-.006-.076-.013-.107-.022-.032-.009-.059-.018-.08-.028-.023-.01-.042-.019-.057-.028l.072-.202c.034.018.076.035.125.05.05.012.11.02.183.02zM39.7 22.055c.064-.026.13-.059.196-.099.065-.04.123-.088.174-.142h.143v1.165h-.204v-.893c-.03.023-.068.046-.115.068-.046.023-.09.041-.133.056l-.062-.155z"/>
            <path fill="#F3714E" d="M10.935 24.808c0 .04-.008.08-.024.119-.018.038-.039.076-.065.112-.027.037-.056.072-.09.106-.034.035-.068.068-.102.1l-.06.06c-.023.024-.044.048-.064.071-.02.024-.038.046-.053.068-.014.022-.022.04-.023.055h.518v.172h-.743l-.002-.034v-.029c0-.053.009-.103.026-.149.018-.045.04-.087.068-.127.028-.039.06-.076.095-.11l.104-.103.078-.076c.024-.025.046-.05.064-.073.019-.024.034-.049.045-.074.011-.026.017-.052.017-.079 0-.058-.017-.1-.05-.124-.034-.024-.075-.037-.123-.037-.032 0-.061.005-.088.014-.027.009-.05.02-.072.032-.02.012-.039.025-.055.038l-.035.03-.101-.142c.047-.045.103-.081.166-.108.063-.028.132-.041.204-.041.125 0 .217.029.276.088.06.059.09.139.09.241z"/>
            <path fill="#324953" d="M15.161 25.696c-.03 0-.061-.002-.093-.006s-.063-.01-.091-.015c-.03-.006-.055-.013-.079-.02-.024-.008-.041-.015-.054-.022l.04-.173c.024.012.059.024.104.038.045.014.1.021.167.021.088 0 .152-.017.192-.051.04-.035.059-.08.059-.137 0-.037-.008-.068-.023-.093-.015-.024-.036-.045-.062-.06-.027-.015-.057-.026-.091-.032-.035-.006-.07-.01-.109-.01h-.069v-.164h.084c.026 0 .052-.003.079-.008.026-.005.05-.014.071-.027.022-.012.04-.03.053-.051.014-.021.02-.049.02-.083 0-.026-.005-.05-.015-.068-.01-.02-.023-.035-.04-.047-.016-.013-.035-.022-.056-.027-.021-.006-.044-.009-.067-.009-.05 0-.096.008-.135.023-.04.015-.074.032-.104.051l-.075-.151c.016-.01.035-.021.057-.032.023-.012.048-.022.076-.032.027-.01.057-.019.088-.025.032-.006.065-.01.1-.01.064 0 .12.009.168.024.047.016.086.038.117.067.03.029.054.062.069.1.015.04.023.082.023.127 0 .054-.015.102-.045.145s-.068.075-.115.098c.06.021.111.056.15.106.04.05.06.113.06.19 0 .051-.008.1-.026.144-.018.044-.046.082-.083.114-.037.032-.084.057-.14.076-.059.02-.126.029-.205.029zM20.623 24.505v.72h.132v.167h-.132v.279h-.199v-.28h-.512v-.144c.023-.05.053-.106.09-.17.038-.064.08-.13.126-.196.046-.068.095-.134.147-.199.051-.065.103-.124.155-.177h.193zm-.199.25l-.083.105c-.029.037-.056.075-.084.116-.027.04-.053.082-.077.123-.025.043-.047.084-.068.126h.312v-.47zM25.27 25.338c0-.037-.006-.07-.021-.1-.015-.029-.04-.053-.077-.073-.036-.02-.085-.036-.146-.046-.061-.01-.139-.015-.232-.015.013-.107.022-.21.03-.307l.016-.292h.597v.172h-.423c0 .019-.002.04-.004.065l-.005.073-.006.07-.007.057c.166.01.289.047.368.114.08.067.119.158.119.274 0 .052-.01.101-.027.146-.018.045-.046.083-.083.116-.037.032-.084.058-.14.076-.056.018-.122.028-.197.028-.03 0-.061-.002-.093-.007-.031-.004-.06-.01-.09-.016-.029-.006-.054-.012-.076-.019-.023-.007-.04-.013-.05-.018l.038-.172c.024.011.058.023.102.036.044.013.099.02.163.02.043 0 .08-.005.112-.014.032-.01.057-.023.077-.04.02-.017.034-.037.043-.058.008-.022.013-.045.013-.07zM30.186 24.942c.07 0 .13.01.178.03.048.02.088.046.118.08.03.033.053.072.067.116.014.045.021.09.021.139 0 .044-.007.089-.023.134-.015.047-.038.088-.07.126-.032.038-.073.068-.12.092-.049.024-.107.037-.173.037-.134 0-.236-.044-.306-.133-.07-.088-.105-.209-.105-.364 0-.112.017-.211.05-.298s.08-.16.142-.22c.06-.059.135-.104.222-.135.087-.03.185-.046.294-.048l.012.169c-.06 0-.117.007-.17.019-.053.012-.1.03-.142.055-.042.024-.078.056-.107.095-.03.04-.052.088-.068.145.055-.025.115-.039.18-.039zm-.025.162c-.033 0-.064.003-.094.009-.03.005-.058.014-.083.025l-.003.03v.03c0 .045.002.088.009.127.006.04.017.075.032.105s.036.053.063.07c.026.018.059.026.098.026.033 0 .06-.006.084-.02.023-.014.042-.03.056-.052.015-.022.026-.045.032-.07.007-.026.01-.05.01-.073 0-.068-.016-.119-.048-.154-.034-.035-.085-.053-.156-.053zM34.876 25.67c.007-.085.022-.174.046-.269.023-.094.052-.186.087-.275.034-.089.072-.172.113-.25.04-.078.081-.143.122-.196h-.538v-.175h.78v.155c-.037.041-.077.098-.121.17-.044.071-.086.153-.125.243-.04.09-.073.186-.102.29-.029.103-.046.205-.053.308h-.209zM40.424 25.358c0 .048-.008.093-.025.134-.017.042-.042.078-.076.108-.033.03-.075.053-.125.07-.05.017-.108.026-.173.026-.077 0-.14-.01-.19-.032-.051-.021-.092-.048-.122-.08-.03-.033-.052-.068-.065-.106-.013-.038-.02-.073-.02-.106 0-.034.006-.065.015-.094.01-.028.023-.054.04-.079.017-.024.036-.046.057-.067.021-.02.044-.038.067-.053-.051-.036-.09-.075-.115-.117-.025-.042-.038-.093-.038-.154 0-.044.009-.085.026-.125.018-.04.043-.075.075-.105.033-.03.072-.055.119-.073.045-.017.097-.026.153-.026.066 0 .123.009.17.028.046.02.084.044.114.074s.052.064.065.101c.014.037.02.073.02.108 0 .062-.017.116-.05.164-.034.047-.073.085-.117.113.066.036.116.078.148.125.03.047.047.102.047.166zm-.595.01c0 .017.004.035.01.054.007.019.018.036.034.052.015.016.036.03.06.04.025.01.056.016.093.016.033 0 .063-.004.087-.014.025-.009.045-.02.06-.036.016-.015.028-.032.036-.052.008-.02.012-.04.012-.06 0-.032-.006-.06-.019-.083-.012-.023-.03-.044-.052-.061-.024-.018-.05-.032-.082-.045-.032-.013-.066-.025-.105-.035-.04.026-.073.057-.097.094-.024.036-.037.08-.037.13zm.367-.575c0-.015-.003-.03-.01-.048-.005-.018-.015-.034-.03-.048-.014-.015-.031-.027-.052-.037-.022-.01-.048-.015-.078-.015s-.056.005-.078.014c-.022.01-.04.022-.053.037-.014.015-.024.031-.03.048-.007.018-.01.035-.01.052 0 .042.016.083.048.121.032.038.085.068.161.091.042-.026.074-.055.098-.088.023-.033.034-.076.034-.127z"/>
            <path fill="#F3714E" d="M10.769 27.882c-.027.012-.057.022-.09.029-.032.006-.064.01-.094.01-.07 0-.13-.01-.178-.028-.048-.019-.088-.045-.12-.078-.03-.033-.053-.071-.067-.115-.015-.043-.022-.09-.022-.141 0-.044.007-.088.022-.134.014-.045.037-.087.069-.125.031-.039.071-.07.12-.094.047-.024.105-.036.171-.036.137 0 .24.044.311.132.07.088.105.212.105.372 0 .227-.058.398-.175.515-.117.116-.296.175-.537.177l-.009-.17c.068 0 .128-.006.183-.017.054-.011.102-.03.143-.054.041-.024.076-.057.103-.096.029-.04.05-.089.065-.147zm-.16-.123c.032 0 .064-.003.095-.01.032-.005.059-.015.081-.027l.002-.032v-.024c0-.044-.003-.087-.01-.126-.005-.04-.016-.075-.031-.105-.016-.03-.036-.053-.063-.07-.026-.018-.059-.026-.099-.026-.032 0-.06.006-.083.02-.023.014-.042.03-.056.052-.015.022-.025.045-.033.07-.006.024-.01.048-.01.071 0 .069.017.12.05.155.034.035.086.052.156.052z"/>
            <path fill="#324953" d="M14.005 27.44c.065-.025.13-.058.196-.098.066-.041.124-.089.175-.143h.143v1.165h-.204v-.893c-.03.024-.069.047-.115.07-.046.022-.09.04-.133.055l-.062-.155zM15.694 27.78c0 .195-.036.346-.107.45-.072.105-.172.158-.298.158-.127 0-.227-.053-.298-.157-.072-.105-.108-.256-.108-.452 0-.098.01-.184.028-.26.018-.075.045-.139.08-.19.036-.052.078-.092.129-.119.05-.026.106-.04.169-.04.127 0 .226.052.298.157.072.106.107.256.107.452zm-.21 0c0-.061-.004-.118-.01-.17-.007-.053-.018-.1-.033-.138-.015-.039-.035-.07-.06-.091-.025-.023-.056-.034-.093-.034s-.068.011-.093.034c-.025.022-.046.052-.06.091-.016.039-.027.085-.033.137-.006.053-.01.11-.01.17 0 .06.003.117.01.17.006.053.017.098.032.137.015.039.036.07.06.092.026.022.057.033.094.033s.068-.011.093-.033c.024-.023.045-.053.06-.092s.026-.084.033-.137c.006-.053.01-.109.01-.17zM19.097 27.44c.066-.026.13-.06.197-.1.066-.04.124-.088.174-.142h.143v1.165h-.204v-.893c-.03.024-.068.047-.114.07-.047.022-.09.04-.134.055l-.062-.155zM20.055 27.44c.065-.026.13-.06.196-.1.066-.04.124-.088.174-.142h.144v1.165h-.204v-.893c-.03.024-.069.047-.115.07-.046.022-.09.04-.133.055l-.062-.155zM23.866 27.44c.065-.025.13-.058.196-.099.066-.04.124-.088.175-.142h.143v1.165h-.204v-.893c-.03.024-.069.047-.115.069-.046.023-.09.041-.133.056l-.062-.155zM25.481 27.5c0 .04-.008.08-.025.118-.017.039-.038.077-.064.113-.027.036-.056.072-.09.106-.034.035-.068.068-.102.1l-.06.06c-.023.024-.044.048-.064.071-.02.024-.038.046-.052.068-.015.022-.023.04-.024.055h.519v.171h-.743l-.002-.033V28.3c0-.054.008-.103.026-.149.017-.045.04-.087.068-.127.028-.039.06-.076.094-.11l.105-.103.077-.076c.025-.024.046-.049.065-.073.018-.024.033-.048.044-.074.012-.025.017-.051.017-.078 0-.059-.017-.1-.05-.125-.034-.024-.075-.036-.123-.036-.032 0-.06.004-.088.013-.026.01-.05.02-.071.032-.021.013-.04.025-.055.038l-.036.031-.1-.143c.047-.044.102-.08.165-.108.064-.027.132-.041.205-.041.124 0 .216.03.275.088.06.058.09.14.09.241z"/>
            <path fill="#F3714E" d="M28.926 27.44c.066-.025.13-.058.197-.099.066-.04.124-.088.174-.142h.143v1.165h-.204v-.893c-.03.024-.068.047-.115.069-.046.023-.09.041-.133.056l-.062-.155zM30.13 28.388c-.03 0-.062-.002-.094-.006s-.062-.009-.091-.015c-.029-.006-.055-.013-.078-.02-.024-.007-.042-.014-.054-.021l.04-.174c.024.012.058.025.103.038.045.014.101.021.167.021.089 0 .153-.016.192-.05.04-.035.06-.08.06-.138 0-.037-.008-.068-.023-.093-.015-.024-.036-.044-.063-.06-.026-.015-.056-.025-.09-.032-.035-.006-.071-.009-.11-.009h-.068v-.165h.084c.026 0 .052-.002.078-.008.027-.005.05-.014.072-.026.021-.013.039-.03.052-.052.014-.021.02-.048.02-.082 0-.027-.005-.05-.014-.07-.01-.018-.024-.034-.04-.046-.017-.012-.035-.021-.056-.027-.022-.006-.044-.009-.068-.009-.05 0-.095.008-.134.023-.04.015-.075.032-.105.051l-.074-.151.057-.032c.023-.011.047-.022.075-.032.028-.01.057-.018.088-.025.032-.006.065-.01.1-.01.065 0 .121.009.168.024.048.016.086.038.117.067.031.029.054.062.07.1.015.04.022.082.022.128 0 .054-.015.102-.044.145-.03.042-.068.074-.116.097.061.021.111.057.151.106.04.05.06.113.06.19 0 .052-.009.1-.027.144-.018.044-.045.082-.082.115-.037.032-.085.057-.141.076-.058.019-.126.028-.204.028zM33.858 27.44c.065-.025.13-.058.196-.098.066-.041.124-.089.174-.143h.144v1.165h-.204v-.893c-.03.024-.069.047-.115.07-.046.022-.09.04-.133.055l-.062-.155zM35.429 27.197v.72h.131v.167h-.131v.279h-.199v-.28h-.512v-.144c.023-.05.052-.106.09-.17.038-.064.08-.13.126-.196.046-.068.095-.134.146-.199.052-.065.104-.124.155-.177h.194zm-.199.251c-.027.033-.055.067-.083.104-.03.037-.057.076-.084.116-.027.04-.053.082-.077.124-.025.042-.047.084-.068.125h.312v-.469z"/>
            <path fill="#324953" d="M38.789 27.44c.065-.026.13-.06.196-.1.066-.04.124-.088.174-.142h.144v1.165h-.204v-.893c-.03.024-.069.047-.115.07-.047.022-.09.04-.134.055l-.061-.155zM40.24 28.03c0-.037-.007-.07-.022-.099-.015-.03-.04-.054-.077-.074-.036-.02-.085-.035-.146-.045-.061-.01-.139-.015-.232-.015.013-.108.022-.21.03-.307l.016-.292h.597v.171h-.423c0 .02-.002.04-.004.065l-.005.073-.006.07-.007.058c.166.009.289.046.368.113.08.067.118.158.118.274 0 .053-.009.101-.026.146-.018.045-.046.084-.083.116-.037.033-.084.058-.14.076-.056.019-.122.028-.197.028-.03 0-.061-.002-.093-.006l-.09-.016c-.029-.006-.054-.013-.076-.02-.023-.006-.04-.012-.05-.018l.038-.172c.024.012.058.024.102.037.044.012.099.019.163.019.043 0 .08-.005.112-.014.032-.01.057-.023.077-.04.02-.017.034-.036.043-.058.008-.022.013-.046.013-.07z"/>
            <path fill="#F3714E" d="M9.366 30.134c.065-.026.13-.059.196-.099.066-.04.124-.088.175-.143h.143v1.166h-.204v-.893c-.03.023-.069.046-.115.069-.046.022-.09.04-.133.055l-.062-.155zM10.671 30.327c.07 0 .13.01.178.029.049.02.088.046.118.08.03.033.053.072.067.117.014.044.021.09.021.138 0 .044-.007.089-.022.135-.015.046-.04.087-.071.125-.032.038-.072.068-.12.092-.049.024-.107.037-.173.037-.133 0-.235-.044-.305-.132-.07-.088-.106-.21-.106-.364 0-.113.017-.212.05-.299s.08-.16.142-.219c.061-.06.135-.105.222-.135.087-.031.185-.047.294-.048l.012.168c-.06 0-.117.007-.17.02-.053.011-.1.03-.142.054-.042.024-.077.056-.107.096-.03.039-.052.087-.068.144.055-.025.115-.038.18-.038zm-.025.161c-.033 0-.065.003-.095.009-.03.006-.058.014-.082.025l-.003.03v.03c0 .046.003.088.009.128.006.04.017.074.032.104s.036.053.062.07c.027.018.06.026.099.026.033 0 .06-.006.084-.02.023-.014.042-.03.056-.052.014-.021.025-.044.032-.07.007-.025.01-.05.01-.073 0-.067-.016-.118-.049-.154-.033-.035-.085-.053-.155-.053z"/>
            <path fill="#324953" d="M14.004 30.132c.066-.026.13-.059.197-.099.066-.04.124-.088.174-.143h.143v1.166h-.204v-.893c-.03.023-.068.046-.114.069-.047.022-.09.04-.134.055l-.062-.155zM15.07 31.055c.006-.085.021-.175.045-.269.024-.094.052-.186.087-.275.034-.089.072-.172.113-.25.04-.078.081-.144.122-.196h-.538v-.175h.78v.155c-.037.041-.077.098-.121.17-.044.071-.085.152-.125.242-.039.09-.073.187-.102.29-.029.104-.046.206-.053.308h-.209zM19.098 30.133c.065-.026.13-.059.196-.099.066-.04.124-.088.174-.143h.144v1.166h-.204v-.893c-.03.023-.069.046-.115.069-.046.022-.09.04-.133.055l-.062-.155zM20.78 30.742c0 .048-.009.093-.025.135-.017.041-.042.077-.076.107-.034.03-.076.054-.126.07-.05.018-.108.026-.173.026-.076 0-.14-.01-.19-.032-.05-.021-.091-.048-.122-.08-.03-.033-.052-.068-.065-.106-.012-.037-.019-.073-.019-.106 0-.034.005-.065.014-.093.01-.03.023-.055.04-.08.017-.024.036-.046.057-.066.021-.02.044-.038.068-.054-.052-.036-.09-.075-.116-.117-.025-.042-.037-.093-.037-.154 0-.044.008-.085.026-.125.017-.04.042-.075.075-.105.032-.03.072-.054.118-.072.046-.018.097-.027.153-.027.066 0 .123.01.17.029.046.018.084.043.114.074.03.03.052.064.065.1.014.037.02.074.02.108 0 .062-.017.117-.05.164-.034.048-.073.085-.116.114.066.036.115.077.147.124.032.047.048.102.048.166zm-.595.01c0 .018.003.035.01.054.006.02.018.037.033.053.016.015.036.028.06.04.025.01.057.015.093.015.034 0 .063-.004.088-.013.024-.01.045-.022.06-.037.016-.015.028-.032.036-.052.008-.02.012-.04.012-.06 0-.031-.007-.059-.019-.082-.012-.024-.03-.044-.053-.062-.023-.017-.05-.032-.081-.045-.032-.013-.067-.024-.105-.034-.04.026-.073.057-.098.093-.024.037-.036.08-.036.13zm.367-.575c0-.014-.003-.03-.01-.048-.006-.017-.016-.033-.03-.048-.014-.014-.031-.027-.053-.037-.02-.01-.047-.015-.077-.015s-.056.005-.079.014c-.021.01-.04.022-.052.037-.014.015-.024.032-.03.049-.007.017-.01.034-.01.051 0 .043.016.083.048.121.032.039.085.069.16.091.042-.026.075-.055.098-.088.023-.033.035-.075.035-.127zM23.866 30.133c.065-.026.13-.059.196-.099.066-.04.124-.088.175-.143h.143v1.166h-.204v-.893c-.03.023-.069.046-.115.069-.046.022-.09.04-.133.055l-.062-.155zM25.315 30.574c-.027.013-.057.022-.09.03-.032.006-.064.009-.094.009-.07 0-.13-.01-.178-.028-.049-.018-.089-.044-.12-.077-.03-.033-.053-.072-.067-.115-.015-.044-.022-.091-.022-.142 0-.044.007-.088.022-.134.014-.045.037-.087.069-.125.031-.038.07-.07.12-.093.047-.024.105-.037.171-.037.137 0 .24.044.31.132.071.088.106.212.106.373 0 .226-.058.398-.175.514-.117.117-.296.176-.538.177l-.008-.17c.067 0 .128-.005.183-.017.054-.011.102-.029.143-.053.041-.025.076-.058.103-.097.029-.04.05-.089.065-.147zm-.16-.123c.032 0 .064-.003.095-.01.032-.005.059-.015.081-.027l.002-.032v-.024c0-.044-.003-.087-.01-.127-.006-.04-.016-.074-.032-.104-.015-.03-.035-.053-.062-.07-.026-.018-.059-.026-.099-.026-.032 0-.06.006-.083.02-.023.014-.042.03-.057.052-.015.021-.025.045-.032.07-.007.024-.01.048-.01.071 0 .069.017.12.05.155.034.035.086.052.156.052zM29.586 30.193c0 .04-.009.08-.025.119-.017.038-.04.076-.065.112-.026.037-.056.072-.09.106l-.101.1c-.018.017-.039.037-.06.06-.024.024-.045.048-.065.071-.02.024-.038.047-.052.068-.015.022-.023.04-.024.055h.519v.172h-.743l-.002-.033v-.03c0-.053.009-.103.026-.149.017-.045.04-.087.068-.126.028-.04.06-.077.095-.111.034-.035.069-.07.104-.103.027-.026.053-.05.077-.076.025-.024.047-.049.065-.073.018-.024.034-.048.045-.074.01-.025.017-.051.017-.078 0-.058-.017-.1-.051-.124-.034-.025-.075-.037-.123-.037-.032 0-.06.005-.087.014-.027.008-.051.02-.072.032-.02.012-.04.025-.055.037-.015.013-.027.023-.035.032l-.101-.143c.047-.045.102-.081.165-.109.064-.027.132-.04.205-.04.125 0 .216.028.275.087.06.059.09.14.09.241zM30.617 30.471c0 .197-.036.347-.108.452-.072.105-.172.157-.298.157-.127 0-.226-.052-.298-.157-.072-.104-.108-.255-.108-.451 0-.098.01-.185.028-.26.018-.076.045-.14.08-.191.036-.052.078-.091.129-.118.05-.027.106-.04.169-.04.127 0 .226.052.298.156.071.106.108.256.108.453zm-.211 0c0-.06-.003-.116-.01-.17-.007-.052-.018-.098-.033-.136-.015-.04-.035-.07-.06-.092-.025-.023-.056-.033-.093-.033s-.068.01-.093.033c-.026.023-.046.053-.06.091-.016.04-.027.085-.033.138-.006.053-.01.11-.01.17 0 .06.003.117.01.17.006.052.017.098.032.137.015.038.036.069.06.09.026.024.057.034.094.034s.068-.01.093-.033c.024-.023.045-.053.06-.091.015-.04.026-.085.033-.138.006-.052.01-.11.01-.17zM34.516 30.192c0 .041-.008.08-.025.119-.017.038-.038.076-.064.112-.027.037-.057.072-.09.107l-.102.1c-.018.017-.038.036-.06.06-.023.023-.044.047-.064.07-.02.024-.038.047-.052.068-.015.022-.023.04-.024.055h.519v.172h-.744l-.001-.033v-.03c0-.053.008-.103.026-.148.017-.046.04-.088.068-.127.028-.04.06-.077.094-.111l.105-.103c.027-.026.053-.05.077-.075.025-.025.046-.05.065-.073.018-.024.033-.049.044-.074.012-.026.017-.052.017-.079 0-.058-.017-.1-.05-.124-.034-.025-.075-.037-.123-.037-.032 0-.06.005-.088.014-.026.009-.05.02-.071.032-.021.012-.04.025-.055.038-.016.012-.028.023-.036.03l-.1-.142c.047-.045.102-.081.165-.109.063-.027.132-.04.205-.04.124 0 .216.028.275.087.06.059.09.14.09.241zM34.815 30.132c.065-.026.13-.059.196-.099.066-.04.124-.088.174-.143h.144v1.166h-.204v-.893c-.03.023-.069.046-.115.069-.046.022-.09.04-.133.055l-.062-.155zM39.447 30.192c0 .041-.009.08-.025.119-.017.038-.039.076-.065.112-.026.037-.056.072-.09.107l-.101.1c-.018.017-.038.036-.06.06-.023.023-.044.047-.064.07-.02.024-.038.047-.053.068-.014.022-.022.04-.023.055h.518v.172h-.743l-.002-.033v-.03c0-.053.009-.103.026-.148.018-.046.04-.088.068-.127.028-.04.06-.077.095-.111l.104-.103.078-.075c.024-.025.046-.05.064-.073.019-.024.034-.049.045-.074.011-.026.017-.052.017-.079 0-.058-.017-.1-.05-.124-.034-.025-.075-.037-.124-.037-.031 0-.06.005-.087.014-.027.009-.051.02-.072.032-.02.012-.039.025-.055.038l-.035.03-.101-.142c.047-.045.102-.081.166-.109.063-.027.132-.04.204-.04.125 0 .217.028.276.087.06.059.089.14.089.241zM40.404 30.192c0 .041-.008.08-.025.119-.017.038-.038.076-.064.112-.027.037-.057.072-.09.107l-.102.1c-.018.017-.038.036-.06.06-.023.023-.044.047-.064.07-.02.024-.038.047-.053.068-.014.022-.022.04-.023.055h.519v.172h-.743c-.002-.01-.002-.02-.002-.033v-.03c0-.053.008-.103.026-.148.017-.046.04-.088.068-.127.028-.04.06-.077.094-.111l.105-.103.077-.075c.025-.025.046-.05.065-.073.018-.024.033-.049.044-.074.011-.026.017-.052.017-.079 0-.058-.017-.1-.05-.124-.034-.025-.075-.037-.123-.037-.032 0-.06.005-.088.014-.027.009-.05.02-.072.032-.02.012-.039.025-.054.038-.016.012-.028.023-.036.03l-.1-.142c.046-.045.102-.081.165-.109.063-.027.132-.04.205-.04.124 0 .216.028.275.087.06.059.09.14.09.241z"/>
            <path fill="#F3714E" d="M10.025 32.886c0 .04-.009.08-.025.118-.017.039-.039.077-.065.113-.027.036-.056.072-.09.106l-.101.1c-.018.017-.039.037-.06.06-.024.024-.045.047-.065.071-.02.024-.037.046-.052.068-.015.022-.023.04-.024.055h.519v.171h-.743l-.002-.033v-.029c0-.054.008-.103.026-.149.017-.045.04-.088.068-.127.028-.039.06-.076.094-.11l.105-.103.077-.076c.025-.024.047-.049.065-.073.018-.024.034-.049.044-.074.012-.025.017-.051.017-.078 0-.059-.017-.1-.05-.125-.034-.024-.075-.037-.123-.037-.032 0-.06.005-.087.014-.027.01-.051.02-.072.032-.02.012-.04.025-.055.038l-.035.031-.101-.143c.047-.045.102-.08.165-.108.064-.028.132-.041.205-.041.125 0 .216.029.275.088.06.058.09.139.09.24zM10.57 33.773c-.031 0-.062-.002-.094-.007-.033-.003-.063-.008-.092-.015-.028-.006-.054-.012-.078-.02-.024-.007-.041-.014-.054-.021l.04-.173c.024.011.059.024.104.038.045.014.1.02.167.02.088 0 .152-.016.192-.05.04-.035.059-.08.059-.138 0-.037-.008-.068-.023-.092-.015-.025-.036-.045-.062-.06-.027-.015-.057-.026-.091-.032-.035-.006-.07-.01-.109-.01h-.069v-.165h.084c.026 0 .052-.002.079-.007.026-.005.05-.014.071-.027.022-.013.04-.03.053-.052.014-.02.02-.048.02-.082 0-.027-.005-.05-.015-.069-.01-.019-.023-.035-.04-.047-.016-.012-.035-.021-.056-.027-.021-.006-.044-.008-.067-.008-.051 0-.096.007-.135.022-.04.015-.074.032-.104.052l-.075-.152.057-.032c.023-.011.048-.022.076-.032.027-.01.057-.018.088-.024.032-.007.065-.01.1-.01.064 0 .12.008.168.024.047.015.086.038.117.066.03.029.054.063.069.101.015.039.023.081.023.127 0 .054-.016.102-.045.145-.03.042-.068.075-.115.097.06.022.111.057.15.106.04.05.06.113.06.19 0 .052-.008.1-.026.144-.018.045-.046.083-.083.115-.037.032-.084.057-.14.075-.058.02-.126.03-.205.03z"/>
            <path fill="#324953" d="M14.663 32.885c0 .04-.008.08-.025.118-.017.039-.038.076-.065.113-.026.036-.056.071-.09.106l-.1.1c-.019.017-.039.036-.061.06l-.064.07c-.02.024-.038.047-.052.069-.015.021-.023.04-.024.054h.519v.172h-.744l-.001-.033v-.03c0-.053.008-.102.026-.148.017-.045.04-.088.068-.127.027-.04.06-.076.094-.11l.104-.104.078-.075c.025-.025.046-.05.065-.073.018-.024.033-.049.044-.074.011-.026.017-.052.017-.078 0-.059-.017-.1-.05-.125-.034-.024-.075-.037-.123-.037-.032 0-.06.005-.088.014-.027.009-.05.02-.071.032-.021.012-.04.025-.055.038l-.036.03-.1-.142c.046-.045.102-.081.165-.108.063-.028.132-.041.205-.041.124 0 .216.029.275.088.06.058.09.138.09.24zM15.576 32.582v.72h.132v.166h-.132v.28h-.199v-.28h-.512v-.144c.023-.05.053-.106.09-.17.038-.064.08-.13.126-.197s.095-.133.147-.198c.051-.065.103-.124.155-.177h.193zm-.199.25l-.083.105c-.03.036-.056.075-.083.116-.027.04-.053.081-.078.123-.024.042-.047.084-.067.125h.311v-.469zM19.757 32.885c0 .04-.009.08-.026.118-.017.039-.038.076-.064.113-.027.036-.056.071-.09.106l-.102.1c-.018.017-.038.036-.06.06l-.064.07c-.02.024-.038.047-.052.069-.015.021-.023.04-.024.054h.519v.172h-.743l-.002-.033v-.03c0-.053.008-.102.026-.148.017-.045.04-.088.068-.127.028-.04.06-.076.094-.11l.105-.104c.027-.026.053-.05.077-.075.025-.025.047-.05.065-.073.018-.024.033-.049.044-.074.012-.026.017-.052.017-.078 0-.059-.017-.1-.05-.125-.034-.024-.075-.037-.123-.037-.032 0-.06.005-.087.014-.027.009-.051.02-.072.032-.021.012-.04.025-.055.038l-.035.03-.102-.142c.048-.045.103-.081.166-.108.064-.028.132-.041.205-.041.125 0 .216.029.275.088.06.058.09.138.09.24zM20.549 33.414c0-.037-.007-.07-.022-.099-.015-.03-.04-.054-.076-.074-.037-.02-.086-.035-.147-.045-.061-.01-.138-.015-.231-.015.012-.108.021-.21.028-.307.007-.097.013-.195.017-.292h.597v.172h-.423c0 .018-.002.04-.004.064l-.005.073-.006.07-.007.058c.166.009.29.047.368.114.08.067.119.158.119.273 0 .053-.01.102-.027.146-.018.045-.046.084-.083.116-.037.033-.084.058-.14.077-.056.018-.122.028-.197.028-.03 0-.061-.003-.092-.007-.032-.005-.062-.01-.09-.016-.03-.006-.055-.013-.077-.02-.023-.006-.04-.012-.05-.018l.038-.172c.024.012.058.024.102.037.044.013.099.02.163.02.044 0 .08-.006.112-.015.032-.01.058-.023.077-.04.02-.017.034-.036.043-.058.008-.022.013-.045.013-.07zM24.525 32.885c0 .04-.009.08-.025.118-.017.039-.04.076-.065.113-.027.036-.056.071-.09.106l-.101.1c-.018.017-.039.036-.06.06-.024.024-.045.047-.065.07-.02.024-.038.047-.052.069-.015.021-.023.04-.024.054h.519v.172h-.743l-.002-.033v-.03c0-.053.009-.102.026-.148.017-.045.04-.088.068-.127.028-.04.06-.076.094-.11l.105-.104c.027-.026.053-.05.077-.075.025-.025.047-.05.065-.073.018-.024.034-.049.045-.074.01-.026.017-.052.017-.078 0-.059-.017-.1-.051-.125-.034-.024-.075-.037-.123-.037-.032 0-.06.005-.087.014-.027.009-.051.02-.072.032-.02.012-.04.025-.055.038l-.035.03-.101-.142c.047-.045.102-.081.165-.108.064-.028.132-.041.205-.041.125 0 .216.029.275.088.06.058.09.138.09.24zM25.172 33.019c.07 0 .129.01.178.03.048.019.088.045.118.079.03.033.053.072.067.117.014.044.021.09.021.139 0 .043-.008.088-.023.134-.015.046-.038.088-.07.125-.033.038-.073.069-.121.093-.048.024-.106.036-.172.036-.134 0-.236-.044-.306-.132-.07-.088-.105-.21-.105-.364 0-.112.017-.212.05-.299.033-.086.08-.16.141-.219.062-.06.136-.104.223-.135.087-.03.185-.047.294-.048l.012.168c-.06.001-.118.008-.17.02-.053.011-.1.03-.142.054-.042.025-.078.057-.107.096-.03.039-.052.087-.069.145.056-.026.116-.039.18-.039zm-.026.161c-.032 0-.064.003-.094.009-.03.005-.058.014-.083.025l-.002.03-.001.03c0 .045.003.088.01.127.006.04.016.075.032.105.015.03.035.053.062.07.026.018.059.026.099.026.032 0 .06-.006.083-.02.023-.014.042-.03.056-.052.015-.022.026-.045.033-.07.006-.026.01-.05.01-.073 0-.068-.017-.119-.05-.154-.032-.035-.084-.053-.155-.053zM29.586 32.885c0 .04-.009.08-.025.118-.017.039-.04.076-.065.113-.026.036-.056.071-.09.106l-.101.1c-.018.017-.039.036-.06.06-.024.024-.045.047-.065.07-.02.024-.038.047-.052.069-.015.021-.023.04-.024.054h.519v.172h-.743l-.002-.033v-.03c0-.053.009-.102.026-.148.017-.045.04-.088.068-.127.028-.04.06-.076.095-.11.034-.036.069-.07.104-.104.027-.026.053-.05.077-.075.025-.025.047-.05.065-.073.018-.024.034-.049.045-.074.01-.026.017-.052.017-.078 0-.059-.017-.1-.051-.125-.034-.024-.075-.037-.123-.037-.032 0-.06.005-.087.014-.027.009-.051.02-.072.032-.02.012-.04.025-.055.038l-.035.03-.101-.142c.047-.045.102-.081.165-.108.064-.028.132-.041.205-.041.125 0 .216.029.275.088.06.058.09.138.09.24zM29.991 33.747c.007-.085.022-.175.046-.27.023-.093.052-.185.087-.274.034-.09.071-.173.113-.25.04-.078.081-.144.122-.196h-.538v-.175h.78v.155c-.037.041-.077.098-.121.17-.044.071-.086.152-.125.242-.04.09-.073.187-.102.29-.029.103-.046.206-.053.308h-.209zM34.517 32.886c0 .04-.009.08-.026.118-.017.039-.038.077-.064.113-.027.036-.056.072-.09.106l-.102.1-.06.06-.064.07c-.02.024-.037.047-.052.069-.015.022-.023.04-.024.055h.519v.171h-.743l-.002-.033v-.03c0-.053.008-.102.026-.148.017-.045.04-.088.068-.127.028-.039.06-.076.094-.11.035-.036.07-.07.105-.103l.077-.076c.025-.025.047-.049.065-.073.018-.024.034-.049.044-.074.012-.025.017-.051.017-.078 0-.059-.017-.1-.05-.125-.034-.024-.075-.037-.123-.037-.032 0-.06.005-.087.014-.027.009-.051.02-.072.032-.021.012-.04.025-.055.038l-.035.031-.102-.143c.048-.045.103-.081.166-.108.064-.028.132-.041.205-.041.125 0 .216.029.275.088.06.058.09.138.09.24zM35.539 33.435c0 .048-.008.092-.025.134-.017.041-.042.077-.076.107-.033.03-.075.054-.125.071-.05.017-.108.026-.173.026-.077 0-.14-.011-.19-.032-.051-.022-.092-.048-.122-.081s-.052-.067-.065-.105c-.012-.038-.02-.073-.02-.107 0-.033.006-.064.015-.093.01-.029.023-.055.04-.08.017-.023.036-.045.057-.066.021-.02.044-.038.068-.054-.052-.035-.09-.075-.116-.117-.025-.041-.038-.093-.038-.153 0-.044.009-.086.026-.126.018-.04.043-.075.075-.105.033-.03.072-.054.119-.072.045-.018.097-.027.153-.027.066 0 .123.01.17.029.046.019.084.044.114.074s.052.064.065.1c.013.038.02.074.02.108 0 .062-.017.117-.05.165-.034.047-.073.085-.117.113.066.036.116.077.148.125.03.046.047.101.047.166zm-.595.01c0 .016.003.034.01.053.007.02.018.037.034.053.015.015.036.028.06.04.025.01.056.015.093.015.033 0 .063-.004.087-.014.025-.008.045-.02.06-.036.016-.015.028-.032.036-.052.008-.02.012-.04.012-.06 0-.032-.006-.059-.019-.083-.012-.023-.03-.043-.053-.06-.022-.018-.05-.033-.081-.046-.032-.013-.066-.025-.105-.035-.04.026-.073.058-.097.094-.025.037-.037.08-.037.13zm.368-.575c0-.015-.004-.031-.01-.048-.006-.018-.016-.034-.03-.049-.014-.014-.032-.026-.053-.036-.021-.01-.047-.015-.077-.015s-.056.004-.079.014c-.022.01-.04.022-.053.037-.013.015-.023.031-.03.048-.006.018-.01.035-.01.052 0 .042.016.083.048.12.032.039.086.07.161.092.042-.026.075-.056.098-.089.023-.032.035-.075.035-.126zM39.447 32.885c0 .04-.009.08-.025.119-.017.038-.039.076-.065.112-.026.037-.056.072-.09.106l-.101.1-.06.06c-.023.024-.044.048-.064.072-.02.023-.038.046-.053.068-.014.021-.022.04-.023.054h.518v.172h-.743l-.002-.033v-.03c0-.053.009-.103.026-.148.018-.046.04-.088.068-.127.028-.04.06-.077.095-.111l.104-.103.078-.075c.024-.025.046-.05.064-.073.019-.025.034-.049.045-.074.011-.026.017-.052.017-.079 0-.058-.017-.1-.05-.124-.034-.025-.075-.037-.124-.037-.031 0-.06.005-.087.014-.027.009-.051.02-.072.032-.02.012-.039.025-.055.038l-.035.03-.101-.142c.047-.045.102-.081.166-.109.063-.027.132-.04.204-.04.125 0 .217.029.276.087.06.059.089.14.089.241zM40.237 33.266c-.027.012-.056.022-.09.029-.032.007-.063.01-.094.01-.069 0-.129-.01-.177-.028-.049-.018-.089-.044-.12-.077-.03-.033-.054-.072-.068-.115-.014-.044-.022-.091-.022-.142 0-.044.008-.088.022-.134.015-.045.038-.087.07-.125.03-.038.07-.07.119-.093.048-.025.105-.037.172-.037.137 0 .24.044.31.132.07.088.106.212.106.373 0 .226-.059.398-.175.514-.117.117-.297.176-.538.177l-.009-.17c.068 0 .129-.005.183-.017.055-.011.102-.029.143-.053.042-.025.076-.058.104-.097.028-.04.05-.088.064-.147zm-.16-.122c.033 0 .065-.004.096-.01.032-.006.058-.015.08-.028l.003-.032v-.023c0-.045-.004-.087-.01-.127-.006-.04-.017-.075-.032-.104-.015-.03-.036-.054-.062-.071-.027-.018-.06-.026-.1-.026-.032 0-.06.007-.083.02-.023.014-.042.03-.056.053-.014.02-.025.044-.032.069-.007.024-.01.048-.01.072 0 .068.017.12.05.154.034.035.086.053.156.053z"/>
            <path fill="#F3714E" d="M9.612 36.465c-.03 0-.061-.002-.093-.006-.033-.004-.063-.01-.092-.015-.028-.006-.054-.013-.078-.02-.024-.008-.042-.015-.054-.022l.04-.173c.024.011.058.024.104.038.045.014.1.021.167.021.088 0 .152-.017.192-.051.039-.035.059-.08.059-.138 0-.036-.008-.067-.023-.092-.015-.024-.036-.045-.062-.06-.027-.015-.057-.026-.091-.032-.035-.006-.07-.01-.109-.01h-.069v-.164h.084c.026 0 .052-.003.079-.008.026-.005.05-.014.071-.027.022-.013.04-.03.053-.051.013-.021.02-.049.02-.083 0-.027-.005-.05-.015-.069-.01-.018-.023-.034-.04-.047-.016-.012-.035-.02-.056-.027-.021-.005-.044-.008-.067-.008-.051 0-.096.008-.135.023-.04.015-.074.032-.105.051l-.074-.151c.016-.01.035-.021.057-.032.023-.012.048-.022.076-.032.027-.01.057-.019.088-.025.032-.006.065-.01.1-.01.064 0 .12.009.168.024.047.016.086.038.117.067.03.028.054.062.069.1.015.04.023.082.023.127 0 .054-.015.102-.045.145s-.068.075-.115.098c.06.021.111.056.15.106.04.05.06.113.06.19 0 .051-.008.1-.026.144-.018.044-.046.082-.083.114-.037.032-.084.057-.14.076-.059.02-.126.029-.205.029zM11.056 35.856c0 .196-.036.346-.108.451-.072.105-.171.157-.298.157-.127 0-.226-.052-.298-.157-.072-.104-.108-.255-.108-.451 0-.098.01-.185.028-.26.018-.075.045-.14.08-.191.036-.051.079-.091.129-.118.05-.027.106-.04.169-.04.127 0 .226.052.298.157.072.105.108.256.108.452zm-.21 0c0-.06-.004-.117-.01-.17-.008-.053-.018-.099-.034-.137-.015-.039-.035-.07-.06-.092-.025-.022-.056-.033-.093-.033-.036 0-.067.011-.093.033-.026.023-.045.053-.06.092-.016.038-.027.084-.033.137-.006.053-.01.11-.01.17 0 .06.004.117.01.17.007.052.017.098.033.137.015.038.035.07.06.091.025.023.056.034.094.034.036 0 .067-.012.092-.034.025-.022.045-.053.06-.091.015-.039.026-.085.033-.137.007-.053.01-.11.01-.17z"/>
            <path fill="#324953" d="M14.25 36.465c-.03 0-.061-.002-.093-.006s-.063-.01-.091-.015c-.03-.006-.055-.013-.079-.02-.023-.008-.041-.015-.054-.022l.041-.173c.024.011.058.024.103.038.045.014.1.021.167.021.088 0 .152-.017.192-.051.04-.035.06-.08.06-.138 0-.036-.008-.067-.024-.092-.015-.024-.035-.045-.062-.06-.026-.015-.057-.026-.091-.032-.035-.006-.07-.01-.109-.01h-.069v-.164h.084c.026 0 .052-.003.079-.008.026-.005.05-.014.072-.027.02-.013.038-.03.052-.051.014-.021.02-.049.02-.083 0-.027-.005-.05-.015-.069-.01-.018-.023-.034-.04-.047-.016-.012-.035-.02-.056-.027-.021-.005-.044-.008-.067-.008-.05 0-.096.008-.135.023-.04.015-.074.032-.104.051l-.075-.151c.016-.01.036-.021.058-.032.022-.012.047-.022.075-.032.027-.01.057-.019.088-.025.031-.006.065-.01.1-.01.065 0 .12.009.168.024.047.016.086.038.117.067.03.028.054.062.07.1.014.04.022.082.022.127 0 .054-.015.102-.045.145s-.068.075-.115.098c.06.021.111.056.15.106.04.05.06.113.06.19 0 .051-.008.1-.026.144-.018.044-.046.082-.083.114-.037.032-.084.057-.14.076-.059.02-.126.029-.205.029zM14.96 35.516c.066-.026.131-.059.197-.099.066-.04.124-.088.175-.143h.143v1.166h-.204v-.893c-.03.024-.069.047-.115.069-.046.022-.09.04-.133.055l-.062-.155z"/>
            <path fill="#CCDDEC" d="M45.057 35.946s-.17 2.754-3.473 3.68h3.473v-3.68z"/>
            <path fill="#CCDDEC" d="M38.31 35.847H.575s.17 2.754 3.472 3.68h37.736c-3.303-.926-3.473-3.68-3.473-3.68z"/>
            <path fill="#DBEAF8" d="M44.86 16.782H3.652v.305H44.86v-.305zM44.86 11.752H3.652v.306H44.86v-.306z"/>
            <path fill="#CCDDEC" d="M45.805 11.945h-.99v27.56h.99v-27.56z"/>
        </g>
    </g>
    <defs>
        <linearGradient id="paint0_linear" x1="57.636" x2="64.275" y1="32.98" y2="171.355" gradientUnits="userSpaceOnUse">
            <stop stop-color="#FF6161"/>
            <stop offset="1" stop-color="#BF1D1D"/>
        </linearGradient>
        <linearGradient id="paint1_linear" x1="83.399" x2="90.037" y1="31.744" y2="170.119" gradientUnits="userSpaceOnUse">
            <stop stop-color="#FF6161"/>
            <stop offset="1" stop-color="#BF1D1D"/>
        </linearGradient>
        <linearGradient id="paint2_linear" x1="158.9" x2="165.538" y1="28.122" y2="166.497" gradientUnits="userSpaceOnUse">
            <stop stop-color="#FF6161"/>
            <stop offset="1" stop-color="#BF1D1D"/>
        </linearGradient>
        <linearGradient id="paint3_linear" x1="132.133" x2="138.772" y1="29.406" y2="167.781" gradientUnits="userSpaceOnUse">
            <stop stop-color="#FF6161"/>
            <stop offset="1" stop-color="#BF1D1D"/>
        </linearGradient>
        <linearGradient id="paint4_linear" x1="109.786" x2="109.906" y1="112.789" y2="157.112" gradientUnits="userSpaceOnUse">
            <stop stop-color="#FF6161"/>
            <stop offset="1" stop-color="#BF1D1D"/>
        </linearGradient>
        <linearGradient id="paint5_linear" x1="78.477" x2="78.597" y1="112.874" y2="157.197" gradientUnits="userSpaceOnUse">
            <stop stop-color="#FF6161"/>
            <stop offset="1" stop-color="#BF1D1D"/>
        </linearGradient>
        <linearGradient id="paint6_linear" x1="95.876" x2="95.996" y1="112.827" y2="157.15" gradientUnits="userSpaceOnUse">
            <stop stop-color="#FF6161"/>
            <stop offset="1" stop-color="#BF1D1D"/>
        </linearGradient>
        <linearGradient id="paint7_linear" x1="127.344" x2="127.464" y1="112.742" y2="157.065" gradientUnits="userSpaceOnUse">
            <stop stop-color="#FF6161"/>
            <stop offset="1" stop-color="#BF1D1D"/>
        </linearGradient>
        <linearGradient id="paint8_linear" x1="143.153" x2="143.272" y1="112.699" y2="157.022" gradientUnits="userSpaceOnUse">
            <stop stop-color="#FF6161"/>
            <stop offset="1" stop-color="#BF1D1D"/>
        </linearGradient>
        <linearGradient id="paint9_linear" x1="33.222" x2="-35.803" y1="75.667" y2="114.598" gradientUnits="userSpaceOnUse">
            <stop stop-color="#C3F1C1"/>
            <stop offset="1" stop-color="#72A86F"/>
        </linearGradient>
        <linearGradient id="paint10_linear" x1="32.304" x2="-34.611" y1="75.737" y2="112.745" gradientUnits="userSpaceOnUse">
            <stop stop-color="#C3F1C1"/>
            <stop offset="1" stop-color="#72A86F"/>
        </linearGradient>
        <linearGradient id="paint11_linear" x1="38.247" x2="33.335" y1="126.945" y2="143.616" gradientUnits="userSpaceOnUse">
            <stop stop-color="#C3F1C1"/>
            <stop offset="1" stop-color="#72A86F"/>
        </linearGradient>
        <linearGradient id="paint12_linear" x1="67.439" x2="21.945" y1="81.336" y2="102.003" gradientUnits="userSpaceOnUse">
            <stop stop-color="#C3F1C1"/>
            <stop offset="1" stop-color="#72A86F"/>
        </linearGradient>
        <linearGradient id="paint13_linear" x1="91.036" x2="62.69" y1="84.239" y2="93.975" gradientUnits="userSpaceOnUse">
            <stop stop-color="#C3F1C1"/>
            <stop offset="1" stop-color="#72A86F"/>
        </linearGradient>
        <linearGradient id="paint14_linear" x1="130.654" x2="102.311" y1="84.24" y2="93.974" gradientUnits="userSpaceOnUse">
            <stop stop-color="#C3F1C1"/>
            <stop offset="1" stop-color="#72A86F"/>
        </linearGradient>
        <linearGradient id="paint15_linear" x1="153.962" x2="108.477" y1="81.336" y2="101.992" gradientUnits="userSpaceOnUse">
            <stop stop-color="#C3F1C1"/>
            <stop offset="1" stop-color="#72A86F"/>
        </linearGradient>
        <linearGradient id="paint16_linear" x1="184.958" x2="126.019" y1="79.407" y2="107.886" gradientUnits="userSpaceOnUse">
            <stop stop-color="#C3F1C1"/>
            <stop offset="1" stop-color="#72A86F"/>
        </linearGradient>
        <clipPath id="clip0">
            <path fill="#fff" d="M0 0H212.425V165H0z" transform="translate(.575)"/>
        </clipPath>
        <filter id="filter0_d" width="53.329" height="48.747" x=".575" y="3.548" color-interpolation-filters="sRGB" filterUnits="userSpaceOnUse">
            <feFlood flood-opacity="0" result="BackgroundImageFix"/>
            <feColorMatrix in="SourceAlpha" values="0 0 0 0 0 0 0 0 0 0 0 0 0 0 0 0 0 0 127 0"/>
            <feOffset dx="4" dy="8"/>
            <feGaussianBlur stdDeviation="2"/>
            <feColorMatrix values="0 0 0 0 0.321569 0 0 0 0 0.486275 0 0 0 0 0.309804 0 0 0 0.24 0"/>
            <feBlend in2="BackgroundImageFix" result="effect1_dropShadow"/>
            <feBlend in="SourceGraphic" in2="effect1_dropShadow" result="shape"/>
        </filter>
    </defs>
</svg>
