<svg width="23" height="24" viewBox="0 0 23 24" fill="none" xmlns="http://www.w3.org/2000/svg">
<path d="M22.0814 18.7063L21.9574 18.4384C21.5856 17.5599 17.0061 16.2137 16.6266 16.1921L16.3229 16.2154C15.6985 16.3441 15.0107 16.9358 13.5668 18.2155C11.9403 17.4627 9.71232 15.4564 8.66208 14.2713C7.5248 12.9901 6.106 10.8353 5.59611 9.22554C7.24299 7.76602 7.9291 7.13248 7.97277 6.42777C7.99606 6.04826 7.21055 1.34306 6.38312 0.865892L6.13524 0.709468C5.6085 0.370138 4.81234 -0.142754 3.92764 0.0372475C3.71399 0.0821268 3.50474 0.165882 3.30944 0.286625C2.71604 0.661684 1.26296 1.67004 0.599888 2.98848C0.190892 3.80943 0.00498384 11.3015 5.6209 17.6348C10.3561 22.9778 16.0307 23.9581 18.2311 24H18.5211C18.7514 23.9951 18.9286 23.979 19.0375 23.9566L19.067 23.9519L19.1584 23.9239C20.5465 23.4267 21.7224 22.1035 22.1639 21.5582C22.9799 20.5483 22.3974 19.3491 22.0814 18.7063Z" fill="#14B1BD"/>
</svg>
