<svg xmlns="http://www.w3.org/2000/svg" width="24" height="24" fill="none" viewBox="0 0 24 24">
    <path fill="#231E1E" fill-rule="evenodd" d="M12 11.2c-2.208 0-4-1.79-4-4s1.792-4 4-4c2.21 0 4 1.79 4 4s-1.79 4-4 4zm0-1.6c1.326 0 2.4-1.075 2.4-2.4 0-1.326-1.074-2.4-2.4-2.4-1.325 0-2.4 1.074-2.4 2.4 0 1.325 1.075 2.4 2.4 2.4zM5.584 20c.442.01.808-.34.818-.782C6.499 14.83 8.303 13.6 12 13.6c3.904 0 5.694 1.214 5.596 5.582-.01.442.34.808.782.818.442.01.808-.34.818-.782C19.314 13.986 16.839 12 12 12c-4.621 0-7.084 1.97-7.2 7.182-.01.442.34.808.782.818z" clip-rule="evenodd"/>
</svg>
