<svg xmlns="http://www.w3.org/2000/svg" width="24" height="24" fill="none" viewBox="0 0 24 24">
    <path fill="#231E1E" d="M16.571 4.571h-.914v-.914c0-.251-.206-.457-.457-.457-.252 0-.457.206-.457.457v.914H13.37v-.914c0-.251-.206-.457-.457-.457-.252 0-.457.206-.457.457v.914h-1.372v-.914c0-.251-.205-.457-.457-.457-.251 0-.457.206-.457.457v.914H8.8v-.914c0-.251-.206-.457-.458-.457-.251 0-.457.206-.457.457v.914h-.914c-.757 0-1.371.615-1.371 1.372v13.486c0 .756.614 1.37 1.371 1.37h9.6c.757 0 1.371-.614 1.371-1.37V5.942c0-.757-.614-1.372-1.371-1.372zm.457 14.857c0 .252-.205.458-.457.458h-9.6c-.251 0-.457-.206-.457-.457V5.942c0-.252.206-.457.457-.457h9.6c.252 0 .457.205.457.457v13.486zm-1.371-8.914c0 .252-.206.457-.457.457H8.342c-.251 0-.457-.205-.457-.457 0-.251.206-.457.457-.457H15.2c.251 0 .457.206.457.457zm0 2.743c0 .252-.206.457-.457.457H8.342c-.251 0-.457-.206-.457-.457s.206-.457.457-.457H15.2c.251 0 .457.206.457.457zM13.37 16c0 .251-.206.457-.457.457H8.342c-.251 0-.457-.206-.457-.457 0-.252.206-.457.457-.457h4.572c.251 0 .457.206.457.457z"/>
</svg>
