<svg xmlns="http://www.w3.org/2000/svg" width="20" height="20" fill="none" viewBox="0 0 20 20">
    <path fill="#fff" fill-rule="evenodd" d="M2.668 10c0 4.05 3.283 7.333 7.333 7.333 4.05 0 7.334-3.284 7.334-7.334S14.05 2.666 10 2.666 2.668 5.949 2.668 9.999zm13.493 0c0 3.401-2.758 6.16-6.16 6.16S3.841 13.4 3.841 10c0-3.403 2.758-6.16 6.16-6.16s6.16 2.757 6.16 6.16zm-6.826-.667c0-.369.298-.667.666-.667.369 0 .667.298.667.667v3.333c0 .368-.298.667-.667.667-.368 0-.666-.299-.666-.667V9.333zm1.333-2c0 .368-.298.666-.667.666-.368 0-.666-.298-.666-.666 0-.369.298-.667.666-.667.369 0 .667.298.667.667z" clip-rule="evenodd"/>
</svg>
