<svg width="16" height="22" viewBox="0 0 16 22" fill="none" xmlns="http://www.w3.org/2000/svg">
<path fill-rule="evenodd" clip-rule="evenodd" d="M14.7197 0.732422H0.912991C0.531926 0.732422 0.222656 1.041 0.222656 1.42276V17.3005C0.222656 17.6822 0.531926 17.9908 0.912991 17.9908H0.986857C1.08696 18.0564 1.20707 18.1164 1.36447 18.1661L11.0285 21.2036C11.1589 21.245 11.2922 21.2657 11.424 21.2657C12.0785 21.2657 12.5845 20.7556 12.6011 20.0784L12.6521 18.0074C12.6521 18.0041 12.6517 18.001 12.6514 17.998C12.6511 17.9955 12.6508 17.9931 12.6508 17.9908H14.7197C15.1008 17.9908 15.41 17.6822 15.41 17.3005V1.42276C15.41 1.041 15.1008 0.732422 14.7197 0.732422ZM11.2266 19.8188L5.4119 17.9908H11.2722L11.2266 19.8188ZM14.0294 16.6101H11.2894H1.60333V2.11309H14.0294V16.6101ZM10.1175 6.02499H9.54218V5.44971C9.5422 5.37416 9.52733 5.29934 9.49843 5.22954C9.46953 5.15973 9.42715 5.0963 9.37373 5.04288C9.3203 4.98946 9.25688 4.94708 9.18707 4.91818C9.11727 4.88928 9.04245 4.87441 8.9669 4.87443H6.66578C6.59023 4.87441 6.51541 4.88928 6.44561 4.91818C6.3758 4.94708 6.31238 4.98946 6.25896 5.04288C6.20553 5.09631 6.16316 5.15973 6.13425 5.22954C6.10535 5.29934 6.09048 5.37416 6.0905 5.44971V6.02499H5.51522C5.21019 6.02534 4.91774 6.14667 4.70204 6.36237C4.48635 6.57806 4.36502 6.87051 4.36467 7.17555V10.0519C4.36502 10.357 4.48635 10.6494 4.70204 10.8651C4.91774 11.0808 5.21019 11.2022 5.51522 11.2025H10.1175C10.4225 11.2022 10.7149 11.0808 10.9306 10.8651C11.1463 10.6494 11.2677 10.357 11.268 10.0519V7.17555C11.2677 6.87051 11.1463 6.57806 10.9306 6.36237C10.7149 6.14667 10.4225 6.02534 10.1175 6.02499ZM5.51522 10.0519V7.17555H10.1175L10.118 10.0519H5.51522ZM10.6927 14.2206H4.93995C4.62239 14.2206 4.36467 13.9635 4.36467 13.6453C4.36467 13.3272 4.62239 13.07 4.93995 13.07H10.6927C11.0103 13.07 11.268 13.3272 11.268 13.6453C11.268 13.9635 11.0103 14.2206 10.6927 14.2206Z" fill="#6E6B6B"/>
</svg>
