<svg width="30" height="30" viewBox="0 0 30 30" fill="none" xmlns="http://www.w3.org/2000/svg">
<path fill-rule="evenodd" clip-rule="evenodd" d="M7 12.1621C7 16.5165 12.2362 26 15 26C17.7638 26 23 16.5165 23 12.1621C23 7.65934 19.4235 4 15 4C10.5765 4 7 7.65934 7 12.1621ZM18.3774 19.581C16.9742 22.1223 15.3992 24 15 24C14.6008 24 13.0258 22.1223 11.6226 19.581C10.0636 16.7573 9 13.7993 9 12.1621C9 8.75379 11.6915 6 15 6C18.3085 6 21 8.75379 21 12.1621C21 13.7993 19.9364 16.7573 18.3774 19.581ZM15 16C12.7909 16 11 14.2091 11 12C11 9.79086 12.7909 8 15 8C17.2091 8 19 9.79086 19 12C19 14.2091 17.2091 16 15 16ZM17 12C17 13.1046 16.1046 14 15 14C13.8954 14 13 13.1046 13 12C13 10.8954 13.8954 10 15 10C16.1046 10 17 10.8954 17 12Z" fill="#ff9900"/>
</svg>
