<svg xmlns="http://www.w3.org/2000/svg" width="20" height="20" fill="none" viewBox="0 0 20 20">
    <path fill="#96A5B8" fill-rule="evenodd" d="M4.666 8.108c0 2.903 3.49 9.225 5.333 9.225s5.334-6.322 5.334-9.225c0-3.002-2.385-5.441-5.334-5.441s-5.333 2.44-5.333 5.441zm7.585 4.946C11.316 14.748 10.265 16 9.999 16c-.266 0-1.316-1.252-2.251-2.946-1.04-1.882-1.749-3.854-1.749-4.946C6 5.836 7.794 4 10 4c2.206 0 4 1.836 4 4.108 0 1.092-.709 3.064-1.748 4.946zm-2.252-2.387c-1.472 0-2.666-1.194-2.666-2.667 0-1.473 1.194-2.667 2.666-2.667 1.473 0 2.667 1.194 2.667 2.667 0 1.473-1.194 2.667-2.667 2.667zM11.333 8c0 .736-.597 1.333-1.334 1.333-.736 0-1.333-.597-1.333-1.333s.597-1.333 1.333-1.333c.737 0 1.334.597 1.334 1.333z" clip-rule="evenodd"/>
</svg>
