<svg width="28" height="28" viewBox="0 0 28 28" fill="none" xmlns="http://www.w3.org/2000/svg">
<path d="M17.9714 9.17442H10.5048V7.68109H17.9714V9.17442Z" fill="#6E6B6B"/>
<path d="M14.2381 12.3334H10.5048V10.8401H14.2381V12.3334Z" fill="#6E6B6B"/>
<path fill-rule="evenodd" clip-rule="evenodd" d="M22.8699 13.2572C23.1121 13.1696 23.3828 13.2044 23.5933 13.3521C23.8047 13.4997 23.9304 13.7411 23.9304 13.9991V23.476C23.9304 23.9121 23.5772 24.2658 23.1407 24.2658H5.76631C5.33021 24.2658 4.97656 23.9121 4.97656 23.476V13.9991C4.97656 13.7411 5.10229 13.4997 5.31362 13.3521C5.52567 13.2048 5.7964 13.1697 6.03703 13.2572L6.55605 13.446V4.52217C6.55605 4.08607 6.9097 3.73242 7.34579 3.73242H21.5612C21.9977 3.73242 22.3509 4.08607 22.3509 4.52217V13.446L22.8699 13.2572ZM20.7714 5.31191H8.13554V14.0203L14.4535 16.3179L20.7714 14.0203V5.31191ZM6.55605 15.1282V22.6863H22.3509V15.1282L21.8355 15.3155L21.8311 15.3179L14.723 17.9003C14.6359 17.932 14.5447 17.9478 14.4535 17.9478C14.3623 17.9478 14.2711 17.932 14.1839 17.9003L7.07625 15.3179L7.0727 15.3159L6.55605 15.1282Z" fill="#6E6B6B"/>
</svg>
