<svg xmlns="http://www.w3.org/2000/svg" width="58" height="40" fill="none" viewBox="0 0 58 40">
    <mask id="qqkxsntq9a" width="58" height="40" x="0" y="0" maskUnits="userSpaceOnUse">
        <rect width="57.143" height="40" x=".429" fill="#C4C4C4" rx="4"/>
    </mask>
    <g mask="url(#qqkxsntq9a)">
        <path fill="#D80031" d="M57.572 0H.429v2.857h57.143V0z"/>
        <path fill="#fff" d="M57.571 2.857H.43v2.857H57.57V2.857z"/>
        <path fill="#D80031" d="M57.571 5.714H.43V8.57H57.57V5.714z"/>
        <path fill="#fff" d="M57.571 8.57H.43v2.858H57.57V8.57z"/>
        <path fill="#D80031" d="M57.571 11.429H.43v2.857H57.57v-2.857z"/>
        <path fill="#fff" d="M57.571 14.286H.43v2.857H57.57v-2.857z"/>
        <path fill="#D80031" d="M57.571 17.143H.43V20H57.57v-2.857z"/>
        <path fill="#fff" d="M57.571 20H.43v2.857H57.57V20z"/>
        <path fill="#D80031" d="M57.571 22.857H.43v2.857H57.57v-2.857z"/>
        <path fill="#fff" d="M57.571 25.714H.43v2.857H57.57v-2.857z"/>
        <path fill="#D80031" d="M57.571 28.573H.43v2.857H57.57v-2.857z"/>
        <path fill="#fff" d="M57.571 31.43H.43v2.857H57.57v-2.858z"/>
        <path fill="#D80031" d="M57.571 34.286H.43v2.858H57.57v-2.858z"/>
        <path fill="#fff" d="M57.571 37.143H.43V40H57.57v-2.857z"/>
        <path fill="#2530A9" d="M40.429 0h-40v22.859h40V0z"/>
        <path fill="#F5D028" d="M11.14 11.431c0-4.142 3.362-7.503 7.5-7.503 1.435 0 2.779.405 3.92 1.108-1.517-1.356-3.514-2.18-5.71-2.18-4.725 0-8.566 3.842-8.566 8.575 0 4.73 3.84 8.571 8.57 8.571 2.192 0 4.193-.823 5.71-2.179-1.141.703-2.485 1.108-3.92 1.108-4.142-.004-7.503-3.36-7.503-7.5z"/>
        <path fill="#F5D028" d="M28.286 11.432L32.39 9.84l-4.39.351 3.014-3.216-3.808 2.22 1.319-4.2-2.464 3.65-.633-4.358-.459 3.122-.128.897-.05.339-2.464-3.65 1.32 4.2-3.805-2.22 3.01 3.216-4.39-.351 4.11 1.592-4.11 1.587 4.39-.351-3.01 3.216 3.804-2.22-1.319 4.2 2.464-3.65.05.339.128.897.459 3.122.633-4.358 2.464 3.65-1.32-4.2 3.809 2.22L28 12.668l4.39.351-4.105-1.587z"/>
    </g>
</svg>
