<svg width="14" height="12" viewBox="0 0 14 12" fill="none" xmlns="http://www.w3.org/2000/svg">
<path fill-rule="evenodd" clip-rule="evenodd" d="M6.33398 0.665686C6.33398 0.298038 6.63246 0 7.00065 0C7.36884 0 7.66732 0.298038 7.66732 0.665686V6.39052L9.19591 4.86193C9.45626 4.60158 9.87837 4.60158 10.1387 4.86193C10.3991 5.12228 10.3991 5.54439 10.1387 5.80474L7.47206 8.4714C7.21171 8.73175 6.7896 8.73175 6.52925 8.4714L3.86258 5.80474C3.60223 5.54439 3.60223 5.12228 3.86258 4.86193C4.12293 4.60158 4.54504 4.60158 4.80539 4.86193L6.33398 6.39052V0.665686ZM12.334 10.6667V6.66667C12.334 6.29848 12.6325 6 13.0007 6C13.3688 6 13.6673 6.29848 13.6673 6.66667V11.3333C13.6673 11.7015 13.3688 12 13.0007 12H1.00065C0.632461 12 0.333984 11.7015 0.333984 11.3333V6.66667C0.333984 6.29848 0.632461 6 1.00065 6C1.36884 6 1.66732 6.29848 1.66732 6.66667V10.6667H12.334Z" fill="#96A5B8"/>
</svg>
