<svg width="14" height="14" fill="none" xmlns="http://www.w3.org/2000/svg">
    <path d="M9.748 3.007h-1.71a1.14 1.14 0 0 0-2.282 0H4.045A1.711 1.711 0 0 0 2.333 4.72v5.703a1.711 1.711 0 0 0 1.712 1.711h5.703a1.71 1.71 0 0 0 1.711-1.71V4.718a1.711 1.711 0 0 0-1.71-1.712zm1.141 7.415a1.143 1.143 0 0 1-1.14 1.141H4.044a1.142 1.142 0 0 1-1.141-1.14V4.718a1.142 1.142 0 0 1 1.14-1.141h.571a.57.57 0 0 0 .57.57h3.423a.57.57 0 0 0 .57-.57h.57a1.142 1.142 0 0 1 1.141 1.14v5.704zM7.467 6.43v1.71a.57.57 0 1 1-1.14 0V6.43a.57.57 0 1 1 1.14 0zm0 3.422a.57.57 0 1 1-1.141 0 .57.57 0 0 1 1.14 0z" fill="#fff"/>
</svg>
