<svg width="80" height="80" viewBox="0 0 80 80" fill="none" xmlns="http://www.w3.org/2000/svg">
<circle cx="40" cy="40" r="40" fill="#F3F3F3"/>
<circle cx="40" cy="40.002" r="29.4737" fill="#4CAF50"/>
<path d="M46.2056 26.3945C42.7871 26.3945 40.0002 29.1814 40.0002 32.5999C40.0002 36.0184 42.7871 38.8053 46.2056 38.8053C49.6241 38.8053 52.411 36.0184 52.411 32.5999C52.411 29.1814 49.6241 26.3945 46.2056 26.3945ZM46.2056 27.8546C48.835 27.8546 50.9509 29.9705 50.9509 32.5999C50.9509 35.2293 48.835 37.3452 46.2056 37.3452C43.5762 37.3452 41.4603 35.2293 41.4603 32.5999C41.4603 29.9705 43.5762 27.8546 46.2056 27.8546ZM33.715 39.1703C33.6274 39.1815 33.5419 39.2087 33.464 39.2502L30.8746 40.9498V40.619C30.8746 40.2368 30.5268 39.889 30.1446 39.889H25.7643C25.382 39.889 25.0343 40.2368 25.0342 40.619V46.4594C25.0288 46.8451 25.3786 47.1998 25.7643 47.1998C26.15 47.1998 26.4998 46.8451 26.4943 46.4594V41.3491H29.4145V50.1096H26.4943V49.3796C26.4998 48.9939 26.15 48.6391 25.7643 48.6391C25.3786 48.6391 25.0288 48.9939 25.0342 49.3796V50.8397C25.0343 51.2219 25.382 51.5697 25.7643 51.5697H30.1446C30.5268 51.5697 30.8746 51.2219 30.8746 50.8397V49.756H31.4792L41.2093 53.3606C41.4097 53.4327 41.6416 53.4112 41.8253 53.3036C41.8253 53.3036 54.0865 46.2214 54.1348 46.1848C54.6381 45.8031 54.9662 45.1946 54.9662 44.5202C54.9662 43.3779 54.0095 42.4556 52.8787 42.4556C50.6989 43.0566 48.4809 43.8547 46.3083 44.5658C46.2313 44.5208 46.1519 44.474 46.0687 44.4404L34.0686 39.216C33.9568 39.172 33.8342 39.1562 33.715 39.1703ZM33.829 40.6989L45.5212 45.7864C45.7435 45.8763 45.8406 45.981 45.8406 46.3225C45.8406 46.5024 45.7882 46.5917 45.6923 46.6761C45.5963 46.7605 45.4305 46.8358 45.2132 46.8358H40.8557L36.5781 45.41C36.207 45.247 35.7185 45.4644 35.5912 45.8493C35.464 46.2341 35.7267 46.6999 36.1218 46.7902L40.5021 48.2503C40.5751 48.2775 40.6524 48.293 40.7302 48.2959H45.2132C45.7453 48.2959 46.2688 48.1169 46.6619 47.7712C47.0549 47.4255 47.3007 46.8935 47.3007 46.3225C47.3007 46.1423 47.2764 45.9666 47.2322 45.7978L52.9243 43.9271C53.2604 43.9497 53.5061 44.1825 53.5061 44.5202C53.5061 44.7498 53.3852 44.9344 53.2095 45.0449L41.3804 51.8663L31.8556 48.3416C31.7755 48.3118 31.6901 48.2963 31.6047 48.2959H30.8746V42.9689L33.829 40.6989Z" fill="white"/>
</svg>
