<svg width="30" height="30" viewBox="0 0 30 30" fill="none" xmlns="http://www.w3.org/2000/svg">
<path fill-rule="evenodd" clip-rule="evenodd" d="M4.62127 9.98001C4.42785 10.3793 4.25757 10.7897 4.11144 11.2096C3.79061 12.1312 4.18181 13.1498 5.03708 13.6198C5.53836 13.8953 5.85487 14.419 5.85487 15.0003C5.85487 15.5815 5.53836 16.1052 5.03708 16.3807C4.18181 16.8507 3.79061 17.8693 4.11144 18.791C4.25757 19.2108 4.42785 19.6213 4.62127 20.0205C5.04647 20.8983 6.04275 21.3413 6.9793 21.0691C7.52849 20.9095 8.12255 21.0561 8.53349 21.467C8.94444 21.878 9.09099 22.4721 8.9314 23.0212C8.65924 23.9578 9.10229 24.9541 9.98001 25.3793C10.3793 25.5727 10.7897 25.743 11.2096 25.8891C12.1312 26.2099 13.1498 25.8187 13.6198 24.9635C13.8953 24.4622 14.419 24.1457 15.0003 24.1457C15.5815 24.1457 16.1052 24.4622 16.3807 24.9635C16.8507 25.8187 17.8693 26.2099 18.791 25.8891C19.2108 25.743 19.6213 25.5727 20.0205 25.3793C20.8983 24.9541 21.3413 23.9578 21.0691 23.0212C20.9095 22.4721 21.0561 21.878 21.467 21.467C21.878 21.0561 22.4721 20.9095 23.0212 21.0691C23.9578 21.3413 24.9541 20.8983 25.3793 20.0205C25.5727 19.6213 25.743 19.2108 25.8891 18.791C26.2099 17.8693 25.8187 16.8507 24.9635 16.3807C24.4622 16.1052 24.1457 15.5815 24.1457 15.0003C24.1457 14.419 24.4622 13.8953 24.9635 13.6198C25.8187 13.1498 26.2099 12.1312 25.8891 11.2096C25.743 10.7897 25.5727 10.3793 25.3793 9.98001C24.9541 9.10229 23.9578 8.65924 23.0212 8.9314C22.4721 9.09099 21.878 8.94444 21.467 8.53349C21.0561 8.12255 20.9095 7.52849 21.0691 6.9793C21.3413 6.04275 20.8983 5.04647 20.0205 4.62127C19.6213 4.42785 19.2108 4.25757 18.791 4.11144C17.8693 3.79061 16.8507 4.18181 16.3807 5.03708C16.1052 5.53836 15.5815 5.85487 15.0003 5.85487C14.419 5.85487 13.8953 5.53836 13.6198 5.03708C13.1498 4.18181 12.1312 3.79061 11.2096 4.11144C10.7897 4.25757 10.3793 4.42785 9.98001 4.62127C9.10229 5.04647 8.65924 6.04275 8.9314 6.9793C9.09099 7.52849 8.94444 8.12255 8.53349 8.53349C8.12255 8.94444 7.52849 9.09099 6.9793 8.9314C6.04275 8.65924 5.04647 9.10229 4.62127 9.98001ZM7.85487 15.0003C7.85487 13.6499 7.10568 12.4745 6.00027 11.867C6.12141 11.5191 6.26216 11.1802 6.42119 10.852C7.63226 11.2039 8.99295 10.9025 9.94771 9.94771C10.9025 8.99295 11.2039 7.63226 10.852 6.42119C11.1802 6.26216 11.5191 6.12141 11.867 6.00027C12.4745 7.10568 13.6499 7.85487 15.0003 7.85487C16.3507 7.85487 17.5261 7.10568 18.1335 6.00027C18.4815 6.12141 18.8203 6.26216 19.1486 6.42119C18.7967 7.63226 19.0981 8.99295 20.0528 9.94771C21.0076 10.9025 22.3683 11.2039 23.5793 10.852C23.7384 11.1802 23.8791 11.5191 24.0003 11.867C22.8949 12.4745 22.1457 13.6499 22.1457 15.0003C22.1457 16.3507 22.8949 17.5261 24.0003 18.1335C23.8791 18.4815 23.7384 18.8203 23.5793 19.1486C22.3683 18.7967 21.0076 19.0981 20.0528 20.0528C19.0981 21.0076 18.7967 22.3683 19.1486 23.5793C18.8203 23.7384 18.4815 23.8791 18.1335 24.0003C17.5261 22.8949 16.3507 22.1457 15.0003 22.1457C13.6499 22.1457 12.4745 22.8949 11.867 24.0003C11.5191 23.8791 11.1802 23.7384 10.852 23.5793C11.2039 22.3683 10.9025 21.0076 9.94771 20.0528C8.99295 19.0981 7.63226 18.7967 6.42119 19.1486C6.26216 18.8203 6.12141 18.4815 6.00027 18.1335C7.10568 17.5261 7.85487 16.3507 7.85487 15.0003ZM17.0003 15.0003C17.0003 16.1048 16.1048 17.0003 15.0003 17.0003C13.8957 17.0003 13.0003 16.1048 13.0003 15.0003C13.0003 13.8957 13.8957 13.0003 15.0003 13.0003C16.1048 13.0003 17.0003 13.8957 17.0003 15.0003Z" fill="#ffffff"/>
</svg>
