<svg xmlns="http://www.w3.org/2000/svg" width="58" height="40" fill="none" viewBox="0 0 58 40">
    <path fill="#D60A2E" d="M.429 4c0-2.21 1.79-4 4-4H53.57c2.21 0 4 1.79 4 4v32c0 2.209-1.79 4-4 4H4.43c-2.21 0-4-1.791-4-4V4z"/>
    <path fill="#F0F0F0" d="M.429 20H57.57v16c0 2.21-1.79 4-4 4H4.43c-2.21 0-4-1.79-4-4V20zM9.604 10.11c0-1.298.392-2.565 1.122-3.636.73-1.071 1.766-1.895 2.972-2.364-.973-.381-2.023-.519-3.06-.4s-2.03.49-2.892 1.081c-.862.591-1.567 1.385-2.054 2.312-.488.927-.742 1.959-.742 3.007s.254 2.08.742 3.008c.487.926 1.192 1.72 2.054 2.311.862.591 1.855.963 2.892 1.081 1.037.119 2.087-.018 3.06-.4-1.206-.469-2.241-1.293-2.972-2.364-.73-1.07-1.121-2.338-1.122-3.636zM17.324 4.589l.525 1.069 1.176.172-.85.832.2 1.175-1.05-.555-1.052.555.201-1.175-.85-.832 1.175-.172.525-1.07z"/>
    <path fill="#F0F0F0" d="M15.172 11.28l.526 1.07 1.174.17-.85.833.2 1.175-1.05-.554-1.05.554.2-1.175-.85-.832 1.175-.172.525-1.069zM19.476 11.28l.526 1.07 1.174.17-.85.833.2 1.175-1.05-.554-1.05.554.2-1.175-.85-.832 1.175-.172.525-1.069zM13.923 7.098l.526 1.07 1.175.17-.85.833.2 1.175-1.05-.555-1.051.555.2-1.175-.85-.832 1.175-.172.525-1.069zM20.725 7.098l.525 1.07 1.175.17-.85.833.2 1.175-1.05-.555-1.051.555.2-1.175-.85-.832 1.175-.172.526-1.069z"/>
</svg>
