<svg xmlns="http://www.w3.org/2000/svg" width="13" height="12" fill="none" viewBox="0 0 13 12">
    <path fill="#FFDC64" d="M12.135 4.335L8.11 3.957 6.51.197c-.111-.263-.48-.263-.592 0l-1.6 3.76-4.025.378c-.282.027-.396.382-.183.57l3.037 2.702-.888 3.994c-.063.28.236.499.479.352l3.476-2.09 3.477 2.09c.243.147.541-.073.479-.352l-.889-3.994 3.037-2.701c.213-.19.1-.544-.183-.57z"/>
    <path fill="#FFC850" d="M7.092 1.565L6.511.197c-.112-.263-.481-.263-.593 0l-1.6 3.76-4.025.378c-.282.027-.396.382-.183.57l3.037 2.702-.888 3.994c-.063.28.236.499.479.352l.463-.278c.758-4.971 2.89-8.62 3.891-10.11z"/>
</svg>
