<svg width="30" height="30" viewBox="0 0 30 30" fill="none" xmlns="http://www.w3.org/2000/svg">
<path fill-rule="evenodd" clip-rule="evenodd" d="M7.5335 26H21.8683C23.0811 26 24.0683 25.0128 24.0683 23.8V9.81206V9.81075C24.0683 9.68183 24.0128 9.56581 23.9244 9.48532L18.583 4.14393C18.5025 4.05552 18.3865 4 18.2576 4H7.5335C6.32075 4 5.3335 4.98725 5.3335 6.2V23.8C5.3335 25.0128 6.32075 26 7.5335 26ZM17.8176 4.88H7.5335C6.80566 4.88 6.2135 5.47217 6.2135 6.2V23.8C6.2135 24.5278 6.80566 25.12 7.5335 25.12H21.8674C22.5952 25.12 23.1874 24.5278 23.1874 23.8V10.2507H18.2576C18.0147 10.2507 17.8176 10.0537 17.8176 9.81075V4.88ZM18.6976 5.50253V9.37075H22.5651L18.6976 5.50253ZM14.3335 12C13.3446 12 12.3779 12.2932 11.5557 12.8427C10.7334 13.3921 10.0925 14.173 9.7141 15.0866C9.33566 16.0002 9.23665 17.0056 9.42957 17.9755C9.6225 18.9454 10.0987 19.8363 10.798 20.5356C11.4972 21.2348 12.3882 21.711 13.3581 21.904C14.328 22.0969 15.3333 21.9979 16.2469 21.6194C17.1606 21.241 17.9415 20.6001 18.4909 19.7779C19.0403 18.9556 19.3335 17.9889 19.3335 17C19.3335 15.6739 18.8067 14.4022 17.8691 13.4645C16.9314 12.5268 15.6596 12 14.3335 12ZM14.3335 21.0909C13.5244 21.0909 12.7335 20.851 12.0607 20.4015C11.388 19.952 10.8636 19.3131 10.554 18.5655C10.2444 17.818 10.1633 16.9955 10.3212 16.2019C10.479 15.4084 10.8687 14.6794 11.4408 14.1073C12.0129 13.5352 12.7419 13.1455 13.5354 12.9877C14.329 12.8299 15.1515 12.9109 15.899 13.2205C16.6466 13.5301 17.2855 14.0545 17.735 14.7272C18.1845 15.4 18.4244 16.1909 18.4244 17C18.4244 18.085 17.9934 19.1255 17.2262 19.8927C16.459 20.6599 15.4185 21.0909 14.3335 21.0909ZM13.8789 13.9091H14.788V16.8182L16.4698 18.4848L15.8335 19.1364L13.8789 17.1818V13.9091Z" fill="#14B1BD"/>
<path fill-rule="evenodd" clip-rule="evenodd" d="M14.9878 13.7091V16.7348L16.7515 18.4826L15.835 19.4209L13.6787 17.2647V13.7091H14.9878ZM14.7878 16.8182V13.9091H13.8787V17.1819L15.8333 19.1364L16.4697 18.4849L14.7878 16.8182ZM21.8681 26.2001H7.5333C6.21009 26.2001 5.1333 25.1233 5.1333 23.8001V6.20005C5.1333 4.87684 6.21009 3.80005 7.5333 3.80005H18.2574C18.4431 3.80005 18.6106 3.87949 18.7272 4.00556L24.0626 9.34096C24.1887 9.45759 24.2681 9.62506 24.2681 9.8108V23.8001C24.2681 25.1233 23.1913 26.2001 21.8681 26.2001ZM23.9242 9.48537C24.0126 9.56586 24.0681 9.68187 24.0681 9.8108V23.8001C24.0681 25.0128 23.0809 26 21.8681 26H7.5333C6.32055 26 5.3333 25.0128 5.3333 23.8001V6.20005C5.3333 4.9873 6.32055 4.00005 7.5333 4.00005H18.2574C18.3863 4.00005 18.5023 4.05556 18.5828 4.14398L23.9242 9.48537ZM17.6174 5.08005H7.5333C6.91592 5.08005 6.4133 5.58267 6.4133 6.20005V23.8001C6.4133 24.4174 6.91592 24.92 7.5333 24.92H21.8672C22.4846 24.92 22.9872 24.4174 22.9872 23.8001V10.4508H18.2574C17.904 10.4508 17.6174 10.1642 17.6174 9.8108V5.08005ZM18.8974 5.98548V9.1708H22.0821L18.8974 5.98548ZM18.6974 9.3708H22.5649L18.6974 5.50258V9.3708ZM11.4443 12.6764C12.2995 12.105 13.3049 11.8 14.3333 11.8C15.7124 11.8 17.0351 12.3479 18.0103 13.3231C18.9855 14.2983 19.5333 15.6209 19.5333 17.0001C19.5333 18.0285 19.2284 19.0339 18.657 19.889C18.0856 20.7442 17.2735 21.4107 16.3233 21.8043C15.3731 22.1978 14.3275 22.3008 13.3188 22.1002C12.3101 21.8995 11.3836 21.4043 10.6564 20.677C9.92912 19.9498 9.43386 19.0232 9.23322 18.0145C9.03258 17.0058 9.13555 15.9603 9.52913 15.0101C9.92271 14.0599 10.5892 13.2478 11.4443 12.6764ZM12.1716 20.2352C12.8115 20.6628 13.5638 20.891 14.3333 20.891C15.3653 20.891 16.3549 20.481 17.0846 19.7514C17.8143 19.0217 18.2242 18.032 18.2242 17.0001C18.2242 16.2305 17.996 15.4782 17.5685 14.8384C17.141 14.1985 16.5333 13.6998 15.8223 13.4053C15.1113 13.1108 14.329 13.0338 13.5742 13.1839C12.8195 13.334 12.1262 13.7046 11.582 14.2488C11.0379 14.7929 10.6673 15.4862 10.5172 16.241C10.367 16.9957 10.4441 17.7781 10.7386 18.4891C11.0331 19.2 11.5318 19.8077 12.1716 20.2352ZM17.8174 4.88005V9.8108C17.8174 10.0537 18.0145 10.2508 18.2574 10.2508H23.1872V23.8001C23.1872 24.5279 22.5951 25.1201 21.8672 25.1201H7.5333C6.80547 25.1201 6.2133 24.5279 6.2133 23.8001V6.20005C6.2133 5.47222 6.80547 4.88005 7.5333 4.88005H17.8174ZM11.5555 12.8427C12.3777 12.2933 13.3444 12 14.3333 12C15.6594 12 16.9312 12.5268 17.8689 13.4645C18.8065 14.4022 19.3333 15.674 19.3333 17.0001C19.3333 17.989 19.0401 18.9557 18.4907 19.7779C17.9413 20.6002 17.1604 21.241 16.2467 21.6195C15.3331 21.9979 14.3278 22.0969 13.3579 21.904C12.388 21.7111 11.497 21.2349 10.7978 20.5356C10.0985 19.8363 9.6223 18.9454 9.42938 17.9755C9.23645 17.0056 9.33547 16.0003 9.71391 15.0866C10.0923 14.173 10.7332 13.3921 11.5555 12.8427ZM12.0605 20.4015C12.7333 20.8511 13.5242 21.091 14.3333 21.091C15.4183 21.091 16.4588 20.66 17.226 19.8928C17.9932 19.1256 18.4242 18.085 18.4242 17.0001C18.4242 16.191 18.1843 15.4 17.7348 14.7273C17.2853 14.0545 16.6464 13.5302 15.8988 13.2205C15.1513 12.9109 14.3288 12.8299 13.5352 12.9877C12.7417 13.1456 12.0127 13.5352 11.4406 14.1073C10.8685 14.6795 10.4789 15.4084 10.321 16.202C10.1632 16.9955 10.2442 17.8181 10.5538 18.5656C10.8634 19.3131 11.3878 19.952 12.0605 20.4015Z" fill="#14B1BD"/>
</svg>
