<svg width="34" height="157" fill="none" xmlns="http://www.w3.org/2000/svg">
    <path d="M17.001 91.131V0h-.712v100l.712-8.869z" fill="#37474F"/>
    <path d="M17 91.131V0h.71v100L17 91.131z" fill="#263238"/>
    <path d="M17.001 115.449H8.295c0-1.772.834-2.376-.046-3.341-.88-.965.784-1.932 0-2.794-.784-.86.686-1.896 0-2.794-.603-.788.087-1.02.087-2.02 0-1.001.59-2.054 2.446-2.603h6.221v13.552h-.002z" fill="#546E7A"/>
    <path d="M25.756 110.071c-.784.86.88 1.829 0 2.794-.88.965-.045.812-.045 2.584h-8.709v-13.55h6.224c1.855.55 2.446 1.906 2.446 2.907 0 1 .655 1.848.087 2.471-.758.829.782 1.934-.003 2.794z" fill="#455A64"/>
    <path d="M17.002 96.526c.751 0 1.503 2.658 2.236 2.854l1.677.451c.57.153 1.085.499 1.466.989l.843 1.077h-6.222v-5.37z" fill="#263238"/>
    <path d="m10.777 101.899.843-1.077c.383-.49.895-.836 1.466-.989l1.677-.451c.733-.198 1.485-2.854 2.236-2.854v5.373h-6.222v-.002z" fill="#37474F"/>
    <path d="M4.979 151.145c-5.412-5.934-6.411-14.87-3.001-21.915a18.575 18.575 0 0 1 3-4.448c2.161-2.369 3.385-6.384 3.315-9.333H17v41.148c-4.351.005-8.702-1.81-12.021-5.452z" fill="#FDE16D"/>
    <path d="M29.021 151.145a17.389 17.389 0 0 1-2.972 2.598c-2.758 1.903-5.902 2.854-9.049 2.854v-41.148h8.707c-.07 2.949 1.154 6.964 3.314 9.333 6.638 7.281 6.638 19.084 0 26.363z" fill="#FDD735"/>
    <path opacity=".42" d="m25.238 111.609-16.37-.754c-.299-.015-.554.243-.567.57-.013.327.222.607.52.621l16.37.755c.3.014.554-.244.567-.571.013-.327-.222-.606-.52-.621zM25.238 108.872l-16.37-.754c-.299-.015-.554.243-.567.57-.013.328.222.607.52.621l16.37.755c.3.014.554-.244.567-.571.013-.327-.222-.606-.52-.621zM25.238 106.035l-16.37-.754c-.299-.014-.554.243-.567.571-.013.327.222.606.52.62l16.37.755c.3.014.554-.244.567-.571.013-.329-.222-.609-.52-.621z" fill="#fff"/>
</svg>
