<svg width="11" height="13" viewBox="0 0 11 13" fill="none" xmlns="http://www.w3.org/2000/svg">
<path fill-rule="evenodd" clip-rule="evenodd" d="M5.2222 6.09885C3.72216 6.09885 2.50615 4.88283 2.50615 3.3828C2.50615 1.88276 3.72216 0.666748 5.2222 0.666748C6.72223 0.666748 7.93825 1.88276 7.93825 3.3828C7.93825 4.88283 6.72223 6.09885 5.2222 6.09885ZM5.22217 5.01242C6.12219 5.01242 6.8518 4.28281 6.8518 3.38279C6.8518 2.48277 6.12219 1.75316 5.22217 1.75316C4.32216 1.75316 3.59255 2.48277 3.59255 3.38279C3.59255 4.28281 4.32216 5.01242 5.22217 5.01242ZM0.864396 12.074C1.16433 12.0807 1.4129 11.843 1.4196 11.5431C1.48615 8.56354 2.71129 7.72846 5.22217 7.72846C7.87328 7.72846 9.08843 8.55311 9.02219 11.5188C9.0155 11.8187 9.25321 12.0673 9.55314 12.074C9.85307 12.0807 10.1016 11.843 10.1083 11.5431C10.1877 7.99023 8.50745 6.64204 5.22217 6.64204C2.08445 6.64204 0.412494 7.9798 0.333451 11.5188C0.326752 11.8187 0.564464 12.0673 0.864396 12.074Z" fill="#96A5B8"/>
</svg>
