<svg width="58" height="56" viewBox="0 0 58 56" fill="none" xmlns="http://www.w3.org/2000/svg">
<path d="M0.5 28C0.5 12.536 13.036 0 28.5 0H29.5C44.964 0 57.5 12.536 57.5 28V28C57.5 43.464 44.964 56 29.5 56H28.5C13.036 56 0.5 43.464 0.5 28V28Z" fill="#14B1BD"/>
<path d="M28.5202 9.35156C27.348 9.35156 26.2022 9.69914 25.2276 10.3503C24.253 11.0015 23.4934 11.9271 23.0449 13.01C22.5963 14.0929 22.479 15.2845 22.7076 16.4341C22.9363 17.5838 23.5007 18.6397 24.3296 19.4686C25.1584 20.2974 26.2144 20.8618 27.364 21.0905C28.5136 21.3192 29.7052 21.2018 30.7881 20.7532C31.871 20.3047 32.7966 19.5451 33.4478 18.5705C34.099 17.5959 34.4466 16.4501 34.4466 15.278C34.4444 13.7068 33.8193 12.2007 32.7084 11.0897C31.5974 9.9788 30.0913 9.35372 28.5202 9.35156ZM28.5202 18.8767C27.8084 18.8767 27.1126 18.6657 26.5208 18.2702C25.929 17.8748 25.4677 17.3127 25.1953 16.6551C24.923 15.9976 24.8517 15.274 24.9905 14.5759C25.1294 13.8778 25.4722 13.2366 25.9755 12.7333C26.4787 12.23 27.12 11.8872 27.8181 11.7484C28.5162 11.6095 29.2398 11.6808 29.8973 11.9531C30.5549 12.2255 31.117 12.6868 31.5124 13.2786C31.9078 13.8704 32.1189 14.5662 32.1189 15.278C32.1182 16.2322 31.7388 17.1471 31.0641 17.8219C30.3893 18.4966 29.4744 18.876 28.5202 18.8767Z" fill="#EFE6D2"/>
<path d="M25.1763 22.8223C26.0943 27.9284 27.6642 31.8205 28.5198 31.8205C29.3753 31.8205 30.9452 27.9284 31.8632 22.8223H34.2316C33.5281 27.0294 31.8496 34.1482 28.5279 34.1482C25.2062 34.1482 23.5195 27.0294 22.8242 22.8223H25.1763Z" fill="#EFE6D2"/>
<path d="M25.1763 46.6256C26.0943 41.5194 27.6642 37.6409 28.5198 37.6409C29.3753 37.6409 30.9452 41.5303 31.8632 46.6365H34.2316C33.5281 42.4293 31.8496 35.3105 28.5279 35.3105C25.2062 35.3105 23.5195 42.4293 22.8242 46.6365L25.1763 46.6256Z" fill="#EFE6D2"/>
</svg>
