<svg width="80" height="80" viewBox="0 0 80 80" fill="none" xmlns="http://www.w3.org/2000/svg">
<circle cx="40" cy="40" r="40" fill="#F3F3F3"/>
<circle cx="40" cy="40.002" r="29.4737" fill="#9084F1"/>
<path fill-rule="evenodd" clip-rule="evenodd" d="M39.9998 38.6394C36.2427 38.6394 33.1971 35.5937 33.1971 31.8367C33.1971 28.0796 36.2427 25.0339 39.9998 25.0339C43.7568 25.0339 46.8025 28.0796 46.8025 31.8367C46.8025 35.5937 43.7568 38.6394 39.9998 38.6394ZM39.9998 35.9183C42.254 35.9183 44.0814 34.0909 44.0814 31.8367C44.0814 29.5824 42.254 27.755 39.9998 27.755C37.7456 27.755 35.9182 29.5824 35.9182 31.8367C35.9182 34.0909 37.7456 35.9183 39.9998 35.9183ZM29.0851 53.605C29.8363 53.6218 30.4589 53.0264 30.4756 52.2752C30.6423 44.8126 33.7108 42.721 39.9997 42.721C46.6398 42.721 49.6833 44.7865 49.5174 52.2144C49.5006 52.9657 50.096 53.5882 50.8472 53.605C51.5984 53.6218 52.221 53.0264 52.2378 52.2752C52.4365 43.3766 48.2282 39.9999 39.9997 39.9999C32.1409 39.9999 27.9532 43.3505 27.7552 52.2144C27.7385 52.9657 28.3338 53.5882 29.0851 53.605Z" fill="white"/>
</svg>
