<svg width="18" height="18" viewBox="0 0 18 18" fill="none" xmlns="http://www.w3.org/2000/svg">
<path fill-rule="evenodd" clip-rule="evenodd" d="M9.0001 8.3999C7.34325 8.3999 6.0001 7.05676 6.0001 5.3999C6.0001 3.74305 7.34325 2.3999 9.0001 2.3999C10.657 2.3999 12.0001 3.74305 12.0001 5.3999C12.0001 7.05676 10.657 8.3999 9.0001 8.3999ZM9.0001 7.1999C9.99422 7.1999 10.8001 6.39402 10.8001 5.3999C10.8001 4.40579 9.99422 3.5999 9.0001 3.5999C8.00599 3.5999 7.2001 4.40579 7.2001 5.3999C7.2001 6.39402 8.00599 7.1999 9.0001 7.1999ZM4.1867 14.9998C4.51799 15.0072 4.79255 14.7446 4.79995 14.4133C4.87346 11.1223 6.22668 10.1999 9.00007 10.1999C11.9283 10.1999 13.2705 11.1108 13.1974 14.3865C13.19 14.7178 13.4525 14.9924 13.7838 14.9998C14.1151 15.0072 14.3897 14.7446 14.3971 14.4133C14.4847 10.489 12.6288 8.9999 9.00007 8.9999C5.53431 8.9999 3.68756 10.4775 3.60025 14.3865C3.59285 14.7178 3.85541 14.9924 4.1867 14.9998Z" fill="#96A5B8"/>
</svg>
