<svg xmlns="http://www.w3.org/2000/svg" width="20" height="20" fill="none" viewBox="0 0 20 20">
    <path fill="#96A5B8" fill-rule="evenodd" d="M14.386 5.27v1.898c0 .166-.111.303-.267.345l-.057.015v1.373c0 .513-.42.934-.934.934H9.006c-.019 0-.036 0-.054-.002l.053.002h4.123c.513 0 .933-.42.933-.934V7.528l.057-.015c.156-.042.268-.18.268-.345V5.27c-.006-.49-.382-.894-.867-.931.485.037.86.441.867.931zm-2.1-1.264v.33-.33c0-.306-.236-.553-.538-.571.302.017.538.265.538.571zm.1.23v-.23c0-.373-.3-.672-.673-.672h-1.3c-.373 0-.672.299-.672.672v.23h-1.06c-.569 0-1.033.465-1.033 1.034v1.898c0 .207.136.378.324.436v1.297c0 .568.465 1.033 1.034 1.033h4.122c.568 0 1.033-.465 1.033-1.033V7.604c.189-.058.325-.229.325-.436V5.27c-.008-.568-.465-1.033-1.04-1.033h-1.06zm-2.08-.337c-.029.03-.042.068-.042.107v.33-.33c0-.04.013-.078.042-.107.03-.029.068-.042.107-.042h1.31-1.31c-.039 0-.078.013-.107.042zm1.457.337v-.23c0-.017-.006-.029-.014-.036-.007-.008-.02-.014-.036-.014h-1.3c-.016 0-.028.006-.036.014-.008.007-.013.02-.013.036v.23h1.399zm.16 2.231v.535h1.934V5.27c0-.226-.185-.411-.411-.411H8.68c-.226 0-.411.185-.411.41v1.733h1.933v-.535h1.72zM8.17 5.27V7.1 5.27c0-.281.23-.51.51-.51h4.795H8.68c-.281 0-.51.229-.51.51zM11.823 7.1v-.534.534zm-1.627 1.086v-.549H8.588v1.263c0 .226.184.41.41.41h4.13c.218 0 .399-.172.41-.387h-.014V7.638h-1.608v.55h-1.72zm1.62-.648h1.808-1.808v.549h-1.52 1.52v-.55zm1.808 1.285h.014-.014zM8.488 8.9c0 .271.213.494.48.51-.267-.016-.48-.239-.48-.51V7.54h1.807-1.807V8.9zm2.238-1.91h.674-.674v.673-.674zm.1.574h.475V7.09h-.475v.475zm5.922 4.45c.262.141.453.374.539.658.085.283.055.584-.085.845-.137.254-.36.441-.63.53l-3.347 1.584-1.973.986-.023.008c-.035.012-.205.063-.514.063-.338 0-.84-.061-1.513-.3l-2.42-.873-.025-.015c-.025-.014-.308-.159-.817-.182-.107.279-.377.478-.693.478H2.668v-.703h1.328v-3.986H2.668v-.703h2.579c.38 0 .693.286.736.654.71.003 1.717.02 1.945.097.116.039.238.085.421.155l.003.001c.213.081.505.192.97.361.75.273 1.184.222 1.189.221l.028-.004h1.452c.462 0 .865.239 1.072.59l2.858-.555c.278-.079.57-.047.827.09zM5.247 15.095c.02 0 .039-.019.039-.04v-3.907c0-.02-.018-.039-.04-.039H4.7v3.986h.547zm11.094-1.71c.104-.031.189-.101.24-.198.053-.096.064-.207.033-.31-.032-.103-.102-.189-.198-.24-.097-.052-.207-.064-.31-.032l-.035.008-2.868.557c-.078.556-.592.987-1.212.987h-1.432l-.918-.02-.02-.004c-.052-.007-.196-.005-.258.051-.049.046-.05.155-.048.216l-.702.037c-.022-.413.14-.65.28-.776.293-.263.693-.24.81-.227l.867.02h1.421c.281 0 .519-.197.519-.43 0-.233-.238-.43-.519-.43h-1.402c-.143.016-.673.045-1.508-.259-.47-.17-.764-.283-.98-.365-.173-.066-.288-.11-.39-.144-.154-.035-.968-.058-1.722-.062v2.854c.606.03.977.198 1.093.26l2.357.85c.938.333 1.452.256 1.555.234l1.927-.963 3.395-1.606.025-.008z" clip-rule="evenodd"/>
</svg>
