<svg xmlns="http://www.w3.org/2000/svg" width="14" height="14" fill="none" viewBox="0 0 14 14">
    <path fill="#fff" fill-rule="evenodd" d="M7 3.733c2.792 0 4.977 2.947 5.069 3.073.087.118.087.28 0 .399-.092.125-2.277 3.072-5.069 3.072-2.79 0-4.976-2.947-5.068-3.072-.087-.12-.087-.28 0-.4C2.024 6.68 4.21 3.733 7 3.733zM2.637 7.005C3.164 7.645 4.945 9.6 7 9.6c2.06 0 3.838-1.955 4.364-2.595C10.837 6.365 9.056 4.41 7 4.41c-2.06 0-3.837 1.955-4.363 2.595zm2.333 0c0-1.12.91-2.03 2.03-2.03 1.12 0 2.031.91 2.031 2.03 0 1.12-.91 2.031-2.03 2.031-1.12 0-2.031-.911-2.031-2.03zm.677 0c0 .747.607 1.354 1.353 1.354.747 0 1.354-.607 1.354-1.354 0-.746-.607-1.354-1.354-1.354-.746 0-1.353.608-1.353 1.354z" clip-rule="evenodd"/>
</svg>
