<svg width="24" height="24" fill="none" xmlns="http://www.w3.org/2000/svg">
    <path d="m13.135 7.57-4.45 3.712-1.146-1.255A.538.538 0 0 0 6.8 10a.52.52 0 0 0-.026.74l1.49 1.625a.525.525 0 0 0 .726.038l4.832-4.044a.52.52 0 0 0 .051-.738.539.539 0 0 0-.738-.051zM9.64 17.553H5.83a.785.785 0 0 1-.784-.784V5.03c0-.431.351-.783.784-.783h8.934c.433 0 .784.352.784.784v5.741a.523.523 0 0 0 1.046 0V5.03c0-1.01-.821-1.83-1.83-1.83H5.83C4.82 3.2 4 4.02 4 5.03v11.74c0 1.008.82 1.829 1.83 1.829h3.81a.523.523 0 0 0 0-1.046zm7.694.17a.518.518 0 0 0-.202-.345l-1.864-1.412v-2.354a.523.523 0 0 0-1.045 0v2.614c0 .163.077.32.207.417l2.07 1.568a.525.525 0 0 0 .834-.488zm-2.588-6.071a4.58 4.58 0 0 0-4.575 4.574 4.58 4.58 0 0 0 4.575 4.574 4.58 4.58 0 0 0 4.574-4.574 4.58 4.58 0 0 0-4.575-4.574zm0 8.103a3.533 3.533 0 0 1-3.53-3.529 3.533 3.533 0 0 1 3.53-3.529 3.533 3.533 0 0 1 3.528 3.529 3.533 3.533 0 0 1-3.529 3.529z" fill="#fff"/>
</svg>
