<svg width="14" height="16" viewBox="0 0 14 16" fill="none" xmlns="http://www.w3.org/2000/svg">
<path d="M7.94628 4.30813L4.23791 7.40187L3.28282 6.35533C3.12556 6.1863 2.83673 6.17563 2.66683 6.33333C2.58166 6.41262 2.53243 6.52022 2.5283 6.63675C2.52416 6.75329 2.56554 6.86416 2.64505 6.94933L3.88744 8.30429C3.96956 8.39229 4.08587 8.44283 4.20611 8.44283C4.31132 8.44283 4.41304 8.40471 4.49211 8.33566L8.51806 4.9653C8.60584 4.88884 8.65877 4.78298 8.66683 4.66666C8.67489 4.55035 8.63721 4.43817 8.56097 4.35039C8.4085 4.17613 8.11967 4.15653 7.94628 4.30813ZM5.03317 12.6276H1.85823C1.49796 12.6276 1.20477 12.3344 1.20477 11.9741V2.1914C1.20477 1.83113 1.49796 1.53794 1.85823 1.53794H9.30374C9.66402 1.53794 9.9572 1.83113 9.9572 2.1914V6.97603C9.9572 7.21628 10.1526 7.41167 10.3928 7.41167C10.6331 7.41167 10.8285 7.21628 10.8285 6.97603V2.1914C10.8285 1.35062 10.1443 0.666664 9.30374 0.666664H1.85823C1.01745 0.666664 0.333496 1.35062 0.333496 2.1914V11.9741C0.333496 12.8147 1.01745 13.4989 1.85823 13.4989H5.03317C5.27343 13.4989 5.46881 13.3035 5.46881 13.0632C5.46881 12.823 5.27343 12.6276 5.03317 12.6276ZM11.4451 12.7689C11.4292 12.6537 11.3693 12.5516 11.2768 12.4816L9.7237 11.3052V9.34351C9.7237 9.10325 9.52832 8.90787 9.28806 8.90787C9.04781 8.90787 8.85242 9.10325 8.85242 9.34351V11.5217C8.85242 11.6576 8.91711 11.7877 9.02515 11.8689L10.7505 13.1758C10.827 13.2338 10.918 13.2643 11.0136 13.2643C11.1495 13.2643 11.2796 13.1996 11.3608 13.092C11.4312 12.9987 11.461 12.8842 11.4451 12.7689ZM9.28806 7.70964C7.18632 7.70964 5.47622 9.41975 5.47622 11.5215C5.47622 13.6232 7.1861 15.3333 9.28806 15.3333C11.39 15.3333 13.0999 13.6232 13.0999 11.5215C13.0999 9.41975 11.3898 7.70964 9.28806 7.70964ZM9.28806 14.4621C7.66683 14.4621 6.3475 13.1429 6.3475 11.5215C6.3475 9.90004 7.66661 8.58092 9.28806 8.58092C10.9095 8.58092 12.2286 9.90004 12.2286 11.5215C12.2286 13.1429 10.9095 14.4621 9.28806 14.4621Z" fill="#14B1BD"/>
</svg>
