<svg width="11" height="16" viewBox="0 0 11 16" fill="none" xmlns="http://www.w3.org/2000/svg">
<path d="M9.80936 1.80952H9.04746V1.04762C9.04746 0.838093 8.87603 0.666664 8.6665 0.666664C8.45698 0.666664 8.28555 0.838093 8.28555 1.04762V1.80952H7.14269V1.04762C7.14269 0.838093 6.97127 0.666664 6.76174 0.666664C6.55222 0.666664 6.38079 0.838093 6.38079 1.04762V1.80952H5.23793V1.04762C5.23793 0.838093 5.0665 0.666664 4.85698 0.666664C4.64746 0.666664 4.47603 0.838093 4.47603 1.04762V1.80952H3.33317V1.04762C3.33317 0.838093 3.16174 0.666664 2.95222 0.666664C2.74269 0.666664 2.57127 0.838093 2.57127 1.04762V1.80952H1.80936C1.17888 1.80952 0.666504 2.3219 0.666504 2.95238V14.1905C0.666504 14.821 1.17888 15.3333 1.80936 15.3333H9.80936C10.4398 15.3333 10.9522 14.821 10.9522 14.1905V2.95238C10.9522 2.3219 10.4398 1.80952 9.80936 1.80952ZM10.1903 14.1905C10.1903 14.4 10.0189 14.5714 9.80936 14.5714H1.80936C1.59984 14.5714 1.42841 14.4 1.42841 14.1905V2.95238C1.42841 2.74285 1.59984 2.57143 1.80936 2.57143H9.80936C10.0189 2.57143 10.1903 2.74285 10.1903 2.95238V14.1905ZM9.04746 6.7619C9.04746 6.97143 8.87603 7.14285 8.6665 7.14285H2.95222C2.74269 7.14285 2.57127 6.97143 2.57127 6.7619C2.57127 6.55238 2.74269 6.38095 2.95222 6.38095H8.6665C8.87603 6.38095 9.04746 6.55238 9.04746 6.7619ZM9.04746 9.04762C9.04746 9.25714 8.87603 9.42857 8.6665 9.42857H2.95222C2.74269 9.42857 2.57127 9.25714 2.57127 9.04762C2.57127 8.83809 2.74269 8.66666 2.95222 8.66666H8.6665C8.87603 8.66666 9.04746 8.83809 9.04746 9.04762ZM7.14269 11.3333C7.14269 11.5429 6.97127 11.7143 6.76174 11.7143H2.95222C2.74269 11.7143 2.57127 11.5429 2.57127 11.3333C2.57127 11.1238 2.74269 10.9524 2.95222 10.9524H6.76174C6.97127 10.9524 7.14269 11.1238 7.14269 11.3333Z" fill="#14B1BD"/>
</svg>
