<svg xmlns="http://www.w3.org/2000/svg" width="20" height="20" fill="none" viewBox="0 0 20 20">
    <path fill="#96A5B8" d="M16.254 13.829c.707-1.152 1.08-2.477 1.079-3.829.002-1.351-.372-2.677-1.079-3.828l-.004-.007c-.656-1.068-1.575-1.951-2.669-2.564-1.094-.612-2.327-.934-3.582-.934-1.254 0-2.487.322-3.581.934-1.095.613-2.014 1.495-2.67 2.564l-.004.007C3.04 7.324 2.666 8.649 2.666 10s.373 2.676 1.078 3.829l.004.006c.656 1.07 1.575 1.952 2.67 2.565 1.094.612 2.327.934 3.581.934 1.255 0 2.488-.322 3.582-.934 1.094-.613 2.013-1.496 2.67-2.565l.003-.006zm-5.317 2.248c-.14.135-.3.246-.476.329-.145.068-.302.104-.462.104-.16 0-.317-.036-.46-.104-.335-.171-.621-.423-.833-.732-.432-.625-.753-1.32-.947-2.056.746-.045 1.493-.069 2.24-.07.748 0 1.494.024 2.24.07-.107.378-.241.748-.401 1.107-.21.504-.517.963-.901 1.352zm-7.433-5.665h2.958c.02.826.109 1.648.268 2.458-.809.071-1.615.169-2.42.293-.47-.845-.746-1.785-.806-2.75zm.806-3.575c.804.125 1.611.223 2.42.294-.159.81-.248 1.632-.268 2.457H3.504c.06-.965.335-1.905.806-2.75zm4.752-2.913c.14-.135.3-.246.476-.33.144-.068.302-.103.461-.103.16 0 .317.035.462.104.334.17.62.422.832.732.432.625.752 1.32.947 2.055-.746.046-1.493.07-2.24.07-.748 0-1.495-.023-2.241-.07.107-.378.242-.747.402-1.106.21-.504.516-.964.901-1.352zm7.432 5.664h-2.957c-.02-.825-.11-1.647-.268-2.457.809-.072 1.615-.17 2.42-.294.47.846.746 1.786.805 2.751zm-8.936 3.218c-.16-.788-.252-1.59-.272-2.394h5.426c-.02.805-.11 1.606-.271 2.394-.813-.053-1.627-.08-2.442-.082-.814 0-1.627.028-2.44.082zm4.882-5.611c.162.788.253 1.589.272 2.393H7.286c.02-.804.11-1.605.272-2.393.813.053 1.627.08 2.441.081.814 0 1.628-.027 2.441-.081zm1.096 3.217h2.958c-.059.966-.334 1.906-.805 2.751-.805-.124-1.611-.222-2.42-.293.158-.81.248-1.632.267-2.458zm1.659-4.333c-.704.101-1.409.182-2.116.241-.127-.473-.291-.936-.49-1.384-.182-.412-.411-.801-.683-1.16 1.312.402 2.463 1.208 3.289 2.303zm-9.798-.682c.752-.752 1.677-1.31 2.695-1.622l-.047.06c-.523.753-.904 1.595-1.124 2.485-.707-.06-1.413-.14-2.117-.241.182-.24.38-.468.593-.682zm-.593 8.525c.703-.102 1.408-.182 2.116-.241.127.473.29.936.49 1.383.182.412.41.802.682 1.161-1.311-.402-2.462-1.208-3.288-2.303zm9.798.681c-.752.753-1.678 1.31-2.695 1.622l.046-.06c.523-.752.904-1.595 1.125-2.484.707.06 1.413.14 2.117.24-.182.241-.38.469-.593.682z"/>
</svg>
