<svg id="Layer_1" data-name="Layer 1" xmlns="http://www.w3.org/2000/svg" viewBox="0 0 566.93 566.93"><defs><style>.cls-1{fill:#eb4b2d;}</style></defs><path class="cls-1" d="M283.46,125.09a50.37,50.37,0,1,0,50.38,50.37A50.43,50.43,0,0,0,283.46,125.09Zm0,80.95a30.58,30.58,0,1,1,30.59-30.58A30.62,30.62,0,0,1,283.46,206Z"/><path class="cls-1" d="M255.06,239.6c7.79,43.4,21.13,76.46,28.4,76.46S304.08,283,311.87,239.6H332c-6,35.76-20.24,96.24-48.54,96.24s-42.57-60.48-48.53-96.24Z"/><path class="cls-1" d="M255.06,441.84c7.79-43.4,21.13-76.46,28.4-76.46s20.62,33.06,28.41,76.46H332c-6-35.76-20.24-96.25-48.54-96.25s-42.57,60.49-48.53,96.25Z"/></svg>