<svg xmlns="http://www.w3.org/2000/svg" xmlns:xlink="http://www.w3.org/1999/xlink" width="566" height="556" viewBox="0 0 566 556">
  <defs>
    <filter id="Subtraction_2" x="6" y="-1" width="486.444" height="486.444" filterUnits="userSpaceOnUse">
      <feOffset dy="3" input="SourceAlpha"/>
      <feGaussianBlur stdDeviation="3" result="blur"/>
      <feFlood flood-opacity="0.161"/>
      <feComposite operator="in" in2="blur"/>
      <feComposite in="SourceGraphic"/>
    </filter>
    <filter id="Subtraction_3" x="0" y="0" width="498.444" height="498.444" filterUnits="userSpaceOnUse">
      <feOffset dy="10" input="SourceAlpha"/>
      <feGaussianBlur stdDeviation="5" result="blur-2"/>
      <feFlood flood-opacity="0.161"/>
      <feComposite operator="in" in2="blur-2"/>
      <feComposite in="SourceGraphic"/>
    </filter>
    <clipPath id="clip-path">
      <g transform="matrix(1, 0, 0, 1, 0, 0)" filter="url(#Subtraction_2)">
        <path id="Subtraction_2-2" data-name="Subtraction 2" d="M78.844,468.444h0A275.857,275.857,0,0,1,21.133,381.51,274.132,274.132,0,0,1,5.461,330.356,277.607,277.607,0,0,1,0,275.5v-.486c0-.122,0-.244,0-.366,0-.037,0-.085,0-.122V274.4c0-.042,0-.085,0-.127s0-.083,0-.125,0-.085,0-.127c0-.025,0-.051,0-.077v-.015c0-.031,0-.061,0-.092a277.421,277.421,0,0,1,5.621-53.99,273.954,273.954,0,0,1,39.925-96.13A276.454,276.454,0,0,1,161.828,24.473,274.137,274.137,0,0,1,265.02.2h.009l.761-.027h.033l.122,0,.049,0,.141,0,.15-.005h.017l.223-.007.052,0,.276-.009h.09l.145,0,.113,0,.108,0,.282-.008.28-.008L268.095.1l.173,0,.1,0,.1,0,.107,0,.107,0,.3-.007.084,0h.018l.1,0,.093,0,.1,0,.09,0h.018l.106,0,.17,0,.177,0,.177,0h.055l.1,0,.094,0h.021l.115,0h.067l.1,0h.043l.253,0h.2l.258,0h.177l.251,0h.129l.361,0h.19l.219,0h.127l.383,0h.021l.285,0H275.5a277.634,277.634,0,0,1,54.857,5.461,273.917,273.917,0,0,1,97.538,40.488,277.413,277.413,0,0,1,40.549,32.9l-389.6,389.6Z" transform="translate(-1408 7182)" fill="#f0f0f0"/>
      </g>
    </clipPath>
  </defs>
  <g id="Group_10759" data-name="Group 10759" transform="translate(1772 -5860)">
    <g id="united-kingdom" transform="translate(-1757 5865)">
      <circle id="Ellipse_78" data-name="Ellipse 78" cx="275.268" cy="275.268" r="275.268" fill="#f0f0f0"/>
      <g id="Group_10754" data-name="Group 10754" transform="translate(9.491 9.491)">
        <path id="Path_2246" data-name="Path 2246" d="M56.279,100.142A274.5,274.5,0,0,0,8.819,196H152.141Z" transform="translate(-8.819 -1.863)" fill="#1b3484"/>
        <path id="Path_2247" data-name="Path 2247" d="M513.325,196a274.518,274.518,0,0,0-47.46-95.861L370.005,196Z" transform="translate(18.693 -1.863)" fill="#1b3484"/>
        <path id="Path_2248" data-name="Path 2248" d="M8.819,322.784a274.522,274.522,0,0,0,47.46,95.86l95.859-95.86Z" transform="translate(-8.819 15.096)" fill="#1b3484"/>
        <path id="Path_2249" data-name="Path 2249" d="M418.643,56.28A274.51,274.51,0,0,0,322.782,8.819V152.14Z" transform="translate(15.096 -8.819)" fill="#1b3484"/>
        <path id="Path_2250" data-name="Path 2250" d="M100.142,465.864A274.519,274.519,0,0,0,196,513.325V370.005Z" transform="translate(-1.863 18.693)" fill="#1b3484"/>
        <path id="Path_2251" data-name="Path 2251" d="M196,8.819a274.522,274.522,0,0,0-95.86,47.46L196,152.139Z" transform="translate(-1.863 -8.819)" fill="#1b3484"/>
        <path id="Path_2252" data-name="Path 2252" d="M322.783,513.325a274.521,274.521,0,0,0,95.86-47.46l-95.86-95.86v143.32Z" transform="translate(15.096 18.693)" fill="#1b3484"/>
        <path id="Path_2253" data-name="Path 2253" d="M370.005,322.784l95.86,95.861a274.509,274.509,0,0,0,47.46-95.861Z" transform="translate(18.693 15.096)" fill="#1b3484"/>
      </g>
      <g id="Group_10755" data-name="Group 10755">
        <path id="Path_2254" data-name="Path 2254" d="M548.668,239.566H311.436V2.332a278.029,278.029,0,0,0-71.87,0V239.563H2.332a278.029,278.029,0,0,0,0,71.87H239.565V548.668a278.033,278.033,0,0,0,71.87,0V311.437H548.668a278.033,278.033,0,0,0,0-71.87Z" fill="#d80027"/>
        <path id="Path_2255" data-name="Path 2255" d="M322.783,322.784h0L445.721,445.722q8.481-8.478,16.194-17.687L356.663,322.783h-33.88Z" transform="translate(24.587 24.587)" fill="#d80027"/>
        <path id="Path_2256" data-name="Path 2256" d="M197.919,322.784h0L74.98,445.721q8.478,8.481,17.687,16.194L197.919,356.661V322.784Z" transform="translate(5.711 24.587)" fill="#d80027"/>
        <path id="Path_2257" data-name="Path 2257" d="M199.065,197.921v0L76.127,74.98q-8.481,8.478-16.194,17.687L165.186,197.92h33.879Z" transform="translate(4.565 5.711)" fill="#d80027"/>
        <path id="Path_2258" data-name="Path 2258" d="M322.783,199.067h0L445.722,76.127q-8.478-8.481-17.687-16.193L322.783,165.187Z" transform="translate(24.587 4.565)" fill="#d80027"/>
      </g>
    </g>
    <g id="Group_10758" data-name="Group 10758" transform="translate(-120 -509)">
      <g transform="matrix(1, 0, 0, 1, -1652, 6369)" filter="url(#Subtraction_3)">
        <path id="Subtraction_3-2" data-name="Subtraction 3" d="M78.844,468.444h0A275.857,275.857,0,0,1,21.133,381.51,274.132,274.132,0,0,1,5.461,330.356,277.607,277.607,0,0,1,0,275.5v-.486c0-.122,0-.244,0-.366,0-.037,0-.085,0-.122V274.4c0-.042,0-.085,0-.127s0-.083,0-.125,0-.085,0-.127c0-.025,0-.051,0-.077v-.015c0-.031,0-.061,0-.092a277.421,277.421,0,0,1,5.621-53.99,273.954,273.954,0,0,1,39.925-96.13A276.454,276.454,0,0,1,161.828,24.473,274.137,274.137,0,0,1,265.02.2h.009l.761-.027h.033l.122,0,.049,0,.141,0,.15-.005h.017l.223-.007.052,0,.276-.009h.09l.145,0,.113,0,.108,0,.282-.008.28-.008L268.095.1l.173,0,.1,0,.1,0,.107,0,.107,0,.3-.007.084,0h.018l.1,0,.093,0,.1,0,.09,0h.018l.106,0,.17,0,.177,0,.177,0h.055l.1,0,.094,0h.021l.115,0h.067l.1,0h.043l.253,0h.2l.258,0h.177l.251,0h.129l.361,0h.19l.219,0h.127l.383,0h.021l.285,0H275.5a277.634,277.634,0,0,1,54.857,5.461,273.917,273.917,0,0,1,97.538,40.488,277.413,277.413,0,0,1,40.549,32.9l-389.6,389.6Z" transform="translate(15 5)" fill="#f0f0f0"/>
      </g>
      <g id="Mask_Group_4" data-name="Mask Group 4" transform="translate(-229 -808)" clip-path="url(#clip-path)">
        <g id="united-states" transform="translate(-1408 7182)">
          <circle id="Ellipse_77" data-name="Ellipse 77" cx="275.5" cy="275.5" r="275.5" fill="#f0f0f0"/>
          <g id="Group_10753" data-name="Group 10753" transform="translate(9.491 59.891)">
            <path id="Path_2241" data-name="Path 2241" d="M244.87,261.087H532.348a275.8,275.8,0,0,0-9.491-71.87H244.87Z" transform="translate(9.161 -45.478)" fill="#d80027"/>
            <path id="Path_2242" data-name="Path 2242" d="M244.87,127.522H491.912a276.952,276.952,0,0,0-63.569-71.87H244.87Z" transform="translate(9.161 -55.652)" fill="#d80027"/>
            <path id="Path_2243" data-name="Path 2243" d="M268.138,516.239a274.318,274.318,0,0,0,171.494-59.891H96.644A274.318,274.318,0,0,0,268.138,516.239Z" transform="translate(-2.129 -25.13)" fill="#d80027"/>
            <path id="Path_2244" data-name="Path 2244" d="M39.764,394.652H509.892a273.856,273.856,0,0,0,30.945-71.87H8.819A273.857,273.857,0,0,0,39.764,394.652Z" transform="translate(-8.819 -35.304)" fill="#d80027"/>
          </g>
          <path id="Path_2245" data-name="Path 2245" d="M127.617,43.023h25.106L129.37,59.989l8.92,27.452L114.938,70.475,91.587,87.441l7.705-23.716a277.014,277.014,0,0,0-53.434,59.552H53.9l-14.865,10.8q-3.474,5.8-6.666,11.771l7.1,21.847-13.243-9.622q-4.938,10.462-9.01,21.387l7.821,24.072H53.9L30.549,220.5l8.92,27.452L16.118,230.984,2.13,241.148A278.157,278.157,0,0,0,0,275.5H275.5V0A274.2,274.2,0,0,0,127.617,43.023ZM138.29,247.95l-23.352-16.966L91.587,247.95l8.92-27.452L77.154,203.532h28.865l8.919-27.452,8.919,27.452h28.865L129.37,220.5Zm-8.92-107.707,8.92,27.452L114.938,150.73,91.587,167.7l8.92-27.452L77.154,123.278h28.865l8.919-27.452,8.919,27.452h28.865ZM237.111,247.95l-23.352-16.966L190.407,247.95l8.92-27.452-23.353-16.966H204.84l8.919-27.452,8.919,27.452h28.865L228.19,220.5Zm-8.92-107.707,8.92,27.452L213.759,150.73,190.407,167.7l8.92-27.452-23.353-16.966H204.84l8.919-27.452,8.919,27.452h28.865Zm0-80.254,8.92,27.452L213.759,70.475,190.407,87.441l8.92-27.452L175.975,43.023H204.84l8.919-27.452,8.919,27.452h28.865Z" fill="#142a78"/>
        </g>
      </g>
    </g>
  </g>
</svg>
