<svg id="Layer_1" data-name="Layer 1" xmlns="http://www.w3.org/2000/svg" viewBox="0 0 566.93 566.93"><defs><style>.cls-1{fill:#eae0c7;}.cls-2{fill:#14afbb;}</style></defs><rect class="cls-1" width="566.93" height="566.93"/><path class="cls-2" d="M413.64,269.7A29.34,29.34,0,1,1,384.31,299a29.37,29.37,0,0,1,29.33-29.33m0-19A48.32,48.32,0,1,0,462,299a48.32,48.32,0,0,0-48.33-48.32Z"/><path class="cls-2" d="M517,273.14v-19H490.19V230.8h-19v84.63a30.24,30.24,0,0,0,30.21,30.21H511.7v-19H501.41a11.23,11.23,0,0,1-11.22-11.22V273.14Z"/><rect class="cls-2" x="145.04" y="255.01" width="18.99" height="89.76"/><path class="cls-2" d="M345.58,255c-7.47,41.65-20.28,73.37-27.25,73.37S298.54,296.66,291.07,255H271.75c5.73,34.32,19.42,92.36,46.58,92.36s40.85-58,46.57-92.36Z"/><path class="cls-2" d="M248.37,255c-7.47,41.65-20.27,73.37-27.25,73.37S201.34,296.66,193.87,255H174.55c5.72,34.32,19.42,92.36,46.57,92.36s40.85-58,46.57-92.36Z"/><circle class="cls-2" cx="154.53" cy="231.64" r="12.08"/><path class="cls-2" d="M50,230.8H93c25.55,0,41.44,14.49,41.44,36.46v.31c0,24.46-19.63,37.24-43.62,37.24H69.15v39.82H50Zm41.45,56.71c14.48,0,23.52-8.1,23.52-19.47v-.31c0-12.78-9.19-19.48-23.52-19.48H69.15v39.26Z"/></svg>