<svg xmlns="http://www.w3.org/2000/svg" width="24" height="24" fill="none" viewBox="0 0 24 24">
    <path fill="#6E6B6B" fill-rule="evenodd" d="M11.2 5.6c0-.442.358-.8.8-.8.442 0 .8.358.8.8v6.87l1.834-1.835c.313-.312.82-.312 1.132 0 .312.313.312.819 0 1.132l-3.2 3.2c-.313.312-.82.312-1.132 0l-3.2-3.2c-.312-.313-.312-.82 0-1.132.313-.312.82-.312 1.132 0L11.2 12.47V5.6zm-5.6 12h12.8v-4.8c0-.441.358-.8.8-.8.442 0 .8.359.8.8v5.6c0 .443-.358.8-.8.8H4.8c-.442 0-.8-.357-.8-.8v-5.6c0-.441.358-.8.8-.8.442 0 .8.359.8.8v4.8z" clip-rule="evenodd"/>
</svg>
