<svg xmlns="http://www.w3.org/2000/svg" width="24" height="24" fill="none" viewBox="0 0 24 24">
    <path fill="#fff" fill-rule="evenodd" d="M7.472 3.2H18.51v15.476h-.92V4.119l-10.12.045V3.2zM5.716 6.301h9.693v12.603l-.6.6-1.061-1.061-1.082 1.064-1.055-1.055-1.072 1.055-1.055-1.055-1.073 1.055-1.067-1.067-1.063 1.064-.565-.564V6.3zM4.8 19.32L6.28 20.8l1.064-1.064 1.062 1.061 1.072-1.055 1.055 1.055 1.073-1.055 1.055 1.055 1.082-1.064 1.066 1.067 1.517-1.517V5.385H4.8v13.934zm6.489-5.876c-.114-.279-.46-.36-.73-.44-.303-.09-.62-.17-.881-.35-.78-.538-.725-1.838.178-2.232.092-.04.19-.067.288-.088l-.082-.637h.975l-.083.648c.162.037.319.095.457.183.294.185.453.482.522.799l-.779.154c-.037-.11-.097-.214-.19-.288-.107-.087-.252-.127-.393-.131-.254-.008-.585.057-.681.313-.054.141-.018.305.09.415.097.097.332.199.706.305.374.106.65.216.83.329.178.113.318.268.42.464.3.583.177 1.45-.375 1.865-.172.13-.38.212-.596.255l.072.558h-.975l.074-.575c-.206-.052-.4-.14-.562-.273-.31-.253-.47-.63-.543-1.015l.742-.168c.064.399.36.714.799.714.247 0 .434-.063.56-.189.16-.16.244-.403.157-.616zm-.726 3.2c2.216 0 4.013-1.796 4.013-4.012 0-2.216-1.797-4.013-4.013-4.013-2.217 0-4.013 1.796-4.013 4.013 0 2.216 1.796 4.013 4.013 4.013z" clip-rule="evenodd"/>
</svg>
