<svg xmlns="http://www.w3.org/2000/svg" width="24" height="24" fill="none" viewBox="0 0 24 24">
    <path fill="#fff" fill-rule="evenodd" d="M12.322 3.2c2.559 0 4.643 2.085 4.643 4.644 0 2.558-2.085 4.643-4.643 4.643-2.56 0-4.644-2.085-4.644-4.643 0-2.56 2.085-4.644 4.644-4.644zm0 .974c-2.027 0-3.67 1.643-3.67 3.67 0 2.026 1.643 3.669 3.67 3.669 2.026 0 3.67-1.643 3.67-3.67 0-2.026-1.644-3.669-3.67-3.669zM5.626 15.5L5.6 20.314c0 .266.22.487.487.487h12.47c.266 0 .487-.22.487-.487v-4.676l-.007-.11-.013-.02c-.097-1.559-.799-2.663-2.085-3.293-.487-.227-1.052-.396-1.727-.506l-.098-.013-.201.065-.11.071c-.254.24-.54.442-.864.591-.994.507-2.228.5-3.234-.006-.312-.15-.598-.345-.845-.585l-.078-.071-.253-.078-.097.013c-2.423.415-3.67 1.656-3.806 3.806zm9.527-3.792h.026l-.117.013c.026-.007.052-.013.091-.013zm-2.032 2.006l-.8 1.442-.798-1.442c.526.098 1.072.098 1.598 0zm-3.748-1c.24.202.494.377.76.513l1.76 3.17c.169.312.682.312.85 0l1.76-3.17c.274-.142.527-.311.767-.513.487.098.896.221 1.247.384 1.059.513 1.552 1.402 1.552 2.799v3.929h-4.74v-.033c0-.552-.455-1.006-1.007-1.006-.552 0-1.007.454-1.007 1.006v.033h-4.74v-3.93c0-1.844.837-2.805 2.798-3.182zm2.949 6.008c.556 0 1.007-.45 1.007-1.007 0-.556-.451-1.006-1.007-1.006-.556 0-1.007.45-1.007 1.006s.45 1.007 1.007 1.007z" clip-rule="evenodd"/>
</svg>
