<svg xmlns="http://www.w3.org/2000/svg" width="14" height="14" fill="none" viewBox="0 0 14 14">
    <path fill="#fff" fill-rule="evenodd" d="M7 6.533c-1.288 0-2.333-1.044-2.333-2.333 0-1.289 1.045-2.333 2.334-2.333 1.288 0 2.333 1.044 2.333 2.333 0 1.289-1.045 2.333-2.333 2.333zM7 5.6c.774 0 1.4-.627 1.4-1.4 0-.773-.626-1.4-1.4-1.4-.772 0-1.4.627-1.4 1.4 0 .773.628 1.4 1.4 1.4zm-3.743 6.067c.258.005.471-.199.477-.457.057-2.56 1.11-3.277 3.267-3.277 2.277 0 3.321.709 3.264 3.257-.005.257.199.47.457.477.257.005.47-.199.476-.457C11.267 8.159 9.823 7 7.001 7c-2.696 0-4.132 1.15-4.2 4.19-.006.257.198.47.456.477z" clip-rule="evenodd"/>
</svg>
