<svg width="25" height="24" viewBox="0 0 25 24" fill="none" xmlns="http://www.w3.org/2000/svg">
<rect x="0.990234" width="24" height="24" rx="2" fill="#14B1BD"/>
<path d="M12.8393 13.3104H11.3773V11.8483H9.9152V10.3862H11.3773V8.92415H12.8393V10.3862H14.3014V11.8483H12.8393V13.3104Z" fill="white"/>
<path fill-rule="evenodd" clip-rule="evenodd" d="M15.1714 15.2147C14.2881 15.878 13.213 16.236 12.1083 16.2345C10.9559 16.235 9.83705 15.8463 8.93298 15.1316C8.02892 14.4169 7.39257 13.418 7.12699 12.2965C6.86142 11.1751 6.98215 9.99685 7.46966 8.95259C7.95717 7.90833 8.78289 7.0592 9.81312 6.5427C10.8434 6.02621 12.0178 5.87259 13.1462 6.10673C14.2746 6.34087 15.2909 6.94905 16.0306 7.83279C16.7703 8.71654 17.1901 9.82409 17.2218 10.9761C17.2536 12.1281 16.8956 13.2571 16.2058 14.1803L18.9911 16.9656L17.9567 18L15.1714 15.2147ZM14.1391 8.07809C13.538 7.67646 12.8313 7.46208 12.1083 7.46208C11.1389 7.46208 10.2092 7.84718 9.52374 8.53266C8.83826 9.21814 8.45316 10.1479 8.45316 11.1173C8.45316 11.8402 8.66753 12.5469 9.06917 13.148C9.4708 13.7491 10.0417 14.2176 10.7096 14.4942C11.3775 14.7709 12.1124 14.8433 12.8214 14.7022C13.5305 14.5612 14.1818 14.2131 14.693 13.7019C15.2041 13.1907 15.5523 12.5394 15.6933 11.8304C15.8343 11.1213 15.762 10.3864 15.4853 9.71849C15.2087 9.05059 14.7402 8.47973 14.1391 8.07809Z" fill="white"/>
</svg>
