<svg id="Layer_1" data-name="Layer 1" xmlns="http://www.w3.org/2000/svg" viewBox="0 0 566.93 566.93"><defs><style>.cls-1{fill:#2c3b3b;}</style></defs><path class="cls-1" d="M282.62,70.87a20.2,20.2,0,1,0,20.2,20.2A20.22,20.22,0,0,0,282.62,70.87Zm0,32.47a12.27,12.27,0,1,1,12.26-12.27A12.28,12.28,0,0,1,282.62,103.34Z"/><path class="cls-1" d="M271.22,116.8c3.13,17.4,8.48,30.66,11.4,30.66S290.88,134.2,294,116.8h8.07c-2.39,14.34-8.11,38.6-19.46,38.6s-17.08-24.26-19.47-38.6Z"/><path class="cls-1" d="M271.22,197.92c3.13-17.41,8.48-30.67,11.4-30.67s8.26,13.26,11.39,30.67h8.07c-2.39-14.35-8.11-38.61-19.46-38.61s-17.08,24.26-19.47,38.61Z"/><path class="cls-1" d="M291.66,434.57a17.47,17.47,0,1,1-17.46-17.46,17.48,17.48,0,0,1,17.46,17.46m11.3,0a28.77,28.77,0,1,0-28.76,28.76A28.76,28.76,0,0,0,303,434.57Z"/><path class="cls-1" d="M289.61,496.06h11.3V480.13h13.9v-11.3H264.43a18,18,0,0,0-18,18v6.13h11.3v-6.13a6.69,6.69,0,0,1,6.68-6.68h25.18Z"/><rect class="cls-1" x="246.96" y="274.67" width="53.44" height="11.3"/><path class="cls-1" d="M300.4,394.05c-24.79-4.45-43.67-12.07-43.67-16.22s18.88-11.78,43.67-16.23V350.1c-20.43,3.41-55,11.56-55,27.73s34.55,24.31,55,27.72Z"/><path class="cls-1" d="M300.4,336.18c-24.79-4.44-43.67-12.06-43.67-16.22s18.88-11.77,43.67-16.22v-11.5c-20.43,3.4-55,11.56-55,27.72s34.55,24.32,55,27.73Z"/><circle class="cls-1" cx="314.31" cy="280.32" r="7.19"/><path class="cls-1" d="M314.81,218.09v25.59c0,15.21-8.62,24.67-21.7,24.67h-.18c-14.56,0-22.17-11.68-22.17-26V229.49H247.05v-11.4Zm-33.75,24.66c0,8.63,4.82,14,11.59,14h.18c7.61,0,11.6-5.47,11.6-14V229.49H281.06Z"/></svg>